<?xml version="1.0" standalone="no"?>
<!DOCTYPE svg PUBLIC "-//W3C//DTD SVG 1.1//EN" "http://www.w3.org/Graphics/SVG/1.1/DTD/svg11.dtd" >
<svg xmlns="http://www.w3.org/2000/svg" xmlns:xlink="http://www.w3.org/1999/xlink" version="1.1">
<metadata>
Created by FontForge 20201107 at Sat Mar 15 03:53:35 2025
 By 
Copyright (c) The Font Bureau, Inc., 2003. All rights reserved.
</metadata>
<defs>
<font id="Stainless-Black" horiz-adv-x="1275" >
  <font-face 
    font-family="Stainless Black"
    font-weight="900"
    font-stretch="normal"
    units-per-em="2048"
    panose-1="2 0 5 3 5 0 0 2 0 4"
    ascent="1638"
    descent="-410"
    x-height="993"
    cap-height="1507"
    bbox="-182 -457 3539 2050"
    underline-thickness="40"
    underline-position="-271"
    unicode-range="U+0020-FB02"
  />
<missing-glyph horiz-adv-x="1024" 
 />
    <glyph glyph-name="fi" unicode="fi" horiz-adv-x="1386" 
d="M209 0v690h-137v303h137v129q0 68 10 115.5t42 89t76.5 70t129 58t183 54t253.5 56.5l66 -308q-116 -29 -179.5 -48t-109 -35t-62.5 -33.5t-22.5 -33.5t-5.5 -46v-68h667v-993h-383v694h-284v-694h-381z" />
    <glyph glyph-name="fl" unicode="fl" horiz-adv-x="1384" 
d="M874 0v1548h381v-1548h-381zM209 0v690h-137v303h137v97q0 58 2 96.5t8.5 81t19 70t33.5 57.5t52 50t75 40t101.5 35.5t132.5 29.5l100 -344q-37 -10 -59 -17t-39.5 -17.5t-25.5 -18.5t-13 -25.5t-5.5 -33t-0.5 -45.5v-56h143v-303h-143v-690h-381z" />
    <glyph glyph-name="f_f_l" unicode="ffl" horiz-adv-x="2050" 
d="M1540 0v1548h381v-1548h-381zM209 0v690h-137v303h137v76q0 79 3.5 121t19 94.5t47.5 80t89.5 58.5t145 50.5t213.5 35.5l66 -344q-44 -8 -74.5 -15t-53.5 -14t-36.5 -18t-22 -19.5t-11.5 -27t-4 -32t-1 -42.5v-4h284v97q0 58 2 96.5t8.5 81t19 70t33.5 57.5t52 50t75 40
t101.5 35.5t132.5 29.5l101 -344q-44 -12 -68.5 -21.5t-41.5 -19t-23.5 -27.5t-8.5 -35.5t-2 -53.5v-56h144v-303h-144v-690h-381v690h-284v-690h-381z" />
    <glyph glyph-name="f_f_i" unicode="ffi" horiz-adv-x="2052" 
d="M209 0v690h-137v303h137v76q0 79 3.5 121t19 94.5t47.5 80t89.5 58.5t145 50.5t213.5 35.5l66 -344q-44 -8 -74.5 -15t-53.5 -14t-36.5 -18t-22 -19.5t-11.5 -27t-4 -32t-1 -42.5v-4h284v129q0 68 10 115.5t42 89t77 70t129 58t183 54t254 56.5l65 -308
q-116 -29 -179.5 -48t-109 -35t-62.5 -33.5t-22.5 -33.5t-5.5 -46v-68h668v-993h-383v694h-285v-694h-381v694h-284v-694h-381z" />
    <glyph glyph-name="f_j" unicode="fj" horiz-adv-x="1386" 
d="M727 -406l-53 332q49 8 83.5 17t57 22.5t35 25.5t18.5 34t7.5 39.5t1.5 50.5v579h-287v-694h-381v690h-137v303h137v129q0 68 10 115.5t42 89t76.5 70t129 58t183 54t253.5 56.5l66 -308q-116 -29 -179.5 -48t-109 -35t-62.5 -33.5t-22.5 -33.5t-5.5 -46v-68h667v-970
q0 -61 -4 -104.5t-17 -89t-36.5 -76.5t-62.5 -60.5t-95.5 -48t-134.5 -31.5t-180 -19z" />
    <glyph glyph-name="f_f" unicode="ff" horiz-adv-x="1515" 
d="M209 0v690h-137v303h137v76q0 79 3.5 121t19 94.5t47.5 80t89.5 58.5t145 50.5t213.5 35.5l66 -344q-44 -8 -74.5 -15t-53.5 -14t-36.5 -18t-22 -19.5t-11.5 -27t-4 -32t-1 -42.5v-4h284v117q0 79 3.5 121t19 94.5t48 80t90 58.5t145 50.5t213.5 35.5l65 -344
q-44 -8 -74.5 -15t-53.5 -14t-36.5 -18t-22 -19.5t-11.5 -27t-4 -32t-1 -42.5v-45h203v-303h-203v-690h-381v690h-284v-690h-381z" />
    <glyph glyph-name="f_t" unicode="ft" horiz-adv-x="1570" 
d="M1204 -10q-188 0 -259 69.5t-71 255.5v375h-284v-690h-381v690h-137v303h137v117q0 79 3.5 121t19 94.5t47.5 80t89.5 58.5t145 50.5t213.5 35.5l66 -344q-44 -8 -74.5 -15t-53.5 -14t-36.5 -18t-22 -19.5t-11.5 -27t-4 -32t-1 -42.5v-45h284v295l383 41v-336h224v-303
h-224v-276q0 -82 23 -110t84 -28q30 0 127 11l16 -277q-38 -7 -134.5 -13.5t-168.5 -6.5z" />
    <glyph glyph-name=".notdef" horiz-adv-x="1024" 
 />
    <glyph glyph-name=".null" horiz-adv-x="0" 
 />
    <glyph glyph-name="nonmarkingreturn" horiz-adv-x="682" 
 />
    <glyph glyph-name="space" unicode=" " horiz-adv-x="583" 
 />
    <glyph glyph-name="space" unicode="&#xa0;" horiz-adv-x="583" 
 />
    <glyph glyph-name="exclam" unicode="!" horiz-adv-x="798" 
d="M236 473l-86 1034h499l-88 -1034h-325zM180 0v369h436v-369h-436z" />
    <glyph glyph-name="quotedbl" unicode="&#x22;" horiz-adv-x="1112" 
d="M657 924l-65 583h446l-65 -583h-316zM139 924l-65 583h448l-67 -583h-316z" />
    <glyph glyph-name="numbersign" unicode="#" horiz-adv-x="1380" 
d="M160 -41l69 418h-155v276h202l33 201h-235v276h282l70 418h291l-70 -418h209l70 418h291l-70 -418h158v-276h-205l-33 -201h238v-276h-285l-70 -418h-291l70 418h-209l-69 -418h-291zM551 637h237l37 233h-237z" />
    <glyph glyph-name="dollar" unicode="$" horiz-adv-x="1294" 
d="M504 1522v178h313v-180q254 -18 348 -47l-65 -328q-285 41 -473 41q-96 0 -130 -24t-34 -91q0 -29 4.5 -46t15.5 -32t39 -25t65 -19t103 -21q96 -17 155.5 -29.5t122 -30t96.5 -34t69 -43.5t51 -56.5t29.5 -74t17.5 -95t4 -121.5q0 -220 -94 -326t-324 -130v-207h-313
v203q-255 10 -428 49l57 332q46 -11 222 -31.5t268 -20.5q95 0 140 12.5t59 37.5t14 79q0 47 -14 68.5t-65.5 39.5t-174.5 40q-111 20 -185 39t-135 47.5t-95 61.5t-57.5 85.5t-31.5 115t-8 153.5q0 208 108 309.5t326 120.5z" />
    <glyph glyph-name="percent" unicode="%" horiz-adv-x="2553" 
d="M549 506q-84 0 -146.5 8.5t-119 29t-94.5 57.5t-66.5 93.5t-41.5 136t-13 185.5q0 126 20.5 217t58 148t99.5 90.5t134 46t173 12.5q84 0 146 -8.5t118.5 -29t94.5 -57.5t66 -93.5t41 -136t13 -185.5t-13.5 -186t-42 -136.5t-67 -94t-95 -59t-119 -30t-146.5 -8.5zM844 0
l526 1507h342l-526 -1507h-342zM2003 -27q-84 0 -146.5 8.5t-119 29t-94.5 57.5t-66.5 93.5t-41.5 136t-13 185.5q0 126 20.5 217t58 148t99 90.5t133.5 46t172 12.5q84 0 146.5 -8.5t119 -29t94.5 -57.5t66.5 -93.5t41.5 -136t13 -185.5q0 -126 -20.5 -217t-58 -148
t-99 -90.5t-133.5 -46t-172 -12.5zM553 754q90 0 116.5 41.5t26.5 183.5v74q0 140 -27.5 180.5t-119.5 40.5q-48 0 -74 -7t-42.5 -31.5t-21.5 -64.5t-5 -114v-74q0 -141 28 -185t119 -44zM2005 221q91 0 118 42t27 183v74q0 96 -12.5 142t-42.5 62.5t-92 16.5q-48 0 -74 -7
t-43.5 -31.5t-22.5 -64.5t-5 -114v-73q0 -141 29 -185.5t118 -44.5z" />
    <glyph glyph-name="ampersand" unicode="&#x26;" horiz-adv-x="1689" 
d="M1241 438l408 -438h-467l-119 127q-67 -93 -138 -120t-214 -27q-72 0 -125.5 2t-111 8.5t-99 17.5t-83.5 29.5t-71 44.5t-54.5 62.5t-40.5 83t-23.5 106.5t-8.5 133q0 158 71.5 244.5t240.5 128.5q-60 76 -84.5 138t-24.5 134q0 125 27.5 205t95.5 128.5t170 67.5t262 19
q246 0 418 -43l-47 -336q-224 39 -406 39q-87 0 -119 -19.5t-32 -62.5q0 -20 4 -35t8.5 -26.5t22.5 -32.5t32.5 -37t53 -56t69.5 -73l162 -174l131 252h348zM848 358l-279 299q-33 -10 -55 -23.5t-34 -26.5t-17.5 -38.5t-6.5 -44t-1 -57.5q0 -29 3.5 -52t8.5 -40.5t16 -30.5
t20.5 -22t28 -15t32.5 -9t40.5 -4.5t44 -2t51.5 -0.5q57 0 86.5 12t61.5 55z" />
    <glyph glyph-name="quotesingle" unicode="'" horiz-adv-x="595" 
d="M139 924l-65 583h448l-67 -583h-316z" />
    <glyph glyph-name="parenleft" unicode="(" horiz-adv-x="872" 
d="M799 -328q-119 0 -205 7t-163 26.5t-128.5 50t-94.5 83t-68 118.5t-42 163t-23.5 211.5t-6.5 268.5t6.5 269t23.5 214t42 167t68 122t95 86t128 53t163 29t205 8v-315q-75 0 -124.5 -3t-93.5 -17.5t-69.5 -29.5t-47.5 -55.5t-31 -78t-16 -113.5t-8 -145.5t-1 -190.5
q0 -120 1 -189t8 -143.5t16 -111t31 -75.5t47 -53.5t70 -28.5t94 -16.5t124 -2.5v-308z" />
    <glyph glyph-name="parenright" unicode=")" horiz-adv-x="872" 
d="M72 -328v308q60 0 102 1.5t82.5 9.5t66 16t49 30.5t36.5 41.5t25 61t16.5 78t8.5 102.5t4.5 125t0.5 154.5q0 122 -1 191t-7.5 145.5t-16 113.5t-31 77.5t-47 55.5t-69.5 29.5t-94 17.5t-125 3v315q118 0 205 -7.5t163.5 -29t128.5 -53.5t94.5 -86.5t67.5 -122t42 -166.5
t23.5 -214t6.5 -269t-6 -268.5t-23.5 -211.5t-42 -163t-68 -118.5t-94.5 -83t-128.5 -50t-163.5 -26.5t-205 -7z" />
    <glyph glyph-name="asterisk" unicode="*" horiz-adv-x="1202" 
d="M471 410l25 368l-293 -207l-129 234l315 164l-313 164l129 235l291 -207l-25 371h256l-20 -371l290 207l129 -235l-313 -164l315 -164l-129 -234l-290 205l18 -366h-256z" />
    <glyph glyph-name="plus" unicode="+" horiz-adv-x="1112" 
d="M414 231v334h-330v277h330v334h284v-334h330v-277h-330v-334h-284z" />
    <glyph glyph-name="comma" unicode="," horiz-adv-x="757" 
d="M322 -279l-195 103l66 565h464z" />
    <glyph glyph-name="hyphen" unicode="-" horiz-adv-x="757" 
d="M82 455v290h596v-290h-596z" />
    <glyph glyph-name="hyphen" unicode="&#xad;" horiz-adv-x="757" 
d="M82 455v290h596v-290h-596z" />
    <glyph glyph-name="period" unicode="." horiz-adv-x="757" 
d="M147 0v389h461v-389h-461z" />
    <glyph glyph-name="slash" unicode="/" horiz-adv-x="870" 
d="M0 0l530 1507h340l-530 -1507h-340z" />
    <glyph glyph-name="zero" unicode="0" horiz-adv-x="1474" 
d="M735 -25q-149 0 -256 24t-188 77.5t-128.5 144.5t-71 221t-23.5 312t23.5 312t72 221t129.5 144.5t188.5 77t257.5 23.5t256.5 -23t187.5 -76t129 -143.5t71.5 -220t23.5 -311.5q0 -227 -35.5 -376t-118.5 -240.5t-206.5 -129t-311.5 -37.5zM739 307q54 0 93 6.5t69.5 24
t49.5 43.5t31 68t17 95.5t5 127.5v164q0 147 -24 222t-80 104.5t-165 29.5q-66 0 -109 -9.5t-75 -31t-48.5 -63t-24 -100.5t-7.5 -148v-164q0 -148 23.5 -225.5t80 -110.5t164.5 -33z" />
    <glyph glyph-name="one" unicode="1" horiz-adv-x="770" 
d="M240 0v1182h-209v325h610v-1507h-401z" />
    <glyph glyph-name="two" unicode="2" horiz-adv-x="1304" 
d="M68 0v295l471 362q64 50 100 78.5t69.5 60.5t48 52.5t26 49.5t14 56t2.5 68q0 64 -18.5 97.5t-69.5 50t-148 16.5q-128 0 -253.5 -14.5t-164.5 -24.5l-51 340q75 20 211 32.5t262 12.5t216 -9t160.5 -32t114.5 -57.5t72.5 -90.5t40 -126.5t11.5 -169.5q0 -65 -5 -111
t-20.5 -92.5t-38.5 -82.5t-67 -81.5t-96.5 -89.5t-135.5 -107l-221 -168h627v-315h-1157z" />
    <glyph glyph-name="three" unicode="3" horiz-adv-x="1300" 
d="M98 -27l-24 326q355 11 513 32t210 68q43 38 43 123q0 67 -39 103q-20 18 -47.5 30.5t-83.5 22.5t-86.5 14t-122.5 15v233l252 223h-645v344h1052v-340l-280 -254q213 -47 297 -137q45 -48 62.5 -113t17.5 -157q0 -189 -56 -281q-51 -84 -168 -134.5t-331 -79t-564 -38.5
z" />
    <glyph glyph-name="four" unicode="4" horiz-adv-x="1431" 
d="M811 0v246h-756v356l572 905h397l-590 -942h377v410h383v-410h164v-319h-164v-246h-383z" />
    <glyph glyph-name="five" unicode="5" horiz-adv-x="1355" 
d="M160 -27l-25 326q355 11 513 32t210 68q43 38 43 123q0 67 -39 103q-45 42 -237.5 75.5t-503.5 40.5l22 766h1041v-346h-713l-6 -135q305 -24 476 -74t247 -129q55 -58 72.5 -132t17.5 -185q0 -191 -55 -281q-51 -84 -168 -134.5t-331 -79t-564 -38.5z" />
    <glyph glyph-name="six" unicode="6" horiz-adv-x="1402" 
d="M702 -23q-87 0 -157 5t-129 18.5t-103.5 30.5t-81 47t-61.5 62t-43.5 81.5t-29.5 99.5t-18 122t-9 143t-2 168v6q0 234 37 361.5t141 207.5q94 70 328 123t583 82l41 -326q-373 -46 -518 -74.5t-193 -70.5q-20 -16 -29.5 -44t-10.5 -50.5t-1 -69.5v-18q35 9 165.5 23
t211.5 14q95 0 157 -2t121 -11.5t92.5 -21.5t64 -39t44.5 -57.5t25 -82.5t13.5 -109t2.5 -142q0 -99 -16 -170.5t-58 -132t-114 -97t-184.5 -56.5t-268.5 -20zM707 270q144 0 202 37t58 135q0 43 -1.5 67.5t-8 49t-17.5 36.5t-31.5 22t-49.5 13t-73 3q-201 0 -340 -25v-67
q0 -81 10 -129.5t39 -82t79.5 -46.5t132.5 -13z" />
    <glyph glyph-name="seven" unicode="7" horiz-adv-x="1339" 
d="M268 0l611 1161h-811v346h1216v-354l-573 -1153h-443z" />
    <glyph glyph-name="eight" unicode="8" horiz-adv-x="1488" 
d="M737 -23q-161 0 -275 16.5t-191 48.5t-121.5 86.5t-63 123t-18.5 166.5q0 77 9.5 125t40 92t83.5 77.5t145 73.5q-68 34 -110.5 68t-65 76t-30 84.5t-7.5 105.5q0 97 18.5 164.5t59 117t113 77t172 40.5t243.5 13q181 0 298.5 -19.5t195 -68t110.5 -126.5t33 -198
q0 -37 -0.5 -56t-4.5 -48t-12 -45.5t-23 -40t-38 -42t-55.5 -40.5t-77.5 -45q84 -38 133.5 -73t77 -82t35.5 -97.5t8 -132.5q0 -122 -31 -202t-108.5 -135.5t-209 -79.5t-333.5 -24zM889 909q45 22 68.5 38.5t35.5 41.5t14.5 48t2.5 73q0 34 -16.5 55t-56 31t-82.5 13
t-118 3q-135 0 -177 -17.5t-42 -84.5q0 -21 2.5 -34.5t12 -25.5t19 -19t33.5 -17t44.5 -16.5t63.5 -20.5t79 -27zM737 289q167 0 228 29t61 110q0 44 -8.5 68.5t-39 45.5t-76 38.5t-133.5 46.5q-50 16 -79 26l-84 29q-32 -15 -53 -26t-39.5 -24t-29 -21.5t-19.5 -25
t-12.5 -27.5t-5.5 -35t-2.5 -41.5t-0.5 -53.5q0 -80 65 -109.5t228 -29.5z" />
    <glyph glyph-name="nine" unicode="9" horiz-adv-x="1402" 
d="M246 -29l-41 316q596 53 708 155q7 6 12.5 13.5t9.5 13.5t7 16.5t5 16.5t3.5 19.5t2 18.5t1 21.5t0.5 21v23.5v23q-35 -9 -164 -23t-210 -14q-95 0 -157 2t-121 11t-93 21.5t-65 39t-45 57.5t-25 83t-14 109t-3 142q0 99 16.5 170t58.5 131.5t114.5 97t185 56.5t268.5 20
q87 0 157 -5t129 -18.5t104 -30.5t81 -46.5t61.5 -62t44 -81.5t29.5 -99.5t18 -122t9 -142.5t2 -168v-8q0 -232 -36.5 -357t-141.5 -205q-91 -69 -333 -128t-578 -87zM616 877q208 0 338 24v68q0 81 -9.5 128t-38.5 79t-78 43.5t-132 11.5q-146 0 -203 -33.5t-57 -130.5
q0 -43 1.5 -67.5t7.5 -49t17 -36t32 -21.5t49.5 -13t72.5 -3z" />
    <glyph glyph-name="colon" unicode=":" horiz-adv-x="747" 
d="M147 606v389h451v-389h-451zM147 0v389h451v-389h-451z" />
    <glyph glyph-name="semicolon" unicode=";" horiz-adv-x="747" 
d="M147 606v389h451v-389h-451zM311 -279l-184 103l66 565h454z" />
    <glyph glyph-name="less" unicode="&#x3c;" horiz-adv-x="888" 
d="M469 238l-426 460l426 473h340l-426 -473l426 -460h-340z" />
    <glyph glyph-name="equal" unicode="=" horiz-adv-x="1073" 
d="M111 774v254h852v-254h-852zM111 373v254h852v-254h-852z" />
    <glyph glyph-name="greater" unicode="&#x3e;" horiz-adv-x="888" 
d="M80 238l426 473l-426 460h340l426 -460l-426 -473h-340z" />
    <glyph glyph-name="question" unicode="?" horiz-adv-x="1345" 
d="M420 473v291q116 47 183 76t122.5 58t79.5 45t40 41t18.5 43.5t2.5 53.5q0 65 -48 88t-189 23q-121 0 -281 -18.5t-213 -32.5l-61 344q73 21 241 37t314 16q158 0 266.5 -14t183 -42.5t116 -79.5t58.5 -117t17 -163q0 -66 -6.5 -112.5t-26 -93t-52.5 -82.5t-88.5 -74
t-130.5 -73.5t-182 -76.5v-137h-364zM379 0v369h436v-369h-436z" />
    <glyph glyph-name="at" unicode="@" horiz-adv-x="2123" 
d="M1063 -406q-169 0 -301 11.5t-234 39.5t-175 64t-124.5 95.5t-83 122.5t-48.5 157t-23 186.5t-6 223.5t6 223.5t23 187t48.5 157t83 122.5t124.5 96t175 64t234 39.5t301 11.5q170 0 301 -11t233.5 -38t175 -61.5t124 -93t82.5 -119.5t48.5 -154.5t23 -186t5.5 -223.5
q0 -76 -3.5 -123t-15.5 -105.5t-37 -93.5t-68 -74.5t-108.5 -61.5t-157 -41.5t-216 -27.5t-283.5 -8l-24 133q-58 -43 -158.5 -83.5t-179.5 -40.5q-91 0 -152 15t-104.5 51.5t-61 99t-14.5 155t29 221.5q24 120 46 197t51 138t67 93t87.5 48t120.5 16q79 0 196.5 -38.5
t197.5 -86.5l51 102h340l-156 -798q67 0 117.5 7t87.5 18.5t62 32.5t40 44t23.5 59t11 71t2.5 85q0 114 -4.5 192t-19 153t-37.5 122t-65.5 89.5t-98 65.5t-138.5 40.5t-183.5 23.5t-237.5 6q-109 0 -195 -4.5t-159.5 -15.5t-128.5 -26t-100 -41.5t-75.5 -55t-54 -73.5
t-36.5 -90.5t-21.5 -112t-11 -132.5t-2.5 -157t2.5 -157t11 -132.5t22 -112.5t36.5 -91t54 -74t76 -55.5t100 -41.5t128.5 -26.5t159 -16t194.5 -4.5h278v-191h-278zM950 276q56 0 120 26t91 52l49 289q-42 28 -103 45t-108 17q-34 0 -48.5 -8t-30.5 -47.5t-35 -133.5
q-23 -110 -22.5 -160.5t19.5 -65t68 -14.5z" />
    <glyph glyph-name="A" unicode="A" horiz-adv-x="1591" 
d="M502 209l-76 -209h-406l590 1518h371l590 -1518h-426l-76 209h-567zM954 524l-168 463l-170 -463h338z" />
    <glyph glyph-name="B" unicode="B" horiz-adv-x="1466" 
d="M119 0v1507h690q113 0 193 -9t150 -32.5t111.5 -65t65 -107.5t23.5 -158q0 -87 -15.5 -149t-47.5 -101.5t-71 -62t-96 -38.5q45 -9 81.5 -24t72.5 -43t60.5 -66t39.5 -96t15 -131q0 -235 -122 -329.5t-421 -94.5h-729zM516 911h293q70 0 104.5 29.5t34.5 112.5t-33.5 109
t-105.5 26h-293v-277zM516 311h332q68 0 103.5 34.5t35.5 119.5t-36 121.5t-103 36.5h-332v-312z" />
    <glyph glyph-name="C" unicode="C" horiz-adv-x="1302" 
d="M780 -18q-124 0 -218 14t-177 47.5t-139.5 90.5t-98 142t-60.5 204t-19 274t20 274t62.5 204t100.5 142.5t141 90.5t176.5 47t215.5 14q98 0 179.5 -5t115.5 -9.5t87.5 -14t58.5 -10.5l-62 -338q-87 12 -131 17.5t-109.5 9.5t-142.5 4q-91 0 -148 -20t-89 -66.5
t-44 -110.5t-12 -166v-119q0 -100 12 -166t43.5 -118t90.5 -75.5t151 -23.5q77 0 147.5 6t106.5 12t79 15.5t46 9.5l62 -331q-4 -1 -31.5 -7.5t-40 -8.5t-44 -8t-60 -8.5t-70 -6t-91.5 -5t-108 -1.5z" />
    <glyph glyph-name="D" unicode="D" horiz-adv-x="1521" 
d="M119 0v1507h612q78 0 139 -3t123.5 -11t109.5 -22t93.5 -36t79.5 -53t64 -73.5t50.5 -96.5t34.5 -122.5t22 -152t7 -183.5q0 -111 -9 -202t-25.5 -163.5t-44.5 -128t-61 -96.5t-80.5 -70t-97 -47.5t-117.5 -28.5t-134.5 -14t-153.5 -4h-612zM520 309h209q96 0 156.5 22.5
t93 75t44 121t11.5 177.5v98q0 109 -11.5 176t-44.5 117.5t-93 71t-156 20.5h-209v-879z" />
    <glyph glyph-name="E" unicode="E" 
d="M119 0v1507h1079v-346h-678v-231h547v-346h-547v-248h678v-336h-1079z" />
    <glyph glyph-name="F" unicode="F" horiz-adv-x="1234" 
d="M119 0v1507h1079v-346h-678v-323h547v-326h-547v-512h-401z" />
    <glyph glyph-name="G" unicode="G" horiz-adv-x="1429" 
d="M780 -18q-124 0 -218 14t-177 47.5t-139.5 90.5t-98 142t-60.5 204t-19 274t20 274t62.5 204t100.5 142.5t141 90.5t176.5 47t215.5 14q330 0 502 -43l-51 -342q-246 39 -455 39q-91 0 -148 -20t-89 -66.5t-44 -110.5t-12 -166v-119q0 -83 6 -138t25 -108t54 -83
t94.5 -48t144.5 -18q107 0 154 8v496h370v-768q-73 -20 -220.5 -38.5t-334.5 -18.5z" />
    <glyph glyph-name="H" unicode="H" horiz-adv-x="1603" 
d="M119 0v1507h401v-557h561v557h404v-1507h-404v584h-561v-584h-401z" />
    <glyph glyph-name="I" unicode="I" horiz-adv-x="661" 
d="M129 0v1507h403v-1507h-403z" />
    <glyph glyph-name="J" unicode="J" horiz-adv-x="1138" 
d="M438 -12q-102 0 -224.5 11.5t-176.5 25.5l41 335q4 0 47.5 -7t86.5 -13t107.5 -11t118.5 -5q101 0 146 53.5t45 187.5v942h401v-964q0 -100 -13 -179t-36 -137t-62 -100t-84.5 -69t-109.5 -42.5t-131.5 -21.5t-155.5 -6z" />
    <glyph glyph-name="K" unicode="K" horiz-adv-x="1540" 
d="M524 989l471 518h439l-570 -624l615 -883h-469l-412 590q-74 -80 -74 -82v-508h-405v1507h405v-518z" />
    <glyph glyph-name="L" unicode="L" horiz-adv-x="1234" 
d="M119 0v1507h401v-1171h678v-336h-1079z" />
    <glyph glyph-name="M" unicode="M" horiz-adv-x="1849" 
d="M1065 0h-311l-283 899v-899h-352v1507h502l303 -964l305 964h502v-1507h-383v899z" />
    <glyph glyph-name="N" unicode="N" horiz-adv-x="1583" 
d="M119 0v1507h403l557 -778v778h385v-1507h-340l-620 879v-879h-385z" />
    <glyph glyph-name="O" unicode="O" horiz-adv-x="1617" 
d="M807 -25q-103 0 -183.5 8.5t-159.5 30.5t-137.5 59t-109 96.5t-82 140.5t-49.5 192.5t-18 251.5t18 251.5t50 192.5t83 140t109.5 96t138.5 59t160.5 30.5t183.5 8.5q104 0 184.5 -8t160 -29.5t137.5 -58.5t108.5 -95.5t82 -139.5t49 -192t17.5 -251t-18 -251.5
t-49.5 -193t-82.5 -141.5t-110 -97.5t-138 -60t-160.5 -31t-184.5 -8.5zM811 307q186 0 252.5 84.5t66.5 302.5v119q0 216 -68 297.5t-255 81.5q-186 0 -253 -80t-67 -295v-119q0 -217 69.5 -304t254.5 -87z" />
    <glyph glyph-name="P" unicode="P" horiz-adv-x="1435" 
d="M119 0v1507h672q104 0 179 -8t145.5 -29.5t116 -60.5t80 -100t50.5 -149.5t16 -207.5q0 -102 -13 -182t-36.5 -139t-62 -101t-84 -69t-109.5 -42.5t-130.5 -21.5t-154.5 -6h-270v-391h-399zM518 709h273q27 0 44.5 2t42 8.5t40 22.5t30.5 41t22 67t7 98t-7.5 97.5t-23 67
t-31 41t-40.5 22t-42.5 8.5t-44.5 2h-270v-477z" />
    <glyph glyph-name="Q" unicode="Q" horiz-adv-x="1617" 
d="M1368 152l301 -418h-557l-184 260q-39 -4 -121 -4q-80 0 -144.5 4.5t-130.5 16t-117.5 30.5t-101 49.5t-86 72.5t-68 99t-50.5 128.5t-30 163t-11 200.5q0 140 18 251.5t50 192.5t83 140t109.5 96t138.5 59t160.5 30.5t183.5 8.5q104 0 184.5 -8t160 -29.5t137.5 -58.5
t108.5 -95.5t82 -139.5t49 -192t17.5 -251q0 -427 -182 -606zM811 287q94 0 156 23t98 74.5t50.5 125t14.5 184.5v119q0 219 -69 309t-254 90q-184 0 -252 -88t-68 -307v-119q0 -220 70.5 -315.5t253.5 -95.5z" />
    <glyph glyph-name="R" unicode="R" horiz-adv-x="1507" 
d="M1128 504l351 -504h-457l-287 412h-219v-412h-397v1507h651q106 0 179.5 -7t145 -27.5t116.5 -58t80.5 -97.5t51 -147.5t15.5 -206.5q0 -216 -55.5 -320t-174.5 -139zM516 729h254q102 0 144 47t42 182q0 71 -11.5 117t-37.5 70t-58 32.5t-81 8.5h-252v-457z" />
    <glyph glyph-name="S" unicode="S" horiz-adv-x="1337" 
d="M639 -20q-172 0 -330 18t-233 35l61 332q45 -11 229 -31.5t277 -20.5q142 0 182.5 23t40.5 102q0 32 -6 50.5t-17.5 33t-47 25.5t-74 19.5t-119.5 23.5q-117 21 -191.5 39t-139.5 45.5t-99.5 59t-59.5 82t-33.5 112.5t-8.5 153q0 127 39 215t116.5 138t180 72t243.5 22
q131 0 315.5 -18t241.5 -37l-61 -334q-326 47 -498 47q-105 0 -139.5 -24.5t-34.5 -88.5q0 -20 1 -34t7.5 -26.5t11 -20t21.5 -16t29 -13t43 -11.5t54 -11t71 -13q96 -17 159 -30.5t125.5 -31.5t100 -36t72.5 -45.5t53 -58t32 -75t18.5 -96t4.5 -121.5q0 -128 -35.5 -214.5
t-114.5 -140t-196.5 -76.5t-290.5 -23z" />
    <glyph glyph-name="T" unicode="T" horiz-adv-x="1439" 
d="M518 0v1161h-479v346h1362v-346h-481v-1161h-402z" />
    <glyph glyph-name="U" unicode="U" horiz-adv-x="1552" 
d="M784 -20q-147 0 -250 14t-187.5 49.5t-134.5 97.5t-76.5 157.5t-26.5 229.5v979h403v-956q0 -57 12 -96.5t32 -62.5t56.5 -35.5t75 -16.5t98.5 -4q45 0 73 1t60 6t51 13.5t38 24t29 38t16 54.5t6 74v960h385v-975q0 -133 -25 -227.5t-73.5 -157.5t-130 -100t-184 -52
t-247.5 -15z" />
    <glyph glyph-name="V" unicode="V" horiz-adv-x="1591" 
d="M610 -10l-590 1517h426l359 -966l360 966h406l-590 -1517h-371z" />
    <glyph glyph-name="W" unicode="W" horiz-adv-x="1978" 
d="M449 -10l-429 1517h416l215 -809l207 768h303l207 -768l215 809h375l-428 -1517h-295l-242 913l-239 -913h-305z" />
    <glyph glyph-name="X" unicode="X" horiz-adv-x="1656" 
d="M72 0l508 813l-461 694h475l276 -432l256 432h412l-459 -745l506 -762h-475l-324 502l-303 -502h-411z" />
    <glyph glyph-name="Y" unicode="Y" horiz-adv-x="1593" 
d="M598 0v489l-578 1018h437l350 -620l350 620h416l-574 -1009v-498h-401z" />
    <glyph glyph-name="Z" unicode="Z" horiz-adv-x="1392" 
d="M72 0v336l753 825h-735v346h1229v-346l-746 -825h762v-336h-1263z" />
    <glyph glyph-name="bracketleft" unicode="[" horiz-adv-x="806" 
d="M145 -328v1876h590v-315h-256v-1253h256v-308h-590z" />
    <glyph glyph-name="backslash" unicode="\" horiz-adv-x="870" 
d="M530 0l-530 1507h340l530 -1507h-340z" />
    <glyph glyph-name="bracketright" unicode="]" horiz-adv-x="806" 
d="M72 -328v308h276v1253h-276v315h590v-1876h-590z" />
    <glyph glyph-name="asciicircum" unicode="^" horiz-adv-x="757" 
d="M82 578v290h596v-290h-596z" />
    <glyph glyph-name="underscore" unicode="_" horiz-adv-x="1136" 
d="M-74 -391v291h1284v-291h-1284z" />
    <glyph glyph-name="grave" unicode="`" horiz-adv-x="970" 
d="M406 1110l-402 449h463l217 -449h-278z" />
    <glyph glyph-name="a" unicode="a" horiz-adv-x="1159" 
d="M313 -14q-120 0 -190 85.5t-70 250.5q0 80 8.5 127t38.5 79q49 54 177.5 75.5t394.5 21.5v24q0 41 -19.5 57.5t-85.5 16.5q-191 0 -387 -27l-35 297q179 31 422 31q189 0 296.5 -35.5t148.5 -103.5t41 -183v-702h-342l-31 98q-7 -4 -36.5 -21t-45.5 -25.5t-51.5 -23
t-66 -22t-75 -14t-92.5 -6.5zM522 258q60 0 150 21v176q-104 0 -151 -6t-68 -25q-19 -19 -19 -68q0 -55 19 -76.5t69 -21.5z" />
    <glyph glyph-name="b" unicode="b" horiz-adv-x="1282" 
d="M889 -16q-112 0 -226 28t-174 58l-28 -70h-342v1548h381v-645q67 36 183.5 74.5t215.5 38.5q174 0 243.5 -116t69.5 -398q0 -280 -74 -399t-249 -119zM717 287q58 0 84 43.5t26 167.5q0 88 -12.5 131t-33 54t-64.5 11q-109 0 -217 -22v-371q110 -14 217 -14z" />
    <glyph glyph-name="c" unicode="c" horiz-adv-x="985" 
d="M625 -14q-104 0 -179 8t-140.5 29.5t-107.5 58t-72.5 94.5t-44 138.5t-13.5 189.5q0 131 21.5 222t62 150t112 92t159 45.5t216.5 12.5q152 0 291 -33l-51 -303q-124 21 -244 21q-62 0 -97 -8t-55.5 -33.5t-26 -61t-5.5 -100.5t6.5 -102.5t26.5 -66t57 -39.5t98 -11
q15 0 29.5 0.5t25.5 1t25.5 2t22 2t23 3t21 3t23 4t21 4.5t24.5 5t25 5l51 -294q-128 -39 -305 -39z" />
    <glyph glyph-name="d" unicode="d" horiz-adv-x="1282" 
d="M383 -23q-173 0 -243 119t-70 402q0 280 74 399t249 119q109 0 214.5 -26t174.5 -54v612h381v-1548h-342l-28 96q-46 -24 -98.5 -46.5t-144 -47.5t-167.5 -25zM565 305q104 0 217 23v370q-117 15 -217 15q-58 0 -84 -43.5t-26 -167.5q0 -89 12 -131.5t33 -54t65 -11.5z
" />
    <glyph glyph-name="e" unicode="e" horiz-adv-x="1126" 
d="M676 -14q-113 0 -195 8.5t-153.5 30.5t-117.5 59t-79.5 94.5t-48 137.5t-14.5 188q0 109 16 192.5t49 140t74.5 94t101.5 57.5t121 28t141 8q130 0 219 -21.5t152.5 -73t93 -141t29.5 -223.5v-139h-616q1 -83 46.5 -110t174.5 -27q166 0 297 24l45 -288
q-62 -17 -170.5 -28t-165.5 -11zM449 616h256q0 98 -26.5 127t-107.5 29q-72 0 -97 -32t-25 -124z" />
    <glyph glyph-name="f" unicode="f" horiz-adv-x="849" 
d="M209 0v690h-137v303h137v117q0 79 3.5 121t19 94.5t47.5 80t89.5 58.5t145 50.5t213.5 35.5l66 -344q-44 -8 -74.5 -15t-53.5 -14t-36.5 -18t-22 -19.5t-11.5 -27t-4 -32t-1 -42.5v-45h203v-303h-203v-690h-381z" />
    <glyph glyph-name="g" unicode="g" horiz-adv-x="1282" 
d="M659 -410q-315 0 -516 23l31 305q163 -20 502 -20q58 0 82 37t24 116v62q-220 -115 -399 -115q-174 0 -243.5 114.5t-69.5 395.5q0 278 73.5 393t249.5 115q109 0 219.5 -27.5t180.5 -56.5l28 61h342v-977q0 -83 -11 -143t-43 -116t-87 -91t-146 -55.5t-217 -20.5z
M565 295q109 0 217 22v381q-117 15 -217 15q-40 0 -61.5 -13.5t-35 -58t-13.5 -129.5q0 -90 11.5 -137t34 -63.5t64.5 -16.5z" />
    <glyph glyph-name="h" unicode="h" 
d="M119 0v1548h381v-645q67 38 184.5 75.5t212.5 37.5q134 0 201 -59.5t67 -186.5v-770h-381v618q0 41 -23 55.5t-83 14.5q-82 0 -178 -22v-666h-381z" />
    <glyph glyph-name="i" unicode="i" horiz-adv-x="638" 
d="M129 1110v365h381v-365h-381zM129 0v993h381v-993h-381z" />
    <glyph glyph-name="j" unicode="j" horiz-adv-x="638" 
d="M129 1110v365h381v-365h-381zM-20 -406l-54 332q49 8 83.5 17t57 22.5t35 25.5t18.5 34t7.5 39.5t1.5 50.5v878h381v-970q0 -61 -4 -104.5t-17 -89t-36.5 -76.5t-62.5 -60.5t-95.5 -48t-134.5 -31.5t-180 -19z" />
    <glyph glyph-name="k" unicode="k" horiz-adv-x="1210" 
d="M500 319v-319h-381v1548h381v-864l307 309h354l-336 -344q0 1 89.5 -161.5t179.5 -325.5l90 -162h-414l-211 381q-24 -27 -59 -62z" />
    <glyph glyph-name="l" unicode="l" horiz-adv-x="638" 
d="M129 0v1548h381v-1548h-381z" />
    <glyph glyph-name="m" unicode="m" horiz-adv-x="1902" 
d="M119 0v993h344l29 -96q72 36 113 54.5t128 41.5t168 23q89 0 145.5 -33.5t77.5 -91.5q232 125 418 125q132 0 191 -61.5t59 -204.5v-750h-381v618q0 42 -18 56t-76 14q-78 0 -170 -22v-666h-381v618q0 42 -19 56t-77 14q-76 0 -168 -22v-666h-383z" />
    <glyph glyph-name="n" unicode="n" 
d="M119 0v993h344l29 -96q60 37 184 78t221 41q135 0 201.5 -59.5t66.5 -186.5v-770h-381v618q0 41 -22.5 55.5t-81.5 14.5q-86 0 -178 -22v-666h-383z" />
    <glyph glyph-name="o" unicode="o" horiz-adv-x="1251" 
d="M625 -14q-104 0 -180.5 9t-141.5 32t-107.5 60.5t-72 95.5t-42.5 136.5t-13 184.5q0 158 30 259t100.5 159.5t171.5 81t259 22.5q104 0 180.5 -9t141 -32t106.5 -60.5t71.5 -95.5t42.5 -136.5t13 -184.5q0 -127 -20.5 -216t-60.5 -149t-109 -94.5t-156.5 -48.5
t-212.5 -14zM629 260q59 0 93.5 12.5t52 46t22 73t4.5 112.5q0 57 -3 92t-13 66.5t-29.5 47t-51 24.5t-79.5 9q-60 0 -94.5 -11t-52.5 -42.5t-22.5 -70t-4.5 -111.5q0 -58 3 -93.5t13.5 -68.5t30 -49.5t51.5 -26.5t80 -10z" />
    <glyph glyph-name="p" unicode="p" horiz-adv-x="1282" 
d="M119 -410v1403h342l28 -96q46 24 98.5 46.5t144 47.5t167.5 25q174 0 243.5 -116t69.5 -398q0 -280 -74 -399t-249 -119q-109 0 -215 25.5t-174 53.5v-473h-381zM717 287q58 0 84 43.5t26 167.5q0 88 -12.5 131t-33 54t-64.5 11q-109 0 -217 -22v-371q110 -14 217 -14z
" />
    <glyph glyph-name="q" unicode="q" horiz-adv-x="1282" 
d="M782 -410v502q-220 -115 -399 -115q-173 0 -243 119t-70 402q0 280 74 399t249 119q109 0 219.5 -27.5t180.5 -56.5l28 61h342v-1403h-381zM565 305q104 0 217 23v370q-117 15 -217 15q-58 0 -84 -43.5t-26 -167.5q0 -89 12 -131.5t33 -54t65 -11.5z" />
    <glyph glyph-name="r" unicode="r" horiz-adv-x="913" 
d="M119 0v993h344l29 -116q65 38 93.5 54.5t104 46.5t146.5 42l41 -350q-77 0 -209 -8.5t-166 -14.5v-647h-383z" />
    <glyph glyph-name="s" unicode="s" horiz-adv-x="1044" 
d="M492 -12q-114 0 -239 12.5t-181 24.5l30 239q61 -11 183.5 -23t216.5 -12q82 0 107.5 10t25.5 46q0 35 -30.5 46.5t-178.5 33.5q-121 17 -190 38.5t-111 62.5t-55 96t-13 149q0 93 29 155.5t88.5 97.5t137 49.5t188.5 14.5q303 0 450 -39l-39 -246q-88 14 -215 24.5
t-200 10.5q-50 0 -69 -10.5t-19 -44.5q0 -35 26.5 -45t129.5 -21q34 -4 54 -6q83 -10 139.5 -21t100.5 -29.5t68.5 -40.5t40.5 -58t21 -77t5 -103q0 -82 -21 -140.5t-59.5 -96t-102.5 -59.5t-138.5 -30t-179.5 -8z" />
    <glyph glyph-name="t" unicode="t" horiz-adv-x="837" 
d="M471 -10q-188 0 -259 69.5t-71 255.5v375h-106v303h106v295l383 41v-336h224v-303h-224v-276q0 -82 23 -110t84 -28q30 0 127 11l16 -277q-38 -7 -134.5 -13.5t-168.5 -6.5z" />
    <glyph glyph-name="u" unicode="u" 
d="M379 -23q-134 0 -201 59.5t-67 186.5v770h381v-618q0 -41 23 -55.5t83 -14.5q82 0 178 23v665h381v-991l-342 -2l-29 96q-64 -38 -187 -78.5t-220 -40.5z" />
    <glyph glyph-name="v" unicode="v" horiz-adv-x="1200" 
d="M430 -8l-420 1001h398l213 -538l213 538h356l-420 -1001h-340z" />
    <glyph glyph-name="w" unicode="w" horiz-adv-x="1718" 
d="M365 -8l-355 1001h385l170 -477l187 436h272l176 -434l170 475h338l-354 -1001h-273l-217 530l-217 -530h-282z" />
    <glyph glyph-name="x" unicode="x" horiz-adv-x="1255" 
d="M16 0l383 535l-342 458h441l164 -219l157 219h379l-342 -477l383 -516h-440l-207 276l-197 -276h-379z" />
    <glyph glyph-name="y" unicode="y" horiz-adv-x="1210" 
d="M414 29l-404 964h398l219 -534l217 534h356l-588 -1403h-383z" />
    <glyph glyph-name="z" unicode="z" horiz-adv-x="1128" 
d="M72 0v266l491 424h-473v303h963v-266l-482 -428h512v-299h-1011z" />
    <glyph glyph-name="braceleft" unicode="{" horiz-adv-x="1032" 
d="M961 -328q-149 0 -249 11t-185.5 43.5t-135.5 85t-87 142.5t-52.5 208.5t-20.5 290.5h-174v301h174q5 171 21 290.5t52.5 211t87.5 146t135.5 88.5t185.5 46t248 12v-315q-59 0 -101.5 -2t-82 -10.5t-65.5 -17t-50 -31t-37.5 -43.5t-25 -63t-16.5 -79.5t-9 -104
t-4.5 -126.5t-0.5 -156q0 -119 1 -188.5t8 -144t16.5 -111.5t31.5 -75.5t47 -53t70 -28.5t94 -16.5t124 -2.5v-308z" />
    <glyph glyph-name="bar" unicode="|" horiz-adv-x="864" 
d="M274 -410v2028h316v-2028h-316z" />
    <glyph glyph-name="braceright" unicode="}" horiz-adv-x="1032" 
d="M72 -328v308q60 0 102 1.5t82.5 9.5t66 16t49 30.5t36.5 41.5t25 61t16.5 78t8.5 102.5t4.5 125t0.5 154.5q0 122 -1 191t-7.5 145.5t-16 113.5t-31 77.5t-47 55.5t-69.5 29.5t-94 17.5t-125 3v315q110 0 192.5 -6.5t156.5 -24t125.5 -45t95 -72t70.5 -102.5t47 -139.5
t29.5 -179t12.5 -225.5h176v-301h-176q-4 -172 -19.5 -290.5t-52 -208.5t-86.5 -142.5t-135.5 -85t-186 -43.5t-249.5 -11z" />
    <glyph glyph-name="asciitilde" unicode="~" horiz-adv-x="972" 
d="M182 1075l-162 215q217 199 322 199q51 0 156 -49t127 -49q41 0 166 112l161 -215q-226 -198 -321 -198q-51 0 -156 49t-127 49q-18 0 -49 -19.5t-54.5 -39t-62.5 -54.5z" />
    <glyph glyph-name="exclamdown" unicode="&#xa1;" horiz-adv-x="798" 
d="M182 1139v368h436v-368h-436zM150 0l88 1036h325l86 -1036h-499z" />
    <glyph glyph-name="cent" unicode="&#xa2;" horiz-adv-x="1026" 
d="M387 1274v254h305v-238q131 -3 238 -30l-51 -293q-118 20 -244 20q-61 0 -97 -9.5t-55.5 -37t-25.5 -64t-6 -102.5q0 -65 6.5 -104t26.5 -69.5t57.5 -43t97.5 -12.5q15 0 29.5 0.5t25.5 1t25.5 2t22 2t23 3t21 3t23 4t21 4.5t24.5 5t25 5l51 -284q-108 -31 -238 -37v-254
h-305v268q-171 31 -245 143t-74 359q0 245 74 358t245 146z" />
    <glyph glyph-name="sterling" unicode="&#xa3;" horiz-adv-x="1292" 
d="M72 0v336h243q-52 186 -69 252h-174v297h102q-29 171 -29 209q0 121 28.5 201.5t98.5 135.5t185.5 79t290.5 24q259 0 466 -47l-61 -338q-266 39 -405 39q-52 0 -80 -2t-55.5 -8.5t-39.5 -20.5t-19 -37t-7 -59q0 -58 20 -176h404v-297h-334q25 -109 65 -252h512v-336
h-1142z" />
    <glyph glyph-name="currency" unicode="&#xa4;" horiz-adv-x="1390" 
d="M909 -18q-138 0 -240 21.5t-187 74t-139.5 147.5t-80.5 234h-221v235h197v113h-197v235v0v0v0h1v0h1v0h1h1v0h1h1h1h1h1h1h1h1h1h1h1h1h1h1h1h1h1h1h1h1h1h1h1h1h1h1h1h1h1h1h1h1h1h1h1h2h1h1h1h1h1h1h1h1h2h1h1h1h1h1h2h1h1h1h2h1h1h1h2h1h1h2h1h1h2h1h1h2h1h1h2h1h1h2
h1h2h1h1h2h1h2h1h2h1h2h1h2h1h2h1h2h1h2h1h2h1h2h2h1h2h1h2h2h1h2h1h2h2h1h2h2h1h2h2h1h2h2h1h2h2h1h2h2h2h1h2h2h2h1h2h2h2h2h1h2h2h2h2h2h1h2h2h2h2h2h2h2h1h9q22 113 64 197.5t98.5 138.5t134 87.5t163 47t193.5 13.5q88 0 159.5 -5t105 -10t78 -13.5t57.5 -10.5
l-64 -338q-29 4 -78 10.5t-68.5 9t-54 6t-66 4.5t-73.5 1q-107 0 -164 -31t-81 -107h368v-235h-399v-113h399v-235h-366q28 -77 85.5 -110.5t161.5 -33.5q139 0 336 35l64 -323q-2 0 -42.5 -10t-61 -13.5t-67.5 -10t-104 -9t-129 -2.5z" />
    <glyph glyph-name="yen" unicode="&#xa5;" horiz-adv-x="1552" 
d="M1174 885h309v-236h-445l-53 -92h498v-235h-514v-322h-404v322h-514v235h492q-18 35 -49 92h-443v236h311l-342 622h457l322 -612l323 612h410z" />
    <glyph glyph-name="brokenbar" unicode="&#xa6;" horiz-adv-x="864" 
d="M274 754v864h316v-864h-316zM274 -410v865h316v-865h-316z" />
    <glyph glyph-name="section" unicode="&#xa7;" horiz-adv-x="1265" 
d="M641 -6q-276 0 -473 55l43 234q255 -47 405 -47q99 0 123.5 10.5t24.5 48.5q0 33 -13 45.5t-50.5 18t-137.5 8.5q-183 5 -278 35.5t-131.5 92t-36.5 177.5q0 75 35 156t71 133q-48 37 -65 97.5t-17 160.5q0 162 115.5 235.5t368.5 73.5q267 0 475 -55l-51 -238
q-270 43 -398 43q-92 0 -120.5 -10.5t-28.5 -46.5q0 -44 37 -53.5t184 -14.5q95 -3 162 -11t115 -25t76.5 -38t45 -57t22 -75t5.5 -97q0 -62 -34 -146.5t-73 -144.5q48 -36 65 -96t17 -160q0 -162 -115 -235.5t-368 -73.5zM770 657q41 73 41 125q0 26 -8.5 37.5t-50 21
t-131.5 13.5q-29 1 -125 10q-41 -86 -41 -125q0 -25 12 -37.5t53.5 -21t126.5 -12.5q8 0 123 -11z" />
    <glyph glyph-name="dieresis" unicode="&#xa8;" horiz-adv-x="972" 
d="M537 1110v330h354v-330h-354zM82 1110v330h354v-330h-354z" />
    <glyph glyph-name="copyright" unicode="&#xa9;" horiz-adv-x="1748" 
d="M874 -25q-159 0 -274.5 14.5t-208 50.5t-152 93t-99 145t-56 202.5t-16.5 271.5t16.5 271.5t56 203.5t99 146t152 93t208.5 51t274 15t274 -15t208.5 -51t152.5 -93t99.5 -146t56 -204t16.5 -271t-16.5 -271t-56.5 -203t-99.5 -145t-152 -93t-208 -50.5t-274.5 -14.5z
M874 152q95 0 158 3t129 12.5t106.5 27.5t80.5 48.5t62 74t40 106.5t24.5 143.5t6.5 186.5t-6.5 186.5t-24.5 143.5t-40 106.5t-62 74t-80.5 48.5t-106.5 27.5t-129 12.5t-158 3q-76 0 -128.5 -1.5t-109.5 -7.5t-95 -15.5t-77.5 -26.5t-64.5 -40.5t-49 -57.5t-37.5 -76.5
t-25 -99t-15.5 -124.5t-4 -153t4 -153t15.5 -124.5t25 -99t37.5 -76.5t49 -57.5t64.5 -40.5t77.5 -26.5t95 -15.5t109.5 -7.5t128.5 -1.5zM895 268q-117 0 -196 21t-137.5 75t-85.5 149.5t-27 240.5q0 144 28 240t88 148.5t139 73.5t195 21q60 0 108.5 -3t71.5 -6.5t58 -9.5
t47 -8l-54 -239q-148 18 -235 18q-92 0 -123 -48.5t-31 -160.5v-51q0 -113 32 -167t126 -54q45 0 86.5 3t61 5.5t53 8.5t39.5 7l45 -231q-2 -1 -24.5 -6.5t-29.5 -6.5t-29.5 -5.5t-39 -6t-43 -4t-57 -3.5t-66.5 -1z" />
    <glyph glyph-name="ordfeminine" unicode="&#xaa;" horiz-adv-x="962" 
d="M276 688q-96 0 -153 72.5t-57 206.5q0 146 63 190q48 33 134 43t292 10v52q0 28 -15 38.5t-69 10.5q-195 0 -291 -17l-37 219q162 27 328 27q221 0 310 -65t89 -203v-572h-284l-25 78q-6 -3 -39 -20.5t-52 -25.5t-52.5 -20.5t-68.5 -18t-73 -5.5zM143 383v217h727v-217
h-727zM446 903q35 0 109 17v141q-38 0 -63 -1t-34 -2.5t-24.5 -4.5t-21.5 -4q-20 -3 -24.5 -18t-4.5 -50q0 -44 13 -61t50 -17z" />
    <glyph glyph-name="guillemotleft" unicode="&#xab;" horiz-adv-x="1308" 
d="M872 51l-245 418l245 422h308l-207 -422l209 -418h-310zM348 51l-246 418l246 422h307l-206 -422l208 -418h-309z" />
    <glyph glyph-name="logicalnot" unicode="&#xac;" horiz-adv-x="1429" 
d="M780 -18q-124 0 -218 14t-177 47.5t-139.5 90.5t-98 142t-60.5 204t-19 274t20 274t62.5 204t100.5 142.5t141 90.5t176.5 47t215.5 14q330 0 502 -43l-51 -342q-246 39 -455 39q-91 0 -148 -20t-89 -66.5t-44 -110.5t-12 -166v-119q0 -83 6 -138t25 -108t54 -83
t94.5 -48t144.5 -18q107 0 154 8v211h-199v316h569v-799q-73 -20 -220.5 -38.5t-334.5 -18.5z" />
    <glyph glyph-name="registered" unicode="&#xae;" horiz-adv-x="1748" 
d="M874 -25q-159 0 -274.5 14.5t-208 50.5t-152 93t-99 145t-56 202.5t-16.5 271.5t16.5 271.5t56 203.5t99 146t152 93t208.5 51t274 15t274 -15t208.5 -51t152.5 -93t99.5 -146t56 -204t16.5 -271t-16.5 -271t-56.5 -203t-99.5 -145t-152 -93t-208 -50.5t-274.5 -14.5z
M874 152q95 0 158 3t129 12.5t106.5 27.5t80.5 48.5t62 74t40 106.5t24.5 143.5t6.5 186.5t-6.5 186.5t-24.5 143.5t-40 106.5t-62 74t-80.5 48.5t-106.5 27.5t-129 12.5t-158 3q-76 0 -128.5 -1.5t-109.5 -7.5t-95 -15.5t-77.5 -26.5t-64.5 -40.5t-49 -57.5t-37.5 -76.5
t-25 -99t-15.5 -124.5t-4 -153t4 -153t15.5 -124.5t25 -99t37.5 -76.5t49 -57.5t64.5 -40.5t77.5 -26.5t95 -15.5t109.5 -7.5t128.5 -1.5zM469 297v926h440q83 0 140 -13t105 -47.5t71.5 -102.5t23.5 -171q0 -44 -4 -78.5t-16.5 -76t-40.5 -72.5t-70 -48l221 -317h-319
l-180 258h-97v-258h-274zM743 752h146q45 0 65.5 31.5t20.5 99.5q0 63 -21 93t-67 30h-144v-254z" />
    <glyph glyph-name="macron" unicode="&#xaf;" horiz-adv-x="972" 
d="M82 1110v330h809v-330h-809z" />
    <glyph glyph-name="macron" unicode="&#x2c9;" horiz-adv-x="972" 
d="M82 1110v330h809v-330h-809z" />
    <glyph glyph-name="degree" unicode="&#xb0;" horiz-adv-x="1034" 
d="M516 678q-242 0 -346 102t-104 324t106 326t348 104q241 0 345 -102t104 -324t-106 -326t-347 -104zM520 897q63 0 93 16t42.5 59t12.5 132q0 129 -30 170t-122 41q-91 0 -119 -38.5t-28 -168.5q0 -89 13 -133t44 -61t94 -17z" />
    <glyph glyph-name="plusminus" unicode="&#xb1;" horiz-adv-x="2050" 
d="M1540 0v1548h381v-1548h-381zM209 0v690h-137v303h137v76q0 79 3.5 121t19 94.5t47.5 80t89.5 58.5t145 50.5t213.5 35.5l66 -344q-44 -8 -74.5 -15t-53.5 -14t-36.5 -18t-22 -19.5t-11.5 -27t-4 -32t-1 -42.5v-4h284v97q0 58 2 96.5t8.5 81t19 70t33.5 57.5t52 50t75 40
t101.5 35.5t132.5 29.5l101 -344q-44 -12 -68.5 -21.5t-41.5 -19t-23.5 -27.5t-8.5 -35.5t-2 -53.5v-56h144v-303h-144v-690h-381v690h-284v-690h-381z" />
    <glyph glyph-name="twosuperior" unicode="&#xb2;" horiz-adv-x="972" 
d="M96 528v234l297 227q97 74 119.5 101t22.5 79q0 42 -22 57t-83 15q-147 0 -280 -27l-41 271q58 17 151.5 27t173.5 10q125 0 201.5 -15t123.5 -54.5t64 -99.5t17 -159q0 -63 -8.5 -103.5t-38.5 -83.5t-72.5 -80.5t-124.5 -99.5l-45 -34h313v-265h-768z" />
    <glyph glyph-name="threesuperior" unicode="&#xb3;" horiz-adv-x="1013" 
d="M137 512l-20 270q247 7 340 15.5t121 33.5q14 14 14 58q0 34 -14 45q-9 8 -22 13.5t-37.5 9.5t-41 6t-59.5 6.5t-66 7.5v170l172 94h-409v266h706v-258l-172 -116q128 -25 172 -76q58 -63 58 -189q0 -128 -39 -188q-49 -80 -205 -119.5t-498 -48.5z" />
    <glyph glyph-name="acute" unicode="&#xb4;" horiz-adv-x="970" 
d="M287 1110l217 449h463l-402 -449h-278z" />
    <glyph glyph-name="mu" unicode="&#xb5;" horiz-adv-x="1452" 
d="M174 0v156q0 107 25 189t67.5 134.5t105.5 85.5t133.5 46.5t156.5 13.5v194h-488v398h145v-263h343v138h-109v393h360v-393h-108v-138h332v263h143v-398h-475v-194q109 0 193 -22.5t152.5 -74.5t105 -145.5t36.5 -226.5v-156h-149v147q0 100 -19 165t-62.5 102t-103.5 51
t-153 14v-205h-143v205q-93 0 -153 -14t-103.5 -51t-62.5 -102t-19 -165v-147h-150z" />
    <glyph glyph-name="mu" unicode="&#x3bc;" horiz-adv-x="1452" 
d="M174 0v156q0 107 25 189t67.5 134.5t105.5 85.5t133.5 46.5t156.5 13.5v194h-488v398h145v-263h343v138h-109v393h360v-393h-108v-138h332v263h143v-398h-475v-194q109 0 193 -22.5t152.5 -74.5t105 -145.5t36.5 -226.5v-156h-149v147q0 100 -19 165t-62.5 102t-103.5 51
t-153 14v-205h-143v205q-93 0 -153 -14t-103.5 -51t-62.5 -102t-19 -165v-147h-150z" />
    <glyph glyph-name="paragraph" unicode="&#xb6;" horiz-adv-x="1349" 
d="M397 0v535q-43 2 -79.5 10t-78.5 26t-74.5 51.5t-60 82t-42.5 123.5t-15 169q0 107 17.5 188.5t53 137t81 92t110.5 56.5t131.5 28t153.5 8h637v-1507h-365v524h-125v-524h-344zM555 801h311v389h-307q-71 0 -109 -44.5t-38 -152.5q0 -112 35 -152t108 -40z" />
    <glyph glyph-name="periodcentered" unicode="&#xb7;" horiz-adv-x="757" 
d="M147 524v389h461v-389h-461z" />
    <glyph glyph-name="periodcentered" unicode="&#x2219;" horiz-adv-x="757" 
d="M147 524v389h461v-389h-461z" />
    <glyph glyph-name="cedilla" unicode="&#xb8;" horiz-adv-x="972" 
d="M309 -457l-61 252q58 10 120 30t81 34l-31 172l221 49l68 -375q-37 -39 -147.5 -86t-250.5 -76z" />
    <glyph glyph-name="onesuperior" unicode="&#xb9;" horiz-adv-x="792" 
d="M260 530v709h-125v268h440v-977h-315z" />
    <glyph glyph-name="ordmasculine" unicode="&#xba;" horiz-adv-x="1069" 
d="M532 680q-87 0 -151 8t-117 27.5t-87.5 50.5t-58 79t-34 111t-10.5 148q0 127 24 209t81.5 131t142 68.5t215.5 19.5q87 0 151.5 -8t117 -27.5t87.5 -50.5t58.5 -79t33.5 -111t10 -148t-10.5 -148.5t-34.5 -111.5t-59 -80t-88 -51.5t-118 -28t-153 -8.5zM139 383v217h791
v-217h-791zM537 895q41 0 67 8t41 20.5t22 41.5t9 57t2 82q0 65 -4 99t-18.5 62t-43.5 38t-80 10q-34 0 -56.5 -4t-38.5 -15.5t-24.5 -24.5t-13 -40t-5.5 -51.5t-1 -69.5q0 -52 2.5 -82t10 -58.5t23.5 -42.5t42 -22t66 -8z" />
    <glyph glyph-name="guillemotright" unicode="&#xbb;" horiz-adv-x="1308" 
d="M653 51l207 422l-209 418h310l245 -418l-245 -422h-308zM129 51l207 422l-209 418h309l246 -418l-246 -422h-307z" />
    <glyph glyph-name="onequarter" unicode="&#xbc;" horiz-adv-x="2107" 
d="M260 530v709h-125v268h440v-977h-315zM516 0l567 1507h342l-567 -1507h-342zM1612 0v147h-465v263l360 569h326l-367 -586h146v164h293v-164h98v-246h-98v-147h-293z" />
    <glyph glyph-name="onehalf" unicode="&#xbd;" horiz-adv-x="2209" 
d="M260 530v709h-125v268h440v-977h-315zM516 0l567 1507h342l-567 -1507h-342zM1303 0v233l296 228q97 74 119.5 101t22.5 79q0 42 -22 57t-83 15q-147 0 -280 -27l-41 270q58 17 151.5 27t173.5 10q125 0 201.5 -15t123.5 -54t64 -99t17 -159q0 -63 -8.5 -103.5
t-38.5 -83.5t-72.5 -80.5t-124.5 -99.5l-45 -35h314v-264h-768z" />
    <glyph glyph-name="threequarters" unicode="&#xbe;" horiz-adv-x="2285" 
d="M137 512l-20 270q247 7 340 15.5t121 33.5q14 14 14 58q0 34 -14 45q-9 8 -22 13.5t-37.5 9.5t-41 6t-59.5 6.5t-66 7.5v170l172 94h-409v266h706v-258l-172 -116q128 -25 172 -76q58 -63 58 -189q0 -128 -39 -188q-49 -80 -205 -119.5t-498 -48.5zM694 0l568 1507h342
l-568 -1507h-342zM1790 0v147h-465v263l361 569h325l-366 -586h145v164h293v-164h98v-246h-98v-147h-293z" />
    <glyph glyph-name="questiondown" unicode="&#xbf;" horiz-adv-x="1345" 
d="M530 1137v368h437v-368h-437zM717 -33q-158 0 -266.5 14t-183 42.5t-116 79.5t-58.5 117t-17 163q0 79 10.5 133t39 106t84 94.5t139.5 86t212 92.5v137h365v-291q-87 -36 -143 -59.5t-107.5 -47.5t-80.5 -38.5t-53.5 -33.5t-35 -31t-18 -31.5t-8.5 -34.5t-1 -41
q0 -65 48.5 -88t189.5 -23q120 0 279.5 19t213.5 33l62 -345q-73 -21 -241 -37t-314 -16z" />
    <glyph glyph-name="Agrave" unicode="&#xc0;" horiz-adv-x="1591" 
d="M502 209l-76 -209h-406l590 1518h371l590 -1518h-426l-76 209h-567zM954 524l-168 463l-170 -463h338zM715 1602l-402 448h463l217 -448h-278z" />
    <glyph glyph-name="Aacute" unicode="&#xc1;" horiz-adv-x="1591" 
d="M502 209l-76 -209h-406l590 1518h371l590 -1518h-426l-76 209h-567zM954 524l-168 463l-170 -463h338zM596 1602l217 448h463l-402 -448h-278z" />
    <glyph glyph-name="Acircumflex" unicode="&#xc2;" horiz-adv-x="1591" 
d="M502 209l-76 -209h-406l590 1518h371l590 -1518h-426l-76 209h-567zM954 524l-168 463l-170 -463h338zM354 1581l279 408h313l279 -408h-258l-183 156l-182 -156h-248z" />
    <glyph glyph-name="Atilde" unicode="&#xc3;" horiz-adv-x="1591" 
d="M502 209l-76 -209h-406l590 1518h371l590 -1518h-426l-76 209h-567zM954 524l-168 463l-170 -463h338zM516 1567l-162 215q216 198 322 198q51 0 155.5 -49t126.5 -49q18 0 49 19.5t54.5 39t62.5 54.5l162 -215q-227 -199 -321 -199q-51 0 -156 49t-127 49
q-41 0 -166 -112z" />
    <glyph glyph-name="Adieresis" unicode="&#xc4;" horiz-adv-x="1591" 
d="M1153 1178v329h354v-329h-354zM84 1178v329h354v-329h-354zM502 209l-76 -209h-406l590 1518h371l590 -1518h-426l-76 209h-567zM954 524l-168 463l-170 -463h338z" />
    <glyph glyph-name="Aring" unicode="&#xc5;" horiz-adv-x="1591" 
d="M502 209l-76 -209h-406l555 1430q-57 27 -84.5 77.5t-27.5 134.5q0 143 79.5 196.5t252.5 53.5q174 0 253.5 -53.5t79.5 -196.5q0 -85 -28 -135t-86 -75l557 -1432h-426l-76 209h-567zM795 1528q69 0 92.5 20.5t23.5 93.5q0 74 -24.5 97.5t-91.5 23.5q-66 0 -90.5 -23.5
t-24.5 -97.5q0 -73 24 -93.5t91 -20.5zM954 524l-168 463l-170 -463h338z" />
    <glyph glyph-name="AE" unicode="&#xc6;" horiz-adv-x="2252" 
d="M20 0l893 1507h1262v-346h-639v-231h508v-346h-508v-248h639v-336h-1022v322h-514l-182 -322h-437zM807 627h346v616z" />
    <glyph glyph-name="Ccedilla" unicode="&#xc7;" horiz-adv-x="1302" 
d="M590 -8q-107 13 -188 44t-145.5 88t-105 142.5t-62 206.5t-21.5 281q0 155 20 274t62.5 204t100.5 142.5t141 90.5t176.5 47t215.5 14q98 0 179.5 -5t115.5 -9.5t87.5 -14t58.5 -10.5l-62 -338q-87 12 -131 17.5t-109.5 9.5t-142.5 4q-91 0 -148 -20t-89 -66.5
t-44 -110.5t-12 -166v-119q0 -100 12 -166t43.5 -118t90.5 -75.5t151 -23.5q77 0 147.5 6t106.5 12t79 15.5t46 9.5l62 -331l-26 -6.5t-31 -7.5t-34 -7t-43 -7t-49.5 -6t-61.5 -5.5t-71 -3.5t-86 -2l49 -277q-37 -39 -147 -86t-250 -76l-61 252q57 10 119 30t81 34z" />
    <glyph glyph-name="Egrave" unicode="&#xc8;" 
d="M119 0v1507h1079v-346h-678v-231h547v-346h-547v-248h678v-336h-1079zM557 1602l-401 448h462l218 -448h-279z" />
    <glyph glyph-name="Eacute" unicode="&#xc9;" 
d="M119 0v1507h1079v-346h-678v-231h547v-346h-547v-248h678v-336h-1079zM438 1602l217 448h463l-401 -448h-279z" />
    <glyph glyph-name="Ecircumflex" unicode="&#xca;" 
d="M119 0v1507h1079v-346h-678v-231h547v-346h-547v-248h678v-336h-1079zM197 1602l278 407h313l279 -407h-258l-182 155l-183 -155h-247z" />
    <glyph glyph-name="Edieresis" unicode="&#xcb;" 
d="M119 0v1507h1079v-346h-678v-231h547v-346h-547v-248h678v-336h-1079zM688 1602v329h354v-329h-354zM233 1602v329h355v-329h-355z" />
    <glyph glyph-name="Igrave" unicode="&#xcc;" horiz-adv-x="661" 
d="M129 0v1507h403v-1507h-403zM248 1602l-402 448h463l217 -448h-278z" />
    <glyph glyph-name="Iacute" unicode="&#xcd;" horiz-adv-x="661" 
d="M129 0v1507h403v-1507h-403zM133 1602l217 448h463l-401 -448h-279z" />
    <glyph glyph-name="Icircumflex" unicode="&#xce;" horiz-adv-x="661" 
d="M129 0v1507h403v-1507h-403zM-111 1602l279 407h313l279 -407h-258l-183 155l-182 -155h-248z" />
    <glyph glyph-name="Idieresis" unicode="&#xcf;" horiz-adv-x="661" 
d="M129 0v1507h403v-1507h-403zM381 1602v329h354v-329h-354zM-74 1602v329h355v-329h-355z" />
    <glyph glyph-name="Eth" unicode="&#xd0;" horiz-adv-x="1607" 
d="M205 627h-129v256h129v624h612q78 0 139 -3t123.5 -11t109.5 -22t93.5 -36t79.5 -53t64 -73.5t50.5 -96.5t34.5 -122.5t22 -152t7 -183.5q0 -111 -9 -202t-25.5 -163.5t-44.5 -128t-61 -96.5t-80.5 -70t-97 -47.5t-117.5 -28.5t-134.5 -14t-153.5 -4h-612v627zM606 883
h230v-256h-230v-338h209q95 0 156 25.5t93.5 82t44 127.5t11.5 181v98q0 110 -11.5 179.5t-44 123.5t-93 78t-156.5 24h-209v-325z" />
    <glyph glyph-name="Ntilde" unicode="&#xd1;" horiz-adv-x="1583" 
d="M119 0v1507h403l557 -778v778h385v-1507h-340l-620 879v-879h-385zM512 1567l-162 215q216 198 322 198q51 0 155.5 -49t126.5 -49q18 0 49 19.5t54.5 39t62.5 54.5l162 -215q-227 -199 -321 -199q-51 0 -156 49t-127 49q-41 0 -166 -112z" />
    <glyph glyph-name="Ograve" unicode="&#xd2;" horiz-adv-x="1617" 
d="M807 -25q-103 0 -183.5 8.5t-159.5 30.5t-137.5 59t-109 96.5t-82 140.5t-49.5 192.5t-18 251.5t18 251.5t50 192.5t83 140t109.5 96t138.5 59t160.5 30.5t183.5 8.5q104 0 184.5 -8t160 -29.5t137.5 -58.5t108.5 -95.5t82 -139.5t49 -192t17.5 -251t-18 -251.5
t-49.5 -193t-82.5 -141.5t-110 -97.5t-138 -60t-160.5 -31t-184.5 -8.5zM811 307q186 0 252.5 84.5t66.5 302.5v119q0 216 -68 297.5t-255 81.5q-186 0 -253 -80t-67 -295v-119q0 -217 69.5 -304t254.5 -87zM750 1602l-402 448h463l217 -448h-278z" />
    <glyph glyph-name="Oacute" unicode="&#xd3;" horiz-adv-x="1617" 
d="M807 -25q-103 0 -183.5 8.5t-159.5 30.5t-137.5 59t-109 96.5t-82 140.5t-49.5 192.5t-18 251.5t18 251.5t50 192.5t83 140t109.5 96t138.5 59t160.5 30.5t183.5 8.5q104 0 184.5 -8t160 -29.5t137.5 -58.5t108.5 -95.5t82 -139.5t49 -192t17.5 -251t-18 -251.5
t-49.5 -193t-82.5 -141.5t-110 -97.5t-138 -60t-160.5 -31t-184.5 -8.5zM811 307q186 0 252.5 84.5t66.5 302.5v119q0 216 -68 297.5t-255 81.5q-186 0 -253 -80t-67 -295v-119q0 -217 69.5 -304t254.5 -87zM590 1602l217 448h463l-402 -448h-278z" />
    <glyph glyph-name="Ocircumflex" unicode="&#xd4;" horiz-adv-x="1617" 
d="M807 -25q-103 0 -183.5 8.5t-159.5 30.5t-137.5 59t-109 96.5t-82 140.5t-49.5 192.5t-18 251.5t18 251.5t50 192.5t83 140t109.5 96t138.5 59t160.5 30.5t183.5 8.5q104 0 184.5 -8t160 -29.5t137.5 -58.5t108.5 -95.5t82 -139.5t49 -192t17.5 -251t-18 -251.5
t-49.5 -193t-82.5 -141.5t-110 -97.5t-138 -60t-160.5 -31t-184.5 -8.5zM811 307q186 0 252.5 84.5t66.5 302.5v119q0 216 -68 297.5t-255 81.5q-186 0 -253 -80t-67 -295v-119q0 -217 69.5 -304t254.5 -87zM369 1602l278 407h314l278 -407h-258l-182 155l-183 -155h-247z
" />
    <glyph glyph-name="Otilde" unicode="&#xd5;" horiz-adv-x="1617" 
d="M807 -25q-103 0 -183.5 8.5t-159.5 30.5t-137.5 59t-109 96.5t-82 140.5t-49.5 192.5t-18 251.5t18 251.5t50 192.5t83 140t109.5 96t138.5 59t160.5 30.5t183.5 8.5q104 0 184.5 -8t160 -29.5t137.5 -58.5t108.5 -95.5t82 -139.5t49 -192t17.5 -251t-18 -251.5
t-49.5 -193t-82.5 -141.5t-110 -97.5t-138 -60t-160.5 -31t-184.5 -8.5zM811 307q186 0 252.5 84.5t66.5 302.5v119q0 216 -68 297.5t-255 81.5q-186 0 -253 -80t-67 -295v-119q0 -217 69.5 -304t254.5 -87zM530 1567l-161 215q216 198 321 198q51 0 156 -49t127 -49
q18 0 49 19.5t54.5 39t62.5 54.5l161 -215q-227 -199 -321 -199q-51 0 -156 49t-127 49q-41 0 -166 -112z" />
    <glyph glyph-name="Odieresis" unicode="&#xd6;" horiz-adv-x="1617" 
d="M807 -25q-103 0 -183.5 8.5t-159.5 30.5t-137.5 59t-109 96.5t-82 140.5t-49.5 192.5t-18 251.5t18 251.5t50 192.5t83 140t109.5 96t138.5 59t160.5 30.5t183.5 8.5q104 0 184.5 -8t160 -29.5t137.5 -58.5t108.5 -95.5t82 -139.5t49 -192t17.5 -251t-18 -251.5
t-49.5 -193t-82.5 -141.5t-110 -97.5t-138 -60t-160.5 -31t-184.5 -8.5zM811 307q186 0 252.5 84.5t66.5 302.5v119q0 216 -68 297.5t-255 81.5q-186 0 -253 -80t-67 -295v-119q0 -217 69.5 -304t254.5 -87zM860 1602v329h354v-329h-354zM406 1602v329h354v-329h-354z" />
    <glyph glyph-name="multiply" unicode="&#xd7;" horiz-adv-x="1112" 
d="M285 250l-183 180l273 272l-273 273l183 180l272 -272l272 272l181 -180l-273 -273l273 -272l-181 -180l-272 272z" />
    <glyph glyph-name="Oslash" unicode="&#xd8;" horiz-adv-x="1617" 
d="M1360 1384q95 -87 142.5 -238t47.5 -388q0 -140 -18 -251.5t-49.5 -193t-82.5 -141.5t-110 -97.5t-138 -60t-160.5 -31t-184.5 -8.5q-219 0 -354 41l-127 -190h-267l199 299q-95 87 -142.5 239.5t-47.5 389.5q0 140 18 251.5t50 192.5t83 140t109.5 96t138.5 59
t160.5 30.5t183.5 8.5q222 0 354 -41l127 190h267zM498 487l473 711q-67 25 -164 25q-189 0 -259.5 -91t-70.5 -315v-119q0 -126 21 -211zM1120 1022l-477 -719q68 -27 168 -27q188 0 259 95.5t71 322.5v119q0 123 -21 209z" />
    <glyph glyph-name="Ugrave" unicode="&#xd9;" horiz-adv-x="1552" 
d="M784 -20q-147 0 -250 14t-187.5 49.5t-134.5 97.5t-76.5 157.5t-26.5 229.5v979h403v-956q0 -57 12 -96.5t32 -62.5t56.5 -35.5t75 -16.5t98.5 -4q45 0 73 1t60 6t51 13.5t38 24t29 38t16 54.5t6 74v960h385v-975q0 -133 -25 -227.5t-73.5 -157.5t-130 -100t-184 -52
t-247.5 -15zM717 1602l-402 448h463l217 -448h-278z" />
    <glyph glyph-name="Uacute" unicode="&#xda;" horiz-adv-x="1552" 
d="M784 -20q-147 0 -250 14t-187.5 49.5t-134.5 97.5t-76.5 157.5t-26.5 229.5v979h403v-956q0 -57 12 -96.5t32 -62.5t56.5 -35.5t75 -16.5t98.5 -4q45 0 73 1t60 6t51 13.5t38 24t29 38t16 54.5t6 74v960h385v-975q0 -133 -25 -227.5t-73.5 -157.5t-130 -100t-184 -52
t-247.5 -15zM557 1602l217 448h463l-401 -448h-279z" />
    <glyph glyph-name="Ucircumflex" unicode="&#xdb;" horiz-adv-x="1552" 
d="M784 -20q-147 0 -250 14t-187.5 49.5t-134.5 97.5t-76.5 157.5t-26.5 229.5v979h403v-956q0 -57 12 -96.5t32 -62.5t56.5 -35.5t75 -16.5t98.5 -4q45 0 73 1t60 6t51 13.5t38 24t29 38t16 54.5t6 74v960h385v-975q0 -133 -25 -227.5t-73.5 -157.5t-130 -100t-184 -52
t-247.5 -15zM352 1602l279 407h313l279 -407h-258l-183 155l-182 -155h-248z" />
    <glyph glyph-name="Udieresis" unicode="&#xdc;" horiz-adv-x="1552" 
d="M784 -20q-147 0 -250 14t-187.5 49.5t-134.5 97.5t-76.5 157.5t-26.5 229.5v979h403v-956q0 -57 12 -96.5t32 -62.5t56.5 -35.5t75 -16.5t98.5 -4q45 0 73 1t60 6t51 13.5t38 24t29 38t16 54.5t6 74v960h385v-975q0 -133 -25 -227.5t-73.5 -157.5t-130 -100t-184 -52
t-247.5 -15zM827 1602v329h355v-329h-355zM373 1602v329h354v-329h-354z" />
    <glyph glyph-name="Yacute" unicode="&#xdd;" horiz-adv-x="1593" 
d="M598 0v489l-578 1018h437l350 -620l350 620h416l-574 -1009v-498h-401zM578 1602l217 448h462l-401 -448h-278z" />
    <glyph glyph-name="Thorn" unicode="&#xde;" horiz-adv-x="1425" 
d="M119 0v1507h401v-204h311q68 0 117 -3t104.5 -11t94.5 -24.5t78.5 -42.5t65.5 -65t47 -91.5t30.5 -123.5t9.5 -160q0 -101 -14 -180t-37.5 -133.5t-63.5 -93.5t-82 -61.5t-103 -35t-116.5 -16.5t-132.5 -4h-309v-258h-401zM520 571h311q71 0 108.5 46.5t37.5 160.5
q0 113 -38.5 158t-109.5 45h-309v-410z" />
    <glyph glyph-name="germandbls" unicode="&#xdf;" horiz-adv-x="1452" 
d="M725 -12l-41 297q148 20 225 41t111 55q15 15 21.5 32.5t7 27.5t0.5 38v29.5t-2.5 22t-9 26t-17.5 21.5q-33 33 -101.5 53t-191.5 39v241q7 11 28.5 44.5t26.5 42t20.5 34t19.5 34.5t13 29t11.5 32.5t5 29t2.5 33.5q0 59 -30.5 73.5t-145.5 14.5q-48 0 -68 -17t-20 -69
v-1192h-381v711h-137v282h137v219q0 103 24 169t82 106.5t146 56t227 15.5q101 0 171.5 -5.5t134 -20t103 -40t68.5 -66.5t41.5 -98t12.5 -135q0 -97 -46.5 -161t-164.5 -144q258 -68 333 -170q68 -90 68 -242q0 -119 -19.5 -194t-68.5 -117q-89 -78 -231 -119t-365 -59z
" />
    <glyph glyph-name="agrave" unicode="&#xe0;" horiz-adv-x="1159" 
d="M313 -14q-120 0 -190 85.5t-70 250.5q0 80 8.5 127t38.5 79q49 54 177.5 75.5t394.5 21.5v24q0 41 -19.5 57.5t-85.5 16.5q-191 0 -387 -27l-35 297q179 31 422 31q189 0 296.5 -35.5t148.5 -103.5t41 -183v-702h-342l-31 98q-7 -4 -36.5 -21t-45.5 -25.5t-51.5 -23
t-66 -22t-75 -14t-92.5 -6.5zM522 258q60 0 150 21v176q-104 0 -151 -6t-68 -25q-19 -19 -19 -68q0 -55 19 -76.5t69 -21.5zM520 1110l-401 449h463l217 -449h-279z" />
    <glyph glyph-name="aacute" unicode="&#xe1;" horiz-adv-x="1159" 
d="M313 -14q-120 0 -190 85.5t-70 250.5q0 80 8.5 127t38.5 79q49 54 177.5 75.5t394.5 21.5v24q0 41 -19.5 57.5t-85.5 16.5q-191 0 -387 -27l-35 297q179 31 422 31q189 0 296.5 -35.5t148.5 -103.5t41 -183v-702h-342l-31 98q-7 -4 -36.5 -21t-45.5 -25.5t-51.5 -23
t-66 -22t-75 -14t-92.5 -6.5zM522 258q60 0 150 21v176q-104 0 -151 -6t-68 -25q-19 -19 -19 -68q0 -55 19 -76.5t69 -21.5zM360 1110l218 449h462l-401 -449h-279z" />
    <glyph glyph-name="acircumflex" unicode="&#xe2;" horiz-adv-x="1159" 
d="M313 -14q-120 0 -190 85.5t-70 250.5q0 80 8.5 127t38.5 79q49 54 177.5 75.5t394.5 21.5v24q0 41 -19.5 57.5t-85.5 16.5q-191 0 -387 -27l-35 297q179 31 422 31q189 0 296.5 -35.5t148.5 -103.5t41 -183v-702h-342l-31 98q-7 -4 -36.5 -21t-45.5 -25.5t-51.5 -23
t-66 -22t-75 -14t-92.5 -6.5zM522 258q60 0 150 21v176q-104 0 -151 -6t-68 -25q-19 -19 -19 -68q0 -55 19 -76.5t69 -21.5zM139 1110l279 408h313l279 -408h-258l-183 156l-182 -156h-248z" />
    <glyph glyph-name="atilde" unicode="&#xe3;" horiz-adv-x="1159" 
d="M313 -14q-120 0 -190 85.5t-70 250.5q0 80 8.5 127t38.5 79q49 54 177.5 75.5t394.5 21.5v24q0 41 -19.5 57.5t-85.5 16.5q-191 0 -387 -27l-35 297q179 31 422 31q189 0 296.5 -35.5t148.5 -103.5t41 -183v-702h-342l-31 98q-7 -4 -36.5 -21t-45.5 -25.5t-51.5 -23
t-66 -22t-75 -14t-92.5 -6.5zM522 258q60 0 150 21v176q-104 0 -151 -6t-68 -25q-19 -19 -19 -68q0 -55 19 -76.5t69 -21.5zM301 1075l-162 215q217 199 322 199q51 0 155.5 -49t126.5 -49q41 0 166 112l162 -215q-226 -198 -321 -198q-51 0 -156 49t-127 49
q-18 0 -49 -19.5t-54.5 -39t-62.5 -54.5z" />
    <glyph glyph-name="adieresis" unicode="&#xe4;" horiz-adv-x="1159" 
d="M313 -14q-120 0 -190 85.5t-70 250.5q0 80 8.5 127t38.5 79q49 54 177.5 75.5t394.5 21.5v24q0 41 -19.5 57.5t-85.5 16.5q-191 0 -387 -27l-35 297q179 31 422 31q189 0 296.5 -35.5t148.5 -103.5t41 -183v-702h-342l-31 98q-7 -4 -36.5 -21t-45.5 -25.5t-51.5 -23
t-66 -22t-75 -14t-92.5 -6.5zM522 258q60 0 150 21v176q-104 0 -151 -6t-68 -25q-19 -19 -19 -68q0 -55 19 -76.5t69 -21.5zM631 1110v330h354v-330h-354zM176 1110v330h354v-330h-354z" />
    <glyph glyph-name="aring" unicode="&#xe5;" horiz-adv-x="1159" 
d="M313 -14q-120 0 -190 85.5t-70 250.5q0 80 8.5 127t38.5 79q49 54 177.5 75.5t394.5 21.5v24q0 41 -19.5 57.5t-85.5 16.5q-191 0 -387 -27l-35 297q179 31 422 31q189 0 296.5 -35.5t148.5 -103.5t41 -183v-702h-342l-31 98q-7 -4 -36.5 -21t-45.5 -25.5t-51.5 -23
t-66 -22t-75 -14t-92.5 -6.5zM522 258q60 0 150 21v176q-104 0 -151 -6t-68 -25q-19 -19 -19 -68q0 -55 19 -76.5t69 -21.5zM580 1092q-86 0 -144 10t-102.5 36.5t-65 74.5t-20.5 122q0 143 79.5 196.5t252.5 53.5q174 0 253.5 -53.5t79.5 -196.5q0 -73 -21 -121.5t-66 -75
t-102.5 -36.5t-143.5 -10zM580 1221q69 0 92.5 20.5t23.5 93.5q0 74 -24.5 97.5t-91.5 23.5q-66 0 -90.5 -23.5t-24.5 -97.5q0 -73 24 -93.5t91 -20.5z" />
    <glyph glyph-name="ae" unicode="&#xe6;" horiz-adv-x="1718" 
d="M313 -14q-120 0 -190 85.5t-70 250.5q0 177 76 227q66 43 176 59.5t367 16.5v24q0 41 -19.5 57.5t-85.5 16.5q-191 0 -387 -27l-35 297q179 31 422 31q140 0 218 -20.5t116 -63.5q108 84 277 84q130 0 218 -21.5t151.5 -73t92.5 -141t29 -223.5v-139h-616
q1 -83 46.5 -110t174.5 -27q166 0 297 24l45 -288q-62 -17 -170.5 -28t-165.5 -11q-203 0 -324.5 30.5t-187.5 110.5q-208 -141 -455 -141zM1053 616h256q0 98 -26 127t-107 29q-72 0 -97.5 -32t-25.5 -124zM522 258q87 0 170 33q-17 66 -20 164q-106 0 -152 -6t-67 -25
q-11 -11 -15 -23.5t-4 -44.5q0 -55 19 -76.5t69 -21.5z" />
    <glyph glyph-name="ccedilla" unicode="&#xe7;" horiz-adv-x="985" 
d="M430 -4q-131 16 -208 67t-115.5 157.5t-38.5 283.5q0 131 21.5 222t62 150t112 92t159 45.5t216.5 12.5q152 0 291 -33l-51 -303q-124 21 -244 21q-62 0 -97 -8t-55.5 -33.5t-26 -61t-5.5 -100.5t6.5 -102.5t26.5 -66t57 -39.5t98 -11q15 0 29.5 0.5t25.5 1t25.5 2t22 2
t23 3t21 3t23 4t21 4.5t24.5 5t25 5l51 -294q-99 -32 -268 -39l51 -281q-37 -39 -147.5 -86t-250.5 -76l-61 252q58 10 120 30t81 34z" />
    <glyph glyph-name="egrave" unicode="&#xe8;" horiz-adv-x="1126" 
d="M676 -14q-113 0 -195 8.5t-153.5 30.5t-117.5 59t-79.5 94.5t-48 137.5t-14.5 188q0 109 16 192.5t49 140t74.5 94t101.5 57.5t121 28t141 8q130 0 219 -21.5t152.5 -73t93 -141t29.5 -223.5v-139h-616q1 -83 46.5 -110t174.5 -27q166 0 297 24l45 -288
q-62 -17 -170.5 -28t-165.5 -11zM449 616h256q0 98 -26.5 127t-107.5 29q-72 0 -97 -32t-25 -124zM498 1110l-402 449h463l217 -449h-278z" />
    <glyph glyph-name="eacute" unicode="&#xe9;" horiz-adv-x="1126" 
d="M676 -14q-113 0 -195 8.5t-153.5 30.5t-117.5 59t-79.5 94.5t-48 137.5t-14.5 188q0 109 16 192.5t49 140t74.5 94t101.5 57.5t121 28t141 8q130 0 219 -21.5t152.5 -73t93 -141t29.5 -223.5v-139h-616q1 -83 46.5 -110t174.5 -27q166 0 297 24l45 -288
q-62 -17 -170.5 -28t-165.5 -11zM449 616h256q0 98 -26.5 127t-107.5 29q-72 0 -97 -32t-25 -124zM338 1110l217 449h463l-402 -449h-278z" />
    <glyph glyph-name="ecircumflex" unicode="&#xea;" horiz-adv-x="1126" 
d="M676 -14q-113 0 -195 8.5t-153.5 30.5t-117.5 59t-79.5 94.5t-48 137.5t-14.5 188q0 109 16 192.5t49 140t74.5 94t101.5 57.5t121 28t141 8q130 0 219 -21.5t152.5 -73t93 -141t29.5 -223.5v-139h-616q1 -83 46.5 -110t174.5 -27q166 0 297 24l45 -288
q-62 -17 -170.5 -28t-165.5 -11zM449 616h256q0 98 -26.5 127t-107.5 29q-72 0 -97 -32t-25 -124zM117 1110l278 408h314l278 -408h-258l-182 156l-182 -156h-248z" />
    <glyph glyph-name="edieresis" unicode="&#xeb;" horiz-adv-x="1126" 
d="M676 -14q-113 0 -195 8.5t-153.5 30.5t-117.5 59t-79.5 94.5t-48 137.5t-14.5 188q0 109 16 192.5t49 140t74.5 94t101.5 57.5t121 28t141 8q130 0 219 -21.5t152.5 -73t93 -141t29.5 -223.5v-139h-616q1 -83 46.5 -110t174.5 -27q166 0 297 24l45 -288
q-62 -17 -170.5 -28t-165.5 -11zM449 616h256q0 98 -26.5 127t-107.5 29q-72 0 -97 -32t-25 -124zM608 1110v330h355v-330h-355zM154 1110v330h354v-330h-354z" />
    <glyph glyph-name="igrave" unicode="&#xec;" horiz-adv-x="638" 
d="M129 0v993h381v-993h-381zM219 1110l-401 449h463l217 -449h-279z" />
    <glyph glyph-name="iacute" unicode="&#xed;" horiz-adv-x="638" 
d="M129 0v993h381v-993h-381zM141 1110l217 449h463l-401 -449h-279z" />
    <glyph glyph-name="icircumflex" unicode="&#xee;" horiz-adv-x="638" 
d="M129 0v993h381v-993h-381zM-121 1110l279 408h313l279 -408h-258l-183 156l-182 -156h-248z" />
    <glyph glyph-name="idieresis" unicode="&#xef;" horiz-adv-x="638" 
d="M129 0v993h381v-993h-381zM371 1110v330h354v-330h-354zM-84 1110v330h354v-330h-354z" />
    <glyph glyph-name="eth" unicode="&#xf0;" horiz-adv-x="1296" 
d="M795 1077h-246v281h149q-3 7 -47 121l373 69q39 -87 72 -190h219v-281h-144q48 -219 48 -383q0 -118 -6 -207.5t-21 -163.5t-36 -126t-56.5 -91.5t-76.5 -63.5t-101.5 -39t-126.5 -20.5t-156 -5.5t-155.5 5.5t-128.5 19.5t-105.5 39.5t-79 65t-57 96.5t-32 134t-11.5 177
q0 98 10 175t25.5 129t42 89.5t53 58t64.5 32.5t70 15t77 3q69 0 198 -30t215 -68q-6 72 -30 159zM647 260q63 0 100 11.5t57 43.5t26 74t6 117v133q-112 45 -252 45q-49 0 -75 -11.5t-41 -51t-15 -115.5q0 -57 3 -94.5t12 -66.5t21 -44.5t36 -25t51 -12.5t71 -3z" />
    <glyph glyph-name="ntilde" unicode="&#xf1;" 
d="M119 0v993h344l29 -96q60 37 184 78t221 41q135 0 201.5 -59.5t66.5 -186.5v-770h-381v618q0 41 -22.5 55.5t-81.5 14.5q-86 0 -178 -22v-666h-383zM358 1075l-161 215q217 199 321 199q51 0 156 -49t127 -49q41 0 166 112l161 -215q-226 -198 -321 -198q-51 0 -156 49
t-127 49q-18 0 -49 -19.5t-54.5 -39t-62.5 -54.5z" />
    <glyph glyph-name="ograve" unicode="&#xf2;" horiz-adv-x="1251" 
d="M625 -14q-104 0 -180.5 9t-141.5 32t-107.5 60.5t-72 95.5t-42.5 136.5t-13 184.5q0 158 30 259t100.5 159.5t171.5 81t259 22.5q104 0 180.5 -9t141 -32t106.5 -60.5t71.5 -95.5t42.5 -136.5t13 -184.5q0 -127 -20.5 -216t-60.5 -149t-109 -94.5t-156.5 -48.5
t-212.5 -14zM629 260q59 0 93.5 12.5t52 46t22 73t4.5 112.5q0 57 -3 92t-13 66.5t-29.5 47t-51 24.5t-79.5 9q-60 0 -94.5 -11t-52.5 -42.5t-22.5 -70t-4.5 -111.5q0 -58 3 -93.5t13.5 -68.5t30 -49.5t51.5 -26.5t80 -10zM565 1110l-401 449h463l217 -449h-279z" />
    <glyph glyph-name="oacute" unicode="&#xf3;" horiz-adv-x="1251" 
d="M625 -14q-104 0 -180.5 9t-141.5 32t-107.5 60.5t-72 95.5t-42.5 136.5t-13 184.5q0 158 30 259t100.5 159.5t171.5 81t259 22.5q104 0 180.5 -9t141 -32t106.5 -60.5t71.5 -95.5t42.5 -136.5t13 -184.5q0 -127 -20.5 -216t-60.5 -149t-109 -94.5t-156.5 -48.5
t-212.5 -14zM629 260q59 0 93.5 12.5t52 46t22 73t4.5 112.5q0 57 -3 92t-13 66.5t-29.5 47t-51 24.5t-79.5 9q-60 0 -94.5 -11t-52.5 -42.5t-22.5 -70t-4.5 -111.5q0 -58 3 -93.5t13.5 -68.5t30 -49.5t51.5 -26.5t80 -10zM406 1110l217 449h462l-401 -449h-278z" />
    <glyph glyph-name="ocircumflex" unicode="&#xf4;" horiz-adv-x="1251" 
d="M625 -14q-104 0 -180.5 9t-141.5 32t-107.5 60.5t-72 95.5t-42.5 136.5t-13 184.5q0 158 30 259t100.5 159.5t171.5 81t259 22.5q104 0 180.5 -9t141 -32t106.5 -60.5t71.5 -95.5t42.5 -136.5t13 -184.5q0 -127 -20.5 -216t-60.5 -149t-109 -94.5t-156.5 -48.5
t-212.5 -14zM629 260q59 0 93.5 12.5t52 46t22 73t4.5 112.5q0 57 -3 92t-13 66.5t-29.5 47t-51 24.5t-79.5 9q-60 0 -94.5 -11t-52.5 -42.5t-22.5 -70t-4.5 -111.5q0 -58 3 -93.5t13.5 -68.5t30 -49.5t51.5 -26.5t80 -10zM184 1110l279 408h313l279 -408h-258l-183 156
l-182 -156h-248z" />
    <glyph glyph-name="otilde" unicode="&#xf5;" horiz-adv-x="1251" 
d="M625 -14q-104 0 -180.5 9t-141.5 32t-107.5 60.5t-72 95.5t-42.5 136.5t-13 184.5q0 158 30 259t100.5 159.5t171.5 81t259 22.5q104 0 180.5 -9t141 -32t106.5 -60.5t71.5 -95.5t42.5 -136.5t13 -184.5q0 -127 -20.5 -216t-60.5 -149t-109 -94.5t-156.5 -48.5
t-212.5 -14zM629 260q59 0 93.5 12.5t52 46t22 73t4.5 112.5q0 57 -3 92t-13 66.5t-29.5 47t-51 24.5t-79.5 9q-60 0 -94.5 -11t-52.5 -42.5t-22.5 -70t-4.5 -111.5q0 -58 3 -93.5t13.5 -68.5t30 -49.5t51.5 -26.5t80 -10zM346 1075l-162 215q217 199 322 199
q51 0 155.5 -49t126.5 -49q41 0 166 112l162 -215q-226 -198 -321 -198q-51 0 -156 49t-127 49q-18 0 -49 -19.5t-54.5 -39t-62.5 -54.5z" />
    <glyph glyph-name="odieresis" unicode="&#xf6;" horiz-adv-x="1251" 
d="M625 -14q-104 0 -180.5 9t-141.5 32t-107.5 60.5t-72 95.5t-42.5 136.5t-13 184.5q0 158 30 259t100.5 159.5t171.5 81t259 22.5q104 0 180.5 -9t141 -32t106.5 -60.5t71.5 -95.5t42.5 -136.5t13 -184.5q0 -127 -20.5 -216t-60.5 -149t-109 -94.5t-156.5 -48.5
t-212.5 -14zM629 260q59 0 93.5 12.5t52 46t22 73t4.5 112.5q0 57 -3 92t-13 66.5t-29.5 47t-51 24.5t-79.5 9q-60 0 -94.5 -11t-52.5 -42.5t-22.5 -70t-4.5 -111.5q0 -58 3 -93.5t13.5 -68.5t30 -49.5t51.5 -26.5t80 -10zM676 1110v330h354v-330h-354zM221 1110v330h354
v-330h-354z" />
    <glyph glyph-name="divide" unicode="&#xf7;" horiz-adv-x="1112" 
d="M391 930v315h324v-315h-324zM84 565v277h944v-277h-944zM391 162v315h324v-315h-324z" />
    <glyph glyph-name="oslash" unicode="&#xf8;" horiz-adv-x="1249" 
d="M1087 893q97 -111 97 -385q0 -127 -20.5 -216t-60.5 -149t-109 -94.5t-156.5 -48.5t-212.5 -14q-144 0 -232 16l-114 -145h-279l186 239q-61 58 -89.5 156.5t-28.5 251.5q0 158 30 259t100.5 159.5t171.5 81t259 22.5q164 0 264 -25l78 101h278q-74 -96 -162 -209z
M442 424l267 342q-31 8 -84 8q-38 0 -65.5 -4.5t-48 -12.5t-33.5 -25t-20.5 -34t-11.5 -49.5t-5 -62t-1 -78.5q0 -59 2 -84zM811 539l-240 -306q32 -4 58 -4q38 0 65 5.5t47 13.5t32.5 26.5t20.5 36.5t11.5 51.5t4.5 62.5t1 79v35z" />
    <glyph glyph-name="ugrave" unicode="&#xf9;" 
d="M379 -23q-134 0 -201 59.5t-67 186.5v770h381v-618q0 -41 23 -55.5t83 -14.5q82 0 178 23v665h381v-991l-342 -2l-29 96q-64 -38 -187 -78.5t-220 -40.5zM578 1110l-402 449h463l217 -449h-278z" />
    <glyph glyph-name="uacute" unicode="&#xfa;" 
d="M379 -23q-134 0 -201 59.5t-67 186.5v770h381v-618q0 -41 23 -55.5t83 -14.5q82 0 178 23v665h381v-991l-342 -2l-29 96q-64 -38 -187 -78.5t-220 -40.5zM418 1110l217 449h463l-402 -449h-278z" />
    <glyph glyph-name="ucircumflex" unicode="&#xfb;" 
d="M379 -23q-134 0 -201 59.5t-67 186.5v770h381v-618q0 -41 23 -55.5t83 -14.5q82 0 178 23v665h381v-991l-342 -2l-29 96q-64 -38 -187 -78.5t-220 -40.5zM197 1110l278 408h313l279 -408h-258l-182 156l-183 -156h-247z" />
    <glyph glyph-name="udieresis" unicode="&#xfc;" 
d="M379 -23q-134 0 -201 59.5t-67 186.5v770h381v-618q0 -41 23 -55.5t83 -14.5q82 0 178 23v665h381v-991l-342 -2l-29 96q-64 -38 -187 -78.5t-220 -40.5zM688 1110v330h354v-330h-354zM233 1110v330h355v-330h-355z" />
    <glyph glyph-name="yacute" unicode="&#xfd;" horiz-adv-x="1210" 
d="M414 29l-404 964h398l219 -534l217 534h356l-588 -1403h-383zM401 1110l217 449h463l-401 -449h-279z" />
    <glyph glyph-name="thorn" unicode="&#xfe;" horiz-adv-x="1282" 
d="M119 -410v1958h381v-647q220 115 399 115q174 0 243.5 -116t69.5 -398q0 -280 -74 -399t-249 -119q-109 0 -215 25.5t-174 53.5v-473h-381zM717 287q58 0 84 43.5t26 167.5q0 88 -12.5 131t-33 54t-64.5 11q-109 0 -217 -22v-371q110 -14 217 -14z" />
    <glyph glyph-name="ydieresis" unicode="&#xff;" horiz-adv-x="1210" 
d="M414 29l-404 964h398l219 -534l217 534h356l-588 -1403h-383zM662 1110v330h354v-330h-354zM207 1110v330h354v-330h-354z" />
    <glyph glyph-name="dotlessi" unicode="&#x131;" horiz-adv-x="638" 
d="M129 0v993h381v-993h-381z" />
    <glyph glyph-name="Lslash" unicode="&#x141;" horiz-adv-x="1280" 
d="M205 537l-129 -48v256l129 48v714h401v-569l230 84v-256l-230 -84v-367h637v-315h-1038v537z" />
    <glyph glyph-name="lslash" unicode="&#x142;" horiz-adv-x="802" 
d="M211 551l-156 -62v256l156 62v741h381v-587l156 61v-256l-156 -61v-705h-381v551z" />
    <glyph glyph-name="OE" unicode="&#x152;" horiz-adv-x="2091" 
d="M791 0q-88 0 -154 3.5t-134 14t-117 28.5t-97 47t-81 70t-61 96.5t-44.5 127.5t-25.5 163t-9 202t9 202t25.5 163.5t44.5 128t61 97t80.5 70.5t97 47.5t117 28.5t134.5 14t154 4h1222v-346h-639v-231h508v-346h-508v-248h639v-336h-1222zM793 330h198v837h-198
q-98 0 -158 -18t-94.5 -64t-47 -111.5t-12.5 -172.5v-99q0 -108 12.5 -174t47 -113t95 -66t157.5 -19z" />
    <glyph glyph-name="oe" unicode="&#x153;" horiz-adv-x="1867" 
d="M635 -14q-110 0 -189 9t-145 32t-108 60.5t-71 96t-41.5 136.5t-12.5 184q0 159 28.5 259t99 159.5t174 81.5t269.5 22q154 0 241.5 -19.5t133.5 -68.5q107 86 313 86q130 0 218 -21.5t151.5 -73t93 -141t29.5 -223.5v-139h-617q1 -83 46.5 -110t174.5 -27q166 0 297 24
l45 -288q-62 -17 -170 -28t-165 -11q-186 9 -251 21q-103 20 -167 67q-48 -48 -136.5 -68t-240.5 -20zM1202 616h256q0 98 -26 127t-107 29q-72 0 -97.5 -32t-25.5 -124zM639 260q62 0 98.5 12.5t55 45.5t23.5 73t5 113q0 72 -5.5 112t-25 71.5t-56.5 43.5t-99 12
q-63 0 -99.5 -11t-55.5 -42.5t-24 -70t-5 -111.5q0 -57 3.5 -93t14.5 -68.5t31.5 -50t54.5 -27t84 -9.5z" />
    <glyph glyph-name="Scaron" unicode="&#x160;" horiz-adv-x="1337" 
d="M639 -20q-172 0 -330 18t-233 35l61 332q45 -11 229 -31.5t277 -20.5q142 0 182.5 23t40.5 102q0 32 -6 50.5t-17.5 33t-47 25.5t-74 19.5t-119.5 23.5q-117 21 -191.5 39t-139.5 45.5t-99.5 59t-59.5 82t-33.5 112.5t-8.5 153q0 127 39 215t116.5 138t180 72t243.5 22
q131 0 315.5 -18t241.5 -37l-61 -334q-326 47 -498 47q-105 0 -139.5 -24.5t-34.5 -88.5q0 -20 1 -34t7.5 -26.5t11 -20t21.5 -16t29 -13t43 -11.5t54 -11t71 -13q96 -17 159 -30.5t125.5 -31.5t100 -36t72.5 -45.5t53 -58t32 -75t18.5 -96t4.5 -121.5q0 -128 -35.5 -214.5
t-114.5 -140t-196.5 -76.5t-290.5 -23zM516 1602l-278 407h258l182 -156l182 156h248l-279 -407h-313z" />
    <glyph glyph-name="scaron" unicode="&#x161;" horiz-adv-x="1044" 
d="M492 -12q-114 0 -239 12.5t-181 24.5l30 239q61 -11 183.5 -23t216.5 -12q82 0 107.5 10t25.5 46q0 35 -30.5 46.5t-178.5 33.5q-121 17 -190 38.5t-111 62.5t-55 96t-13 149q0 93 29 155.5t88.5 97.5t137 49.5t188.5 14.5q303 0 450 -39l-39 -246q-88 14 -215 24.5
t-200 10.5q-50 0 -69 -10.5t-19 -44.5q0 -35 26.5 -45t129.5 -21q34 -4 54 -6q83 -10 139.5 -21t100.5 -29.5t68.5 -40.5t40.5 -58t21 -77t5 -103q0 -82 -21 -140.5t-59.5 -96t-102.5 -59.5t-138.5 -30t-179.5 -8zM371 1110l-279 408h258l182 -156l183 156h248l-279 -408
h-313z" />
    <glyph glyph-name="Ydieresis" unicode="&#x178;" horiz-adv-x="1593" 
d="M598 0v489l-578 1018h437l350 -620l350 620h416l-574 -1009v-498h-401zM848 1602v329h354v-329h-354zM393 1602v329h355v-329h-355z" />
    <glyph glyph-name="Zcaron" unicode="&#x17d;" horiz-adv-x="1392" 
d="M72 0v336l753 825h-735v346h1229v-346l-746 -825h762v-336h-1263zM545 1602l-279 407h258l183 -156l182 156h248l-279 -407h-313z" />
    <glyph glyph-name="zcaron" unicode="&#x17e;" horiz-adv-x="1128" 
d="M72 0v266l491 424h-473v303h963v-266l-482 -428h512v-299h-1011zM412 1110l-279 408h258l182 -156l183 156h248l-279 -408h-313z" />
    <glyph glyph-name="florin" unicode="&#x192;" horiz-adv-x="1024" 
d="M82 -328l149 899h-159v299h211l41 260q11 68 25 113.5t41 86.5t64.5 66.5t99.5 47.5t142 36t195 27l47 -307q-58 -9 -92.5 -16t-63.5 -17.5t-43 -19.5t-25.5 -27t-16 -36t-9.5 -50l-26 -164h219v-299h-271l-149 -899h-379z" />
    <glyph glyph-name="circumflex" unicode="&#x2c6;" horiz-adv-x="970" 
d="M45 1110l279 408h313l278 -408h-258l-182 156l-182 -156h-248z" />
    <glyph glyph-name="caron" unicode="&#x2c7;" horiz-adv-x="970" 
d="M334 1110l-279 408h258l183 -156l182 156h248l-279 -408h-313z" />
    <glyph glyph-name="breve" unicode="&#x2d8;" horiz-adv-x="972" 
d="M485 1096q-92 0 -224 21.5t-181 47.5v357h293v-136q43 -24 112 -24q74 0 115 24v136h293v-357q-41 -28 -175.5 -48.5t-232.5 -20.5z" />
    <glyph glyph-name="dotaccent" unicode="&#x2d9;" horiz-adv-x="970" 
d="M295 1110v377h381v-377h-381z" />
    <glyph glyph-name="ring" unicode="&#x2da;" horiz-adv-x="972" 
d="M485 1092q-86 0 -144 10t-102 36.5t-64.5 74.5t-20.5 122q0 143 79.5 196.5t251.5 53.5q174 0 254 -53.5t80 -196.5q0 -73 -21 -121.5t-66 -75t-103 -36.5t-144 -10zM485 1221q69 0 93 20.5t24 93.5q0 74 -25 97.5t-92 23.5q-66 0 -90 -23.5t-24 -97.5q0 -73 23.5 -93.5
t90.5 -20.5z" />
    <glyph glyph-name="ogonek" unicode="&#x2db;" horiz-adv-x="972" 
d="M612 -457q-140 29 -250 76t-147 86l68 375l221 -49l-31 -172q19 -14 81 -34t120 -30z" />
    <glyph glyph-name="tilde" unicode="&#x2dc;" horiz-adv-x="972" 
d="M182 1075l-162 215q217 199 322 199q51 0 156 -49t127 -49q41 0 166 112l161 -215q-226 -198 -321 -198q-51 0 -156 49t-127 49q-18 0 -49 -19.5t-54.5 -39t-62.5 -54.5z" />
    <glyph glyph-name="hungarumlaut" unicode="&#x2dd;" horiz-adv-x="970" 
d="M391 1110l217 449h381l-401 -449h-197zM-18 1110l217 449h381l-402 -449h-196z" />
    <glyph glyph-name="Delta" unicode="&#x394;" horiz-adv-x="1386" 
d="M727 -406l-53 332q49 8 83.5 17t57 22.5t35 25.5t18.5 34t7.5 39.5t1.5 50.5v579h-287v-694h-381v690h-137v303h137v129q0 68 10 115.5t42 89t76.5 70t129 58t183 54t253.5 56.5l66 -308q-116 -29 -179.5 -48t-109 -35t-62.5 -33.5t-22.5 -33.5t-5.5 -46v-68h667v-970
q0 -61 -4 -104.5t-17 -89t-36.5 -76.5t-62.5 -60.5t-95.5 -48t-134.5 -31.5t-180 -19z" />
    <glyph glyph-name="Delta" unicode="&#x2206;" horiz-adv-x="1386" 
d="M727 -406l-53 332q49 8 83.5 17t57 22.5t35 25.5t18.5 34t7.5 39.5t1.5 50.5v579h-287v-694h-381v690h-137v303h137v129q0 68 10 115.5t42 89t76.5 70t129 58t183 54t253.5 56.5l66 -308q-116 -29 -179.5 -48t-109 -35t-62.5 -33.5t-22.5 -33.5t-5.5 -46v-68h667v-970
q0 -61 -4 -104.5t-17 -89t-36.5 -76.5t-62.5 -60.5t-95.5 -48t-134.5 -31.5t-180 -19z" />
    <glyph glyph-name="Omega" unicode="&#x3a9;" horiz-adv-x="1452" 
d="M174 0v156q0 107 25 189t67.5 134.5t105.5 85.5t133.5 46.5t156.5 13.5v194h-488v398h145v-263h343v138h-109v393h360v-393h-108v-138h332v263h143v-398h-475v-194q109 0 193 -22.5t152.5 -74.5t105 -145.5t36.5 -226.5v-156h-149v147q0 100 -19 165t-62.5 102t-103.5 51
t-153 14v-205h-143v205q-93 0 -153 -14t-103.5 -51t-62.5 -102t-19 -165v-147h-150z" />
    <glyph glyph-name="Omega" unicode="&#x2126;" horiz-adv-x="1452" 
d="M174 0v156q0 107 25 189t67.5 134.5t105.5 85.5t133.5 46.5t156.5 13.5v194h-488v398h145v-263h343v138h-109v393h360v-393h-108v-138h332v263h143v-398h-475v-194q109 0 193 -22.5t152.5 -74.5t105 -145.5t36.5 -226.5v-156h-149v147q0 100 -19 165t-62.5 102t-103.5 51
t-153 14v-205h-143v205q-93 0 -153 -14t-103.5 -51t-62.5 -102t-19 -165v-147h-150z" />
    <glyph glyph-name="pi" unicode="&#x3c0;" horiz-adv-x="1748" 
d="M874 -25q-159 0 -274.5 14.5t-208 50.5t-152 93t-99 145t-56 202.5t-16.5 271.5t16.5 271.5t56 203.5t99 146t152 93t208.5 51t274 15t274 -15t208.5 -51t152.5 -93t99.5 -146t56 -204t16.5 -271t-16.5 -271t-56.5 -203t-99.5 -145t-152 -93t-208 -50.5t-274.5 -14.5z
M874 152q95 0 158 3t129 12.5t106.5 27.5t80.5 48.5t62 74t40 106.5t24.5 143.5t6.5 186.5t-6.5 186.5t-24.5 143.5t-40 106.5t-62 74t-80.5 48.5t-106.5 27.5t-129 12.5t-158 3q-76 0 -128.5 -1.5t-109.5 -7.5t-95 -15.5t-77.5 -26.5t-64.5 -40.5t-49 -57.5t-37.5 -76.5
t-25 -99t-15.5 -124.5t-4 -153t4 -153t15.5 -124.5t25 -99t37.5 -76.5t49 -57.5t64.5 -40.5t77.5 -26.5t95 -15.5t109.5 -7.5t128.5 -1.5zM510 289v944h448q50 0 84 -2t74 -10.5t66 -23t52 -41t40.5 -64.5t23.5 -92.5t9 -125.5q0 -83 -11 -144.5t-35 -100.5t-51.5 -63.5
t-72 -36.5t-83.5 -15.5t-98 -3.5h-165v-221h-281zM791 729h147q86 0 86 143q0 140 -88 140h-145v-283z" />
    <glyph glyph-name="endash" unicode="&#x2013;" horiz-adv-x="1050" 
d="M82 455v290h887v-290h-887z" />
    <glyph glyph-name="emdash" unicode="&#x2014;" horiz-adv-x="1613" 
d="M82 455v290h1452v-290h-1452z" />
    <glyph glyph-name="quoteleft" unicode="&#x2018;" horiz-adv-x="786" 
d="M119 971l348 628l174 -92l-106 -536h-416z" />
    <glyph glyph-name="quoteright" unicode="&#x2019;" horiz-adv-x="786" 
d="M319 879l-174 92l107 536h416z" />
    <glyph glyph-name="quotesinglbase" unicode="&#x201a;" horiz-adv-x="786" 
d="M319 -240l-174 93l107 536h416z" />
    <glyph glyph-name="quotedblleft" unicode="&#x201c;" horiz-adv-x="1257" 
d="M610 971l348 628l154 -92l-106 -536h-396zM119 971l348 628l154 -92l-107 -536h-395z" />
    <glyph glyph-name="quotedblright" unicode="&#x201d;" horiz-adv-x="1257" 
d="M791 879l-154 92l106 536h396zM299 879l-154 92l107 536h395z" />
    <glyph glyph-name="quotedblbase" unicode="&#x201e;" horiz-adv-x="1257" 
d="M791 -240l-154 93l106 536h396zM299 -240l-154 93l107 536h395z" />
    <glyph glyph-name="dagger" unicode="&#x2020;" horiz-adv-x="1107" 
d="M414 -276v1048h-342v279h342v497h280v-497h342v-279h-342v-1048h-280z" />
    <glyph glyph-name="daggerdbl" unicode="&#x2021;" horiz-adv-x="1107" 
d="M414 -328v498h-342v279h342v323h-342v279h342v497h280v-497h342v-279h-342v-323h342v-279h-342v-498h-280z" />
    <glyph glyph-name="bullet" unicode="&#x2022;" horiz-adv-x="1019" 
d="M512 152q-140 0 -223.5 38.5t-126.5 134t-43 261.5q0 125 22 208t71.5 132t120 69.5t175.5 20.5q140 0 223.5 -38.5t126.5 -134t43 -261.5q0 -125 -22 -208t-71.5 -132t-120 -69.5t-175.5 -20.5z" />
    <glyph glyph-name="ellipsis" unicode="&#x2026;" horiz-adv-x="2271" 
d="M1661 0v389h461v-389h-461zM905 0v389h461v-389h-461zM147 0v389h461v-389h-461z" />
    <glyph glyph-name="perthousand" unicode="&#x2030;" horiz-adv-x="3606" 
d="M549 506q-84 0 -146.5 8.5t-119 29t-94.5 57.5t-66.5 93.5t-41.5 136t-13 185.5q0 126 20.5 217t58 148t99.5 90.5t134 46t173 12.5q84 0 146 -8.5t118.5 -29t94.5 -57.5t66 -93.5t41 -136t13 -185.5t-13.5 -186t-42 -136.5t-67 -94t-95 -59t-119 -30t-146.5 -8.5zM844 0
l526 1507h342l-526 -1507h-342zM3054 -27q-101 0 -172 12t-132.5 45t-98 89.5t-57 147t-20.5 216.5t21 217t58 148t99 90.5t134 46t172 12.5q84 0 146.5 -8.5t119 -29t94.5 -57.5t66.5 -93.5t41.5 -136t13 -185.5q0 -126 -20.5 -217t-58 -148t-99.5 -90.5t-134 -46
t-173 -12.5zM2003 -27q-84 0 -146.5 8.5t-119 29t-94.5 57.5t-66.5 93.5t-41.5 136t-13 185.5q0 126 20.5 217t58 148t99 90.5t133.5 46t172 12.5q84 0 146.5 -8.5t119 -29t94.5 -57.5t66.5 -93.5t41.5 -136t13 -185.5q0 -126 -20.5 -217t-58 -148t-99 -90.5t-133.5 -46
t-172 -12.5zM553 754q90 0 116.5 41.5t26.5 183.5v74q0 140 -27.5 180.5t-119.5 40.5q-48 0 -74 -7t-42.5 -31.5t-21.5 -64.5t-5 -114v-74q0 -141 28 -185t119 -44zM3058 221q91 0 118 42t27 183v74q0 96 -13 142t-42.5 62.5t-93.5 16.5q-63 0 -91.5 -15.5t-40.5 -60
t-12 -141.5v-73q0 -141 28.5 -185.5t119.5 -44.5zM2005 221q91 0 118 42t27 183v74q0 96 -12.5 142t-42.5 62.5t-92 16.5q-48 0 -74 -7t-43.5 -31.5t-22.5 -64.5t-5 -114v-73q0 -141 29 -185.5t118 -44.5z" />
    <glyph glyph-name="guilsinglleft" unicode="&#x2039;" horiz-adv-x="804" 
d="M348 51l-246 418l246 422h328l-207 -422l209 -418h-330z" />
    <glyph glyph-name="guilsinglright" unicode="&#x203a;" horiz-adv-x="804" 
d="M129 51l207 422l-209 418h330l245 -418l-245 -422h-328z" />
    <glyph glyph-name="fraction" unicode="&#x2044;" horiz-adv-x="868" 
d="M0 0l526 1507h342l-526 -1507h-342z" />
    <glyph glyph-name="fraction" unicode="&#x2215;" horiz-adv-x="868" 
d="M0 0l526 1507h342l-526 -1507h-342z" />
    <glyph glyph-name="Euro" unicode="&#x20ac;" horiz-adv-x="1390" 
d="M909 -18q-138 0 -240 21.5t-187 74t-139.5 147.5t-80.5 234h-221v235h197v113h-197v235v0v0v0h1v0h1v0h1h1v0h1h1h1h1h1h1h1h1h1h1h1h1h1h1h1h1h1h1h1h1h1h1h1h1h1h1h1h1h1h1h1h1h1h1h1h2h1h1h1h1h1h1h1h1h2h1h1h1h1h1h2h1h1h1h2h1h1h1h2h1h1h2h1h1h2h1h1h2h1h1h2h1h1h2
h1h2h1h1h2h1h2h1h2h1h2h1h2h1h2h1h2h1h2h1h2h1h2h2h1h2h1h2h2h1h2h1h2h2h1h2h2h1h2h2h1h2h2h1h2h2h1h2h2h2h1h2h2h2h1h2h2h2h2h1h2h2h2h2h2h1h2h2h2h2h2h2h2h1h9q22 113 64 197.5t98.5 138.5t134 87.5t163 47t193.5 13.5q88 0 159.5 -5t105 -10t78 -13.5t57.5 -10.5
l-64 -338q-29 4 -78 10.5t-68.5 9t-54 6t-66 4.5t-73.5 1q-107 0 -164 -31t-81 -107h368v-235h-399v-113h399v-235h-366q28 -77 85.5 -110.5t161.5 -33.5q139 0 336 35l64 -323q-2 0 -42.5 -10t-61 -13.5t-67.5 -10t-104 -9t-129 -2.5z" />
    <glyph glyph-name="trademark" unicode="&#x2122;" horiz-adv-x="2082" 
d="M977 594v913h319l170 -649l148 649h334v-913h-238v702l-158 -702h-225l-160 702v-702h-190zM352 594v694h-278v219h815v-219h-279v-694h-258z" />
    <glyph glyph-name="partialdiff" unicode="&#x2202;" horiz-adv-x="1452" 
d="M174 0v156q0 107 25 189t67.5 134.5t105.5 85.5t133.5 46.5t156.5 13.5v194h-488v398h145v-263h343v138h-109v393h360v-393h-108v-138h332v263h143v-398h-475v-194q109 0 193 -22.5t152.5 -74.5t105 -145.5t36.5 -226.5v-156h-149v147q0 100 -19 165t-62.5 102t-103.5 51
t-153 14v-205h-143v205q-93 0 -153 -14t-103.5 -51t-62.5 -102t-19 -165v-147h-150z" />
    <glyph glyph-name="product" unicode="&#x220f;" horiz-adv-x="1452" 
d="M174 0v156q0 107 25 189t67.5 134.5t105.5 85.5t133.5 46.5t156.5 13.5v194h-488v398h145v-263h343v138h-109v393h360v-393h-108v-138h332v263h143v-398h-475v-194q109 0 193 -22.5t152.5 -74.5t105 -145.5t36.5 -226.5v-156h-149v147q0 100 -19 165t-62.5 102t-103.5 51
t-153 14v-205h-143v205q-93 0 -153 -14t-103.5 -51t-62.5 -102t-19 -165v-147h-150z" />
    <glyph glyph-name="summation" unicode="&#x2211;" horiz-adv-x="1452" 
d="M174 0v156q0 107 25 189t67.5 134.5t105.5 85.5t133.5 46.5t156.5 13.5v194h-488v398h145v-263h343v138h-109v393h360v-393h-108v-138h332v263h143v-398h-475v-194q109 0 193 -22.5t152.5 -74.5t105 -145.5t36.5 -226.5v-156h-149v147q0 100 -19 165t-62.5 102t-103.5 51
t-153 14v-205h-143v205q-93 0 -153 -14t-103.5 -51t-62.5 -102t-19 -165v-147h-150z" />
    <glyph glyph-name="minus" unicode="&#x2212;" horiz-adv-x="1112" 
d="M84 565v277h944v-277h-944z" />
    <glyph glyph-name="radical" unicode="&#x221a;" horiz-adv-x="1482" 
d="M426 -8l-344 819h342l205 -504l469 1200h346l-629 -1515h-389z" />
    <glyph glyph-name="infinity" unicode="&#x221e;" horiz-adv-x="2052" 
d="M209 0v690h-137v303h137v76q0 79 3.5 121t19 94.5t47.5 80t89.5 58.5t145 50.5t213.5 35.5l66 -344q-44 -8 -74.5 -15t-53.5 -14t-36.5 -18t-22 -19.5t-11.5 -27t-4 -32t-1 -42.5v-4h284v129q0 68 10 115.5t42 89t77 70t129 58t183 54t254 56.5l65 -308
q-116 -29 -179.5 -48t-109 -35t-62.5 -33.5t-22.5 -33.5t-5.5 -46v-68h668v-993h-383v694h-285v-694h-381v694h-284v-694h-381z" />
    <glyph glyph-name="integral" unicode="&#x222b;" horiz-adv-x="1452" 
d="M174 0v156q0 107 25 189t67.5 134.5t105.5 85.5t133.5 46.5t156.5 13.5v194h-488v398h145v-263h343v138h-109v393h360v-393h-108v-138h332v263h143v-398h-475v-194q109 0 193 -22.5t152.5 -74.5t105 -145.5t36.5 -226.5v-156h-149v147q0 100 -19 165t-62.5 102t-103.5 51
t-153 14v-205h-143v205q-93 0 -153 -14t-103.5 -51t-62.5 -102t-19 -165v-147h-150z" />
    <glyph glyph-name="approxequal" unicode="&#x2248;" horiz-adv-x="1452" 
d="M174 0v156q0 107 25 189t67.5 134.5t105.5 85.5t133.5 46.5t156.5 13.5v194h-488v398h145v-263h343v138h-109v393h360v-393h-108v-138h332v263h143v-398h-475v-194q109 0 193 -22.5t152.5 -74.5t105 -145.5t36.5 -226.5v-156h-149v147q0 100 -19 165t-62.5 102t-103.5 51
t-153 14v-205h-143v205q-93 0 -153 -14t-103.5 -51t-62.5 -102t-19 -165v-147h-150z" />
    <glyph glyph-name="notequal" unicode="&#x2260;" horiz-adv-x="1515" 
d="M209 0v690h-137v303h137v76q0 79 3.5 121t19 94.5t47.5 80t89.5 58.5t145 50.5t213.5 35.5l66 -344q-44 -8 -74.5 -15t-53.5 -14t-36.5 -18t-22 -19.5t-11.5 -27t-4 -32t-1 -42.5v-4h284v117q0 79 3.5 121t19 94.5t48 80t90 58.5t145 50.5t213.5 35.5l65 -344
q-44 -8 -74.5 -15t-53.5 -14t-36.5 -18t-22 -19.5t-11.5 -27t-4 -32t-1 -42.5v-45h203v-303h-203v-690h-381v690h-284v-690h-381z" />
    <glyph glyph-name="lessequal" unicode="&#x2264;" horiz-adv-x="1271" 
d="M383 -23q-173 0 -243 119t-70 402q0 280 74 399t249 119q184 0 389 -84l29 61h342v-993h-342l-29 96q-227 -119 -399 -119zM565 305q98 0 207 23v370q-118 15 -207 15q-58 0 -84 -43.5t-26 -167.5q0 -89 12 -131.5t33 -54t65 -11.5z" />
    <glyph glyph-name="greaterequal" unicode="&#x2265;" horiz-adv-x="1220" 
d="M80 -420v289q525 0 626 11q88 9 102 37q5 10 5 30q0 19 -3.5 28t-23.5 20t-54.5 15.5t-106 10t-169 8.5t-251.5 6l41 299q-136 45 -176.5 105.5t-40.5 209.5q0 62 5 104.5t18.5 84t38.5 68t65 49.5t98 35t136.5 19t182.5 7q107 0 218 -15l61 156l328 -129l-97 -246
q17 -53 17 -131q0 -76 -6 -123t-27 -89t-54.5 -64t-97 -39t-145.5 -23.5t-207 -9.5h-2l-8 -72q108 -4 182 -8.5t143 -12t111.5 -17t79.5 -26t56.5 -35.5t33.5 -48.5t18.5 -62.5t4.5 -80q0 -65 -4.5 -105.5t-24 -81.5t-49 -64t-89.5 -45.5t-135 -32.5t-196 -18.5t-261.5 -11
t-342.5 -2.5zM563 514q46 0 70 2t46.5 8t32 20.5t14.5 36.5t5 58q0 61 -12 119q-59 6 -156 6q-45 0 -69 -2t-46 -8t-31.5 -20.5t-14.5 -36.5t-5 -58q0 -45 6 -69t28 -37t49 -16t83 -3z" />
    <glyph glyph-name="lozenge" unicode="&#x25ca;" horiz-adv-x="1570" 
d="M1204 -10q-188 0 -259 69.5t-71 255.5v375h-284v-690h-381v690h-137v303h137v117q0 79 3.5 121t19 94.5t47.5 80t89.5 58.5t145 50.5t213.5 35.5l66 -344q-44 -8 -74.5 -15t-53.5 -14t-36.5 -18t-22 -19.5t-11.5 -27t-4 -32t-1 -42.5v-45h284v295l383 41v-336h224v-303
h-224v-276q0 -82 23 -110t84 -28q30 0 127 11l16 -277q-38 -7 -134.5 -13.5t-168.5 -6.5z" />
    <glyph glyph-name="apple" unicode="&#xf8ff;" horiz-adv-x="1452" 
d="M174 0v156q0 107 25 189t67.5 134.5t105.5 85.5t133.5 46.5t156.5 13.5v194h-488v398h145v-263h343v138h-109v393h360v-393h-108v-138h332v263h143v-398h-475v-194q109 0 193 -22.5t152.5 -74.5t105 -145.5t36.5 -226.5v-156h-149v147q0 100 -19 165t-62.5 102t-103.5 51
t-153 14v-205h-143v205q-93 0 -153 -14t-103.5 -51t-62.5 -102t-19 -165v-147h-150z" />
    <glyph glyph-name="NUL" horiz-adv-x="0" 
 />
    <glyph glyph-name="g.alt" horiz-adv-x="1220" 
d="M80 -420v289q525 0 626 11q88 9 102 37q5 10 5 30q0 19 -3.5 28t-23.5 20t-54.5 15.5t-106 10t-169 8.5t-251.5 6l41 299q-136 45 -176.5 105.5t-40.5 209.5q0 62 5 104.5t18.5 84t38.5 68t65 49.5t98 35t136.5 19t182.5 7q107 0 218 -15l61 156l328 -129l-97 -246
q17 -53 17 -131q0 -76 -6 -123t-27 -89t-54.5 -64t-97 -39t-145.5 -23.5t-207 -9.5h-2l-8 -72q108 -4 182 -8.5t143 -12t111.5 -17t79.5 -26t56.5 -35.5t33.5 -48.5t18.5 -62.5t4.5 -80q0 -65 -4.5 -105.5t-24 -81.5t-49 -64t-89.5 -45.5t-135 -32.5t-196 -18.5t-261.5 -11
t-342.5 -2.5zM563 514q46 0 70 2t46.5 8t32 20.5t14.5 36.5t5 58q0 61 -12 119q-59 6 -156 6q-45 0 -69 -2t-46 -8t-31.5 -20.5t-14.5 -36.5t-5 -58q0 -45 6 -69t28 -37t49 -16t83 -3z" />
    <glyph glyph-name="a.alt" horiz-adv-x="1271" 
d="M383 -23q-173 0 -243 119t-70 402q0 280 74 399t249 119q184 0 389 -84l29 61h342v-993h-342l-29 96q-227 -119 -399 -119zM565 305q98 0 207 23v370q-118 15 -207 15q-58 0 -84 -43.5t-26 -167.5q0 -89 12 -131.5t33 -54t65 -11.5z" />
    <glyph glyph-name="G.alt" horiz-adv-x="1429" 
d="M780 -18q-124 0 -218 14t-177 47.5t-139.5 90.5t-98 142t-60.5 204t-19 274t20 274t62.5 204t100.5 142.5t141 90.5t176.5 47t215.5 14q330 0 502 -43l-51 -342q-246 39 -455 39q-91 0 -148 -20t-89 -66.5t-44 -110.5t-12 -166v-119q0 -83 6 -138t25 -108t54 -83
t94.5 -48t144.5 -18q107 0 154 8v211h-199v316h569v-799q-73 -20 -220.5 -38.5t-334.5 -18.5z" />
    </font>
</defs>
</svg>
