<?xml version="1.0" standalone="no"?>
<!DOCTYPE svg PUBLIC "-//W3C//DTD SVG 1.1//EN" "http://www.w3.org/Graphics/SVG/1.1/DTD/svg11.dtd" >
<svg xmlns="http://www.w3.org/2000/svg" xmlns:xlink="http://www.w3.org/1999/xlink" version="1.1">
<metadata>
Created by FontForge 20201107 at Sat Mar 15 03:53:35 2025
 By 
Copyright (c) The Font Bureau, Inc., 2003. All rights reserved.
</metadata>
<defs>
<font id="Stainless-Regular" horiz-adv-x="1470" >
  <font-face 
    font-family="Stainless Regular"
    font-weight="400"
    font-stretch="normal"
    units-per-em="2048"
    panose-1="2 0 5 3 4 0 0 2 0 4"
    ascent="1638"
    descent="-410"
    x-height="963"
    cap-height="1493"
    bbox="-168 -418 2732 1966"
    underline-thickness="40"
    underline-position="-271"
    unicode-range="U+0020-FB02"
  />
<missing-glyph horiz-adv-x="1024" 
 />
    <glyph glyph-name="fi" unicode="fi" horiz-adv-x="1232" 
d="M219 0v784h-162v179h162v186q0 72 15.5 120.5t54 90.5t112.5 72.5t182.5 56t272.5 49.5l29 -182q-108 -17 -181 -31.5t-125.5 -31t-81 -31t-45 -37t-20.5 -43t-4 -54.5v-165h664v-963h-209v786h-455v-786h-209z" />
    <glyph glyph-name="fl" unicode="fl" horiz-adv-x="1232" 
d="M219 0v784h-162v179h162v196q0 59 5.5 100.5t21.5 80.5t43 66t70.5 51.5t103.5 43t143 35.5l47 -186q-52 -12 -87 -22t-61 -23.5t-40.5 -27t-23 -35t-11 -43t-2.5 -56.5v-180h227v-179h-227v-784h-209zM883 0v1534h209v-1534h-209z" />
    <glyph glyph-name="f_f_l" unicode="ffl" horiz-adv-x="1902" 
d="M219 0v784h-162v179h162v133q0 60 5 100t21 79t44.5 65t76.5 50.5t115.5 43t163.5 36.5l39 -188q-62 -13 -102.5 -23.5t-70.5 -24.5t-45.5 -27t-24.5 -35t-11 -42.5t-2 -56.5v-110h461v196q0 89 14 144t56 101.5t118 76.5t201 55l45 -186q-52 -12 -87 -22t-61 -23.5
t-40.5 -27t-23 -35t-11 -43t-2.5 -56.5v-180h227v-179h-227v-784h-209v784h-461v-784h-209zM1554 0v1534h207v-1534h-207z" />
    <glyph glyph-name="f_f_i" unicode="ffi" horiz-adv-x="1902" 
d="M219 0v784h-162v179h162v133q0 60 5 100t21 79t44.5 65t76.5 50.5t115.5 43t163.5 36.5l39 -188q-62 -13 -102.5 -23.5t-70.5 -24.5t-45.5 -27t-24.5 -35t-11 -42.5t-2 -56.5v-110h461v186q0 72 15.5 120.5t54 90.5t112.5 72.5t182.5 56t272.5 49.5l28 -182
q-108 -17 -181 -31.5t-125.5 -31t-81 -31t-44.5 -37t-20 -43t-4 -54.5v-165h663v-963h-207v786h-456v-786h-209v786h-461v-786h-209z" />
    <glyph glyph-name="f_j" unicode="fj" horiz-adv-x="1232" 
d="M664 -408l-35 185q91 19 140.5 35t76.5 42.5t33 54.5t6 83v794h-457v-786h-209v784h-162v179h162v186q0 72 15.5 120.5t54 90.5t112.5 72.5t182.5 56t272.5 49.5l29 -182q-108 -17 -181 -31.5t-125.5 -31t-81 -31t-45 -37t-20.5 -43t-4 -54.5v-165h664v-1000
q0 -72 -9 -118.5t-34 -89.5t-73.5 -71t-124 -51t-187.5 -41z" />
    <glyph glyph-name="f_f" unicode="ff" horiz-adv-x="1392" 
d="M219 0v784h-162v179h162v133q0 60 5 100t21 79t44.5 65t76.5 50.5t115.5 43t163.5 36.5l39 -188q-62 -13 -102.5 -23.5t-70.5 -24.5t-45.5 -27t-24.5 -35t-11 -42.5t-2 -56.5v-110h461v200q0 72 8 117.5t32.5 88t72.5 70.5t124 52t191 45l37 -186q-92 -19 -141.5 -34.5
t-76 -41.5t-32.5 -53.5t-6 -81.5v-176h241v-179h-241v-784h-209v784h-461v-784h-209z" />
    <glyph glyph-name="f_t" unicode="ft" horiz-adv-x="1439" 
d="M1122 -10q-123 0 -178 66.5t-55 213.5v514h-461v-784h-209v784h-162v179h162v200q0 72 8 117.5t32.5 88t72 70.5t123 52t190.5 45l39 -186q-92 -19 -141.5 -34.5t-76 -41.5t-32.5 -53.5t-6 -81.5v-176h461v325l207 41v-366h247v-179h-247v-475q0 -83 19.5 -112t64.5 -29
q68 0 166 12l12 -172q-118 -18 -236 -18z" />
    <glyph glyph-name=".notdef" horiz-adv-x="1024" 
 />
    <glyph glyph-name=".null" horiz-adv-x="0" 
 />
    <glyph glyph-name="nonmarkingreturn" horiz-adv-x="682" 
 />
    <glyph glyph-name="space" unicode=" " horiz-adv-x="524" 
 />
    <glyph glyph-name="space" unicode="&#xa0;" horiz-adv-x="524" 
 />
    <glyph glyph-name="exclam" unicode="!" horiz-adv-x="634" 
d="M238 428l-54 1065h271l-56 -1065h-161zM178 0v262h279v-262h-279z" />
    <glyph glyph-name="quotedbl" unicode="&#x22;" horiz-adv-x="901" 
d="M569 985l-53 508h272l-53 -508h-166zM166 985l-51 508h272l-53 -508h-168z" />
    <glyph glyph-name="numbersign" unicode="#" horiz-adv-x="1193" 
d="M160 -41l82 487h-176v168h202l45 263h-247v170h276l82 487h172l-82 -487h266l80 487h172l-82 -487h180v-170h-208l-43 -263h251v-168h-280l-82 -487h-170l80 487h-264l-82 -487h-172zM432 606h281l47 279h-281z" />
    <glyph glyph-name="dollar" unicode="$" horiz-adv-x="1212" 
d="M520 -12q-254 7 -418 47l33 186q52 -11 167.5 -25t221.5 -18v500q-89 22 -149.5 41.5t-111 45.5t-80 56t-50 73t-28 94.5t-7.5 123.5q0 90 21.5 158t69.5 120t130.5 81t200.5 36v207h178v-207q219 -8 361 -47l-37 -180q-147 27 -326 37v-473q121 -28 195 -56t131.5 -76
t81.5 -119t24 -177q0 -207 -96.5 -308t-333.5 -116v-242h-178v238zM524 1317q-120 -7 -164.5 -53t-44.5 -154q0 -53 7 -84t29.5 -58.5t63 -45.5t109.5 -37v432zM696 180q123 10 168 60.5t45 171.5q0 100 -41 144t-172 79v0v0v0v0v-1v0v0v0v-1v0v0v-1v0v-1v0v-1v0v-1v0v-1v-1
v0v-1v-1v-1v-1v-1v-1v-1v-1v-1v-1v-1v-1v-1v-1v-1v-1v-1v-1v-1v-1v-1v-1v-1v-1v-1v-1v-1v-1v-1v-1v-1v-1v-1v-1v-1v-1v-1v-1v-1v-1v-1v-1v-1v-1v-1v-1v-1v-1v-1v-1v-1v-1v-1v-1v-1v-1v-1v-1v-1v-1v-1v-1v-1v-1v-1v-1v-1v-1v-1v-1v-1v-1v-1v-1v-1v-1v-1v-1v-2v-1v-1v-1v-1v-1
v-1v-1v-1v-1v-2v-1v-1v-1v-1v-1v-1v-2v-1v-1v-1v-1v-1v-2v-1v-1v-1v-1v-2v-1v-1v-1v-1v-2v-1v-1v-1v-2v-1v-1v-1v-2v-1v-1v-1v-2v-1v-1v-2v-1v-1v-1v-2v-1v-1v-2v-1v-1v-2v-1v-1v-2v-1v-1v-2v-1v-1v-2v-1v-1v-2v-1v-1v-2v-1v-2v-1v-1v-2v-1v-2v-1v-1v-2v-1v-2v-1v-2v-1v-1
v-2v-1v-2v-1v-2v-1v-2v-1v-1v-2v-1v-2v-1v-2v-1v-2v-1v-2v-1v-2v-1v-2v-1v-2v-1v-2v-1v-2v-1v-2v-2v-1v-2v-1v-2v-1v-2v-1v-2v-2v-1v-2v-1v-2v-1v-2v-2v-1v-2v-1v-2v-2v-1v-2v-1v-2v-2v-1v-2v-1v-2v-2v-1v-2v-2v-1v-2v-2v-1v-2v-2v-1v-2v-2v-1v-2v-2v-1v-2v-2v-1v-2v-2v-1
v-2v-2v-2v-1v-2v-2v-1v-2v-2v-2v-1v-2v-2v-2v-1v-2v-2v-2v-1v-2v-2v-2v-1v-2v-2v-2v-1v-2v-2v-2v-2v-1v-2v-2v-2v-2v-1v-2v-2v-2v-2v-2v-1v-2v-2v-2v-2v-2v-1v-2v-2v-2v-2v-2v-2v-1v-2v-2v-2v-2v-2v-2v-1v-10z" />
    <glyph glyph-name="percent" unicode="%" horiz-adv-x="1927" 
d="M418 563q-74 0 -129.5 12.5t-103 44.5t-77.5 85.5t-46.5 136.5t-16.5 196q0 141 25 236t76 148t117 74.5t159 21.5q94 0 159 -21t115.5 -73t74.5 -146.5t24 -235.5q0 -113 -17 -196.5t-47.5 -137.5t-78.5 -86.5t-104 -45.5t-130 -13zM614 0l519 1493h184l-520 -1493h-183
zM1507 -25q-74 0 -129.5 12.5t-103 44.5t-77 85.5t-46 137t-16.5 196.5q0 141 24.5 236t75.5 147.5t117 74t159 21.5q74 0 129.5 -12.5t103 -44.5t77.5 -85.5t46.5 -136.5t16.5 -196q0 -141 -25 -236t-76 -148t-117 -74.5t-159 -21.5zM422 721q97 0 138.5 58.5t41.5 209.5
v98q0 152 -43.5 211.5t-140.5 59.5t-138.5 -57t-41.5 -209v-99q0 -151 43.5 -211.5t140.5 -60.5zM1511 133q97 0 139 58.5t42 209.5v99q0 152 -44 211t-141 59t-138.5 -57t-41.5 -209v-98q0 -151 43.5 -212t140.5 -61z" />
    <glyph glyph-name="ampersand" unicode="&#x26;" 
d="M1110 365l317 -365h-251l-160 182q-72 -119 -146 -160.5t-206 -41.5q-87 0 -150.5 4t-127 16.5t-106.5 34t-81.5 56t-61 84t-35 118t-12.5 156.5q0 183 81 269.5t271 127.5q-83 102 -116 175t-33 155q0 188 99.5 265t330.5 77q111 0 221.5 -16t171.5 -34l-33 -184
q-68 15 -174.5 29t-193.5 14q-92 0 -139.5 -16.5t-62.5 -47t-15 -87.5q0 -73 46.5 -143t217.5 -267l221 -256l168 348h197q-238 -491 -238 -493zM893 324l-346 397q-153 -32 -205.5 -89t-52.5 -186q0 -63 9 -109t29.5 -78t47.5 -51.5t71 -30t90 -14t115 -3.5q88 0 137 31
t105 133z" />
    <glyph glyph-name="quotesingle" unicode="'" horiz-adv-x="501" 
d="M166 985l-51 508h272l-53 -508h-168z" />
    <glyph glyph-name="parenleft" unicode="(" horiz-adv-x="737" 
d="M680 -266q-74 1 -129.5 5t-110.5 14.5t-94 26.5t-77 43.5t-63 63.5t-48 87t-36.5 114t-23.5 145.5t-14 179.5t-4 218q0 152 6.5 267t23 208.5t38 158.5t59.5 113.5t79.5 77t105 46.5t129.5 24.5t159 7.5v-182q-54 0 -91 -2t-76.5 -8.5t-65.5 -18t-52.5 -32t-43 -48
t-32.5 -68.5t-24 -92t-15 -119.5t-9.5 -149t-2.5 -183.5q0 -102 2.5 -182.5t9.5 -148.5t15 -118.5t24 -91.5t32.5 -68.5t43 -47.5t52.5 -31.5t65.5 -18t76.5 -8.5t91 -2v-180z" />
    <glyph glyph-name="parenright" unicode=")" horiz-adv-x="737" 
d="M59 -266v180q54 0 91 2t76.5 8.5t65.5 18t52.5 31.5t43 47.5t32.5 68.5t24 91.5t15 118.5t9.5 148.5t2.5 182.5q0 129 -4 224.5t-15.5 171.5t-25 127.5t-40.5 89t-54 58t-73 32.5t-90 15t-112 3v182q94 -1 160 -7.5t129.5 -24.5t105.5 -46.5t80 -77t59.5 -113.5
t38 -158.5t23 -208.5t6.5 -267q0 -121 -4 -218t-14.5 -179.5t-24 -145.5t-36.5 -114t-48 -87.5t-63 -63.5t-77 -43t-94 -26.5t-110 -14.5t-129 -5z" />
    <glyph glyph-name="asterisk" unicode="*" horiz-adv-x="899" 
d="M371 666l12 305l-248 -164l-76 141l258 146l-256 143l78 141l244 -164l-10 304h155l-12 -306l246 164l80 -143l-258 -141l256 -144l-78 -141l-246 164l8 -305h-153z" />
    <glyph glyph-name="plus" unicode="+" horiz-adv-x="1056" 
d="M440 270v332h-327v170h327v332h178v-332h326v-170h-326v-332h-178z" />
    <glyph glyph-name="comma" unicode="," horiz-adv-x="561" 
d="M164 -305l-109 61l107 520h311z" />
    <glyph glyph-name="hyphen" unicode="-" horiz-adv-x="790" 
d="M113 469v184h567v-184h-567z" />
    <glyph glyph-name="hyphen" unicode="&#xad;" horiz-adv-x="790" 
d="M113 469v184h567v-184h-567z" />
    <glyph glyph-name="period" unicode="." horiz-adv-x="561" 
d="M133 0v276h295v-276h-295z" />
    <glyph glyph-name="slash" unicode="/" horiz-adv-x="688" 
d="M-8 0l518 1493h186l-518 -1493h-186z" />
    <glyph glyph-name="zero" unicode="0" horiz-adv-x="1312" 
d="M655 -23q-156 0 -260 35.5t-177 123.5t-105.5 236t-32.5 373q0 180 22 311t65.5 220.5t115 142.5t162 76t214.5 23q155 0 259 -35.5t177.5 -123t106.5 -236.5t33 -373t-33.5 -373.5t-107.5 -238t-179 -125t-260 -36.5zM659 166q131 0 206.5 45t113 154t37.5 299v163
q0 190 -38.5 299.5t-115 155t-207.5 45.5t-206.5 -44.5t-112.5 -153t-37 -298.5v-163q0 -190 38 -300t114.5 -156t207.5 -46z" />
    <glyph glyph-name="one" unicode="1" horiz-adv-x="677" 
d="M315 0v1307h-266v186h479v-1493h-213z" />
    <glyph glyph-name="two" unicode="2" horiz-adv-x="1167" 
d="M72 0v168l409 389q197 193 233 232q77 85 97 152q14 51 14 161q0 84 -26.5 130.5t-94 69.5t-190.5 23q-106 0 -216.5 -14t-178.5 -31l-33 184q77 22 200 38t232 16q147 0 245.5 -22t160 -72t88 -125.5t26.5 -188.5q0 -71 -4 -120t-25 -101t-35.5 -81t-67.5 -88.5t-86 -92
t-124 -119.5q-33 -32 -51 -49l-285 -275h727v-184h-1015z" />
    <glyph glyph-name="three" unicode="3" horiz-adv-x="1150" 
d="M111 -25l-15 185q295 12 459 38t233 72q76 53 76 224q0 159 -76 211q-99 66 -370 83v154l342 358h-699v193h934v-190l-356 -373q189 -29 289 -96q79 -50 113 -132.5t34 -209.5q0 -130 -31 -216.5t-106 -138.5q-185 -145 -827 -162z" />
    <glyph glyph-name="four" unicode="4" horiz-adv-x="1245" 
d="M801 0v334h-756v211l580 954h219l-594 -979h551v441h209v-441h178v-186h-178v-334h-209z" />
    <glyph glyph-name="five" unicode="5" horiz-adv-x="1163" 
d="M125 -25l-14 185q303 12 464.5 35.5t227.5 68.5q78 52 78 230q0 167 -76 219q-144 96 -709 114l21 666h891v-193h-703l-10 -307q478 -21 651 -141q80 -53 113 -140.5t33 -219.5q0 -264 -138 -361q-92 -72 -292.5 -109.5t-536.5 -46.5z" />
    <glyph glyph-name="six" unicode="6" horiz-adv-x="1243" 
d="M629 -23q-118 0 -205 15.5t-147.5 50t-98.5 79.5t-59.5 116.5t-29 148t-7.5 184.5v246q0 196 27 305.5t102 180.5q85 83 278 135t515 82l22 -183q-311 -35 -460 -72.5t-210 -95.5q-11 -11 -20.5 -24t-16 -30t-11 -29.5t-7.5 -35.5t-5 -34.5t-2.5 -38.5t-0.5 -36v-39v-36
q81 22 202 41t216 19q136 0 223.5 -20.5t144.5 -72.5t80 -134.5t23 -211.5q0 -85 -8 -147.5t-29 -124t-60 -102.5t-99.5 -73t-149.5 -47.5t-207 -15.5zM633 158q105 0 167.5 13t102.5 51t54 99t14 164q0 147 -58 203.5t-215 56.5q-188 0 -405 -53v-182q0 -107 16.5 -174
t58 -107.5t103.5 -55.5t162 -15z" />
    <glyph glyph-name="seven" unicode="7" horiz-adv-x="1146" 
d="M295 0l586 1300h-834v193h1057v-190l-574 -1303h-235z" />
    <glyph glyph-name="eight" unicode="8" horiz-adv-x="1302" 
d="M645 -20q-153 0 -256.5 18.5t-177.5 63t-107.5 119t-33.5 186.5q0 71 4 117t18.5 87.5t34 67t59.5 54t85 50t120 52.5q-156 69 -206 143t-50 221q0 103 34 173.5t103 111t159.5 57.5t215.5 17q128 0 221 -17t164.5 -57.5t107.5 -111.5t36 -173q0 -68 -6 -110.5t-20.5 -80
t-45.5 -65t-75 -52.5t-116 -56q103 -41 160 -73.5t96 -82t51.5 -111t12.5 -161.5q0 -111 -36 -186.5t-112.5 -119.5t-182 -62.5t-257.5 -18.5zM727 864q38 16 65 27t52 24.5t41 21.5t30 22t22 21.5t14.5 25.5t9 28t4.5 34.5t2 39.5v49q0 100 -79 137t-243 37
q-157 0 -227 -36.5t-70 -137.5q0 -50 9 -83t26 -57t55 -44t81 -36.5t121 -43.5l36 -12zM645 164q192 0 282.5 44t90.5 161q0 154 -68 207.5t-346 138.5l-37 12q-58 -24 -90.5 -38t-67.5 -33.5t-51 -31t-33.5 -33t-23 -38t-11.5 -48t-6.5 -60t-0.5 -76.5q0 -118 86.5 -161.5
t275.5 -43.5z" />
    <glyph glyph-name="nine" unicode="9" horiz-adv-x="1243" 
d="M240 -25l-23 181q304 32 455.5 71t214.5 97q11 11 20.5 24.5t16 31t11 30.5t7.5 36t5 34.5t2.5 38.5t0.5 36v39v35q-79 -21 -200.5 -39.5t-217.5 -18.5q-136 0 -223.5 20.5t-145 71.5t-81 133.5t-23.5 211.5q0 85 8 148.5t29.5 124t61 102t100 73.5t149.5 47t207 15
t205 -15.5t147.5 -50t98.5 -79.5t59.5 -116.5t29 -148t7.5 -184.5v-246q0 -194 -27 -303t-102 -180q-165 -162 -792 -220zM547 750q191 0 403 53v182q0 108 -16.5 175t-58 107t-103.5 55t-162 15q-105 0 -167.5 -13t-102.5 -51t-54 -99t-14 -164q0 -148 58.5 -204t216.5 -56
z" />
    <glyph glyph-name="colon" unicode=":" horiz-adv-x="559" 
d="M133 688v275h293v-275h-293zM133 0v276h293v-276h-293z" />
    <glyph glyph-name="semicolon" unicode=";" horiz-adv-x="559" 
d="M133 688v275h293v-275h-293zM162 -305l-107 61l107 520h309z" />
    <glyph glyph-name="less" unicode="&#x3c;" horiz-adv-x="788" 
d="M461 246l-402 426l402 430h219l-404 -430l404 -426h-219z" />
    <glyph glyph-name="equal" unicode="=" horiz-adv-x="974" 
d="M119 788v164h737v-164h-737zM119 418v164h737v-164h-737z" />
    <glyph glyph-name="greater" unicode="&#x3e;" horiz-adv-x="788" 
d="M106 246l404 430l-404 426h220l401 -426l-401 -430h-220z" />
    <glyph glyph-name="question" unicode="?" horiz-adv-x="1128" 
d="M399 428v313q112 43 179 71t125.5 59t86 53.5t48 55.5t25.5 65t5 81q0 113 -71.5 157t-259.5 44q-221 0 -433 -47l-36 184q73 22 207.5 39t261.5 17q207 0 325 -37.5t169.5 -119t51.5 -224.5q0 -97 -18.5 -161.5t-73.5 -123.5t-145 -108t-242 -109v-209h-205zM358 0v262
h279v-262h-279z" />
    <glyph glyph-name="at" unicode="@" horiz-adv-x="2000" 
d="M1001 -389q-178 0 -308.5 17.5t-234 59.5t-170.5 107.5t-111 167t-62.5 232t-18.5 307.5t18.5 307.5t62.5 232t111 167.5t170.5 108.5t234 60t308.5 17.5q212 0 361.5 -27.5t256.5 -85.5t169.5 -157.5t90.5 -234t28 -325.5q0 -120 -13.5 -204.5t-48.5 -150.5t-87.5 -106
t-139.5 -65.5t-195 -35t-262 -9.5l-28 115q-197 -125 -361 -125q-64 0 -110 11.5t-86.5 45t-59.5 90t-19 152.5t25 227q23 125 52.5 213t59 138.5t69.5 78t76 35.5t87 8q88 0 211 -32.5t197 -65.5l51 78h160l-152 -813q87 0 148 7t110 26t78.5 48t49 77t27 109.5t7.5 149.5
q0 140 -16 242.5t-54 179t-93 125t-142.5 78.5t-193 41.5t-253.5 11.5q-150 0 -253 -10.5t-192.5 -41t-143.5 -81.5t-92.5 -135t-54 -198t-15.5 -275q0 -121 8.5 -214.5t29.5 -169.5t50 -130.5t76 -95.5t101 -66.5t131 -40.5t160.5 -21t194.5 -6h222v-149h-222zM844 160
q73 0 161.5 37t147.5 86l82 444q-59 27 -153.5 51.5t-163.5 24.5q-47 0 -77.5 -21t-58 -86t-51.5 -188q-29 -136 -26 -213t34.5 -106t104.5 -29z" />
    <glyph glyph-name="A" unicode="A" horiz-adv-x="1413" 
d="M367 322l-121 -322h-211l575 1503h193l575 -1503h-221l-121 322h-669zM967 504l-265 700l-266 -700h531z" />
    <glyph glyph-name="B" unicode="B" horiz-adv-x="1333" 
d="M145 0v1493h582q121 0 204.5 -17.5t147.5 -61t94.5 -121.5t30.5 -195q0 -273 -213 -322q120 -19 186 -109.5t66 -250.5q0 -221 -117.5 -318.5t-359.5 -97.5h-621zM356 180h410q45 0 82 6t71.5 22.5t58.5 43.5t38 71t14 103t-14 103.5t-37.5 71.5t-58.5 44t-72 23t-82 6
h-410v-494zM356 846h371q47 0 82 4.5t71 19t59 39t37.5 67.5t14.5 101t-14.5 101t-38 67.5t-59 39.5t-71 19.5t-81.5 4.5h-371v-463z" />
    <glyph glyph-name="C" unicode="C" horiz-adv-x="1216" 
d="M711 -20q-84 0 -149 7t-133 27.5t-117.5 55t-95 92.5t-73.5 137.5t-44.5 192t-16.5 253.5q0 110 10 203t28 165.5t46.5 130.5t61 100t75.5 73t87.5 50t99.5 30.5t108 16t117 4.5q233 0 415 -52l-38 -184q-215 41 -381 41q-109 0 -181.5 -23t-124.5 -81.5t-75 -159.5
t-23 -256v-105q0 -201 45 -318t132 -164.5t231 -47.5q113 0 219.5 16t159.5 31l39 -184q-162 -51 -422 -51z" />
    <glyph glyph-name="D" unicode="D" horiz-adv-x="1380" 
d="M145 0v1493h519q107 0 187.5 -12.5t155 -43t126 -85t90 -136.5t57 -199.5t18.5 -271.5q0 -132 -14.5 -237t-40.5 -183t-68 -134.5t-92 -93t-117.5 -58.5t-139 -30.5t-162.5 -8.5h-519zM358 180h304q105 0 177.5 23.5t127 81t80.5 159t26 252.5v99q0 151 -26 252.5
t-80.5 158.5t-127 80t-177.5 23h-304v-1129z" />
    <glyph glyph-name="E" unicode="E" horiz-adv-x="1155" 
d="M145 0v1493h926v-193h-713v-426h553v-190h-553v-496h713v-188h-926z" />
    <glyph glyph-name="F" unicode="F" horiz-adv-x="1116" 
d="M145 0v1493h928v-193h-715v-526h541v-186h-541v-588h-213z" />
    <glyph glyph-name="G" unicode="G" horiz-adv-x="1318" 
d="M711 -20q-84 0 -149 7t-133 27.5t-117.5 55t-95 92.5t-73.5 137.5t-44.5 192t-16.5 253.5q0 142 16.5 254.5t45.5 193t75 139t97.5 94t121 56.5t137 28.5t154.5 7.5q146 0 264 -16.5t176 -35.5l-36 -186q-226 43 -408 43q-115 0 -190.5 -23t-128.5 -81.5t-76 -159.5
t-23 -256v-105q0 -202 44.5 -319t133 -165t238.5 -48q159 0 278 27v530h203v-680q-72 -23 -203 -43t-290 -20z" />
    <glyph glyph-name="H" unicode="H" horiz-adv-x="1484" 
d="M145 0v1493h213v-606h766v606h213v-1493h-213v690h-766v-690h-213z" />
    <glyph glyph-name="I" unicode="I" horiz-adv-x="536" 
d="M162 0v1493h215v-1493h-215z" />
    <glyph glyph-name="J" unicode="J" horiz-adv-x="1028" 
d="M420 -10q-211 0 -377 39l27 188q231 -37 350 -37q60 0 103 8t73 28.5t48 47t28 71.5t13 93t3 121v944h213v-965q0 -156 -23 -256t-80 -164.5t-147.5 -91t-230.5 -26.5z" />
    <glyph glyph-name="K" unicode="K" horiz-adv-x="1366" 
d="M360 817l664 676h248l-567 -580l593 -913h-249l-494 762l-195 -199v-563h-215v1493h215v-676z" />
    <glyph glyph-name="L" unicode="L" horiz-adv-x="1165" 
d="M131 0v1493h213v-1305h778v-188h-991z" />
    <glyph glyph-name="M" unicode="M" horiz-adv-x="1757" 
d="M958 0h-174l-444 1063v-1063h-195v1493h226l508 -1208l507 1208h226v-1493h-209v1063z" />
    <glyph glyph-name="N" unicode="N" horiz-adv-x="1454" 
d="M145 0v1493h209l750 -1110v1110h205v-1493h-187l-772 1141v-1141h-205z" />
    <glyph glyph-name="O" unicode="O" 
d="M733 -23q-84 0 -153.5 9t-138 32t-121.5 60t-99 96.5t-75.5 138.5t-46.5 188t-17 244t17 244t47 189t76.5 139.5t100 97.5t122 61.5t138.5 32.5t154 9t153.5 -9t138.5 -32t121.5 -60t98.5 -96.5t76 -138.5t47 -188t17 -244q0 -187 -33.5 -325.5t-89.5 -223t-142 -136
t-178.5 -70t-212.5 -18.5zM737 166q84 0 147 13.5t117.5 49t88.5 94.5t53.5 152t19.5 219v105q0 156 -29 261.5t-87.5 163t-133 80.5t-180.5 23q-105 0 -179 -22.5t-132 -79t-86.5 -161.5t-28.5 -261v-105q0 -126 20 -219.5t55 -153t90 -95.5t118.5 -50t146.5 -14z" />
    <glyph glyph-name="P" unicode="P" horiz-adv-x="1304" 
d="M145 0v1493h572q137 0 232 -24.5t162 -81t98.5 -151t31.5 -232.5q0 -137 -32.5 -232t-100 -152.5t-163.5 -82.5t-232 -25h-355v-512h-213zM358 694h359q60 0 101.5 5t84 23t68 50.5t41.5 89t16 137.5q0 68 -10.5 119.5t-32.5 85t-48 55t-64.5 32.5t-74.5 14.5t-85 3.5
h-355v-615z" />
    <glyph glyph-name="Q" unicode="Q" 
d="M1114 63l201 -346h-262l-160 277q-64 -10 -160 -10q-85 0 -154 8.5t-138 31t-121.5 59t-98.5 95t-75.5 137t-46.5 187t-17 243.5t17 244t47 189t76.5 139.5t100 97.5t122 61.5t138.5 32.5t154 9t153.5 -9t138.5 -32t121.5 -60t98.5 -96.5t76 -138.5t47 -188t17 -244
q0 -528 -275 -687zM795 164l-187 319h262l144 -247q149 115 149 458v105q0 126 -19.5 219t-54.5 152.5t-90 95.5t-118.5 50.5t-147.5 14.5q-105 0 -179 -23t-132 -80.5t-86.5 -163t-28.5 -261.5v-105q0 -126 20 -220t55 -154t90 -96.5t118.5 -51t146.5 -14.5q40 0 58 2z" />
    <glyph glyph-name="R" unicode="R" horiz-adv-x="1361" 
d="M926 571l372 -571h-247l-349 532h-344v-532h-213v1493h551q138 0 232.5 -23t162 -77.5t99 -147.5t31.5 -231q0 -205 -73 -307t-222 -136zM358 715h338q64 0 106.5 5t84.5 22.5t66.5 49.5t39.5 86t15 132t-16 133.5t-41 87.5t-68 50t-85.5 23t-105.5 5h-334v-594z" />
    <glyph glyph-name="S" unicode="S" horiz-adv-x="1230" 
d="M582 -12q-136 0 -278.5 20.5t-207.5 42.5l35 185q73 -18 212.5 -39t240.5 -21q92 0 149 9t99 34.5t59.5 72t17.5 120.5q0 44 -4.5 74t-20.5 54.5t-34 39t-59.5 29.5t-80.5 24.5t-112 25.5q-104 23 -171.5 42.5t-126.5 46t-92 56.5t-57.5 74.5t-33 99.5t-8.5 132
q0 211 129 305t383 94q126 0 259.5 -17t188.5 -32l-35 -184q-232 41 -418 41q-153 0 -220.5 -44.5t-67.5 -160.5q0 -45 5 -75.5t21 -56t36 -41.5t60.5 -31.5t82.5 -26.5t114 -27q71 -15 116.5 -26.5t98.5 -28t85 -33t66.5 -40.5t53.5 -52.5t36 -67t23.5 -86t6.5 -106.5
q0 -99 -23.5 -172.5t-67 -122t-112.5 -78t-152.5 -41.5t-195.5 -12z" />
    <glyph glyph-name="T" unicode="T" horiz-adv-x="1284" 
d="M537 0v1300h-494v193h1196v-193h-489v-1300h-213z" />
    <glyph glyph-name="U" unicode="U" horiz-adv-x="1443" 
d="M725 -20q-124 0 -213.5 14t-165 49.5t-121.5 97.5t-71 158t-25 229v965h215v-946q0 -110 19.5 -180t66.5 -112.5t118 -59.5t181 -17q74 0 127 6t97.5 22t72.5 42t47.5 67.5t28 96.5t8.5 131v950h207v-961q0 -132 -24.5 -227.5t-70 -158t-120 -99.5t-164.5 -52t-213 -15z
" />
    <glyph glyph-name="V" unicode="V" horiz-adv-x="1413" 
d="M610 -10l-575 1503h221l455 -1200l456 1200h211l-575 -1503h-193z" />
    <glyph glyph-name="W" unicode="W" horiz-adv-x="1898" 
d="M453 -10l-418 1503h219l301 -1096l315 1084h172l299 -1084l318 1096h205l-439 -1503h-163l-314 1136l-327 -1136h-168z" />
    <glyph glyph-name="X" unicode="X" horiz-adv-x="1443" 
d="M78 0l510 788l-467 705h250l362 -551l354 551h228l-465 -723l510 -770h-248l-407 616l-400 -616h-227z" />
    <glyph glyph-name="Y" unicode="Y" horiz-adv-x="1400" 
d="M594 0v575l-559 918h233l439 -715l438 715h221l-559 -915v-578h-213z" />
    <glyph glyph-name="Z" unicode="Z" horiz-adv-x="1234" 
d="M63 0v172l830 1128h-811v193h1069v-184l-821 -1121h833v-188h-1100z" />
    <glyph glyph-name="bracketleft" unicode="[" horiz-adv-x="632" 
d="M133 -266v1800h445v-182h-259v-1438h259v-180h-445z" />
    <glyph glyph-name="backslash" unicode="\" horiz-adv-x="688" 
d="M510 0l-518 1493h186l518 -1493h-186z" />
    <glyph glyph-name="bracketright" unicode="]" horiz-adv-x="632" 
d="M59 -266v180h263v1438h-263v182h443v-1800h-443z" />
    <glyph glyph-name="asciicircum" unicode="^" horiz-adv-x="790" 
d="M113 608v185h567v-185h-567z" />
    <glyph glyph-name="underscore" unicode="_" horiz-adv-x="974" 
d="M-72 -285v176h1123v-176h-1123z" />
    <glyph glyph-name="grave" unicode="`" horiz-adv-x="931" 
d="M461 1102l-357 373h312l186 -373h-141z" />
    <glyph glyph-name="a" unicode="a" horiz-adv-x="1040" 
d="M334 -14q-52 0 -95.5 14t-81.5 46.5t-59.5 92.5t-21.5 144q0 93 19.5 150.5t68.5 86.5q76 42 194 56t351 14v43q0 55 -6 87.5t-25 57.5t-54.5 35t-93.5 10q-154 0 -329 -35l-29 173q187 38 363 38q213 0 296.5 -74.5t83.5 -260.5v-664h-165l-31 100q-188 -114 -385 -114z
M416 154q71 0 155.5 27.5t137.5 58.5v217q-177 0 -261 -9.5t-120 -31.5q-43 -22 -43 -129q0 -78 31 -105.5t100 -27.5z" />
    <glyph glyph-name="b" unicode="b" horiz-adv-x="1136" 
d="M727 -16q-109 0 -221 30t-176 60l-39 -74h-160v1534h207v-664q64 36 180.5 75.5t218.5 39.5q39 0 69.5 -4.5t64 -17.5t59 -35t49.5 -59.5t39 -89t24 -125.5t9 -167t-9.5 -167.5t-25.5 -126.5t-41 -90.5t-51.5 -60.5t-61 -35.5t-65.5 -18t-70 -4.5zM655 162
q68 0 105.5 24.5t57.5 94.5t20 202t-19.5 201t-56 93t-105.5 24q-76 0 -165.5 -26.5t-153.5 -57.5v-490q179 -65 317 -65z" />
    <glyph glyph-name="c" unicode="c" horiz-adv-x="925" 
d="M541 -23q-248 0 -359.5 115.5t-111.5 396.5q0 279 114.5 394.5t364.5 115.5q147 0 295 -36l-35 -175q-158 31 -266 31q-56 0 -94.5 -7t-72 -27t-52.5 -56t-30 -94t-11 -141q0 -104 16 -171t51.5 -103.5t81 -50t115.5 -13.5q132 0 264 34l37 -170q-153 -43 -307 -43z" />
    <glyph glyph-name="d" unicode="d" horiz-adv-x="1136" 
d="M399 -18q-39 0 -69.5 4.5t-64 17.5t-59 35.5t-49 60.5t-38.5 89.5t-24 126t-9 167.5q0 92 9.5 166.5t25.5 126.5t41 90t51 60.5t60.5 36t65.5 18t69 4.5q183 0 389 -86v635h209v-1534h-168l-31 100q-39 -21 -92 -44.5t-146 -48.5t-170 -25zM479 168q79 0 167 26.5
t151 57.5v489q-59 22 -149 44t-167 22q-68 0 -105.5 -24.5t-57 -94.5t-19.5 -201q0 -133 18.5 -202.5t55 -93t106.5 -23.5z" />
    <glyph glyph-name="e" unicode="e" horiz-adv-x="1007" 
d="M553 -23q-254 0 -368.5 115.5t-114.5 396.5q0 143 32 245.5t92.5 160t137 83.5t176.5 26q219 0 319.5 -101.5t100.5 -351.5v-94h-647q1 -93 18 -153t54.5 -92t84 -44t117.5 -12q177 0 297 30l31 -170q-53 -14 -152 -26.5t-178 -12.5zM285 594h434q0 143 -48.5 194.5
t-168.5 51.5q-99 0 -153 -53.5t-64 -192.5z" />
    <glyph glyph-name="f" unicode="f" horiz-adv-x="722" 
d="M219 0v784h-162v179h162v200q0 72 8 117.5t32.5 88t72 70.5t123 52t190.5 45l39 -186q-92 -19 -141.5 -34.5t-76 -41.5t-32.5 -53.5t-6 -81.5v-176h242v-179h-242v-784h-209z" />
    <glyph glyph-name="g" unicode="g" horiz-adv-x="1136" 
d="M541 -418q-99 0 -206 8.5t-159 18.5l21 176q154 -23 342 -23q59 0 94.5 3t68 15t48.5 32t28.5 57t16.5 86t4 123v37q-56 -41 -175 -84t-225 -43q-55 0 -95.5 8.5t-84 39t-71 82.5t-45 145t-17.5 222q0 128 18.5 221.5t47.5 146t74 83.5t87 40t97 9q106 0 226 -35t171 -67
l41 80h158v-885q0 -100 -7.5 -169.5t-27.5 -128t-52.5 -94t-85.5 -60t-123 -34.5t-169 -10zM481 164q78 0 171 32.5t147 69.5v459q-42 27 -139.5 54.5t-176.5 27.5q-69 0 -106.5 -23.5t-57.5 -93.5t-20 -201q0 -133 19 -204t56.5 -96t106.5 -25z" />
    <glyph glyph-name="h" unicode="h" horiz-adv-x="1130" 
d="M131 0v1534h207v-680q54 44 178 87.5t219 43.5q135 0 202 -62.5t67 -197.5v-725h-207v657q0 79 -31 111.5t-115 32.5q-70 0 -162 -30.5t-151 -72.5v-698h-207z" />
    <glyph glyph-name="i" unicode="i" horiz-adv-x="489" 
d="M137 1171v252h215v-252h-215zM141 0v963h207v-963h-207z" />
    <glyph glyph-name="j" unicode="j" horiz-adv-x="489" 
d="M137 1171v252h215v-252h-215zM-82 -408l-35 185q61 13 102 24t70.5 25.5t46 28t25.5 36t11.5 44t2.5 57.5v971h207v-1000q0 -89 -14.5 -143.5t-60.5 -101t-130.5 -75.5t-224.5 -51z" />
    <glyph glyph-name="k" unicode="k" horiz-adv-x="1040" 
d="M338 309v-309h-207v1534h207v-1002l412 431h219l-357 -369l389 -594h-231q-297 449 -299 449q-133 -138 -133 -140z" />
    <glyph glyph-name="l" unicode="l" horiz-adv-x="489" 
d="M141 0v1534h207v-1534h-207z" />
    <glyph glyph-name="m" unicode="m" horiz-adv-x="1757" 
d="M131 0v963h170l29 -111q82 53 191.5 93t207.5 40q189 0 238 -139q91 58 200 98.5t207 40.5q132 0 194 -62.5t62 -203.5v-719h-207v657q0 81 -26.5 112.5t-108.5 31.5q-67 0 -154 -30t-149 -73v-698h-207v657q0 80 -27 112t-108 32q-71 0 -158.5 -30.5t-144.5 -72.5v-698
h-209z" />
    <glyph glyph-name="n" unicode="n" horiz-adv-x="1130" 
d="M131 0v963h168l31 -97q62 36 181 77.5t224 41.5q134 0 201.5 -63t67.5 -197v-725h-207v657q0 79 -31 111.5t-115 32.5q-72 0 -166.5 -28.5t-144.5 -57.5v-715h-209z" />
    <glyph glyph-name="o" unicode="o" horiz-adv-x="1112" 
d="M555 -23q-249 0 -367 117.5t-118 394.5q0 276 120 395.5t369 119.5q248 0 364.5 -117t116.5 -393q0 -278 -118.5 -397.5t-366.5 -119.5zM559 147q54 0 93 8t74 30.5t56.5 60t34 98.5t12.5 145q0 104 -18.5 172.5t-56.5 105t-84.5 50.5t-114.5 14q-54 0 -93 -8
t-74.5 -29.5t-57.5 -58.5t-34.5 -97.5t-12.5 -143.5q0 -104 18.5 -174t57 -107t85.5 -51.5t115 -14.5z" />
    <glyph glyph-name="p" unicode="p" horiz-adv-x="1136" 
d="M131 -410v1373h168l29 -97q39 22 92.5 45.5t146 48.5t170.5 25q39 0 69.5 -4.5t64 -17.5t59 -35t49.5 -59.5t39 -89t24 -125.5t9 -167t-9.5 -167.5t-25.5 -126.5t-41 -90.5t-51.5 -60.5t-61 -35.5t-65.5 -18t-70 -4.5q-183 0 -389 86v-480h-207zM655 162q68 0 105.5 24.5
t57.5 94.5t20 202t-19.5 201t-56 93t-105.5 24q-78 0 -165.5 -26t-153.5 -58v-490q179 -65 317 -65z" />
    <glyph glyph-name="q" unicode="q" horiz-adv-x="1128" 
d="M791 -410v506q-40 -21 -93.5 -43.5t-143.5 -46.5t-163 -24q-39 0 -69.5 4.5t-64 17.5t-59 35.5t-49 60.5t-38.5 89.5t-24 126t-9 167.5q0 107 12 190t35.5 137t52 89.5t67.5 53.5t75 25t81 7q109 0 221.5 -30t176.5 -60l39 84h159v-1389h-206zM471 168q77 0 166 26.5
t154 57.5v489q-182 66 -318 66q-68 0 -105.5 -24.5t-57 -94.5t-19.5 -201q0 -133 19 -202.5t55.5 -93t105.5 -23.5z" />
    <glyph glyph-name="r" unicode="r" horiz-adv-x="757" 
d="M131 0v963h168l31 -113q186 111 356 137l25 -192q-93 -10 -202.5 -37t-168.5 -60v-698h-209z" />
    <glyph glyph-name="s" unicode="s" horiz-adv-x="974" 
d="M463 -18q-98 0 -208 15.5t-163 33.5l27 157q51 -15 157.5 -31t188.5 -16q137 0 182 28.5t45 113.5q0 60 -38.5 82t-168.5 41q-83 12 -134.5 22t-99 26t-72.5 35.5t-44.5 50.5t-26 71t-6.5 98q0 156 96.5 221t299.5 65q103 0 207.5 -10t150.5 -22l-29 -160
q-56 10 -160.5 20.5t-172.5 10.5q-108 0 -149.5 -26.5t-41.5 -92.5q0 -70 42.5 -91t205.5 -40q205 -25 276.5 -83.5t71.5 -205.5q0 -78 -18.5 -133.5t-51.5 -90.5t-89 -55t-120.5 -27t-156.5 -7z" />
    <glyph glyph-name="t" unicode="t" horiz-adv-x="745" 
d="M426 -10q-122 0 -177.5 67t-55.5 213v514h-154v179h154v325l206 41v-366h250v-179h-250v-475q0 -83 19.5 -112t66.5 -29q68 0 166 12l13 -172q-118 -18 -238 -18z" />
    <glyph glyph-name="u" unicode="u" horiz-adv-x="1126" 
d="M395 -20q-134 0 -202 64t-68 198v721h209v-654q0 -79 30.5 -111t114.5 -32q72 0 165 27t142 55v715h209v-963h-168l-30 96q-65 -37 -181.5 -76.5t-220.5 -39.5z" />
    <glyph glyph-name="v" unicode="v" horiz-adv-x="1026" 
d="M412 -8l-381 971h221l272 -734l271 734h200l-381 -971h-202z" />
    <glyph glyph-name="w" unicode="w" horiz-adv-x="1536" 
d="M346 -8l-315 971h215l209 -676l239 665h170l236 -665l211 676h192l-313 -971h-176l-246 694l-246 -694h-176z" />
    <glyph glyph-name="x" unicode="x" horiz-adv-x="1048" 
d="M49 0l352 502l-325 461h237l228 -320l219 320h211l-326 -467l352 -496h-237l-254 358l-246 -358h-211z" />
    <glyph glyph-name="y" unicode="y" horiz-adv-x="1030" 
d="M418 14l-387 949h221q278 -703 278 -705l271 705h196l-536 -1373h-209z" />
    <glyph glyph-name="z" unicode="z" horiz-adv-x="946" 
d="M57 0v152l555 639h-530v172h786v-152l-549 -639h578v-172h-840z" />
    <glyph glyph-name="braceleft" unicode="{" horiz-adv-x="868" 
d="M811 -266q-71 1 -124.5 4.5t-107 13t-92 24.5t-76 39.5t-63 57.5t-49 79t-38 103.5t-26 132.5t-17 164t-7.5 199h-186v178h186q2 135 10.5 238t26.5 185.5t41 141t61 101.5t79.5 69t103.5 41.5t125.5 21.5t152.5 7v-182q-54 0 -91 -2t-76.5 -8.5t-65.5 -18t-52.5 -32
t-43 -48t-32.5 -68.5t-24 -92t-15 -119.5t-9.5 -149t-2.5 -183.5q0 -102 2.5 -182.5t9.5 -148.5t15 -118.5t24 -91.5t32.5 -68.5t43 -47.5t52.5 -31.5t65.5 -18t76.5 -8.5t91 -2v-180z" />
    <glyph glyph-name="bar" unicode="|" horiz-adv-x="690" 
d="M260 -410v2028h170v-2028h-170z" />
    <glyph glyph-name="braceright" unicode="}" horiz-adv-x="868" 
d="M57 -266v180q54 0 91 2t77 8.5t65.5 17.5t52.5 31.5t43 48t32 68t24 91t15 118.5t9.5 149t2.5 183t-2.5 182.5t-9.5 149t-15.5 119t-24 91.5t-32 69t-43 48.5t-52.5 32t-65.5 18.5t-76.5 9t-91 2v182q89 -1 153 -7t126 -22t103.5 -42.5t79.5 -70t61 -103.5t41 -144
t26 -189.5t10 -242.5h187v-178h-187q-2 -108 -7.5 -195t-17 -160.5t-26 -130t-38 -102t-49 -77.5t-63.5 -56t-76.5 -38.5t-92 -24t-106.5 -13t-124 -4.5z" />
    <glyph glyph-name="asciitilde" unicode="~" horiz-adv-x="933" 
d="M201 1085l-107 132q73 61 104 85t75 46t81 22q34 0 81.5 -24t88 -48t56.5 -24q5 0 11 1.5t13 4.5t13 6.5t15 10t15.5 12t18.5 15t20 16t22.5 19.5t24.5 21l107 -131q-12 -10 -40 -33t-38 -31t-32 -25t-32 -23t-28 -16.5t-30.5 -14t-28 -7t-31.5 -3.5q-45 0 -127.5 47
t-98.5 47q-5 0 -10.5 -1.5t-12.5 -4.5t-12.5 -6.5t-14.5 -10t-16 -11.5t-19 -14.5t-20 -16.5t-23 -19.5t-25 -20.5z" />
    <glyph glyph-name="exclamdown" unicode="&#xa1;" horiz-adv-x="634" 
d="M178 1231v262h279v-262h-279zM180 0l56 1065h159l56 -1065h-271z" />
    <glyph glyph-name="cent" unicode="&#xa2;" horiz-adv-x="919" 
d="M604 242v-242h-178v246q-185 24 -270.5 141t-85.5 363q0 244 86 361.5t270 141.5v244h178v-237q129 -6 240 -35l-35 -172q-116 24 -207 28v-665q90 5 209 35l37 -168q-104 -31 -244 -41zM430 428v643q-76 -21 -111.5 -92.5t-35.5 -224.5q0 -151 35.5 -226.5t111.5 -99.5z
" />
    <glyph glyph-name="sterling" unicode="&#xa3;" horiz-adv-x="1183" 
d="M57 0v188h303q-28 114 -100 482h-203v176h170q-32 201 -32 274q0 204 108.5 302t366.5 98q212 0 422 -54l-39 -186q-176 45 -383 45q-149 0 -204.5 -48.5t-55.5 -162.5q0 -96 26 -268h416v-176h-381q27 -144 100 -482h543v-188h-1057z" />
    <glyph glyph-name="currency" unicode="&#xa4;" horiz-adv-x="1282" 
d="M797 -20q-87 0 -156 13t-134.5 47t-112.5 89.5t-82 143.5t-52 206h-219v160h203q0 22 -1 63.5t-1 76.5t2 65h-203v160v0v0v0h1v0h1v0h1h1v0h1h1h1h1h1h1h1h1h1h1h1h1h1h1h1h1h1h1h1h1h1h1h1h1h1h1h1h1h1h1h1h1h1h1h1h1h1h1h1h1h1h1h1h2h1h1h1h1h1h2h1h1h1h1h2h1h1h2h1h1
h1h2h1h1h2h1h1h2h1h1h2h1h2h1h1h2h1h2h1h1h2h1h2h1h2h1h2h1h2h1h2h1h2h1h2h2h1h2h1h2h1h2h2h1h2h1h2h2h1h2h2h1h2h2h1h2h2h2h1h2h2h1h2h2h2h1h2h2h2h1h2h2h2h2h1h2h2h2h2h2h2h1h2h2h2h2h2h9q17 120 53.5 210.5t84.5 148t114 92.5t135.5 49t155.5 14q227 0 397 -54l-39 -182
q-189 41 -362 41q-142 0 -220.5 -73.5t-101.5 -245.5h451v-160h-467v-205h467v-160h-447q26 -164 104 -237.5t218 -73.5q204 0 358 43l39 -178q-186 -53 -401 -53z" />
    <glyph glyph-name="yen" unicode="&#xa5;" horiz-adv-x="1390" 
d="M987 893h305v-160h-403l-90 -147v-56h493v-157h-493v-373h-213v373h-496v157h496v52l-92 151h-404v160h307l-362 600h241l431 -717l430 717h219z" />
    <glyph glyph-name="brokenbar" unicode="&#xa6;" horiz-adv-x="690" 
d="M260 748v870h170v-870h-170zM260 -410v871h170v-871h-170z" />
    <glyph glyph-name="section" unicode="&#xa7;" horiz-adv-x="1146" 
d="M588 -10q-121 0 -238.5 12t-169.5 27l29 155q194 -34 373 -34q95 0 144 13t66 39.5t17 78.5q0 89 -39.5 109.5t-218.5 35.5q-28 3 -43 4q-232 17 -319 75t-87 195q0 140 107 287q-70 65 -70 232q0 151 98.5 222.5t323.5 71.5q118 0 235.5 -16t172.5 -33l-37 -153
q-62 13 -173 26t-192 13q-93 0 -142 -13t-67 -40t-18 -78q0 -88 41.5 -108.5t221.5 -35.5q27 -3 42 -4q234 -17 319 -75t85 -195q0 -133 -109 -289q70 -62 70 -229q0 -150 -99 -221.5t-323 -71.5zM791 580q65 100 65 178q0 46 -20.5 70t-75 38t-166.5 23q-160 13 -236 33
q-65 -97 -65 -179q0 -67 50.5 -92.5t211.5 -38.5q162 -13 236 -32z" />
    <glyph glyph-name="dieresis" unicode="&#xa8;" horiz-adv-x="933" 
d="M545 1116v246h252v-246h-252zM139 1116v246h248v-246h-248z" />
    <glyph glyph-name="copyright" unicode="&#xa9;" horiz-adv-x="1705" 
d="M854 -25q-168 0 -286.5 21.5t-212 73.5t-148.5 141t-83 220.5t-28 316.5q0 154 18 270.5t59 202.5t99.5 143t146 92t192 49.5t243.5 14.5t243 -14.5t191 -49.5t145.5 -92t99.5 -143t59 -202.5t18 -270.5q0 -185 -28 -316.5t-83 -220.5t-148 -141t-211.5 -73.5
t-285.5 -21.5zM854 119q88 0 152 4t126.5 16t105.5 32.5t82 54t63.5 80t43 111t26 146.5t7.5 187t-7.5 186.5t-26 145.5t-43 110t-63.5 79t-82 53.5t-106 32t-126.5 15.5t-151.5 4t-152.5 -4t-127.5 -15.5t-106 -32t-83 -53.5t-64 -79t-42.5 -110t-26.5 -145.5t-8 -186.5
t8 -187t26.5 -146.5t43 -111t64 -80t82.5 -54t106 -32.5t127.5 -16t152.5 -4zM862 266q-53 0 -93.5 4.5t-83.5 17t-74 34t-60 58t-47 86t-28.5 120t-10.5 159.5q0 104 13.5 183t40.5 131t60.5 86.5t82 52.5t95.5 24.5t109 6.5t117.5 -6t81 -11t80.5 -18l-41 -147
q-157 26 -242 26q-119 0 -170 -64t-51 -231v-57q0 -167 52.5 -234t172.5 -67q94 0 246 29l35 -146q-125 -37 -285 -37z" />
    <glyph glyph-name="ordfeminine" unicode="&#xaa;" horiz-adv-x="851" 
d="M289 696q-43 0 -79 12t-68 37.5t-50 74t-18 114.5q0 75 13.5 121.5t55.5 74.5q54 33 151.5 46.5t285.5 13.5q0 6 1 19.5t1 19.5q0 80 -27 110.5t-111 30.5q-188 0 -272 -24l-29 141q119 33 295 33t252 -56t76 -204v-551h-152l-24 71q-86 -34 -118.5 -46t-86 -25
t-96.5 -13zM98 444v156h668v-156h-668zM356 842q92 0 226 67v160q-226 0 -293 -31q-23 -11 -28 -33t-5 -73q0 -52 23 -71t77 -19z" />
    <glyph glyph-name="guillemotleft" unicode="&#xab;" horiz-adv-x="1091" 
d="M774 51l-246 418l246 422h187l-222 -422l222 -418h-187zM348 51l-246 418l246 422h187l-222 -422l222 -418h-187z" />
    <glyph glyph-name="logicalnot" unicode="&#xac;" horiz-adv-x="1318" 
d="M711 -20q-84 0 -149 7t-133 27.5t-117.5 55t-95 92.5t-73.5 137.5t-44.5 192t-16.5 253.5q0 142 16.5 254.5t45.5 193t75 139t97.5 94t121 56.5t137 28.5t154.5 7.5q146 0 264 -16.5t176 -35.5l-36 -186q-226 43 -408 43q-115 0 -190.5 -23t-128.5 -81.5t-76 -159.5
t-23 -256v-105q0 -202 44.5 -319t133 -165t238.5 -48q159 0 278 27v382h-274v185h477v-717q-72 -23 -203 -43t-290 -20z" />
    <glyph glyph-name="registered" unicode="&#xae;" horiz-adv-x="1705" 
d="M854 -25q-168 0 -286.5 21.5t-212 73.5t-148.5 141t-83 220.5t-28 316.5q0 154 18 270.5t59 202.5t99.5 143t146 92t192 49.5t243.5 14.5t243 -14.5t191 -49.5t145.5 -92t99.5 -143t59 -202.5t18 -270.5q0 -185 -28 -316.5t-83 -220.5t-148 -141t-211.5 -73.5
t-285.5 -21.5zM854 119q88 0 152 4t126.5 16t105.5 32.5t82 54t63.5 80t43 111t26 146.5t7.5 187t-7.5 186.5t-26 145.5t-43 110t-63.5 79t-82 53.5t-106 32t-126.5 15.5t-151.5 4t-152.5 -4t-127.5 -15.5t-106 -32t-83 -53.5t-64 -79t-42.5 -110t-26.5 -145.5t-8 -186.5
t8 -187t26.5 -146.5t43 -111t64 -80t82.5 -54t106 -32.5t127.5 -16t152.5 -4zM526 297v907h387q137 0 208 -67.5t71 -227.5q0 -117 -34.5 -183t-117.5 -91l236 -338h-186l-220 305h-178v-305h-166zM692 737h195q70 0 104.5 38t34.5 132q0 91 -33.5 124.5t-93.5 33.5h-207
v-328z" />
    <glyph glyph-name="macron" unicode="&#xaf;" horiz-adv-x="944" 
d="M174 1102v201h598v-201h-598z" />
    <glyph glyph-name="macron" unicode="&#x2c9;" horiz-adv-x="944" 
d="M174 1102v201h598v-201h-598z" />
    <glyph glyph-name="degree" unicode="&#xb0;" horiz-adv-x="909" 
d="M453 692q-197 0 -293.5 98.5t-96.5 313.5t98.5 315.5t295.5 100.5t294 -98.5t97 -313.5t-99 -315.5t-296 -100.5zM457 846q53 0 87 9t63.5 35t43 79t13.5 135t-14.5 135.5t-44.5 80.5t-65 36.5t-87 9.5t-85.5 -9t-63 -35t-43 -79t-13.5 -135t14.5 -135.5t44 -80.5
t64 -36.5t86.5 -9.5z" />
    <glyph glyph-name="plusminus" unicode="&#xb1;" horiz-adv-x="1902" 
d="M219 0v784h-162v179h162v133q0 60 5 100t21 79t44.5 65t76.5 50.5t115.5 43t163.5 36.5l39 -188q-62 -13 -102.5 -23.5t-70.5 -24.5t-45.5 -27t-24.5 -35t-11 -42.5t-2 -56.5v-110h461v196q0 89 14 144t56 101.5t118 76.5t201 55l45 -186q-52 -12 -87 -22t-61 -23.5
t-40.5 -27t-23 -35t-11 -43t-2.5 -56.5v-180h227v-179h-227v-784h-209v784h-461v-784h-209zM1554 0v1534h207v-1534h-207z" />
    <glyph glyph-name="twosuperior" unicode="&#xb2;" horiz-adv-x="884" 
d="M104 539v141l254 240q17 17 46 45q79 77 104.5 107t36 61.5t10.5 91.5q0 62 -33.5 86t-124.5 24q-114 0 -258 -32l-30 161q143 41 292 41q189 0 263.5 -62t74.5 -210q0 -66 -8 -108t-35.5 -85t-63 -80t-107.5 -106q-22 -20 -33 -31l-119 -118h397v-166h-666z" />
    <glyph glyph-name="threesuperior" unicode="&#xb3;" horiz-adv-x="901" 
d="M139 526l-10 168q356 11 430 60q35 23 35 114q0 89 -33 107q-24 15 -67 25t-70 13t-94 9v125l186 180h-407v166h616v-154l-201 -196q107 -22 148 -51q100 -61 100 -226q0 -169 -92 -233q-120 -96 -541 -107z" />
    <glyph glyph-name="acute" unicode="&#xb4;" horiz-adv-x="931" 
d="M332 1102l186 373h309l-356 -373h-139z" />
    <glyph glyph-name="mu" unicode="&#xb5;" horiz-adv-x="1452" 
d="M174 0v156q0 107 25 189t67.5 134.5t105.5 85.5t133.5 46.5t156.5 13.5v194h-488v398h145v-263h343v138h-109v393h360v-393h-108v-138h332v263h143v-398h-475v-194q109 0 193 -22.5t152.5 -74.5t105 -145.5t36.5 -226.5v-156h-149v147q0 100 -19 165t-62.5 102t-103.5 51
t-153 14v-205h-143v205q-93 0 -153 -14t-103.5 -51t-62.5 -102t-19 -165v-147h-150z" />
    <glyph glyph-name="mu" unicode="&#x3bc;" horiz-adv-x="1452" 
d="M174 0v156q0 107 25 189t67.5 134.5t105.5 85.5t133.5 46.5t156.5 13.5v194h-488v398h145v-263h343v138h-109v393h360v-393h-108v-138h332v263h143v-398h-475v-194q109 0 193 -22.5t152.5 -74.5t105 -145.5t36.5 -226.5v-156h-149v147q0 100 -19 165t-62.5 102t-103.5 51
t-153 14v-205h-143v205q-93 0 -153 -14t-103.5 -51t-62.5 -102t-19 -165v-147h-150z" />
    <glyph glyph-name="paragraph" unicode="&#xb6;" horiz-adv-x="1206" 
d="M475 0v600q-105 1 -180 22.5t-131 71t-83.5 136t-27.5 212.5q0 130 28.5 218t88.5 139t142 72.5t200 21.5h549v-1493h-203v598h-184v-598h-199zM504 770h354v539h-350q-45 0 -78 -5t-67.5 -22t-56.5 -45.5t-36 -79t-14 -119.5t14 -119t35 -78.5t55.5 -44.5t67 -21
t76.5 -5z" />
    <glyph glyph-name="periodcentered" unicode="&#xb7;" horiz-adv-x="552" 
d="M135 606v266h287v-266h-287z" />
    <glyph glyph-name="periodcentered" unicode="&#x2219;" horiz-adv-x="552" 
d="M135 606v266h287v-266h-287z" />
    <glyph glyph-name="cedilla" unicode="&#xb8;" horiz-adv-x="1011" 
d="M354 -412l-35 172q121 21 177 54l-35 196l162 33l61 -319q-40 -42 -126.5 -79.5t-203.5 -56.5z" />
    <glyph glyph-name="onesuperior" unicode="&#xb9;" horiz-adv-x="675" 
d="M293 541v784h-160v168h342v-952h-182z" />
    <glyph glyph-name="ordmasculine" unicode="&#xba;" horiz-adv-x="907" 
d="M453 694q-201 0 -297.5 94.5t-96.5 315.5t98.5 317.5t299.5 96.5q202 0 297.5 -94t95.5 -316t-97.5 -318t-299.5 -96zM113 444v156h686v-156h-686zM457 844q52 0 87 10t63.5 37.5t41.5 80t13 132.5t-14 133t-43 80.5t-64.5 38t-87.5 10.5q-42 0 -71 -6t-55.5 -22
t-42.5 -44.5t-25 -74.5t-9 -111q0 -80 13.5 -133t42 -81t64 -39t87.5 -11z" />
    <glyph glyph-name="guillemotright" unicode="&#xbb;" horiz-adv-x="1091" 
d="M559 51l219 422l-221 418h186l246 -418l-246 -422h-184zM131 51l221 422l-221 418h186l246 -418l-246 -422h-186z" />
    <glyph glyph-name="onequarter" unicode="&#xbc;" horiz-adv-x="1767" 
d="M293 541v784h-160v168h342v-952h-182zM424 0l575 1493h185l-576 -1493h-184zM1382 0v199h-452v161l358 594h195l-359 -594h258v244h181v-244h106v-161h-106v-199h-181z" />
    <glyph glyph-name="onehalf" unicode="&#xbd;" horiz-adv-x="1888" 
d="M293 541v784h-160v168h342v-952h-182zM424 0l575 1493h185l-576 -1493h-184zM1063 0v139l254 242q19 19 50 48.5t42 41t31.5 31.5t26.5 28.5t18 23t14.5 23.5t8 21.5t6 25.5t1.5 27.5t1 34.5q0 62 -34 85.5t-124 23.5q-120 0 -260 -31l-31 162q143 41 293 41
q189 0 264.5 -63t75.5 -212q0 -44 -3 -75t-15 -62t-23.5 -51.5t-41 -53.5t-54 -57t-76.5 -73q-24 -23 -37 -35l-119 -121h398v-164h-666z" />
    <glyph glyph-name="threequarters" unicode="&#xbe;" horiz-adv-x="1943" 
d="M139 526l-10 168q356 11 430 60q35 23 35 114q0 89 -33 107q-24 15 -67 25t-70 13t-94 9v125l186 180h-407v166h616v-154l-201 -196q107 -22 148 -51q100 -61 100 -226q0 -169 -92 -233q-120 -96 -541 -107zM600 0l574 1493h184l-576 -1493h-182zM1559 0v199h-455v161
l358 594h197l-361 -594h261v244h178v-244h106v-161h-106v-199h-178z" />
    <glyph glyph-name="questiondown" unicode="&#xbf;" horiz-adv-x="1128" 
d="M492 1249v262h278v-262h-278zM592 -8q-207 0 -325 37.5t-170 119t-52 224.5q0 97 18.5 161t73 123.5t144.5 108t243 108.5v209h203v-313q-112 -44 -178.5 -71.5t-125 -58.5t-86.5 -53.5t-48.5 -55.5t-25.5 -65t-5 -81q0 -113 73 -157t261 -44q216 0 432 47l37 -184
q-72 -22 -207 -38.5t-262 -16.5z" />
    <glyph glyph-name="Agrave" unicode="&#xc0;" horiz-adv-x="1413" 
d="M367 322l-121 -322h-211l575 1503h193l575 -1503h-221l-121 322h-669zM967 504l-265 700l-266 -700h531zM700 1593l-356 373h311l187 -373h-142z" />
    <glyph glyph-name="Aacute" unicode="&#xc1;" horiz-adv-x="1413" 
d="M367 322l-121 -322h-211l575 1503h193l575 -1503h-221l-121 322h-669zM967 504l-265 700l-266 -700h531zM571 1593l187 373h309l-356 -373h-140z" />
    <glyph glyph-name="Acircumflex" unicode="&#xc2;" horiz-adv-x="1413" 
d="M367 322l-121 -322h-211l575 1503h193l575 -1503h-221l-121 322h-669zM967 504l-265 700l-266 -700h531zM354 1559l258 339h185l260 -339h-148l-207 167l-204 -167h-144z" />
    <glyph glyph-name="Atilde" unicode="&#xc3;" horiz-adv-x="1413" 
d="M367 322l-121 -322h-211l575 1503h193l575 -1503h-221l-121 322h-669zM967 504l-265 700l-266 -700h531zM446 1577l-106 131q75 62 104.5 85.5t74 46t81.5 22.5q34 0 81 -24t87.5 -48.5t56.5 -24.5q5 0 11 1.5t13 4.5t13 6.5t15 10.5t16 12t19 15t20 17t22.5 19.5
t24.5 20.5l106 -131q-12 -10 -45 -37t-43 -35.5t-35 -27t-36.5 -24.5t-31 -15t-35.5 -12t-34 -3q-45 0 -127 47t-98 47q-28 0 -134 -88q-13 -10 -20 -16z" />
    <glyph glyph-name="Adieresis" unicode="&#xc4;" horiz-adv-x="1413" 
d="M1030 1247v246h250v-246h-250zM131 1247v246h250v-246h-250zM367 322l-121 -322h-211l575 1503h193l575 -1503h-221l-121 322h-669zM967 504l-265 700l-266 -700h531z" />
    <glyph glyph-name="Aring" unicode="&#xc5;" horiz-adv-x="1413" 
d="M367 322l-121 -322h-211l543 1419q-109 42 -109 197q0 114 54 165.5t177 51.5q125 0 178.5 -51.5t53.5 -165.5q0 -148 -98 -193l544 -1423h-221l-121 322h-669zM700 1509q62 0 82.5 23t20.5 84q0 62 -20.5 87.5t-82.5 25.5q-61 0 -80.5 -25t-19.5 -88q0 -62 19 -84.5
t81 -22.5zM967 504l-265 700l-266 -700h531z" />
    <glyph glyph-name="AE" unicode="&#xc6;" horiz-adv-x="2043" 
d="M35 0l891 1493h1034v-193h-703v-426h543v-190h-543v-496h703v-188h-907v428h-537l-248 -428h-233zM621 612h432v731z" />
    <glyph glyph-name="Ccedilla" unicode="&#xc7;" horiz-adv-x="1216" 
d="M567 -14q-91 10 -160.5 35t-132.5 79t-104 136t-64.5 210.5t-23.5 298.5q0 110 10 203t28 165.5t46.5 130.5t61 100t75.5 73t87.5 50t99.5 30.5t108 16t117 4.5q233 0 415 -52l-38 -184q-215 41 -381 41q-109 0 -181.5 -23t-124.5 -81.5t-75 -159.5t-23 -256v-105
q0 -201 45 -318t132 -164.5t231 -47.5q113 0 219.5 16t159.5 31l39 -184q-159 -48 -396 -51l49 -256q-40 -42 -126 -79.5t-203 -56.5l-35 172q119 20 176 54z" />
    <glyph glyph-name="Egrave" unicode="&#xc8;" horiz-adv-x="1155" 
d="M145 0v1493h926v-193h-713v-426h553v-190h-553v-496h713v-188h-926zM573 1593l-356 373h311l187 -373h-142z" />
    <glyph glyph-name="Eacute" unicode="&#xc9;" horiz-adv-x="1155" 
d="M145 0v1493h926v-193h-713v-426h553v-190h-553v-496h713v-188h-926zM444 1593l187 373h309l-356 -373h-140z" />
    <glyph glyph-name="Ecircumflex" unicode="&#xca;" horiz-adv-x="1155" 
d="M145 0v1493h926v-193h-713v-426h553v-190h-553v-496h713v-188h-926zM225 1593l258 340h185l260 -340h-148l-207 168l-204 -168h-144z" />
    <glyph glyph-name="Edieresis" unicode="&#xcb;" horiz-adv-x="1155" 
d="M145 0v1493h926v-193h-713v-426h553v-190h-553v-496h713v-188h-926zM655 1608v245h252v-245h-252zM250 1608v245h248v-245h-248z" />
    <glyph glyph-name="Igrave" unicode="&#xcc;" horiz-adv-x="536" 
d="M162 0v1493h215v-1493h-215zM217 1593l-356 373h311l186 -373h-141z" />
    <glyph glyph-name="Iacute" unicode="&#xcd;" horiz-adv-x="536" 
d="M162 0v1493h215v-1493h-215zM180 1593l187 373h309l-357 -373h-139z" />
    <glyph glyph-name="Icircumflex" unicode="&#xce;" horiz-adv-x="536" 
d="M162 0v1493h215v-1493h-215zM-84 1593l258 340h184l260 -340h-147l-207 168l-205 -168h-143z" />
    <glyph glyph-name="Idieresis" unicode="&#xcf;" horiz-adv-x="536" 
d="M162 0v1493h215v-1493h-215zM346 1608v245h252v-245h-252zM-59 1608v245h247v-245h-247z" />
    <glyph glyph-name="Eth" unicode="&#xd0;" horiz-adv-x="1464" 
d="M229 686h-170v166h170v641h525q106 0 186.5 -12.5t154 -43t124.5 -85t89 -136.5t56 -199.5t18 -271.5t-18 -271.5t-56 -199t-89 -135.5t-125 -84.5t-154 -42.5t-186 -12l-525 -2v688zM442 852h244v-166h-244v-516h310q104 0 177 25t125.5 84.5t77.5 162.5t25 254v99
q0 152 -25 254.5t-78 161.5t-125 83.5t-177 24.5h-310v-467z" />
    <glyph glyph-name="Ntilde" unicode="&#xd1;" horiz-adv-x="1454" 
d="M145 0v1493h209l750 -1110v1110h205v-1493h-187l-772 1141v-1141h-205zM467 1577l-107 131q57 47 80 65.5t61 44.5t65 35t55 9q34 0 81 -24t87.5 -48.5t56.5 -24.5q7 0 14.5 2t17 8t17.5 11t22 16.5t23 19t28 24t31 26.5l107 -131q-12 -10 -45 -37t-43 -35.5t-35 -27
t-36.5 -24.5t-31 -15t-35.5 -12t-34 -3q-45 0 -127 47t-98 47q-28 0 -134 -88q-13 -10 -20 -16z" />
    <glyph glyph-name="Ograve" unicode="&#xd2;" 
d="M733 -23q-84 0 -153.5 9t-138 32t-121.5 60t-99 96.5t-75.5 138.5t-46.5 188t-17 244t17 244t47 189t76.5 139.5t100 97.5t122 61.5t138.5 32.5t154 9t153.5 -9t138.5 -32t121.5 -60t98.5 -96.5t76 -138.5t47 -188t17 -244q0 -187 -33.5 -325.5t-89.5 -223t-142 -136
t-178.5 -70t-212.5 -18.5zM737 166q84 0 147 13.5t117.5 49t88.5 94.5t53.5 152t19.5 219v105q0 156 -29 261.5t-87.5 163t-133 80.5t-180.5 23q-105 0 -179 -22.5t-132 -79t-86.5 -161.5t-28.5 -261v-105q0 -126 20 -219.5t55 -153t90 -95.5t118.5 -50t146.5 -14zM735 1593
l-356 373h311l187 -373h-142z" />
    <glyph glyph-name="Oacute" unicode="&#xd3;" 
d="M733 -23q-84 0 -153.5 9t-138 32t-121.5 60t-99 96.5t-75.5 138.5t-46.5 188t-17 244t17 244t47 189t76.5 139.5t100 97.5t122 61.5t138.5 32.5t154 9t153.5 -9t138.5 -32t121.5 -60t98.5 -96.5t76 -138.5t47 -188t17 -244q0 -187 -33.5 -325.5t-89.5 -223t-142 -136
t-178.5 -70t-212.5 -18.5zM737 166q84 0 147 13.5t117.5 49t88.5 94.5t53.5 152t19.5 219v105q0 156 -29 261.5t-87.5 163t-133 80.5t-180.5 23q-105 0 -179 -22.5t-132 -79t-86.5 -161.5t-28.5 -261v-105q0 -126 20 -219.5t55 -153t90 -95.5t118.5 -50t146.5 -14zM596 1593
l186 373h310l-357 -373h-139z" />
    <glyph glyph-name="Ocircumflex" unicode="&#xd4;" 
d="M733 -23q-84 0 -153.5 9t-138 32t-121.5 60t-99 96.5t-75.5 138.5t-46.5 188t-17 244t17 244t47 189t76.5 139.5t100 97.5t122 61.5t138.5 32.5t154 9t153.5 -9t138.5 -32t121.5 -60t98.5 -96.5t76 -138.5t47 -188t17 -244q0 -187 -33.5 -325.5t-89.5 -223t-142 -136
t-178.5 -70t-212.5 -18.5zM737 166q84 0 147 13.5t117.5 49t88.5 94.5t53.5 152t19.5 219v105q0 156 -29 261.5t-87.5 163t-133 80.5t-180.5 23q-105 0 -179 -22.5t-132 -79t-86.5 -161.5t-28.5 -261v-105q0 -126 20 -219.5t55 -153t90 -95.5t118.5 -50t146.5 -14zM385 1593
l258 340h184l260 -340h-147l-207 168l-205 -168h-143z" />
    <glyph glyph-name="Otilde" unicode="&#xd5;" 
d="M733 -23q-84 0 -153.5 9t-138 32t-121.5 60t-99 96.5t-75.5 138.5t-46.5 188t-17 244t17 244t47 189t76.5 139.5t100 97.5t122 61.5t138.5 32.5t154 9t153.5 -9t138.5 -32t121.5 -60t98.5 -96.5t76 -138.5t47 -188t17 -244q0 -187 -33.5 -325.5t-89.5 -223t-142 -136
t-178.5 -70t-212.5 -18.5zM737 166q84 0 147 13.5t117.5 49t88.5 94.5t53.5 152t19.5 219v105q0 156 -29 261.5t-87.5 163t-133 80.5t-180.5 23q-105 0 -179 -22.5t-132 -79t-86.5 -161.5t-28.5 -261v-105q0 -126 20 -219.5t55 -153t90 -95.5t118.5 -50t146.5 -14zM475 1577
l-106 131q75 62 104.5 85.5t74 46t81.5 22.5q34 0 81 -24t87.5 -48.5t56.5 -24.5q5 0 11 1.5t13 4.5t13 6.5t15 10.5t16 12t19 15t20 17t22.5 19.5t24.5 20.5l106 -131q-12 -10 -45 -37t-43 -35.5t-35 -27t-36.5 -24.5t-31 -15t-35.5 -12t-34 -3q-45 0 -127 47t-98 47
q-28 0 -134 -88q-13 -10 -20 -16z" />
    <glyph glyph-name="Odieresis" unicode="&#xd6;" 
d="M733 -23q-84 0 -153.5 9t-138 32t-121.5 60t-99 96.5t-75.5 138.5t-46.5 188t-17 244t17 244t47 189t76.5 139.5t100 97.5t122 61.5t138.5 32.5t154 9t153.5 -9t138.5 -32t121.5 -60t98.5 -96.5t76 -138.5t47 -188t17 -244q0 -187 -33.5 -325.5t-89.5 -223t-142 -136
t-178.5 -70t-212.5 -18.5zM737 166q84 0 147 13.5t117.5 49t88.5 94.5t53.5 152t19.5 219v105q0 156 -29 261.5t-87.5 163t-133 80.5t-180.5 23q-105 0 -179 -22.5t-132 -79t-86.5 -161.5t-28.5 -261v-105q0 -126 20 -219.5t55 -153t90 -95.5t118.5 -50t146.5 -14zM813 1608
v245h252v-245h-252zM408 1608v245h247v-245h-247z" />
    <glyph glyph-name="multiply" unicode="&#xd7;" horiz-adv-x="1050" 
d="M264 307l-117 115l263 264l-263 262l117 117l262 -264l262 264l115 -117l-260 -262l260 -264l-115 -115l-262 262z" />
    <glyph glyph-name="Oslash" unicode="&#xd8;" 
d="M1192 1384q197 -178 197 -634q0 -187 -33.5 -325.5t-89.5 -223t-142 -136t-178.5 -70t-212.5 -18.5q-201 0 -332 56l-96 -166h-170l144 246q-197 178 -197 632q0 135 17 244t47 189t76.5 139.5t100 97.5t122 61.5t138.5 32.5t154 9q200 0 328 -56l96 166h172zM389 305
l576 985q-86 45 -232 45q-84 0 -147.5 -14t-118.5 -50t-90 -95.5t-54.5 -153t-19.5 -219.5v-105q0 -262 86 -393zM1079 1192l-577 -987q89 -47 235 -47q84 0 148 14.5t119 50.5t89.5 96.5t54 154t19.5 220.5v105q0 266 -88 393z" />
    <glyph glyph-name="Ugrave" unicode="&#xd9;" horiz-adv-x="1443" 
d="M725 -20q-124 0 -213.5 14t-165 49.5t-121.5 97.5t-71 158t-25 229v965h215v-946q0 -110 19.5 -180t66.5 -112.5t118 -59.5t181 -17q74 0 127 6t97.5 22t72.5 42t47.5 67.5t28 96.5t8.5 131v950h207v-961q0 -132 -24.5 -227.5t-70 -158t-120 -99.5t-164.5 -52t-213 -15z
M721 1593l-356 373h311l186 -373h-141z" />
    <glyph glyph-name="Uacute" unicode="&#xda;" horiz-adv-x="1443" 
d="M725 -20q-124 0 -213.5 14t-165 49.5t-121.5 97.5t-71 158t-25 229v965h215v-946q0 -110 19.5 -180t66.5 -112.5t118 -59.5t181 -17q74 0 127 6t97.5 22t72.5 42t47.5 67.5t28 96.5t8.5 131v950h207v-961q0 -132 -24.5 -227.5t-70 -158t-120 -99.5t-164.5 -52t-213 -15z
M582 1593l186 373h309l-356 -373h-139z" />
    <glyph glyph-name="Ucircumflex" unicode="&#xdb;" horiz-adv-x="1443" 
d="M725 -20q-124 0 -213.5 14t-165 49.5t-121.5 97.5t-71 158t-25 229v965h215v-946q0 -110 19.5 -180t66.5 -112.5t118 -59.5t181 -17q74 0 127 6t97.5 22t72.5 42t47.5 67.5t28 96.5t8.5 131v950h207v-961q0 -132 -24.5 -227.5t-70 -158t-120 -99.5t-164.5 -52t-213 -15z
M375 1593l258 340h184l260 -340h-147l-207 168l-205 -168h-143z" />
    <glyph glyph-name="Udieresis" unicode="&#xdc;" horiz-adv-x="1443" 
d="M725 -20q-124 0 -213.5 14t-165 49.5t-121.5 97.5t-71 158t-25 229v965h215v-946q0 -110 19.5 -180t66.5 -112.5t118 -59.5t181 -17q74 0 127 6t97.5 22t72.5 42t47.5 67.5t28 96.5t8.5 131v950h207v-961q0 -132 -24.5 -227.5t-70 -158t-120 -99.5t-164.5 -52t-213 -15z
M799 1608v245h252v-245h-252zM393 1608v245h248v-245h-248z" />
    <glyph glyph-name="Yacute" unicode="&#xdd;" horiz-adv-x="1400" 
d="M594 0v575l-559 918h233l439 -715l438 715h221l-559 -915v-578h-213zM561 1593l187 373h309l-357 -373h-139z" />
    <glyph glyph-name="Thorn" unicode="&#xde;" horiz-adv-x="1275" 
d="M145 0v1493h213v-274h408q115 0 194.5 -20.5t139.5 -70.5t88.5 -139t28.5 -221q0 -133 -29.5 -223t-90 -141t-141 -72t-194.5 -21h-404v-311h-213zM358 489h408q43 0 75.5 5.5t64.5 22.5t52.5 46.5t33 80t12.5 120.5q0 69 -13 119.5t-34 80t-54 46.5t-65.5 22.5
t-75.5 5.5h-404v-549z" />
    <glyph glyph-name="germandbls" unicode="&#xdf;" horiz-adv-x="1292" 
d="M582 -16l-25 174q191 22 285 45.5t137 68.5q30 30 41.5 75.5t11.5 119.5q0 75 -12.5 121t-44.5 78q-42 38 -122.5 60t-215.5 38v151q95 96 132 142t53 91.5t16 117.5q0 33 -10 55t-26.5 34.5t-52 19t-71 8t-98.5 1.5q-91 0 -122.5 -27.5t-31.5 -103.5v-1253h-207v791
h-162v172h162v311q0 153 82.5 219t290.5 66q102 0 172 -7.5t125.5 -26t87 -52t47.5 -83t16 -120.5q0 -51 -9 -92.5t-22.5 -72.5t-44.5 -67t-59 -63t-82 -74q115 -21 194.5 -52.5t125.5 -84.5q88 -102 88 -295q0 -116 -21.5 -191t-68.5 -124q-72 -74 -201 -110t-358 -60z" />
    <glyph glyph-name="agrave" unicode="&#xe0;" horiz-adv-x="1040" 
d="M334 -14q-52 0 -95.5 14t-81.5 46.5t-59.5 92.5t-21.5 144q0 93 19.5 150.5t68.5 86.5q76 42 194 56t351 14v43q0 55 -6 87.5t-25 57.5t-54.5 35t-93.5 10q-154 0 -329 -35l-29 173q187 38 363 38q213 0 296.5 -74.5t83.5 -260.5v-664h-165l-31 100q-188 -114 -385 -114z
M416 154q71 0 155.5 27.5t137.5 58.5v217q-177 0 -261 -9.5t-120 -31.5q-43 -22 -43 -129q0 -78 31 -105.5t100 -27.5zM524 1102l-356 373h311l187 -373h-142z" />
    <glyph glyph-name="aacute" unicode="&#xe1;" horiz-adv-x="1040" 
d="M334 -14q-52 0 -95.5 14t-81.5 46.5t-59.5 92.5t-21.5 144q0 93 19.5 150.5t68.5 86.5q76 42 194 56t351 14v43q0 55 -6 87.5t-25 57.5t-54.5 35t-93.5 10q-154 0 -329 -35l-29 173q187 38 363 38q213 0 296.5 -74.5t83.5 -260.5v-664h-165l-31 100q-188 -114 -385 -114z
M416 154q71 0 155.5 27.5t137.5 58.5v217q-177 0 -261 -9.5t-120 -31.5q-43 -22 -43 -129q0 -78 31 -105.5t100 -27.5zM385 1102l186 373h310l-357 -373h-139z" />
    <glyph glyph-name="acircumflex" unicode="&#xe2;" horiz-adv-x="1040" 
d="M334 -14q-52 0 -95.5 14t-81.5 46.5t-59.5 92.5t-21.5 144q0 93 19.5 150.5t68.5 86.5q76 42 194 56t351 14v43q0 55 -6 87.5t-25 57.5t-54.5 35t-93.5 10q-154 0 -329 -35l-29 173q187 38 363 38q213 0 296.5 -74.5t83.5 -260.5v-664h-165l-31 100q-188 -114 -385 -114z
M416 154q71 0 155.5 27.5t137.5 58.5v217q-177 0 -261 -9.5t-120 -31.5q-43 -22 -43 -129q0 -78 31 -105.5t100 -27.5zM174 1102l258 340h184l261 -340h-148l-207 168l-205 -168h-143z" />
    <glyph glyph-name="atilde" unicode="&#xe3;" horiz-adv-x="1040" 
d="M334 -14q-52 0 -95.5 14t-81.5 46.5t-59.5 92.5t-21.5 144q0 93 19.5 150.5t68.5 86.5q76 42 194 56t351 14v43q0 55 -6 87.5t-25 57.5t-54.5 35t-93.5 10q-154 0 -329 -35l-29 173q187 38 363 38q213 0 296.5 -74.5t83.5 -260.5v-664h-165l-31 100q-188 -114 -385 -114z
M416 154q71 0 155.5 27.5t137.5 58.5v217q-177 0 -261 -9.5t-120 -31.5q-43 -22 -43 -129q0 -78 31 -105.5t100 -27.5zM264 1085l-106 132q73 61 104 85t75 46t81 22q34 0 81 -24t87.5 -48t56.5 -24q29 0 130 86q16 13 24 20l106 -131q-12 -10 -40 -33t-38 -31t-32 -25
t-32 -23t-28 -16.5t-30.5 -14t-28 -7t-31.5 -3.5q-45 0 -127 47t-98 47q-27 0 -128 -84q-17 -14 -26 -21z" />
    <glyph glyph-name="adieresis" unicode="&#xe4;" horiz-adv-x="1040" 
d="M334 -14q-52 0 -95.5 14t-81.5 46.5t-59.5 92.5t-21.5 144q0 93 19.5 150.5t68.5 86.5q76 42 194 56t351 14v43q0 55 -6 87.5t-25 57.5t-54.5 35t-93.5 10q-154 0 -329 -35l-29 173q187 38 363 38q213 0 296.5 -74.5t83.5 -260.5v-664h-165l-31 100q-188 -114 -385 -114z
M416 154q71 0 155.5 27.5t137.5 58.5v217q-177 0 -261 -9.5t-120 -31.5q-43 -22 -43 -129q0 -78 31 -105.5t100 -27.5zM602 1116v246h252v-246h-252zM197 1116v246h247v-246h-247z" />
    <glyph glyph-name="aring" unicode="&#xe5;" horiz-adv-x="1040" 
d="M334 -14q-52 0 -95.5 14t-81.5 46.5t-59.5 92.5t-21.5 144q0 93 19.5 150.5t68.5 86.5q76 42 194 56t351 14v43q0 55 -6 87.5t-25 57.5t-54.5 35t-93.5 10q-154 0 -329 -35l-29 173q187 38 363 38q213 0 296.5 -74.5t83.5 -260.5v-664h-165l-31 100q-188 -114 -385 -114z
M416 154q71 0 155.5 27.5t137.5 58.5v217q-177 0 -261 -9.5t-120 -31.5q-43 -22 -43 -129q0 -78 31 -105.5t100 -27.5zM526 1083q-124 0 -177.5 51t-53.5 164q0 114 54 166t177 52q124 0 178 -52t54 -166q0 -113 -54.5 -164t-177.5 -51zM526 1192q62 0 82.5 22.5t20.5 83.5
q0 62 -20.5 87.5t-82.5 25.5q-61 0 -80.5 -25t-19.5 -88q0 -61 19 -83.5t81 -22.5z" />
    <glyph glyph-name="ae" unicode="&#xe6;" horiz-adv-x="1644" 
d="M334 -14q-52 0 -95.5 14t-81.5 46.5t-59.5 92.5t-21.5 144q0 166 67 223q64 55 191 73.5t377 18.5v35q0 108 -34.5 149t-146.5 41q-134 0 -321 -32l-31 172q183 36 357 36q129 0 202.5 -28.5t106.5 -93.5q104 127 303 127q219 0 319.5 -101.5t100.5 -351.5v-94h-647
q1 -93 18.5 -153t54.5 -92t83.5 -44t117.5 -12q177 0 297 30l31 -170q-53 -14 -152 -26.5t-178 -12.5q-152 0 -252 39t-156 125q-87 -70 -203 -112.5t-247 -42.5zM924 594h436q0 142 -49 194t-168 52q-99 0 -153.5 -53.5t-65.5 -192.5zM416 154q69 0 160 30t159 76
q-21 74 -24 203q-180 0 -267.5 -11t-124.5 -42q-21 -19 -27.5 -46.5t-6.5 -76.5q0 -78 31 -105.5t100 -27.5z" />
    <glyph glyph-name="ccedilla" unicode="&#xe7;" horiz-adv-x="925" 
d="M422 -16q-183 25 -267.5 142.5t-84.5 362.5q0 279 114.5 394.5t364.5 115.5q147 0 295 -36l-35 -175q-158 31 -266 31q-56 0 -94.5 -7t-72 -27t-52.5 -56t-30 -94t-11 -141q0 -104 16 -171t51.5 -103.5t81 -50t115.5 -13.5q132 0 264 34l37 -170q-135 -35 -256 -40
l49 -256q-40 -42 -126.5 -79.5t-203.5 -56.5l-35 172q121 21 177 54z" />
    <glyph glyph-name="egrave" unicode="&#xe8;" horiz-adv-x="1007" 
d="M553 -23q-254 0 -368.5 115.5t-114.5 396.5q0 143 32 245.5t92.5 160t137 83.5t176.5 26q219 0 319.5 -101.5t100.5 -351.5v-94h-647q1 -93 18 -153t54.5 -92t84 -44t117.5 -12q177 0 297 30l31 -170q-53 -14 -152 -26.5t-178 -12.5zM285 594h434q0 143 -48.5 194.5
t-168.5 51.5q-99 0 -153 -53.5t-64 -192.5zM502 1102l-357 373h312l186 -373h-141z" />
    <glyph glyph-name="eacute" unicode="&#xe9;" horiz-adv-x="1007" 
d="M553 -23q-254 0 -368.5 115.5t-114.5 396.5q0 143 32 245.5t92.5 160t137 83.5t176.5 26q219 0 319.5 -101.5t100.5 -351.5v-94h-647q1 -93 18 -153t54.5 -92t84 -44t117.5 -12q177 0 297 30l31 -170q-53 -14 -152 -26.5t-178 -12.5zM285 594h434q0 143 -48.5 194.5
t-168.5 51.5q-99 0 -153 -53.5t-64 -192.5zM362 1102l187 373h309l-356 -373h-140z" />
    <glyph glyph-name="ecircumflex" unicode="&#xea;" horiz-adv-x="1007" 
d="M553 -23q-254 0 -368.5 115.5t-114.5 396.5q0 143 32 245.5t92.5 160t137 83.5t176.5 26q219 0 319.5 -101.5t100.5 -351.5v-94h-647q1 -93 18 -153t54.5 -92t84 -44t117.5 -12q177 0 297 30l31 -170q-53 -14 -152 -26.5t-178 -12.5zM285 594h434q0 143 -48.5 194.5
t-168.5 51.5q-99 0 -153 -53.5t-64 -192.5zM152 1102l258 340h184l260 -340h-147l-207 168l-205 -168h-143z" />
    <glyph glyph-name="edieresis" unicode="&#xeb;" horiz-adv-x="1007" 
d="M553 -23q-254 0 -368.5 115.5t-114.5 396.5q0 143 32 245.5t92.5 160t137 83.5t176.5 26q219 0 319.5 -101.5t100.5 -351.5v-94h-647q1 -93 18 -153t54.5 -92t84 -44t117.5 -12q177 0 297 30l31 -170q-53 -14 -152 -26.5t-178 -12.5zM285 594h434q0 143 -48.5 194.5
t-168.5 51.5q-99 0 -153 -53.5t-64 -192.5zM580 1116v246h251v-246h-251zM174 1116v246h248v-246h-248z" />
    <glyph glyph-name="igrave" unicode="&#xec;" horiz-adv-x="489" 
d="M141 0v963h207v-963h-207zM188 1102l-356 373h311l187 -373h-142z" />
    <glyph glyph-name="iacute" unicode="&#xed;" horiz-adv-x="489" 
d="M141 0v963h207v-963h-207zM162 1102l186 373h309l-356 -373h-139z" />
    <glyph glyph-name="icircumflex" unicode="&#xee;" horiz-adv-x="489" 
d="M141 0v963h207v-963h-207zM-106 1102l258 340h184l260 -340h-147l-207 168l-205 -168h-143z" />
    <glyph glyph-name="idieresis" unicode="&#xef;" horiz-adv-x="489" 
d="M141 0v963h207v-963h-207zM322 1116v246h251v-246h-251zM-84 1116v246h248v-246h-248z" />
    <glyph glyph-name="eth" unicode="&#xf0;" horiz-adv-x="1138" 
d="M805 1116h-215v174h168q-23 77 -68 191l197 53q42 -86 86 -244h184v-174h-143q45 -215 45 -452q0 -96 -3.5 -168t-12.5 -142t-25.5 -119.5t-42.5 -95t-62.5 -74t-86.5 -50t-114 -31t-145 -9.5q-58 0 -104.5 4.5t-98 18t-90.5 37t-76 63t-60.5 94t-37.5 132.5t-14 176
q0 97 11 173.5t28 127t46.5 86.5t56 54.5t67 29t70 12.5t73.5 2q90 0 205 -27.5t199 -70.5q-16 133 -37 229zM573 150q49 0 87 6t67 21.5t49.5 34t34.5 51t22 63.5t12.5 81t5.5 95t1 114q0 68 -2 93q-69 38 -165 64t-171 26q-51 0 -83.5 -6t-60.5 -23.5t-42.5 -51
t-22.5 -86.5t-8 -132q0 -138 31 -215.5t88.5 -106t156.5 -28.5z" />
    <glyph glyph-name="ntilde" unicode="&#xf1;" horiz-adv-x="1130" 
d="M131 0v963h168l31 -97q62 36 181 77.5t224 41.5q134 0 201.5 -63t67.5 -197v-725h-207v657q0 79 -31 111.5t-115 32.5q-72 0 -166.5 -28.5t-144.5 -57.5v-715h-209zM305 1085l-106 132q73 61 104 85t75 46t81 22q34 0 81 -24t87.5 -48t56.5 -24q29 0 130 86q16 13 24 20
l106 -131q-12 -10 -40 -33t-38 -31t-32 -25t-32 -23t-28 -16.5t-30.5 -14t-28 -7t-31.5 -3.5q-45 0 -127 47t-98 47q-27 0 -128 -84q-17 -14 -26 -21z" />
    <glyph glyph-name="ograve" unicode="&#xf2;" horiz-adv-x="1112" 
d="M555 -23q-249 0 -367 117.5t-118 394.5q0 276 120 395.5t369 119.5q248 0 364.5 -117t116.5 -393q0 -278 -118.5 -397.5t-366.5 -119.5zM559 147q54 0 93 8t74 30.5t56.5 60t34 98.5t12.5 145q0 104 -18.5 172.5t-56.5 105t-84.5 50.5t-114.5 14q-54 0 -93 -8
t-74.5 -29.5t-57.5 -58.5t-34.5 -97.5t-12.5 -143.5q0 -104 18.5 -174t57 -107t85.5 -51.5t115 -14.5zM557 1102l-356 373h311l186 -373h-141z" />
    <glyph glyph-name="oacute" unicode="&#xf3;" horiz-adv-x="1112" 
d="M555 -23q-249 0 -367 117.5t-118 394.5q0 276 120 395.5t369 119.5q248 0 364.5 -117t116.5 -393q0 -278 -118.5 -397.5t-366.5 -119.5zM559 147q54 0 93 8t74 30.5t56.5 60t34 98.5t12.5 145q0 104 -18.5 172.5t-56.5 105t-84.5 50.5t-114.5 14q-54 0 -93 -8
t-74.5 -29.5t-57.5 -58.5t-34.5 -97.5t-12.5 -143.5q0 -104 18.5 -174t57 -107t85.5 -51.5t115 -14.5zM418 1102l186 373h309l-356 -373h-139z" />
    <glyph glyph-name="ocircumflex" unicode="&#xf4;" horiz-adv-x="1112" 
d="M555 -23q-249 0 -367 117.5t-118 394.5q0 276 120 395.5t369 119.5q248 0 364.5 -117t116.5 -393q0 -278 -118.5 -397.5t-366.5 -119.5zM559 147q54 0 93 8t74 30.5t56.5 60t34 98.5t12.5 145q0 104 -18.5 172.5t-56.5 105t-84.5 50.5t-114.5 14q-54 0 -93 -8
t-74.5 -29.5t-57.5 -58.5t-34.5 -97.5t-12.5 -143.5q0 -104 18.5 -174t57 -107t85.5 -51.5t115 -14.5zM205 1102l258 340h184l260 -340h-147l-207 168l-205 -168h-143z" />
    <glyph glyph-name="otilde" unicode="&#xf5;" horiz-adv-x="1112" 
d="M555 -23q-249 0 -367 117.5t-118 394.5q0 276 120 395.5t369 119.5q248 0 364.5 -117t116.5 -393q0 -278 -118.5 -397.5t-366.5 -119.5zM559 147q54 0 93 8t74 30.5t56.5 60t34 98.5t12.5 145q0 104 -18.5 172.5t-56.5 105t-84.5 50.5t-114.5 14q-54 0 -93 -8
t-74.5 -29.5t-57.5 -58.5t-34.5 -97.5t-12.5 -143.5q0 -104 18.5 -174t57 -107t85.5 -51.5t115 -14.5zM295 1085l-107 132q55 46 79.5 65.5t61.5 44.5t64.5 34t55.5 9q34 0 81 -24t87.5 -48t56.5 -24q5 0 11 1.5t13 4.5t13 6.5t15 10t15.5 12t18.5 15t20 16t22.5 19.5
t24.5 21l107 -131q-12 -10 -40 -33t-38 -31t-32 -25t-32 -23t-28 -16.5t-30.5 -14t-28 -7t-31.5 -3.5q-45 0 -127 47t-98 47q-27 0 -128 -84q-17 -14 -26 -21z" />
    <glyph glyph-name="odieresis" unicode="&#xf6;" horiz-adv-x="1112" 
d="M555 -23q-249 0 -367 117.5t-118 394.5q0 276 120 395.5t369 119.5q248 0 364.5 -117t116.5 -393q0 -278 -118.5 -397.5t-366.5 -119.5zM559 147q54 0 93 8t74 30.5t56.5 60t34 98.5t12.5 145q0 104 -18.5 172.5t-56.5 105t-84.5 50.5t-114.5 14q-54 0 -93 -8
t-74.5 -29.5t-57.5 -58.5t-34.5 -97.5t-12.5 -143.5q0 -104 18.5 -174t57 -107t85.5 -51.5t115 -14.5zM633 1116v246h252v-246h-252zM227 1116v246h248v-246h-248z" />
    <glyph glyph-name="divide" unicode="&#xf7;" horiz-adv-x="1056" 
d="M406 909v238h243v-238h-243zM113 602v170h831v-170h-831zM406 225v240h243v-240h-243z" />
    <glyph glyph-name="oslash" unicode="&#xf8;" horiz-adv-x="1112" 
d="M936 874q104 -122 104 -380q0 -278 -118.5 -397.5t-366.5 -119.5q-123 0 -221 31l-101 -145h-192l156 223q-127 124 -127 403q0 276 120 395.5t369 119.5q152 0 248 -41l88 127h190zM317 262l385 549q-55 27 -147 27q-70 0 -116.5 -13.5t-85 -49.5t-56.5 -105.5
t-18 -175.5q0 -151 38 -232zM807 688l-369 -530q50 -17 121 -17q55 0 94.5 8t75 30.5t57 61t33.5 100.5t12 148q0 123 -24 199z" />
    <glyph glyph-name="ugrave" unicode="&#xf9;" horiz-adv-x="1126" 
d="M395 -20q-134 0 -202 64t-68 198v721h209v-654q0 -79 30.5 -111t114.5 -32q72 0 165 27t142 55v715h209v-963h-168l-30 96q-65 -37 -181.5 -76.5t-220.5 -39.5zM563 1102l-356 373h311l187 -373h-142z" />
    <glyph glyph-name="uacute" unicode="&#xfa;" horiz-adv-x="1126" 
d="M395 -20q-134 0 -202 64t-68 198v721h209v-654q0 -79 30.5 -111t114.5 -32q72 0 165 27t142 55v715h209v-963h-168l-30 96q-65 -37 -181.5 -76.5t-220.5 -39.5zM424 1102l186 373h310l-357 -373h-139z" />
    <glyph glyph-name="ucircumflex" unicode="&#xfb;" horiz-adv-x="1126" 
d="M395 -20q-134 0 -202 64t-68 198v721h209v-654q0 -79 30.5 -111t114.5 -32q72 0 165 27t142 55v715h209v-963h-168l-30 96q-65 -37 -181.5 -76.5t-220.5 -39.5zM211 1102l258 340h184l260 -340h-147l-207 168l-205 -168h-143z" />
    <glyph glyph-name="udieresis" unicode="&#xfc;" horiz-adv-x="1126" 
d="M395 -20q-134 0 -202 64t-68 198v721h209v-654q0 -79 30.5 -111t114.5 -32q72 0 165 27t142 55v715h209v-963h-168l-30 96q-65 -37 -181.5 -76.5t-220.5 -39.5zM639 1116v246h252v-246h-252zM233 1116v246h248v-246h-248z" />
    <glyph glyph-name="yacute" unicode="&#xfd;" horiz-adv-x="1030" 
d="M418 14l-387 949h221q278 -703 278 -705l271 705h196l-536 -1373h-209zM379 1102l186 373h309l-356 -373h-139z" />
    <glyph glyph-name="thorn" unicode="&#xfe;" horiz-adv-x="1136" 
d="M131 -410v1944h207v-664q39 22 90 44.5t141 46.5t168 24q39 0 69.5 -4.5t64 -17.5t59 -35t49.5 -59.5t39 -89t24 -125.5t9 -167t-9.5 -167.5t-25.5 -126.5t-41 -90.5t-51.5 -60.5t-61 -35.5t-65.5 -18t-70 -4.5q-183 0 -389 86v-480h-207zM655 162q68 0 105.5 24.5
t57.5 94.5t20 202t-19.5 201t-56 93t-105.5 24q-78 0 -165.5 -26t-153.5 -58v-490q179 -65 317 -65z" />
    <glyph glyph-name="ydieresis" unicode="&#xff;" horiz-adv-x="1030" 
d="M418 14l-387 949h221q278 -703 278 -705l271 705h196l-536 -1373h-209zM594 1116v246h252v-246h-252zM188 1116v246h248v-246h-248z" />
    <glyph glyph-name="dotlessi" unicode="&#x131;" horiz-adv-x="489" 
d="M141 0v963h207v-963h-207z" />
    <glyph glyph-name="Lslash" unicode="&#x141;" horiz-adv-x="1239" 
d="M213 614l-154 -55v166l154 55v713h215v-637l258 92v-166l-258 -92v-510h768v-180h-983v614z" />
    <glyph glyph-name="lslash" unicode="&#x142;" horiz-adv-x="686" 
d="M242 631l-189 -72v166l189 72v737h207v-657l186 71v-166l-186 -71v-711h-207v631z" />
    <glyph glyph-name="OE" unicode="&#x152;" horiz-adv-x="2009" 
d="M715 0q-108 0 -189 12t-156 42.5t-126.5 84.5t-90 135.5t-57 199t-18.5 271.5t18.5 271.5t57 199.5t90 136.5t126.5 85t156.5 43t188.5 12.5h1210v-193h-700v-426h540v-190h-540v-496h700v-188h-1210zM717 186h299v1119h-299q-105 0 -178 -22.5t-129 -79t-82.5 -157.5
t-26.5 -251v-99q0 -151 26.5 -252t82.5 -157t129 -78.5t178 -22.5z" />
    <glyph glyph-name="oe" unicode="&#x153;" horiz-adv-x="1777" 
d="M557 -23q-167 0 -272 48.5t-160 162t-55 301.5q0 276 120 395.5t371 119.5q145 0 237.5 -40t141.5 -128q96 168 332 168q219 0 319.5 -101.5t100.5 -351.5v-94h-648q1 -93 19 -153t55 -92t83.5 -44t117.5 -12q177 0 297 30l31 -170q-53 -14 -152 -26.5t-178 -12.5
q-141 2 -234 40t-147 126q-95 -166 -379 -166zM1049 594h436q0 143 -48.5 194.5t-168.5 51.5q-99 0 -153.5 -53.5t-65.5 -192.5zM561 147q54 0 94 8t76 30.5t58 60t34.5 98.5t12.5 145q0 104 -19 172.5t-57.5 105t-86 50.5t-116.5 14t-115.5 -13.5t-84.5 -48.5t-56 -103
t-18 -172t19 -174t57 -107t86 -51.5t116 -14.5z" />
    <glyph glyph-name="Scaron" unicode="&#x160;" horiz-adv-x="1230" 
d="M582 -12q-136 0 -278.5 20.5t-207.5 42.5l35 185q73 -18 212.5 -39t240.5 -21q92 0 149 9t99 34.5t59.5 72t17.5 120.5q0 44 -4.5 74t-20.5 54.5t-34 39t-59.5 29.5t-80.5 24.5t-112 25.5q-104 23 -171.5 42.5t-126.5 46t-92 56.5t-57.5 74.5t-33 99.5t-8.5 132
q0 211 129 305t383 94q126 0 259.5 -17t188.5 -32l-35 -184q-232 41 -418 41q-153 0 -220.5 -44.5t-67.5 -160.5q0 -45 5 -75.5t21 -56t36 -41.5t60.5 -31.5t82.5 -26.5t114 -27q71 -15 116.5 -26.5t98.5 -28t85 -33t66.5 -40.5t53.5 -52.5t36 -67t23.5 -86t6.5 -106.5
q0 -99 -23.5 -172.5t-67 -122t-112.5 -78t-152.5 -41.5t-195.5 -12zM522 1593l-258 340h148l206 -168l205 168h144l-258 -340h-187z" />
    <glyph glyph-name="scaron" unicode="&#x161;" horiz-adv-x="974" 
d="M463 -18q-98 0 -208 15.5t-163 33.5l27 157q51 -15 157.5 -31t188.5 -16q137 0 182 28.5t45 113.5q0 60 -38.5 82t-168.5 41q-83 12 -134.5 22t-99 26t-72.5 35.5t-44.5 50.5t-26 71t-6.5 98q0 156 96.5 221t299.5 65q103 0 207.5 -10t150.5 -22l-29 -160
q-56 10 -160.5 20.5t-172.5 10.5q-108 0 -149.5 -26.5t-41.5 -92.5q0 -70 42.5 -91t205.5 -40q205 -25 276.5 -83.5t71.5 -205.5q0 -78 -18.5 -133.5t-51.5 -90.5t-89 -55t-120.5 -27t-156.5 -7zM395 1102l-258 340h148l207 -168l204 168h144l-258 -340h-187z" />
    <glyph glyph-name="Ydieresis" unicode="&#x178;" horiz-adv-x="1400" 
d="M594 0v575l-559 918h233l439 -715l438 715h221l-559 -915v-578h-213zM778 1608v245h252v-245h-252zM373 1608v245h248v-245h-248z" />
    <glyph glyph-name="Zcaron" unicode="&#x17d;" horiz-adv-x="1234" 
d="M63 0v172l830 1128h-811v193h1069v-184l-821 -1121h833v-188h-1100zM526 1593l-258 340h148l207 -168l204 168h144l-258 -340h-187z" />
    <glyph glyph-name="zcaron" unicode="&#x17e;" horiz-adv-x="946" 
d="M57 0v152l555 639h-530v172h786v-152l-549 -639h578v-172h-840zM381 1102l-258 340h147l207 -168l205 168h143l-258 -340h-186z" />
    <glyph glyph-name="florin" unicode="&#x192;" horiz-adv-x="874" 
d="M82 -266l164 960h-166v176h194l45 269q11 63 21 102t30.5 76.5t47.5 59t74.5 43.5t107.5 37.5t152 33.5l32 -178q-63 -14 -100 -23t-68.5 -23.5t-45 -25t-26 -36t-17 -46t-11.5 -65.5l-37 -224h221v-176h-249l-162 -960h-207z" />
    <glyph glyph-name="circumflex" unicode="&#x2c6;" horiz-adv-x="942" 
d="M119 1102l258 340h184l260 -340h-147l-207 168l-205 -168h-143z" />
    <glyph glyph-name="caron" unicode="&#x2c7;" horiz-adv-x="942" 
d="M379 1102l-258 340h147l207 -168l205 168h143l-258 -340h-186z" />
    <glyph glyph-name="breve" unicode="&#x2d8;" horiz-adv-x="944" 
d="M475 1083q-87 0 -186.5 20.5t-143.5 53.5v246h193v-129q44 -21 137 -21q99 0 146 21v129h190v-246q-43 -33 -144.5 -53.5t-191.5 -20.5z" />
    <glyph glyph-name="dotaccent" unicode="&#x2d9;" horiz-adv-x="944" 
d="M334 1102v278h280v-278h-280z" />
    <glyph glyph-name="ring" unicode="&#x2da;" horiz-adv-x="944" 
d="M473 1083q-124 0 -177.5 51t-53.5 164q0 114 54 166t177 52q124 0 178 -52t54 -166q0 -113 -54.5 -164t-177.5 -51zM473 1192q62 0 82 22.5t20 83.5q0 62 -20 87.5t-82 25.5q-61 0 -80.5 -25t-19.5 -88q0 -61 19 -83.5t81 -22.5z" />
    <glyph glyph-name="ogonek" unicode="&#x2db;" horiz-adv-x="1011" 
d="M641 -412q-116 19 -202 56.5t-126 79.5l62 319l162 -33l-37 -196q63 -35 176 -54z" />
    <glyph glyph-name="tilde" unicode="&#x2dc;" horiz-adv-x="933" 
d="M201 1085l-107 132q73 61 104 85t75 46t81 22q34 0 81.5 -24t88 -48t56.5 -24q5 0 11 1.5t13 4.5t13 6.5t15 10t15.5 12t18.5 15t20 16t22.5 19.5t24.5 21l107 -131q-12 -10 -40 -33t-38 -31t-32 -25t-32 -23t-28 -16.5t-30.5 -14t-28 -7t-31.5 -3.5q-45 0 -127.5 47
t-98.5 47q-5 0 -10.5 -1.5t-12.5 -4.5t-12.5 -6.5t-14.5 -10t-16 -11.5t-19 -14.5t-20 -16.5t-23 -19.5t-25 -20.5z" />
    <glyph glyph-name="hungarumlaut" unicode="&#x2dd;" horiz-adv-x="931" 
d="M418 1102l186 373h273l-340 -373h-119zM53 1102l187 373h274l-340 -373h-121z" />
    <glyph glyph-name="Delta" unicode="&#x394;" horiz-adv-x="1232" 
d="M664 -408l-35 185q91 19 140.5 35t76.5 42.5t33 54.5t6 83v794h-457v-786h-209v784h-162v179h162v186q0 72 15.5 120.5t54 90.5t112.5 72.5t182.5 56t272.5 49.5l29 -182q-108 -17 -181 -31.5t-125.5 -31t-81 -31t-45 -37t-20.5 -43t-4 -54.5v-165h664v-1000
q0 -72 -9 -118.5t-34 -89.5t-73.5 -71t-124 -51t-187.5 -41z" />
    <glyph glyph-name="Delta" unicode="&#x2206;" horiz-adv-x="1232" 
d="M664 -408l-35 185q91 19 140.5 35t76.5 42.5t33 54.5t6 83v794h-457v-786h-209v784h-162v179h162v186q0 72 15.5 120.5t54 90.5t112.5 72.5t182.5 56t272.5 49.5l29 -182q-108 -17 -181 -31.5t-125.5 -31t-81 -31t-45 -37t-20.5 -43t-4 -54.5v-165h664v-1000
q0 -72 -9 -118.5t-34 -89.5t-73.5 -71t-124 -51t-187.5 -41z" />
    <glyph glyph-name="Omega" unicode="&#x3a9;" horiz-adv-x="1452" 
d="M156 0v156q0 133 36.5 226.5t105 145.5t152.5 74.5t193 22.5v194h-487v398h145v-263h342v138h-108v393h360v-393h-109v-138h332v263h144v-398h-476v-194q86 0 156.5 -13.5t133.5 -46.5t105.5 -85.5t67.5 -134.5t25 -189v-156h-150v147q0 100 -19 165t-62.5 102t-103.5 51
t-153 14v-205h-143v205q-93 0 -153 -14t-103.5 -51t-62.5 -102t-19 -165v-147h-149z" />
    <glyph glyph-name="Omega" unicode="&#x2126;" horiz-adv-x="1452" 
d="M156 0v156q0 133 36.5 226.5t105 145.5t152.5 74.5t193 22.5v194h-487v398h145v-263h342v138h-108v393h360v-393h-109v-138h332v263h144v-398h-476v-194q86 0 156.5 -13.5t133.5 -46.5t105.5 -85.5t67.5 -134.5t25 -189v-156h-150v147q0 100 -19 165t-62.5 102t-103.5 51
t-153 14v-205h-143v205q-93 0 -153 -14t-103.5 -51t-62.5 -102t-19 -165v-147h-149z" />
    <glyph glyph-name="pi" unicode="&#x3c0;" horiz-adv-x="1705" 
d="M854 -25q-168 0 -286.5 21.5t-212 73.5t-148.5 141t-83 220.5t-28 316.5q0 154 18 270.5t59 202.5t99.5 143t146 92t192 49.5t243.5 14.5t243 -14.5t191 -49.5t145.5 -92t99.5 -143t59 -202.5t18 -270.5q0 -185 -28 -316.5t-83 -220.5t-148 -141t-211.5 -73.5
t-285.5 -21.5zM854 119q88 0 152 4t126.5 16t105.5 32.5t82 54t63.5 80t43 111t26 146.5t7.5 187t-7.5 186.5t-26 145.5t-43 110t-63.5 79t-82 53.5t-106 32t-126.5 15.5t-151.5 4t-152.5 -4t-127.5 -15.5t-106 -32t-83 -53.5t-64 -79t-42.5 -110t-26.5 -145.5t-8 -186.5
t8 -187t26.5 -146.5t43 -111t64 -80t82.5 -54t106 -32.5t127.5 -16t152.5 -4zM565 289v925h396q147 0 215.5 -69.5t68.5 -243.5t-71 -250t-213 -78h-228v-284h-168zM733 715h213q129 0 129 186q0 95 -33 133.5t-96 38.5h-213v-358z" />
    <glyph glyph-name="endash" unicode="&#x2013;" horiz-adv-x="1114" 
d="M113 469v184h888v-184h-888z" />
    <glyph glyph-name="emdash" unicode="&#x2014;" horiz-adv-x="1677" 
d="M113 469v184h1452v-184h-1452z" />
    <glyph glyph-name="quoteleft" unicode="&#x2018;" horiz-adv-x="632" 
d="M121 1022l291 526l98 -55l-104 -471h-285z" />
    <glyph glyph-name="quoteright" unicode="&#x2019;" horiz-adv-x="632" 
d="M221 967l-96 55l102 471h285z" />
    <glyph glyph-name="quotesinglbase" unicode="&#x201a;" horiz-adv-x="632" 
d="M221 -217l-96 55l102 471h285z" />
    <glyph glyph-name="quotedblleft" unicode="&#x201c;" horiz-adv-x="1030" 
d="M522 1022l293 526l92 -55l-104 -471h-281zM121 1022l291 526l92 -55l-103 -471h-280z" />
    <glyph glyph-name="quotedblright" unicode="&#x201d;" horiz-adv-x="1030" 
d="M618 967l-92 55l105 471h278zM217 967l-92 55l102 471h281z" />
    <glyph glyph-name="quotedblbase" unicode="&#x201e;" horiz-adv-x="1030" 
d="M618 -217l-92 55l105 471h278zM217 -217l-92 55l102 471h281z" />
    <glyph glyph-name="dagger" unicode="&#x2020;" horiz-adv-x="976" 
d="M401 -254v1133h-342v172h342v483h179v-483h342v-172h-342v-1133h-179z" />
    <glyph glyph-name="daggerdbl" unicode="&#x2021;" horiz-adv-x="976" 
d="M401 -266v481h-342v172h342v492h-342v172h342v483h179v-483h342v-172h-342v-492h342v-172h-342v-481h-179z" />
    <glyph glyph-name="bullet" unicode="&#x2022;" horiz-adv-x="962" 
d="M485 182q-68 0 -119 10t-97.5 36.5t-76.5 71t-47.5 116.5t-17.5 170q0 82 11 145.5t34 106.5t52.5 72.5t71 45.5t85.5 22.5t100 6.5q85 0 145 -16.5t110.5 -59t76 -124t25.5 -203.5q0 -98 -17 -169.5t-46.5 -115.5t-75.5 -70t-96.5 -35.5t-117.5 -9.5z" />
    <glyph glyph-name="ellipsis" unicode="&#x2026;" horiz-adv-x="1742" 
d="M1315 0v276h295v-276h-295zM725 0v276h295v-276h-295zM135 0v276h293v-276h-293z" />
    <glyph glyph-name="perthousand" unicode="&#x2030;" horiz-adv-x="2775" 
d="M418 563q-93 0 -157.5 21t-114.5 72.5t-74.5 146t-24.5 235.5t25 236.5t76 148t116.5 74t157.5 21.5q75 0 131 -12.5t103.5 -44.5t77.5 -85.5t46.5 -137t16.5 -196.5q0 -141 -25 -236t-76 -147.5t-117.5 -74t-160.5 -21.5zM614 0l519 1493h184l-520 -1493h-183zM2355 -25
q-73 0 -128.5 12.5t-103 45t-77.5 85.5t-47 136.5t-17 196.5q0 141 25.5 236t76.5 147.5t117 74t158 21.5q74 0 129.5 -12.5t103 -44.5t77.5 -85.5t46.5 -136.5t16.5 -196q0 -141 -25 -236t-76 -148t-117 -74.5t-159 -21.5zM1509 -25q-74 0 -129.5 12.5t-103 44.5t-77 85.5
t-46 137t-16.5 196.5q0 141 25 236t75.5 147.5t116 74t157.5 21.5q75 0 131 -12.5t103.5 -44.5t77.5 -85.5t46.5 -136.5t16.5 -196q0 -141 -25 -236t-76 -148t-117 -74.5t-159 -21.5zM422 721q98 0 139 58t41 210v98q0 153 -43 212t-141 59q-96 0 -138 -57t-42 -209v-99
q0 -151 43.5 -211.5t140.5 -60.5zM2359 133q97 0 139 58.5t42 209.5v99q0 152 -44 211t-141 59q-96 0 -138 -57t-42 -209v-98q0 -151 43.5 -212t140.5 -61zM1511 133q98 0 140.5 58.5t42.5 209.5v99q0 152 -44 211t-141 59t-139.5 -57t-42.5 -209v-98q0 -151 44 -212
t140 -61z" />
    <glyph glyph-name="guilsinglleft" unicode="&#x2039;" horiz-adv-x="673" 
d="M348 51l-246 418l246 422h195l-221 -422l221 -418h-195z" />
    <glyph glyph-name="guilsinglright" unicode="&#x203a;" horiz-adv-x="673" 
d="M131 51l221 422l-221 418h195l245 -418l-245 -422h-195z" />
    <glyph glyph-name="fraction" unicode="&#x2044;" horiz-adv-x="702" 
d="M0 0l518 1493h184l-518 -1493h-184z" />
    <glyph glyph-name="fraction" unicode="&#x2215;" horiz-adv-x="702" 
d="M0 0l518 1493h184l-518 -1493h-184z" />
    <glyph glyph-name="Euro" unicode="&#x20ac;" horiz-adv-x="1282" 
d="M797 -20q-87 0 -156 13t-134.5 47t-112.5 89.5t-82 143.5t-52 206h-219v160h203q0 22 -1 63.5t-1 76.5t2 65h-203v160v0v0v0h1v0h1v0h1h1v0h1h1h1h1h1h1h1h1h1h1h1h1h1h1h1h1h1h1h1h1h1h1h1h1h1h1h1h1h1h1h1h1h1h1h1h1h1h1h1h1h1h1h1h2h1h1h1h1h1h2h1h1h1h1h2h1h1h2h1h1
h1h2h1h1h2h1h1h2h1h1h2h1h2h1h1h2h1h2h1h1h2h1h2h1h2h1h2h1h2h1h2h1h2h1h2h2h1h2h1h2h1h2h2h1h2h1h2h2h1h2h2h1h2h2h1h2h2h2h1h2h2h1h2h2h2h1h2h2h2h1h2h2h2h2h1h2h2h2h2h2h2h1h2h2h2h2h2h9q17 120 53.5 210.5t84.5 148t114 92.5t135.5 49t155.5 14q227 0 397 -54l-39 -182
q-189 41 -362 41q-142 0 -220.5 -73.5t-101.5 -245.5h451v-160h-467v-205h467v-160h-447q26 -164 104 -237.5t218 -73.5q204 0 358 43l39 -178q-186 -53 -401 -53z" />
    <glyph glyph-name="trademark" unicode="&#x2122;" horiz-adv-x="1871" 
d="M903 594v899h209l211 -694l207 694h219v-899h-147v756l-232 -758h-121l-219 758v-756h-127zM342 594v766h-281v133h715v-133h-280v-766h-154z" />
    <glyph glyph-name="partialdiff" unicode="&#x2202;" horiz-adv-x="1452" 
d="M156 0v156q0 133 36.5 226.5t105 145.5t152.5 74.5t193 22.5v194h-487v398h145v-263h342v138h-108v393h360v-393h-109v-138h332v263h144v-398h-476v-194q86 0 156.5 -13.5t133.5 -46.5t105.5 -85.5t67.5 -134.5t25 -189v-156h-150v147q0 100 -19 165t-62.5 102t-103.5 51
t-153 14v-205h-143v205q-93 0 -153 -14t-103.5 -51t-62.5 -102t-19 -165v-147h-149z" />
    <glyph glyph-name="product" unicode="&#x220f;" horiz-adv-x="1452" 
d="M156 0v156q0 133 36.5 226.5t105 145.5t152.5 74.5t193 22.5v194h-487v398h145v-263h342v138h-108v393h360v-393h-109v-138h332v263h144v-398h-476v-194q86 0 156.5 -13.5t133.5 -46.5t105.5 -85.5t67.5 -134.5t25 -189v-156h-150v147q0 100 -19 165t-62.5 102t-103.5 51
t-153 14v-205h-143v205q-93 0 -153 -14t-103.5 -51t-62.5 -102t-19 -165v-147h-149z" />
    <glyph glyph-name="summation" unicode="&#x2211;" horiz-adv-x="1452" 
d="M156 0v156q0 133 36.5 226.5t105 145.5t152.5 74.5t193 22.5v194h-487v398h145v-263h342v138h-108v393h360v-393h-109v-138h332v263h144v-398h-476v-194q86 0 156.5 -13.5t133.5 -46.5t105.5 -85.5t67.5 -134.5t25 -189v-156h-150v147q0 100 -19 165t-62.5 102t-103.5 51
t-153 14v-205h-143v205q-93 0 -153 -14t-103.5 -51t-62.5 -102t-19 -165v-147h-149z" />
    <glyph glyph-name="minus" unicode="&#x2212;" horiz-adv-x="1056" 
d="M113 602v170h831v-170h-831z" />
    <glyph glyph-name="radical" unicode="&#x221a;" horiz-adv-x="1353" 
d="M463 -8l-338 786h203l252 -590l505 1305h205l-600 -1501h-227z" />
    <glyph glyph-name="infinity" unicode="&#x221e;" horiz-adv-x="1902" 
d="M219 0v784h-162v179h162v133q0 60 5 100t21 79t44.5 65t76.5 50.5t115.5 43t163.5 36.5l39 -188q-62 -13 -102.5 -23.5t-70.5 -24.5t-45.5 -27t-24.5 -35t-11 -42.5t-2 -56.5v-110h461v186q0 72 15.5 120.5t54 90.5t112.5 72.5t182.5 56t272.5 49.5l28 -182
q-108 -17 -181 -31.5t-125.5 -31t-81 -31t-44.5 -37t-20 -43t-4 -54.5v-165h663v-963h-207v786h-456v-786h-209v786h-461v-786h-209z" />
    <glyph glyph-name="integral" unicode="&#x222b;" horiz-adv-x="1452" 
d="M162 0v156q0 133 36.5 226.5t105 145.5t152.5 74.5t193 22.5v194h-487v398h145v-263h342v138h-108v393h360v-393h-108v-138h331v263h144v-398h-475v-194q109 0 193 -22.5t152.5 -74.5t105 -145.5t36.5 -226.5v-156h-150v147q0 100 -18.5 165t-62 102t-103.5 51t-153 14
v-205h-144v205q-93 0 -153 -14t-103.5 -51t-62.5 -102t-19 -165v-147h-149z" />
    <glyph glyph-name="approxequal" unicode="&#x2248;" horiz-adv-x="1452" 
d="M156 0v156q0 133 36.5 226.5t105 145.5t152.5 74.5t193 22.5v194h-487v398h145v-263h342v138h-108v393h360v-393h-109v-138h332v263h144v-398h-476v-194q86 0 156.5 -13.5t133.5 -46.5t105.5 -85.5t67.5 -134.5t25 -189v-156h-150v147q0 100 -19 165t-62.5 102t-103.5 51
t-153 14v-205h-143v205q-93 0 -153 -14t-103.5 -51t-62.5 -102t-19 -165v-147h-149z" />
    <glyph glyph-name="notequal" unicode="&#x2260;" horiz-adv-x="1392" 
d="M219 0v784h-162v179h162v133q0 60 5 100t21 79t44.5 65t76.5 50.5t115.5 43t163.5 36.5l39 -188q-62 -13 -102.5 -23.5t-70.5 -24.5t-45.5 -27t-24.5 -35t-11 -42.5t-2 -56.5v-110h461v200q0 72 8 117.5t32.5 88t72.5 70.5t124 52t191 45l37 -186q-92 -19 -141.5 -34.5
t-76 -41.5t-32.5 -53.5t-6 -81.5v-176h241v-179h-241v-784h-209v784h-461v-784h-209z" />
    <glyph glyph-name="lessequal" unicode="&#x2264;" horiz-adv-x="1118" 
d="M399 -18q-55 0 -95.5 9t-84 40t-71 83.5t-45 146t-17.5 222.5q0 92 9.5 166.5t25.5 126.5t41 90t51.5 60.5t61 36t65.5 18t70 4.5q105 0 215.5 -34t165.5 -68l38 80h158v-963h-168l-28 117q-56 -45 -171 -90t-221 -45zM481 168q77 0 159.5 31.5t139.5 70.5v455
q-42 28 -130 55t-167 27q-68 0 -106 -24.5t-58 -95t-20 -200.5q0 -133 19.5 -202.5t56 -93t106.5 -23.5z" />
    <glyph glyph-name="greaterequal" unicode="&#x2265;" horiz-adv-x="1089" 
d="M98 -418l-4 180q132 1 224.5 3t173.5 5.5t131.5 8t91.5 13t62 17.5t35 24.5t18 31t4 39.5q0 33 -4 51t-26 36.5t-57.5 27t-110 17t-171 13t-252.5 8.5l41 283q-118 30 -161.5 98t-43.5 215q0 104 21 168.5t75 104t136.5 54.5t216.5 15q176 0 284 -22l68 135l172 -86
l-88 -174q27 -84 27 -193q0 -82 -12.5 -136t-41.5 -94.5t-83.5 -62.5t-131 -33t-190.5 -12q-47 0 -70 2l-16 -114q104 -4 176 -8t139.5 -12t110 -17.5t80 -26.5t58 -37t35.5 -50t20 -65t5 -83q0 -53 -8 -93t-31 -73.5t-54.5 -56.5t-87.5 -41t-122 -28.5t-166 -18t-210 -10
t-263 -3.5zM504 471q57 0 91.5 2t65.5 8.5t46 17.5t26.5 32.5t15 49t3.5 70.5q0 94 -19 162q-83 18 -246 18q-143 0 -187 -33.5t-44 -146.5q0 -60 8.5 -92.5t37 -54t74 -27.5t128.5 -6z" />
    <glyph glyph-name="lozenge" unicode="&#x25ca;" horiz-adv-x="1439" 
d="M1122 -10q-123 0 -178 66.5t-55 213.5v514h-461v-784h-209v784h-162v179h162v200q0 72 8 117.5t32.5 88t72 70.5t123 52t190.5 45l39 -186q-92 -19 -141.5 -34.5t-76 -41.5t-32.5 -53.5t-6 -81.5v-176h461v325l207 41v-366h247v-179h-247v-475q0 -83 19.5 -112t64.5 -29
q68 0 166 12l12 -172q-118 -18 -236 -18z" />
    <glyph glyph-name="apple" unicode="&#xf8ff;" horiz-adv-x="1452" 
d="M174 0v156q0 107 25 189t67.5 134.5t105.5 85.5t133.5 46.5t156.5 13.5v194h-488v398h145v-263h343v138h-109v393h360v-393h-108v-138h332v263h143v-398h-475v-194q109 0 193 -22.5t152.5 -74.5t105 -145.5t36.5 -226.5v-156h-149v147q0 100 -19 165t-62.5 102t-103.5 51
t-153 14v-205h-143v205q-93 0 -153 -14t-103.5 -51t-62.5 -102t-19 -165v-147h-150z" />
    <glyph glyph-name="NUL" horiz-adv-x="0" 
 />
    <glyph glyph-name="g.alt" horiz-adv-x="1089" 
d="M98 -418l-4 180q132 1 224.5 3t173.5 5.5t131.5 8t91.5 13t62 17.5t35 24.5t18 31t4 39.5q0 33 -4 51t-26 36.5t-57.5 27t-110 17t-171 13t-252.5 8.5l41 283q-118 30 -161.5 98t-43.5 215q0 104 21 168.5t75 104t136.5 54.5t216.5 15q176 0 284 -22l68 135l172 -86
l-88 -174q27 -84 27 -193q0 -82 -12.5 -136t-41.5 -94.5t-83.5 -62.5t-131 -33t-190.5 -12q-47 0 -70 2l-16 -114q104 -4 176 -8t139.5 -12t110 -17.5t80 -26.5t58 -37t35.5 -50t20 -65t5 -83q0 -53 -8 -93t-31 -73.5t-54.5 -56.5t-87.5 -41t-122 -28.5t-166 -18t-210 -10
t-263 -3.5zM504 471q57 0 91.5 2t65.5 8.5t46 17.5t26.5 32.5t15 49t3.5 70.5q0 94 -19 162q-83 18 -246 18q-143 0 -187 -33.5t-44 -146.5q0 -60 8.5 -92.5t37 -54t74 -27.5t128.5 -6z" />
    <glyph glyph-name="a.alt" horiz-adv-x="1118" 
d="M399 -18q-55 0 -95.5 9t-84 40t-71 83.5t-45 146t-17.5 222.5q0 92 9.5 166.5t25.5 126.5t41 90t51.5 60.5t61 36t65.5 18t70 4.5q105 0 215.5 -34t165.5 -68l38 80h158v-963h-168l-28 117q-56 -45 -171 -90t-221 -45zM481 168q77 0 159.5 31.5t139.5 70.5v455
q-42 28 -130 55t-167 27q-68 0 -106 -24.5t-58 -95t-20 -200.5q0 -133 19.5 -202.5t56 -93t106.5 -23.5z" />
    <glyph glyph-name="G.alt" horiz-adv-x="1318" 
d="M711 -20q-84 0 -149 7t-133 27.5t-117.5 55t-95 92.5t-73.5 137.5t-44.5 192t-16.5 253.5q0 142 16.5 254.5t45.5 193t75 139t97.5 94t121 56.5t137 28.5t154.5 7.5q146 0 264 -16.5t176 -35.5l-36 -186q-226 43 -408 43q-115 0 -190.5 -23t-128.5 -81.5t-76 -159.5
t-23 -256v-105q0 -202 44.5 -319t133 -165t238.5 -48q159 0 278 27v382h-274v185h477v-717q-72 -23 -203 -43t-290 -20z" />
    </font>
</defs>
</svg>
