<?xml version="1.0" standalone="no"?>
<!DOCTYPE svg PUBLIC "-//W3C//DTD SVG 1.1//EN" "http://www.w3.org/Graphics/SVG/1.1/DTD/svg11.dtd" >
<svg xmlns="http://www.w3.org/2000/svg" xmlns:xlink="http://www.w3.org/1999/xlink" version="1.1">
<metadata></metadata>
<defs>
<font id="njxbld" horiz-adv-x="1208" >
<font-face units-per-em="2048" ascent="1649" descent="-399" />
<missing-glyph horiz-adv-x="530" />
<glyph horiz-adv-x="0" />
<glyph horiz-adv-x="682" />
<glyph unicode=" "  horiz-adv-x="530" />
<glyph unicode="&#x09;" horiz-adv-x="530" />
<glyph unicode="&#xa0;" horiz-adv-x="530" />
<glyph unicode="!" horiz-adv-x="542" d="M70 156q0 -80 53 -127t149 -47q95 0 148 47t53 127q0 83 -53 133q-53 47 -148 47q-96 0 -149 -47q-53 -50 -53 -133zM88 459l365 61v1004h-365v-1065z" />
<glyph unicode="&#x22;" horiz-adv-x="923" d="M86 1563l31 -525h274l31 525h-336zM504 1563l31 -525h274l31 525h-336z" />
<glyph unicode="#" horiz-adv-x="1445" d="M43 379h201l-76 -379h297l74 379h211l-72 -379h295l69 379h226l39 268h-213l39 211h210l41 266h-206l75 400h-292l-76 -400h-205l76 400h-295l-76 -400h-225l-39 -266h215l-43 -211h-209zM588 647l41 211h209l-39 -211h-211z" />
<glyph unicode="$" d="M66 1051q0 -350 391 -439l176 -41q133 -30 133 -127q0 -57 -39 -90q-38 -32 -104 -32q-164 0 -365 65l-131 43l-59 -350l131 -39q134 -41 262 -47v-258h293v260q180 27 288 147q109 121 109 324q0 345 -389 436l-191 45q-118 27 -118 121q0 57 39 90t106 33 q158 0 365 -68l127 -41l59 351l-131 36q-174 49 -264 54v252h-293v-256q-180 -27 -287 -146q-108 -120 -108 -323z" />
<glyph unicode="%" horiz-adv-x="1894" d="M66 1159q0 -187 106 -293q105 -108 289 -108q185 0 293 108q106 106 106 293q0 186 -104 293q-104 104 -291 104q-185 0 -291 -106q-108 -108 -108 -291zM221 0h359l1081 1524h-356zM369 1159q0 164 92 164q98 0 98 -164q0 -168 -94 -168q-96 0 -96 168zM1034 371 q0 -186 107 -293q106 -109 291 -109q183 0 292 109q107 107 107 293q0 185 -105 293q-107 104 -292 104t-291 -106q-109 -109 -109 -291zM1337 371q0 164 95 164q96 0 96 -164q0 -168 -94 -168q-97 0 -97 168z" />
<glyph unicode="&#x26;" horiz-adv-x="1558" d="M84 420q0 -195 135 -318q134 -122 385 -122q110 0 209 22q101 23 137 41q38 17 54 33l65 -76h436l-235 268q184 205 184 531v139h-317v-135q0 -89 -25 -178q-24 -85 -61 -125l-230 241q312 151 312 426q0 180 -121 283q-119 98 -332 98t-340 -106q-131 -107 -131 -305 q0 -170 129 -326q-254 -123 -254 -391zM449 424q0 62 26 104q28 43 57 54l273 -285q-52 -43 -168 -43q-87 0 -137 47q-51 45 -51 123zM541 1137q0 66 34 106q33 39 101 39q57 0 92 -35q33 -33 33 -92q0 -75 -39 -123t-129 -86q-92 103 -92 191z" />
<glyph unicode="'" horiz-adv-x="542" d="M86 1563l31 -525h309l31 525h-371z" />
<glyph unicode="(" horiz-adv-x="784" d="M80 696q0 -210 43 -364q42 -164 104 -248q63 -90 150 -145q92 -58 168 -72q81 -19 166 -19v267q-38 3 -64 12q-27 9 -67 43q-37 32 -66 94q-28 60 -45 170q-20 106 -20 262q0 543 262 564v264q-86 0 -176 -17q-79 -14 -168 -69q-88 -52 -148 -140q-58 -84 -100 -241 q-39 -147 -39 -361z" />
<glyph unicode=")" horiz-adv-x="784" d="M76 115v-267q84 0 168 19q74 15 166 72q83 52 151 145q60 86 105 248q41 158 41 364q0 214 -39 361q-40 152 -99 241q-64 89 -147 140q-92 55 -168 69q-93 17 -178 17v-264q262 -21 262 -564q0 -145 -19 -262q-21 -113 -47 -170q-29 -64 -65 -94q-39 -33 -68 -43 q-26 -9 -63 -12z" />
<glyph unicode="*" horiz-adv-x="1128" d="M55 1096l297 -70l-194 -227l274 -183l133 240l131 -242l277 183l-197 227l297 70l-94 299l-264 -109l22 277h-346l23 -275l-264 111z" />
<glyph unicode="+" d="M88 463h354v-387h314v387h364v274h-364v389h-314v-389h-354v-274z" />
<glyph unicode="," horiz-adv-x="542" d="M66 -6q-18 -77 22 -129q39 -51 135 -51q139 0 176 116l117 404h-373z" />
<glyph unicode="-" horiz-adv-x="897" d="M72 526h753v277h-753v-277z" />
<glyph unicode="." horiz-adv-x="542" d="M70 168q0 -85 55 -137q51 -51 147 -51q97 0 148 51q53 53 53 137t-53 137q-52 49 -148 49q-95 0 -147 -49q-55 -52 -55 -137z" />
<glyph unicode="/" horiz-adv-x="905" d="M12 0h322l559 1524h-311z" />
<glyph unicode="0" d="M80 485q0 -244 137 -372q134 -131 391 -131q258 0 389 131q133 133 133 376v545q0 245 -135 377q-135 129 -393 129q-253 0 -387 -131q-135 -132 -135 -377v-547zM461 475v572q0 184 143 184q146 0 146 -184v-572q0 -186 -146 -186q-143 0 -143 186z" />
<glyph unicode="1" d="M68 0h1089v295h-311v1022q0 98 -58 153q-60 54 -163 54h-125q-220 0 -371 -74l53 -297q50 31 115 45q66 14 119 14h35v-917h-383v-295z" />
<glyph unicode="2" d="M61 180q0 -82 43 -131q40 -49 123 -49h891v289h-557l285 258q147 132 209 256q61 119 61 258q0 238 -141 358q-143 119 -389 119q-170 0 -406 -72l-110 -34l49 -306l102 37q174 60 303 60q100 0 154 -45q53 -47 53 -136q0 -90 -43 -157q-47 -76 -147 -166l-422 -387 q-58 -55 -58 -152z" />
<glyph unicode="3" d="M43 92l115 -37q210 -69 426 -69q268 0 417 110q148 109 148 328q0 171 -129 303l-47 47l43 55q106 130 106 285q0 424 -530 424q-200 0 -404 -70l-110 -34l49 -306l102 35q186 62 308 62q202 0 202 -152q0 -73 -43 -125l-37 -45h-294v-280h307l43 -50q51 -57 51 -129 q0 -153 -213 -153q-145 0 -346 65l-113 37z" />
<glyph unicode="4" d="M25 410q0 -81 43 -127q44 -47 127 -47h487v-236h373v236h131v288h-131v801q0 215 -240 215q-170 0 -252 -143l-489 -832q-49 -85 -49 -155zM432 524l250 432v-432h-250z" />
<glyph unicode="5" d="M68 88l112 -35q235 -70 410 -67q272 0 418 131q147 132 147 391q0 502 -489 502q-112 0 -213 -29v227h647v316h-961v-891l131 37q174 49 287 49q106 0 160 -57q55 -55 55 -158q0 -213 -215 -213q-103 0 -330 65l-108 33z" />
<glyph unicode="6" d="M70 514q0 -242 141 -383t397 -141q261 0 406 145q143 143 143 385q0 490 -485 490q-131 0 -219 -33v74q0 172 202 172q126 0 318 -64l96 -31l53 304l-108 36q-201 68 -387 68q-251 0 -404 -129t-153 -356v-537zM453 512v172q103 25 143 25q174 0 174 -211 q0 -203 -156 -203q-161 0 -161 217z" />
<glyph unicode="7" d="M78 1210h659l-514 -1210h422l471 1159q43 104 43 180q0 185 -190 185h-891v-314z" />
<glyph unicode="8" d="M53 424q0 -211 148 -326q147 -114 407 -114q262 0 406 114q143 113 143 326q0 171 -127 301l-47 49l43 55q96 128 96 287q0 202 -139 314q-137 110 -377 110t-377 -110q-141 -111 -141 -314q0 -162 94 -287l43 -55l-45 -49q-127 -130 -127 -301zM428 432q0 74 51 137 l43 49h164l45 -49q53 -62 53 -137q0 -73 -47 -117q-46 -43 -131 -43q-86 0 -131 45q-47 44 -47 115zM444 1085q0 70 43 113q44 41 119 41t119 -41q43 -43 43 -113q0 -61 -51 -135l-33 -47h-158l-30 47q-52 76 -52 135z" />
<glyph unicode="9" d="M49 1006q0 -490 486 -490q131 0 219 33v-74q0 -172 -203 -172q-126 0 -318 64l-96 30l-53 -303l109 -37q198 -67 387 -67q250 0 403 129q154 130 154 356v537q0 241 -142 383q-141 141 -397 141q-260 0 -405 -145q-144 -144 -144 -385zM436 1028q0 203 156 203 q162 0 162 -217v-172q-103 -25 -144 -25q-174 0 -174 211z" />
<glyph unicode=":" horiz-adv-x="542" d="M70 168q0 -85 55 -137q51 -51 147 -51q97 0 148 51q53 53 53 137t-53 137q-52 49 -148 49q-95 0 -147 -49q-55 -52 -55 -137zM70 942q0 -86 55 -135q51 -51 147 -51q97 0 148 51q53 50 53 135q0 84 -53 137q-52 49 -148 49q-95 0 -147 -49q-55 -52 -55 -137z" />
<glyph unicode=";" horiz-adv-x="542" d="M66 -6q-18 -77 22 -129q39 -51 135 -51q139 0 176 116l117 404h-373zM94 942q0 -85 53 -135q51 -51 150 -51q96 0 147 51q54 51 54 135q0 83 -54 137q-55 49 -147 49q-98 0 -150 -49q-53 -53 -53 -137z" />
<glyph unicode="&#x3c;" d="M86 606q0 -184 168 -239l870 -297v352l-663 182l663 182v363l-874 -305q-164 -53 -164 -238z" />
<glyph unicode="=" d="M88 289h1032v262h-1032v-262zM88 670h1032v262h-1032v-262z" />
<glyph unicode="&#x3e;" d="M84 70l870 297q168 55 168 239q0 185 -164 238l-874 305v-363l664 -182l-664 -182v-352z" />
<glyph unicode="?" horiz-adv-x="966" d="M45 1450l47 -295l125 37q109 33 211 33q129 0 129 -111q0 -100 -76 -170l-135 -131q-50 -47 -65 -94q-17 -53 -17 -123v-137l354 61l3 139l133 127q166 159 166 357q0 181 -119 282q-121 103 -328 103q-140 0 -323 -49zM240 156q0 -80 53 -127t149 -47q95 0 148 47 t53 127q0 83 -53 133q-53 47 -148 47q-96 0 -149 -47q-53 -50 -53 -133z" />
<glyph unicode="@" horiz-adv-x="1910" d="M166 713q0 -323 194 -529q195 -207 529 -207q123 0 260 35t180 35t84 -18l119 -54l84 170l-111 64q-83 47 -164 47q-79 0 -221 -37t-223 -37q-232 0 -365 148q-131 143 -131 383q0 264 168 438q167 176 428 176q253 0 387 -131q136 -133 136 -358q0 -149 -60 -240 q-58 -88 -143 -88q-32 0 -62 18l88 643h-249l-7 -47q-55 6 -120 6q-205 0 -324 -131q-121 -133 -121 -315q0 -167 88 -258q88 -94 264 -94q54 0 136 16q71 14 108 14q24 0 86 -16q59 -16 105 -16q176 0 309 139q129 138 129 367q0 321 -205 514q-204 192 -545 192 q-354 0 -591 -237q-240 -237 -240 -592zM784 680q0 107 47 184q47 74 136 74q42 0 94 -8l-53 -385q-27 -4 -54 -8.5t-38.5 -6.5t-14.5 -2q-117 0 -117 152z" />
<glyph unicode="A" horiz-adv-x="1515" d="M12 0h451l69 236h449l66 -236h454l-436 1346q-65 194 -295 194q-246 0 -311 -201zM610 555l152 532l143 -532h-295z" />
<glyph unicode="B" horiz-adv-x="1454" d="M96 205q0 -96 60 -150q58 -55 161 -55h545q258 0 391 109q131 107 131 307q0 174 -147 315l-49 47l43 56q104 134 104 284q0 406 -477 406h-543q-101 0 -161 -54q-58 -55 -58 -151v-1114zM539 309v303h301l59 -61q47 -53 47 -113q0 -61 -39 -94q-41 -35 -110 -35h-258z M539 915v302h235q137 0 137 -125q0 -58 -34 -113l-43 -64h-295z" />
<glyph unicode="C" horiz-adv-x="1411" d="M70 762q0 -378 198 -576q197 -200 533 -200q186 0 436 73l127 37l-51 359l-131 -43q-168 -54 -318 -54q-327 0 -327 404q0 403 327 403q149 0 320 -55l129 -41l51 354l-129 41q-233 72 -430 72q-334 0 -535 -201q-200 -200 -200 -573z" />
<glyph unicode="D" horiz-adv-x="1525" d="M94 205q0 -96 60 -150q58 -55 161 -55h394q340 0 544 201q201 201 201 557q0 358 -199 563q-200 203 -542 203h-398q-102 0 -161 -56q-60 -57 -60 -151v-1112zM547 336v852h143q154 0 236 -113q84 -116 84 -317q0 -205 -80 -314q-79 -108 -228 -108h-155z" />
<glyph unicode="E" horiz-adv-x="1302" d="M96 205q0 -96 60 -150q58 -55 161 -55h914v324h-684v294h594v312h-594v268h680v326h-910q-101 0 -161 -54q-60 -57 -60 -153v-1112z" />
<glyph unicode="F" horiz-adv-x="1269" d="M94 0h455v586h600v313h-600v295h659v330h-893q-102 0 -161 -56q-60 -57 -60 -151v-1317z" />
<glyph unicode="G" horiz-adv-x="1542" d="M70 762q0 -375 202 -574q200 -200 549 -200q214 0 430 61q102 27 146 86q43 55 43 162v344q0 95 -58 150t-163 55h-459v-303h268v-221q-57 -13 -151 -13q-365 0 -365 441q0 202 94 309q94 104 271 104q117 0 344 -59l141 -39l55 356l-133 41q-245 74 -457 74 q-344 0 -551 -201q-206 -203 -206 -573z" />
<glyph unicode="H" horiz-adv-x="1492" d="M96 0h453v610h395v-610h453v1524h-453v-590h-395v590h-453v-1524z" />
<glyph unicode="I" horiz-adv-x="649" d="M96 0h459v1524h-459v-1524z" />
<glyph unicode="J" horiz-adv-x="1015" d="M37 61q212 -63 369 -63q243 0 380 125q136 124 136 354v1047h-453v-1010q0 -88 -37 -125q-39 -39 -123 -39q-82 0 -221 43z" />
<glyph unicode="K" horiz-adv-x="1486" d="M94 0h445v285q0 127 86 233l94 113l248 -631h479l-399 993l409 531h-500l-417 -570l2 570h-447v-1524z" />
<glyph unicode="L" horiz-adv-x="1253" d="M94 205q0 -96 60 -150q58 -55 161 -55h871v358h-635v1166h-457v-1319z" />
<glyph unicode="M" horiz-adv-x="1898" d="M94 0h387v969l230 -828q41 -151 229 -151q183 0 227 151l234 826v-967h401v1268q0 127 -86 198q-88 70 -231 70q-289 0 -359 -248l-176 -622l-166 622q-64 248 -356 248q-156 0 -244 -70q-90 -72 -90 -202v-1264z" />
<glyph unicode="N" horiz-adv-x="1564" d="M94 0h389v911l355 -739q45 -91 114 -137q71 -47 195 -47q156 0 237 69q82 70 82 201v1266h-389v-912l-338 707q-54 111 -121 164q-70 55 -202 55q-156 0 -238 -70q-84 -72 -84 -204v-1264z" />
<glyph unicode="O" horiz-adv-x="1669" d="M70 760q0 -364 206 -570q204 -204 553 -204q352 0 560 202t208 572q0 367 -204 571q-205 205 -555 205q-349 0 -557 -205q-211 -205 -211 -571zM524 760q0 217 80 338q76 119 225 119q150 0 232 -119q80 -121 80 -338q0 -218 -78 -340q-76 -119 -225 -119t-232 121 q-82 119 -82 338z" />
<glyph unicode="P" horiz-adv-x="1380" d="M94 0h445v510h229q253 0 399 137q148 136 148 371q0 233 -141 371q-144 135 -386 135h-473q-102 0 -161 -56q-60 -57 -60 -151v-1317zM539 834v368h174q90 0 141 -45t51 -139q0 -85 -47 -135q-49 -49 -133 -49h-186z" />
<glyph unicode="Q" horiz-adv-x="1660" d="M70 758q0 -370 211 -563q213 -195 559 -195q99 0 192 -43q69 -34 207 -88q107 -45 240 -45h102v315h-65q-124 0 -228 39q133 77 219 228q84 153 84 360q0 365 -202 567q-203 203 -553 203q-347 0 -557 -207q-209 -206 -209 -571zM524 760q0 217 80 338q76 119 225 119 q150 0 232 -119q80 -121 80 -338q0 -219 -78 -338q-76 -117 -225 -117q-153 0 -232 119q-82 116 -82 336z" />
<glyph unicode="R" horiz-adv-x="1464" d="M94 0h453v520h217l201 -520h473l-273 645l68 80q139 168 139 338q0 220 -135 340q-136 121 -375 121h-547q-99 0 -159 -60q-62 -59 -62 -147v-1317zM547 836v372h231q162 0 162 -159q0 -73 -59 -150l-47 -63h-287z" />
<glyph unicode="S" horiz-adv-x="1359" d="M72 102l147 -47q226 -73 492 -73q257 0 417 127q158 128 158 360q0 187 -102 289t-312 143l-245 49q-65 12 -97 41q-30 27 -30 76q0 119 155 119q191 0 418 -88l146 -56l69 371l-145 47q-241 76 -492 76q-264 0 -420 -123q-157 -124 -157 -360q0 -185 104 -289t311 -148 l248 -49q127 -27 127 -116q0 -61 -43 -91t-112 -30q-181 0 -426 88l-146 51z" />
<glyph unicode="T" horiz-adv-x="1388" d="M61 1188h406v-1188h455v1188h405v336h-1266v-336z" />
<glyph unicode="U" horiz-adv-x="1503" d="M86 569q0 -285 170 -438q170 -156 494 -156q322 0 495 156q172 156 172 438v955h-454v-957q0 -223 -211 -223t-211 223v957h-455v-955z" />
<glyph unicode="V" horiz-adv-x="1486" d="M12 1524l420 -1348q59 -188 297 -188q239 0 301 188l443 1348h-453l-281 -1045l-270 1045h-457z" />
<glyph unicode="W" horiz-adv-x="2039" d="M16 1524l250 -1336q41 -206 285 -206q246 0 295 190l174 680l168 -680q49 -190 297 -190q244 0 284 204l252 1338h-424l-133 -1041l-213 895q-35 146 -223 146q-91 0 -149 -37q-61 -37 -76 -109l-219 -895l-133 1041h-435z" />
<glyph unicode="X" horiz-adv-x="1550" d="M33 0h483l258 477l252 -477h492l-461 776l440 748h-485l-234 -455l-243 455h-492l457 -758z" />
<glyph unicode="Y" horiz-adv-x="1544" d="M10 1524l537 -914v-610h452v612l533 912h-485l-267 -531l-280 531h-490z" />
<glyph unicode="Z" horiz-adv-x="1396" d="M61 201q0 -94 52 -146q49 -55 145 -55h1053v326h-682l626 817q68 92 68 178q0 92 -49 147q-53 56 -150 56h-1018v-328h656l-633 -817q-68 -89 -68 -178z" />
<glyph unicode="[" horiz-adv-x="784" d="M143 -133h566v262h-232v1128h232v267h-566v-1657z" />
<glyph unicode="\" horiz-adv-x="905" d="M12 1524l557 -1524h324l-571 1524h-310z" />
<glyph unicode="]" horiz-adv-x="784" d="M74 129v-262h567v1657h-567v-267h231v-1128h-231z" />
<glyph unicode="^" d="M63 88h355l182 660l180 -660h361l-303 877q-58 163 -238 163q-186 0 -238 -167z" />
<glyph unicode="_" horiz-adv-x="1024" d="M-4 -139v-234h1032v234h-1032z" />
<glyph unicode="`" horiz-adv-x="1110" d="M215 1563l373 -287q72 -57 153 -57q61 0 93 32q32 28 32 76q0 62 -51 107l-143 129h-457z" />
<glyph unicode="a" horiz-adv-x="1247" d="M68 328q0 -162 110 -250q110 -90 301 -90q139 0 283 39l41 10q42 8 78 8q60 0 104 -22l98 -52l136 230l-117 71v478q0 393 -463 393q-178 0 -414 -72l-121 -37l41 -276l125 41q168 55 326 55q156 0 156 -123v-41h-164q-520 0 -520 -362zM426 340q0 115 154 115h176v-179 l-62 -16q-86 -22 -141 -22q-127 0 -127 102z" />
<glyph unicode="b" horiz-adv-x="1234" d="M92 236q0 -76 35 -123q33 -45 117 -72q159 -51 362 -51q263 0 412 155q147 153 147 424q0 568 -495 568q-109 0 -209 -35v487l-369 -63v-1290zM461 287v534q89 27 143 27q106 0 152 -70q47 -71 47 -217q0 -291 -211 -291q-44 0 -131 17z" />
<glyph unicode="c" horiz-adv-x="1093" d="M68 565q0 -281 149 -430t399 -149q161 0 326 53l98 31l-41 292l-90 -28q-148 -49 -245 -49q-220 0 -220 280q0 279 220 279q97 0 245 -49l90 -27l41 291l-98 31q-165 53 -326 53q-249 0 -399 -150q-149 -149 -149 -428z" />
<glyph unicode="d" horiz-adv-x="1234" d="M68 559q0 -270 147 -420q143 -149 410 -149q212 0 364 51q84 27 117 72q33 44 33 123v1353q-20 -3 -81.5 -13.5t-135.5 -23t-152 -26.5v-424q-125 35 -197 35q-252 0 -378 -150q-127 -151 -127 -428zM430 561q0 146 47 217q46 70 152 70q51 -2 141 -27v-534 q-94 -17 -129 -17q-211 0 -211 291z" />
<glyph unicode="e" horiz-adv-x="1200" d="M68 563q0 -282 155 -428q153 -147 422 -147q169 0 373 65l108 35l-41 264l-106 -33q-155 -47 -303 -47q-225 0 -252 183h577q75 0 107 32q33 33 33 105q0 279 -137 416t-388 137q-236 0 -393 -148q-155 -149 -155 -434zM422 688q9 95 55 150q47 53 127 53q91 0 137 -55 q45 -57 45 -148h-364z" />
<glyph unicode="f" horiz-adv-x="882" d="M33 860h145v-860h361v860h309v268h-309v31q0 74 30 101q26 26 105 26q70 0 186 -35l43 265q-170 51 -305 51q-199 0 -309 -94q-111 -95 -111 -283v-62h-145v-268z" />
<glyph unicode="g" horiz-adv-x="1257" d="M68 758q0 -157 147 -271q57 -42 57 -100q0 -46 -34 -92l-88 -115q-76 -98 -76 -213q0 -171 147 -250q143 -82 402 -82q287 0 438 95q147 94 147 270q0 146 -100 221q-104 78 -305 78h-277q25 25 25 70q0 41 -12 53l75 -6q238 0 371 86q131 85 131 256q0 114 -61 166 l176 49l-62 258l-282 -82q-92 -25 -197 -25h-108q-240 0 -377 -90q-137 -91 -137 -276zM399 -27q0 61 25 86h350q113 0 113 -75q0 -119 -258 -119q-119 0 -174 24q-56 24 -56 84zM412 760q0 127 178 127q180 0 180 -127q0 -64 -49 -98q-50 -35 -131 -35q-178 0 -178 133z " />
<glyph unicode="h" horiz-adv-x="1200" d="M92 0h375v803q85 24 145 24q127 0 127 -125v-702h369v733q0 187 -96 297q-98 107 -330 107q-93 0 -215 -35v487l-375 -63v-1526z" />
<glyph unicode="i" horiz-adv-x="555" d="M76 1403q0 -82 53 -129q52 -49 150 -49q95 0 147 49q53 47 53 129q0 79 -53 129q-55 49 -147 49q-97 0 -150 -47q-53 -50 -53 -131zM94 0h363v1130h-363v-1130z" />
<glyph unicode="j" horiz-adv-x="565" d="M-27 -111v-260q496 0 496 387v1114h-363v-1107q0 -69 -30 -99q-28 -32 -103 -35zM86 1403q0 -82 53 -129q52 -49 150 -49q95 0 147 49q53 47 53 129q0 81 -53 131q-53 47 -147 47q-97 0 -150 -47q-53 -50 -53 -131z" />
<glyph unicode="k" horiz-adv-x="1216" d="M92 0h367v158q0 50 12 90q11 36 27 59q4 5 9.5 13t16 21.5t17.5 23.5l63 79l178 -444h418l-309 754l305 376h-434l-303 -393v852l-367 -63v-1526z" />
<glyph unicode="l" horiz-adv-x="565" d="M92 0h379v1589l-379 -65v-1524z" />
<glyph unicode="m" horiz-adv-x="1796" d="M92 0h369v809q80 25 135 25q119 0 119 -125v-709h364v723q0 56 -12 80q73 31 150 31q118 0 118 -125v-709h365v741q0 400 -443 400q-177 0 -339 -76q-101 76 -310 76q-169 0 -356 -54q-82 -24 -121 -69t-39 -127v-891z" />
<glyph unicode="n" horiz-adv-x="1204" d="M92 0h375v809q86 25 145 25q129 0 129 -127v-707h367v737q0 189 -117 297q-119 107 -366 107q-183 0 -373 -54q-82 -24 -121 -69t-39 -127v-891z" />
<glyph unicode="o" horiz-adv-x="1273" d="M68 565q0 -275 151 -426t416 -151q264 0 418 151q151 151 151 426q0 279 -149 428q-150 150 -414 150q-265 0 -420 -152q-153 -150 -153 -426zM442 565q0 316 193 316q199 0 199 -316q0 -315 -193 -315q-199 0 -199 315z" />
<glyph unicode="p" horiz-adv-x="1234" d="M92 -381l369 66v342q109 -33 196 -33q253 0 381 149q127 151 127 426q0 272 -147 422t-410 150q-190 0 -364 -54q-85 -28 -117 -71q-35 -47 -35 -123v-1274zM461 307v531q91 16 131 16q211 0 211 -289q0 -145 -47 -213q-46 -69 -152 -69q-58 0 -143 24z" />
<glyph unicode="q" horiz-adv-x="1234" d="M68 561q0 -567 495 -567q104 0 207 33v-412l369 66v1212q0 79 -33 123q-32 43 -117 71q-174 54 -362 54q-263 0 -410 -156q-149 -155 -149 -424zM430 565q0 289 211 289q47 0 129 -16v-531q-82 -24 -141 -24q-106 0 -152 69q-47 68 -47 213z" />
<glyph unicode="r" horiz-adv-x="821" d="M92 0h363v811q116 35 329 35v293q-328 0 -532 -56q-82 -24 -121 -69t-39 -129v-885z" />
<glyph unicode="s" horiz-adv-x="1128" d="M72 84l118 -37q195 -59 402 -59q208 0 336 96q127 95 127 272q0 274 -332 324l-195 29q-104 15 -104 84q0 84 123 84q124 0 340 -72l121 -41l49 283l-117 36q-198 60 -401 60q-213 0 -338 -94q-127 -95 -127 -273q0 -275 332 -325l196 -31q103 -12 103 -82 q0 -84 -121 -84q-138 0 -342 70l-121 43z" />
<glyph unicode="t" horiz-adv-x="929" d="M23 858h145v-471q0 -195 108 -297t310 -102q145 0 299 49l-41 262q-109 -33 -180 -33q-136 0 -136 137v455h318v268h-318v279l-360 -64v-215h-145v-268z" />
<glyph unicode="u" horiz-adv-x="1204" d="M92 391q0 -191 119 -295q118 -106 367 -106q200 0 370 51q160 47 160 197v892h-373v-811q-85 -24 -145 -24q-129 0 -129 129v706h-369v-739z" />
<glyph unicode="v" horiz-adv-x="1204" d="M16 1130l316 -989q53 -164 258 -164t264 164l332 989h-391l-197 -729l-186 729h-396z" />
<glyph unicode="w" horiz-adv-x="1712" d="M29 1130l202 -974q15 -84 84 -131q67 -48 166 -48q206 0 256 164l119 410l113 -408q46 -166 258 -166q209 0 250 179l206 974h-370l-103 -720l-153 604q-30 123 -193 123q-164 0 -194 -123l-160 -602l-102 718h-379z" />
<glyph unicode="x" horiz-adv-x="1245" d="M27 0h419l175 317l174 -317h424l-353 578l336 552h-422l-155 -301l-166 301h-424l348 -563z" />
<glyph unicode="y" horiz-adv-x="1218" d="M25 1130l434 -1107l-8 -31q-21 -90 -127 -90q-74 0 -195 37l-43 -263q162 -49 289 -49q170 0 274 84q100 81 156 248l389 1171h-381l-178 -686l-205 686h-405z" />
<glyph unicode="z" horiz-adv-x="1148" d="M68 174q0 -81 43 -127q44 -47 127 -47h835v266h-520l467 533q61 70 61 155q0 80 -43 129q-47 47 -129 47h-821v-268h512l-469 -528q-63 -72 -63 -160z" />
<glyph unicode="{" horiz-adv-x="782" d="M88 584q193 0 193 -97q0 -42 -52 -149q-53 -112 -53 -197q0 -129 90 -204q89 -74 262 -74h179v264h-95q-110 0 -110 96q0 49 47 152q47 100 47 153q0 112 -107 164q107 46 107 162q0 56 -47 156q-47 96 -47 145q0 102 110 102h95v267h-179q-173 0 -262 -74 q-90 -75 -90 -207q0 -83 53 -192q52 -110 52 -154q0 -96 -193 -96v-217z" />
<glyph unicode="|" horiz-adv-x="608" d="M127 -369h352v1932h-352v-1932z" />
<glyph unicode="}" horiz-adv-x="782" d="M76 127v-264h178q173 0 262 74q88 73 88 204q0 89 -51 197q-51 105 -51 149q0 97 192 97v217q-192 0 -192 96q0 44 51 152t51 194q0 134 -88 207q-89 74 -262 74h-178v-267h94q109 0 109 -102q0 -52 -46 -145q-47 -100 -47 -156q0 -112 105 -162q-105 -52 -105 -164 q0 -53 47 -153q46 -101 46 -152q0 -96 -109 -96h-94z" />
<glyph unicode="~" d="M35 545l211 -133q64 147 151 147q55 0 101 -37l69 -49q94 -70 215 -70q269 0 389 314l-210 137q-68 -152 -152 -152q-54 0 -100 37l-70 49q-94 70 -215 70q-269 0 -389 -313z" />
<glyph unicode="&#xa1;" horiz-adv-x="542" d="M70 983q0 -84 53 -131q52 -49 147 -49q98 0 150 49q53 47 53 131q0 81 -53 131q-53 47 -150 47q-94 0 -147 -47q-53 -50 -53 -131zM90 -381h365v1063l-365 -64v-999z" />
<glyph unicode="&#xa2;" d="M104 565q0 -234 105 -375q101 -142 287 -186v-274h290v268q107 15 193 43l96 29l-41 292l-90 -28q-155 -47 -246 -47q-219 0 -219 278q0 279 219 279q89 0 246 -49l90 -27l41 291l-96 31q-114 32 -193 40v265h-290v-271q-183 -44 -287 -186q-105 -144 -105 -373z" />
<glyph unicode="&#xa3;" d="M49 135q0 -135 133 -135h586q401 0 401 426h-272q0 -77 -43 -111t-90 -34h-139q37 70 37 159q0 24 -11 88h209v226h-282q-91 211 -91 297q0 172 195 172q116 0 305 -62l94 -31l47 306l-108 34q-213 68 -393 68q-241 0 -379 -117q-142 -118 -142 -338q0 -136 115 -331 h-131v-224h252q14 -41 14 -90q0 -73 -43 -116q-46 -46 -131 -46q-133 0 -133 -141z" />
<glyph unicode="&#xa5;" d="M14 1524l275 -604h-226v-224h322v-112h-322v-226h322v-358h436v358h324v226h-324v112h324v224h-230l275 604h-418l-162 -572l-174 572h-422z" />
<glyph unicode="&#xa6;" horiz-adv-x="608" d="M127 -369h352v770h-352v-770zM127 795h352v770h-352v-770z" />
<glyph unicode="&#xa7;" d="M66 629q0 -248 116 -367q117 -123 363 -123q133 0 221 33v-74q0 -168 -207 -168q-112 0 -313 62l-101 31l-53 -304l109 -34q210 -68 387 -68q253 0 403 129q150 126 150 354v422q0 244 -117 367q-118 121 -360 121q-134 0 -222 -33v74q0 172 207 172q99 3 309 -62 l103 -33l53 304l-106 36q-192 68 -387 68q-254 0 -404 -129q-151 -130 -151 -356v-422zM442 625v77l29 7q17 5 59 14q36 4 58 4q98 0 137 -51q41 -53 41 -152v-75q-83 -25 -143 -25q-101 0 -140 51q-41 50 -41 150z" />
<glyph unicode="&#xa8;" horiz-adv-x="1171" d="M168 1405q0 -84 51 -129q50 -47 137 -47q86 0 136 47q49 46 49 129q0 80 -49 129q-50 47 -136 47q-87 0 -137 -47q-51 -48 -51 -129zM633 1405q0 -84 51 -129q50 -47 137 -47t137 47t50 129q0 79 -50 129q-53 47 -137 47q-87 0 -137 -47q-51 -48 -51 -129z" />
<glyph unicode="&#xa9;" horiz-adv-x="1910" d="M152 752q0 -344 233 -574q232 -229 569 -229q336 0 568 229q233 230 233 574q0 350 -231 575q-232 223 -570 223t-569 -225q-233 -227 -233 -573zM391 752q0 262 160 422q156 159 403 159q245 0 402 -157q157 -160 157 -424q0 -255 -157 -420q-159 -164 -402 -164 q-244 0 -403 164q-160 165 -160 420zM555 752q0 -206 111 -314q110 -110 295 -110q131 0 241 37l72 26l-31 213l-67 -22q-115 -33 -181 -33q-164 0 -164 203q0 202 164 202q81 0 181 -32l67 -23l31 215l-72 25q-118 37 -241 37q-183 0 -295 -109q-111 -111 -111 -315z" />
<glyph unicode="&#xaa;" d="M170 907q0 -123 86 -194q84 -72 233 -72q104 3 216 29l38 10q72 18 134 -12l77 -43l105 182l-88 55v367q0 309 -357 309q-145 0 -319 -55l-98 -31l34 -215l105 33q118 39 244 39q116 0 116 -95v-26h-137q-389 0 -389 -281zM453 920q0 40 32 59q36 22 82 22h131v-135 l-45 -12q-59 -16 -106 -16q-94 0 -94 82z" />
<glyph unicode="&#xab;" horiz-adv-x="1216" d="M53 580q0 -76 56 -138l251 -268h353l-379 406l379 403h-353l-251 -272q-56 -59 -56 -131zM522 580q0 -76 56 -138l256 -268h354l-385 406l385 403h-354l-256 -272q-56 -59 -56 -131z" />
<glyph unicode="&#xac;" d="M86 555h723v-389h309v665h-1032v-276z" />
<glyph unicode="&#xad;" horiz-adv-x="897" d="M72 526h753v277h-753v-277z" />
<glyph unicode="&#xae;" horiz-adv-x="1910" d="M152 752q0 -344 233 -574q232 -229 569 -229q336 0 568 229q233 230 233 574q0 350 -231 575q-232 223 -570 223t-569 -225q-233 -227 -233 -573zM389 752q0 262 160 422q160 157 405 157t402 -157t157 -422q0 -255 -157 -420q-159 -164 -402 -164q-247 0 -405 162 q-160 165 -160 422zM608 365h250v256h127l98 -256h256l-131 323l35 45q72 97 72 189q0 116 -74 184q-77 68 -203 68h-307q-59 0 -90 -31q-33 -33 -33 -88v-690zM858 795v204h123q92 0 92 -86q-3 -46 -33 -88l-24 -30h-158z" />
<glyph unicode="&#xaf;" horiz-adv-x="1087" d="M143 1255h797v265h-797v-265z" />
<glyph unicode="&#xb0;" horiz-adv-x="974" d="M92 1155q0 -180 109 -295q108 -117 291 -117q182 0 290 117q109 115 109 295q0 179 -107 295q-109 115 -288 115q-181 0 -293 -115q-111 -117 -111 -295zM344 1153q0 78 39 123q41 47 109 47q69 0 110 -47t41 -123q0 -78 -39 -123q-41 -47 -110 -47q-68 0 -109 47 t-41 123z" />
<glyph unicode="&#xb1;" d="M88 0h1030v258h-1030v-258zM88 594h354v-254h312v254h364v272h-364v264h-312v-264h-354v-272z" />
<glyph unicode="&#xb4;" horiz-adv-x="1110" d="M293 1327q0 -47 33 -76q28 -32 90 -32q81 0 153 57l373 287h-457l-143 -129q-49 -46 -49 -107z" />
<glyph unicode="&#xb5;" d="M92 -381h369v391q22 -14 117 -14q205 0 370 47q83 24 123 70q37 43 37 127v890h-373v-811q-85 -24 -145 -24q-129 0 -129 129v706h-369v-1511z" />
<glyph unicode="&#xb6;" horiz-adv-x="1300" d="M55 981q0 -207 109 -352q108 -144 313 -178v-832h293v1647h160v-1647h284v1905h-612q-265 0 -405 -152q-142 -154 -142 -391z" />
<glyph unicode="&#xb7;" horiz-adv-x="765" d="M184 741q0 -83 54 -137q51 -51 149 -51q97 0 148 51q53 53 53 137q0 85 -53 138q-52 49 -148 49q-97 0 -149 -49q-54 -54 -54 -138z" />
<glyph unicode="&#xb8;" horiz-adv-x="1087" d="M303 -360q109 -50 213 -50q110 0 170 48q59 47 59 131q0 74 -49 114q-52 37 -133 37l39 80h-135l-84 -158l23 -35q92 3 124 -4q39 -9 39 -39q0 -36 -51 -36q-81 0 -172 45z" />
<glyph unicode="&#xba;" d="M164 1092q0 -214 117 -334q113 -119 321 -119q203 0 324 121q118 118 118 332q0 213 -114 333q-117 117 -324 117q-203 0 -323 -117q-119 -119 -119 -333zM461 1092q0 241 141 241q150 0 150 -241q0 -246 -146 -246q-145 0 -145 246z" />
<glyph unicode="&#xbb;" horiz-adv-x="1216" d="M29 174h352l258 268q55 61 55 138q0 73 -55 131l-258 272h-352l385 -403zM504 174h352l252 268q55 61 55 138q0 73 -55 131l-252 272h-352l379 -403z" />
<glyph unicode="&#xbf;" horiz-adv-x="966" d="M45 -2q0 -182 119 -283q120 -102 328 -102q140 0 323 49l105 29l-48 295l-124 -37q-109 -33 -211 -33q-129 0 -129 111q0 101 75 170l135 131q53 50 68 96q14 43 14 121v137l-354 -61l-2 -140l-133 -127q-166 -159 -166 -356zM322 985q0 -84 53 -131q52 -49 147 -49 q98 0 150 49q53 47 53 131q0 80 -53 127t-150 47q-94 0 -147 -47t-53 -127z" />
<glyph unicode="&#xc0;" horiz-adv-x="1515" d="M12 0h451l69 236h449l66 -236h454l-436 1346q-65 194 -295 194q-246 0 -311 -201zM385 1931l373 -286q73 -58 153 -58q60 0 93 33q32 28 32 76q0 61 -51 106l-143 129h-457zM610 555l152 532l143 -532h-295z" />
<glyph unicode="&#xc1;" horiz-adv-x="1515" d="M12 0h451l69 236h449l66 -236h454l-436 1346q-65 194 -295 194q-246 0 -311 -201zM492 1696q0 -48 32 -76q29 -33 90 -33q81 0 154 58l373 286h-457l-143 -129q-49 -46 -49 -106zM610 555l152 532l143 -532h-295z" />
<glyph unicode="&#xc2;" horiz-adv-x="1515" d="M12 0h451l69 236h449l66 -236h454l-436 1346q-65 194 -295 194q-246 0 -311 -201zM328 1606h362l82 123l86 -123h363l-254 272q-71 74 -195 74q-121 0 -192 -74zM610 555l152 532l143 -532h-295z" />
<glyph unicode="&#xc3;" horiz-adv-x="1515" d="M12 0h451l69 236h449l66 -236h454l-436 1346q-65 194 -295 194q-246 0 -311 -201zM301 1700l174 -107q52 119 121 119q37 0 82 -31l55 -39q76 -55 176 -55q221 0 316 256l-174 111q-53 -121 -121 -121q-39 0 -82 29l-55 39q-75 57 -177 57q-220 0 -315 -258zM610 555 l152 532l143 -532h-295z" />
<glyph unicode="&#xc4;" horiz-adv-x="1515" d="M12 0h451l69 236h449l66 -236h454l-436 1346q-65 194 -295 194q-246 0 -311 -201zM354 1767q0 -83 52 -129q50 -47 137 -47q85 0 135 47q49 46 49 129q0 80 -49 129q-51 48 -135 48q-86 0 -137 -48q-52 -49 -52 -129zM610 555l152 532l143 -532h-295zM819 1767 q0 -84 51 -129q50 -47 138 -47q87 0 137 47q49 46 49 129q0 80 -49 129q-54 48 -137 48q-87 0 -138 -48t-51 -129z" />
<glyph unicode="&#xc5;" horiz-adv-x="1515" d="M12 0h451l69 236h449l66 -236h454l-483 1520q33 44 33 118q0 119 -80 193q-81 72 -201 72q-121 0 -201 -74t-80 -191q0 -69 33 -116zM610 555l152 532l143 -532h-295zM668 1638q0 44 28 72q27 27 74 27q49 0 76 -27q28 -28 28 -72q0 -43 -28 -71q-32 -29 -76 -29 q-45 0 -74 29q-28 28 -28 71z" />
<glyph unicode="&#xc6;" horiz-adv-x="2209" d="M12 0h455l84 236h453v-41q0 -91 59 -144q57 -51 160 -51h917v324h-686v294h596v312h-596v268h680v326h-1247q-262 0 -338 -193zM655 555l228 641h121v-641h-349z" />
<glyph unicode="&#xc7;" horiz-adv-x="1411" d="M70 762q0 -378 198 -576q197 -200 533 -200q186 0 436 73l127 37l-51 359l-131 -43q-168 -54 -318 -54q-327 0 -327 404q0 403 327 403q149 0 320 -55l129 -41l51 354l-129 41q-233 72 -430 72q-334 0 -535 -201q-200 -200 -200 -573zM573 -360q109 -50 213 -50 q110 0 170 48t60 131q0 74 -49 114q-52 37 -133 37l38 80h-135l-84 -158l23 -35q92 3 125 -4q39 -9 39 -39q0 -36 -52 -36q-81 0 -172 45z" />
<glyph unicode="&#xc8;" horiz-adv-x="1302" d="M96 205q0 -96 60 -150q58 -55 161 -55h914v324h-684v294h594v312h-594v268h680v326h-910q-101 0 -161 -54q-60 -57 -60 -153v-1112zM264 1931l373 -286q73 -58 154 -58q59 0 92 33q32 28 32 76q0 61 -51 106l-143 129h-457z" />
<glyph unicode="&#xc9;" horiz-adv-x="1302" d="M96 205q0 -96 60 -150q58 -55 161 -55h914v324h-684v294h594v312h-594v268h680v326h-910q-101 0 -161 -54q-60 -57 -60 -153v-1112zM457 1696q0 -48 32 -76q29 -33 91 -33q80 0 153 58l373 286h-457l-143 -129q-49 -46 -49 -106z" />
<glyph unicode="&#xca;" horiz-adv-x="1302" d="M96 205q0 -96 60 -150q58 -55 161 -55h914v324h-684v294h594v312h-594v268h680v326h-910q-101 0 -161 -54q-60 -57 -60 -153v-1112zM229 1606h363l82 123l86 -123h362l-254 272q-71 74 -194 74q-122 0 -193 -74z" />
<glyph unicode="&#xcb;" horiz-adv-x="1302" d="M96 205q0 -96 60 -150q58 -55 161 -55h914v324h-684v294h594v312h-594v268h680v326h-910q-101 0 -161 -54q-60 -57 -60 -153v-1112zM268 1765q0 -84 51 -129q50 -47 138 -47q85 0 135 47q49 46 49 129q0 80 -49 129q-51 48 -135 48q-87 0 -138 -48t-51 -129zM733 1765 q0 -84 51 -129q50 -47 138 -47q87 0 137 47q49 46 49 129q0 80 -49 129q-54 48 -137 48q-87 0 -138 -48t-51 -129z" />
<glyph unicode="&#xcc;" horiz-adv-x="649" d="M-68 1929l373 -287q72 -57 154 -57q59 0 92 33q33 29 33 76q0 60 -52 106l-143 129h-457zM96 0h459v1524h-459v-1524z" />
<glyph unicode="&#xcd;" horiz-adv-x="649" d="M94 1694q0 -47 33 -76q29 -33 90 -33q82 0 154 57l372 287h-456l-144 -129q-49 -46 -49 -106zM96 0h459v1524h-459v-1524z" />
<glyph unicode="&#xce;" horiz-adv-x="649" d="M-121 1606h363l82 123l86 -123h362l-254 272q-71 74 -194 74q-122 0 -193 -74zM96 0h459v1524h-459v-1524z" />
<glyph unicode="&#xcf;" horiz-adv-x="649" d="M-88 1767q0 -84 51 -129q50 -47 137 -47q86 0 136 47q49 46 49 129q0 80 -49 129q-51 48 -136 48q-86 0 -137 -48t-51 -129zM96 0h459v1524h-459v-1524zM377 1767q0 -84 51 -129q50 -47 137 -47t137 47t50 129q0 79 -50 129q-54 48 -137 48q-86 0 -137 -48t-51 -129z" />
<glyph unicode="&#xd0;" horiz-adv-x="1560" d="M20 659h111v-436q0 -106 55 -164q56 -59 164 -59h395q341 0 545 201q201 201 201 557q0 358 -199 563q-200 203 -542 203h-400q-107 0 -164 -60q-55 -61 -55 -170v-413h-111v-222zM582 336v323h270v222h-270v307h125q160 0 249 -109q88 -110 88 -321q0 -422 -325 -422 h-137z" />
<glyph unicode="&#xd1;" horiz-adv-x="1564" d="M94 0h389v911l355 -739q45 -91 114 -137q71 -47 195 -47q156 0 237 69q82 70 82 201v1266h-389v-912l-338 707q-54 111 -121 164q-70 55 -202 55q-156 0 -238 -70q-84 -72 -84 -204v-1264zM344 1700l174 -107q52 119 121 119q37 0 82 -31l55 -39q76 -55 176 -55 q221 0 316 256l-174 111q-53 -121 -121 -121q-39 0 -82 29l-55 39q-75 57 -177 57q-220 0 -315 -258z" />
<glyph unicode="&#xd2;" horiz-adv-x="1669" d="M70 760q0 -364 206 -570q204 -204 553 -204q352 0 560 202t208 572q0 367 -204 571q-205 205 -555 205q-349 0 -557 -205q-211 -205 -211 -571zM455 1929l372 -287q72 -57 154 -57q59 0 92 33q33 29 33 76q0 61 -51 106l-144 129h-456zM524 760q0 217 80 338 q76 119 225 119q150 0 232 -119q80 -121 80 -338q0 -218 -78 -340q-76 -119 -225 -119t-232 121q-82 119 -82 338z" />
<glyph unicode="&#xd3;" horiz-adv-x="1669" d="M70 760q0 -364 206 -570q204 -204 553 -204q352 0 560 202t208 572q0 367 -204 571q-205 205 -555 205q-349 0 -557 -205q-211 -205 -211 -571zM524 760q0 217 80 338q76 119 225 119q150 0 232 -119q80 -121 80 -338q0 -218 -78 -340q-76 -119 -225 -119t-232 121 q-82 119 -82 338zM606 1694q0 -47 33 -76q29 -33 90 -33q82 0 154 57l372 287h-456l-144 -129q-49 -46 -49 -106z" />
<glyph unicode="&#xd4;" horiz-adv-x="1669" d="M70 760q0 -364 206 -570q204 -204 553 -204q352 0 560 202t208 572q0 367 -204 571q-205 205 -555 205q-349 0 -557 -205q-211 -205 -211 -571zM397 1606h363l82 123l86 -123h362l-254 272q-71 74 -194 74q-122 0 -193 -74zM524 760q0 217 80 338q76 119 225 119 q150 0 232 -119q80 -121 80 -338q0 -218 -78 -340q-76 -119 -225 -119t-232 121q-82 119 -82 338z" />
<glyph unicode="&#xd5;" horiz-adv-x="1669" d="M70 760q0 -364 206 -570q204 -204 553 -204q352 0 560 202t208 572q0 367 -204 571q-205 205 -555 205q-349 0 -557 -205q-211 -205 -211 -571zM393 1702l174 -107q52 119 121 119q37 0 82 -31l55 -38q77 -56 176 -56q221 0 316 256l-174 111q-53 -121 -121 -121 q-38 0 -82 29l-55 39q-75 57 -176 57q-221 0 -316 -258zM524 760q0 217 80 338q76 119 225 119q150 0 232 -119q80 -121 80 -338q0 -218 -78 -340q-76 -119 -225 -119t-232 121q-82 119 -82 338z" />
<glyph unicode="&#xd6;" horiz-adv-x="1669" d="M70 760q0 -364 206 -570q204 -204 553 -204q352 0 560 202t208 572q0 367 -204 571q-205 205 -555 205q-349 0 -557 -205q-211 -205 -211 -571zM418 1765q0 -84 51 -129q50 -47 137 -47q85 0 135 47t50 129q0 79 -50 129q-51 48 -135 48q-86 0 -137 -48t-51 -129z M524 760q0 217 80 338q76 119 225 119q150 0 232 -119q80 -121 80 -338q0 -218 -78 -340q-76 -119 -225 -119t-232 121q-82 119 -82 338zM883 1765q0 -84 51 -129q50 -47 137 -47t137 47q49 46 49 129q0 80 -49 129q-54 48 -137 48q-86 0 -137 -48t-51 -129z" />
<glyph unicode="&#xd7;" d="M78 283l221 -222l299 299l301 -299l221 222l-299 299l299 301l-221 221l-301 -299l-299 299l-221 -221l299 -301z" />
<glyph unicode="&#xd8;" horiz-adv-x="1669" d="M70 758q0 -422 266 -627l-129 -235h293l67 122q117 -32 260 -32q354 0 562 202q208 199 208 570q0 425 -274 631l127 233h-291l-67 -123q-122 35 -256 35q-347 0 -555 -205q-211 -205 -211 -571zM524 758q0 218 78 340q76 119 225 119q44 0 99 -19l-367 -666 q-35 87 -35 226zM733 319l369 670q39 -85 39 -231q0 -219 -78 -338q-79 -119 -227 -119q-56 0 -103 18z" />
<glyph unicode="&#xd9;" horiz-adv-x="1503" d="M86 569q0 -285 170 -438q170 -156 494 -156q322 0 495 156q172 156 172 438v955h-454v-957q0 -223 -211 -223t-211 223v957h-455v-955zM309 1931l373 -286q73 -58 154 -58q59 0 92 33q33 29 33 76q0 60 -52 106l-143 129h-457z" />
<glyph unicode="&#xda;" horiz-adv-x="1503" d="M86 569q0 -285 170 -438q170 -156 494 -156q322 0 495 156q172 156 172 438v955h-454v-957q0 -223 -211 -223t-211 223v957h-455v-955zM559 1696q0 -47 33 -76q29 -33 90 -33q81 0 154 58l372 286h-456l-144 -129q-49 -46 -49 -106z" />
<glyph unicode="&#xdb;" horiz-adv-x="1503" d="M86 569q0 -285 170 -438q170 -156 494 -156q322 0 495 156q172 156 172 438v955h-454v-957q0 -223 -211 -223t-211 223v957h-455v-955zM303 1606h363l82 123l86 -123h362l-254 272q-71 74 -194 74q-122 0 -193 -74z" />
<glyph unicode="&#xdc;" horiz-adv-x="1503" d="M86 569q0 -285 170 -438q170 -156 494 -156q322 0 495 156q172 156 172 438v955h-454v-957q0 -223 -211 -223t-211 223v957h-455v-955zM336 1765q0 -84 51 -129q50 -47 137 -47q85 0 135 47t50 129q0 79 -50 129q-51 48 -135 48q-86 0 -137 -48t-51 -129zM801 1765 q0 -84 51 -129q50 -47 137 -47t137 47t50 129q0 79 -50 129q-54 48 -137 48q-86 0 -137 -48t-51 -129z" />
<glyph unicode="&#xdd;" horiz-adv-x="1544" d="M10 1524l537 -914v-610h452v612l533 912h-485l-267 -531l-280 531h-490zM582 1696q0 -48 32 -76q29 -33 91 -33q80 0 153 58l373 286h-457l-143 -129q-49 -46 -49 -106z" />
<glyph unicode="&#xde;" horiz-adv-x="1380" d="M94 0h445v279h229q253 0 399 137q148 136 148 370t-141 369q-144 135 -386 135h-249v234h-445v-1524zM539 600v371h174q88 0 141 -47q51 -45 51 -138q0 -87 -47 -137q-49 -49 -133 -49h-186z" />
<glyph unicode="&#xdf;" horiz-adv-x="1204" d="M92 0h369v1161q0 148 110 148q119 0 119 -133q0 -85 -33 -152l-53 -113q-64 -131 23 -227l102 -117q62 -71 62 -139q0 -60 -35 -98q-36 -39 -99 -39h-104v-291h125q223 0 344 106q123 108 123 295q0 178 -150 328l-90 88l56 86q83 136 83 287q0 191 -129 299 q-128 104 -348 104q-212 0 -344 -108q-131 -110 -131 -334v-1151z" />
<glyph unicode="&#xe0;" horiz-adv-x="1247" d="M68 328q0 -162 110 -250q110 -90 301 -90q139 0 283 39l41 10q111 21 182 -14l98 -52l136 230l-117 71v478q0 393 -463 393q-178 0 -414 -72l-121 -37l41 -276l125 41q168 55 326 55q156 0 156 -123v-41h-164q-520 0 -520 -362zM246 1563l372 -287q72 -57 154 -57 q60 0 92 32q33 29 33 76q0 62 -51 107l-144 129h-456zM426 340q0 115 154 115h176v-179l-62 -16q-86 -22 -141 -22q-127 0 -127 102z" />
<glyph unicode="&#xe1;" horiz-adv-x="1247" d="M68 328q0 -162 110 -250q110 -90 301 -90q139 0 283 39l41 10q111 21 182 -14l98 -52l136 230l-117 71v478q0 393 -463 393q-178 0 -414 -72l-121 -37l41 -276l125 41q168 55 326 55q156 0 156 -123v-41h-164q-520 0 -520 -362zM422 1327q0 -47 33 -76q28 -32 90 -32 q81 0 153 57l373 287h-457l-143 -129q-49 -46 -49 -107zM426 340q0 115 154 115h176v-179l-62 -16q-86 -22 -141 -22q-127 0 -127 102z" />
<glyph unicode="&#xe2;" horiz-adv-x="1247" d="M68 328q0 -162 110 -250q110 -90 301 -90q139 0 283 39l41 10q111 21 182 -14l98 -52l136 230l-117 71v478q0 393 -463 393q-178 0 -414 -72l-121 -37l41 -276l125 41q168 55 326 55q156 0 156 -123v-41h-164q-520 0 -520 -362zM184 1223h363l82 123l86 -123h362 l-254 272q-71 74 -194 74q-122 0 -193 -74zM426 340q0 115 154 115h176v-179l-62 -16q-86 -22 -141 -22q-127 0 -127 102z" />
<glyph unicode="&#xe3;" horiz-adv-x="1247" d="M68 328q0 -162 110 -250q110 -90 301 -90q139 0 283 39l41 10q111 21 182 -14l98 -52l136 230l-117 71v478q0 393 -463 393q-178 0 -414 -72l-121 -37l41 -276l125 41q168 55 326 55q156 0 156 -123v-41h-164q-520 0 -520 -362zM170 1323l174 -106q52 118 121 118 q38 0 82 -30l55 -39q77 -56 176 -56q221 0 316 256l-174 111q-53 -121 -121 -121q-39 0 -82 29l-55 39q-75 57 -177 57q-221 0 -315 -258zM426 340q0 115 154 115h176v-179l-62 -16q-86 -22 -141 -22q-127 0 -127 102z" />
<glyph unicode="&#xe4;" horiz-adv-x="1247" d="M68 328q0 -162 110 -250q110 -90 301 -90q139 0 283 39l41 10q111 21 182 -14l98 -52l136 230l-117 71v478q0 393 -463 393q-178 0 -414 -72l-121 -37l41 -276l125 41q168 55 326 55q156 0 156 -123v-41h-164q-520 0 -520 -362zM211 1405q0 -84 51 -129q50 -47 137 -47 q86 0 136 47q49 46 49 129q0 80 -49 129q-50 47 -136 47q-87 0 -137 -47q-51 -48 -51 -129zM426 340q0 115 154 115h176v-179l-62 -16q-86 -22 -141 -22q-127 0 -127 102zM676 1405q0 -84 51 -129q50 -47 137 -47t137 47t50 129q0 79 -50 129q-53 47 -137 47q-87 0 -137 -47 q-51 -48 -51 -129z" />
<glyph unicode="&#xe5;" horiz-adv-x="1247" d="M68 328q0 -162 110 -250q110 -90 301 -90q139 0 283 39l41 10q111 21 182 -14l98 -52l136 230l-117 71v478q0 393 -463 393q-178 0 -414 -72l-121 -37l41 -276l125 41q168 55 326 55q156 0 156 -123v-41h-164q-520 0 -520 -362zM350 1462q0 -114 82 -190t201 -76t201 76 q81 75 81 190q0 118 -79 191q-83 71 -203 71q-123 0 -203 -71t-80 -191zM426 340q0 115 154 115h176v-179l-62 -16q-86 -22 -141 -22q-127 0 -127 102zM530 1462q0 41 29 70t74 29q47 0 76 -29q28 -28 28 -70q0 -43 -28 -71q-32 -29 -76 -29q-45 0 -74 29t-29 71z" />
<glyph unicode="&#xe6;" horiz-adv-x="1882" d="M68 328q0 -162 110 -250q110 -90 301 -90q108 3 293 43l135 28q72 16 135 -16q116 -55 283 -55q168 0 375 65l108 35l-41 264l-110 -35q-152 -47 -271 -47q-258 0 -282 185h561q81 0 121 30q37 30 37 105q0 279 -137 416q-139 139 -390 139q-192 0 -331 -109 q-107 107 -324 107q-202 -3 -416 -70l-121 -39l41 -276l121 37q192 59 330 59q156 0 156 -123v-41h-154q-111 0 -205 -16q-89 -15 -166 -56q-79 -42 -118 -112q-41 -74 -41 -178zM426 340q0 115 154 115h180q12 -103 47 -174l-109 -25q-82 -18 -145 -18q-127 0 -127 102z M1104 686q6 97 53 150t127 53q91 0 137 -55q45 -57 45 -148h-362z" />
<glyph unicode="&#xe7;" horiz-adv-x="1093" d="M68 565q0 -281 149 -430t399 -149q161 0 326 53l98 31l-41 292l-90 -28q-148 -49 -245 -49q-220 0 -220 280q0 279 220 279q97 0 245 -49l90 -27l41 291l-98 31q-165 53 -326 53q-249 0 -399 -150q-149 -149 -149 -428zM369 -360q109 -50 213 -50q110 0 170 48 q59 47 59 131q0 74 -49 114q-52 37 -133 37l39 80h-136l-83 -158l22 -35q92 3 125 -4q39 -9 39 -39q0 -36 -51 -36q-81 0 -172 45z" />
<glyph unicode="&#xe8;" horiz-adv-x="1200" d="M68 563q0 -282 155 -428q153 -147 422 -147q169 0 373 65l108 35l-41 264l-106 -33q-155 -47 -303 -47q-225 0 -252 183h577q75 0 107 32q33 33 33 105q0 279 -137 416t-388 137q-236 0 -393 -148q-155 -149 -155 -434zM195 1563l372 -287q72 -57 154 -57q60 0 92 32 q33 29 33 76q0 62 -51 107l-144 129h-456zM422 688q9 95 55 150q47 53 127 53q91 0 137 -55q45 -57 45 -148h-364z" />
<glyph unicode="&#xe9;" horiz-adv-x="1200" d="M68 563q0 -282 155 -428q153 -147 422 -147q169 0 373 65l108 35l-41 264l-106 -33q-155 -47 -303 -47q-225 0 -252 183h577q75 0 107 32q33 33 33 105q0 279 -137 416t-388 137q-236 0 -393 -148q-155 -149 -155 -434zM406 1327q0 -48 32 -76q28 -32 90 -32q82 0 154 57 l373 287h-457l-143 -129q-49 -46 -49 -107zM422 688q9 95 55 150q47 53 127 53q91 0 137 -55q45 -57 45 -148h-364z" />
<glyph unicode="&#xea;" horiz-adv-x="1200" d="M68 563q0 -282 155 -428q153 -147 422 -147q169 0 373 65l108 35l-41 264l-106 -33q-155 -47 -303 -47q-225 0 -252 183h577q75 0 107 32q33 33 33 105q0 279 -137 416t-388 137q-236 0 -393 -148q-155 -149 -155 -434zM170 1223h362l82 123l86 -123h363l-254 272 q-71 74 -195 74q-121 0 -192 -74zM422 688q9 95 55 150q47 53 127 53q91 0 137 -55q45 -57 45 -148h-364z" />
<glyph unicode="&#xeb;" horiz-adv-x="1200" d="M68 563q0 -282 155 -428q153 -147 422 -147q169 0 373 65l108 35l-41 264l-106 -33q-155 -47 -303 -47q-225 0 -252 183h577q75 0 107 32q33 33 33 105q0 279 -137 416t-388 137q-236 0 -393 -148q-155 -149 -155 -434zM199 1405q0 -84 51 -129q50 -47 137 -47 q85 0 135 47q49 46 49 129q0 80 -49 129q-50 47 -135 47q-87 0 -137 -47q-51 -48 -51 -129zM422 688q9 95 55 150q47 53 127 53q91 0 137 -55q45 -57 45 -148h-364zM664 1405q0 -84 51 -129q50 -47 137 -47t137 47q49 46 49 129q0 80 -49 129q-53 47 -137 47q-87 0 -137 -47 q-51 -48 -51 -129z" />
<glyph unicode="&#xec;" horiz-adv-x="555" d="M-125 1563l373 -287q72 -57 153 -57q61 0 93 32q32 28 32 76q0 62 -51 107l-143 129h-457zM94 0h363v1130h-363v-1130z" />
<glyph unicode="&#xed;" horiz-adv-x="555" d="M14 1327q0 -47 33 -76q28 -32 90 -32q82 0 154 57l373 287h-457l-144 -129q-49 -46 -49 -107zM94 0h363v1130h-363v-1130z" />
<glyph unicode="&#xee;" horiz-adv-x="555" d="M-162 1223h363l82 123l86 -123h362l-254 272q-71 74 -194 74q-122 0 -193 -74zM94 0h363v1130h-363v-1130z" />
<glyph unicode="&#xef;" horiz-adv-x="555" d="M-139 1405q0 -84 51 -129q50 -47 137 -47q85 0 135 47q49 46 49 129q0 80 -49 129q-50 47 -135 47q-87 0 -137 -47q-51 -48 -51 -129zM94 0h363v1130h-363v-1130zM326 1405q0 -84 51 -129q50 -47 137 -47t137 47q49 46 49 129q0 80 -49 129q-53 47 -137 47 q-87 0 -137 -47q-51 -48 -51 -129z" />
<glyph unicode="&#xf0;" horiz-adv-x="1282" d="M72 532q0 -249 143 -395q144 -147 408 -147q271 0 415 141q146 140 146 377v502q0 209 -88 340l114 55v176l-237 -111q-137 93 -359 93h-204v-205h114q77 0 146 -29l-164 -78v-178l276 131q29 -69 29 -141v-66q-139 45 -258 45q-227 0 -352 -137q-129 -138 -129 -373z M446 526q0 252 195 252q84 -3 168 -26v-238q0 -258 -178 -258q-185 0 -185 270z" />
<glyph unicode="&#xf1;" horiz-adv-x="1204" d="M92 0h375v809q86 25 145 25q129 0 129 -127v-707h367v737q0 189 -117 297q-119 107 -366 107q-183 0 -373 -54q-82 -24 -121 -69t-39 -127v-891zM141 1323l174 -106q52 118 121 118q38 0 82 -30l55 -39q77 -56 177 -56q220 0 315 256l-174 111q-53 -121 -121 -121 q-38 0 -82 29l-55 39q-75 57 -176 57q-221 0 -316 -258z" />
<glyph unicode="&#xf2;" horiz-adv-x="1273" d="M68 565q0 -275 151 -426t416 -151q264 0 418 151q151 151 151 426q0 279 -149 428q-150 150 -414 150q-265 0 -420 -152q-153 -150 -153 -426zM256 1563l373 -287q72 -57 153 -57q60 0 92 32q33 29 33 76q0 62 -51 107l-143 129h-457zM442 565q0 316 193 316 q199 0 199 -316q0 -315 -193 -315q-199 0 -199 315z" />
<glyph unicode="&#xf3;" horiz-adv-x="1273" d="M68 565q0 -275 151 -426t416 -151q264 0 418 151q151 151 151 426q0 279 -149 428q-150 150 -414 150q-265 0 -420 -152q-153 -150 -153 -426zM393 1327q0 -47 33 -76q28 -32 90 -32q82 0 154 57l372 287h-456l-144 -129q-49 -46 -49 -107zM442 565q0 316 193 316 q199 0 199 -316q0 -315 -193 -315q-199 0 -199 315z" />
<glyph unicode="&#xf4;" horiz-adv-x="1273" d="M68 565q0 -275 151 -426t416 -151q264 0 418 151q151 151 151 426q0 279 -149 428q-150 150 -414 150q-265 0 -420 -152q-153 -150 -153 -426zM190 1223h363l82 123l86 -123h362l-254 272q-71 74 -194 74q-122 0 -193 -74zM442 565q0 316 193 316q199 0 199 -316 q0 -315 -193 -315q-199 0 -199 315z" />
<glyph unicode="&#xf5;" horiz-adv-x="1273" d="M68 565q0 -275 151 -426t416 -151q264 0 418 151q151 151 151 426q0 279 -149 428q-150 150 -414 150q-265 0 -420 -152q-153 -150 -153 -426zM193 1323l174 -106q52 118 120 118q39 0 82 -30l56 -39q77 -56 176 -56q220 0 315 256l-174 111q-53 -121 -121 -121 q-39 0 -82 29l-55 39q-75 57 -176 57q-220 0 -315 -258zM442 565q0 316 193 316q199 0 199 -316q0 -315 -193 -315q-199 0 -199 315z" />
<glyph unicode="&#xf6;" horiz-adv-x="1273" d="M68 565q0 -275 151 -426t416 -151q264 0 418 151q151 151 151 426q0 279 -149 428q-150 150 -414 150q-265 0 -420 -152q-153 -150 -153 -426zM221 1405q0 -84 51 -129q50 -47 138 -47q85 0 135 47q49 46 49 129q0 80 -49 129q-50 47 -135 47q-88 0 -138 -47 q-51 -48 -51 -129zM442 565q0 316 193 316q199 0 199 -316q0 -315 -193 -315q-199 0 -199 315zM686 1405q0 -84 51 -129q50 -47 137 -47q88 0 138 47q49 46 49 129q0 80 -49 129q-53 47 -138 47q-87 0 -137 -47q-51 -48 -51 -129z" />
<glyph unicode="&#xf7;" d="M88 463h1032v274h-1032v-274zM401 205q0 -75 54 -123q53 -47 147 -47q93 0 146 47t53 123q0 78 -53 125q-51 45 -146 45q-94 0 -145 -45q-56 -47 -56 -125zM401 995q0 -78 56 -125q53 -47 145 -47q93 0 146 47t53 125q0 75 -53 125q-53 47 -146 47q-92 0 -145 -47 q-56 -50 -56 -125z" />
<glyph unicode="&#xf8;" horiz-adv-x="1273" d="M68 565q0 -313 186 -459l-117 -210h258l64 112q73 -20 176 -20q264 0 418 151q151 151 151 426q0 312 -186 461l110 197h-256l-55 -101q-77 21 -176 21q-265 0 -420 -152q-153 -150 -153 -426zM426 565q0 318 209 318q28 0 43 -9l-238 -440q-14 38 -14 131zM594 256 l240 440q16 -53 16 -131q0 -315 -209 -315q-32 0 -47 6z" />
<glyph unicode="&#xf9;" horiz-adv-x="1204" d="M92 391q0 -191 119 -295q118 -106 367 -106q200 0 370 51q160 47 160 197v892h-373v-811q-85 -24 -145 -24q-129 0 -129 129v706h-369v-739zM188 1563l373 -287q72 -57 154 -57q60 0 92 32q33 29 33 76q0 61 -52 107l-143 129h-457z" />
<glyph unicode="&#xfa;" horiz-adv-x="1204" d="M92 391q0 -191 119 -295q118 -106 367 -106q200 0 370 51q160 47 160 197v892h-373v-811q-85 -24 -145 -24q-129 0 -129 129v706h-369v-739zM362 1327q0 -47 33 -76q28 -32 90 -32q82 0 154 57l373 287h-457l-143 -129q-50 -47 -50 -107z" />
<glyph unicode="&#xfb;" horiz-adv-x="1204" d="M92 391q0 -191 119 -295q118 -106 367 -106q200 0 370 51q160 47 160 197v892h-373v-811q-85 -24 -145 -24q-129 0 -129 129v706h-369v-739zM154 1223h362l82 123l86 -123h363l-254 272q-71 74 -195 74q-121 0 -192 -74z" />
<glyph unicode="&#xfc;" horiz-adv-x="1204" d="M92 391q0 -191 119 -295q118 -106 367 -106q200 0 370 51q160 47 160 197v892h-373v-811q-85 -24 -145 -24q-129 0 -129 129v706h-369v-739zM182 1405q0 -84 51 -129q50 -47 138 -47q85 0 135 47q49 46 49 129q0 80 -49 129q-50 47 -135 47q-88 0 -138 -47 q-51 -48 -51 -129zM647 1405q0 -84 51 -129q50 -47 138 -47q87 0 137 47q49 46 49 129q0 80 -49 129q-53 47 -137 47q-88 0 -138 -47q-51 -48 -51 -129z" />
<glyph unicode="&#xfd;" horiz-adv-x="1218" d="M25 1130l434 -1107l-8 -31q-21 -90 -127 -90q-74 0 -195 37l-43 -263q162 -49 289 -49q170 0 274 84q100 81 156 248l389 1171h-381l-178 -686l-205 686h-405zM440 1327q0 -47 33 -76q28 -32 90 -32q82 0 154 57l373 287h-457l-144 -129q-49 -46 -49 -107z" />
<glyph unicode="&#xfe;" horiz-adv-x="1234" d="M92 -381l369 66v342q109 -33 196 -33q253 0 381 149q127 151 127 426q0 568 -497 568q-98 0 -207 -33v485l-369 -63v-1907zM461 307v516q95 25 143 25q105 0 152 -68t47 -215q0 -145 -47 -213q-46 -69 -152 -69q-58 0 -143 24z" />
<glyph unicode="&#xff;" horiz-adv-x="1218" d="M25 1130l434 -1107l-8 -31q-21 -90 -127 -90q-74 0 -195 37l-43 -263q162 -49 289 -49q170 0 274 84q100 81 156 248l389 1171h-381l-178 -686l-205 686h-405zM219 1405q0 -84 51 -129q50 -47 138 -47q85 0 135 47q49 46 49 129q0 80 -49 129q-50 47 -135 47 q-88 0 -138 -47q-51 -48 -51 -129zM684 1405q0 -84 51 -129q50 -47 137 -47q88 0 138 47q49 46 49 129q0 80 -49 129q-53 47 -138 47q-87 0 -137 -47q-51 -48 -51 -129z" />
<glyph unicode="&#x152;" horiz-adv-x="2183" d="M70 758q0 -358 202 -557q201 -201 543 -201h1299v324h-684v294h593v312h-593v268h679v326h-1298q-341 0 -541 -203q-200 -206 -200 -563zM516 758q0 203 84 319q82 113 234 113h143v-852h-156q-145 0 -225 108q-80 109 -80 312z" />
<glyph unicode="&#x153;" horiz-adv-x="1966" d="M68 565q0 -275 151 -426t416 -151q242 0 383 135q138 -135 393 -135q169 0 373 65l108 35l-39 264l-108 -33q-146 -47 -303 -47q-226 0 -250 183h575q75 0 107 32q33 33 33 105q0 278 -138 416q-137 137 -387 137q-227 0 -362 -135q-139 133 -379 133q-265 0 -420 -152 q-153 -150 -153 -426zM442 565q0 316 193 316q199 0 199 -316q0 -315 -193 -315q-199 0 -199 315zM1190 688q6 94 53 150q47 53 127 53q94 0 139 -57t45 -146h-364z" />
<glyph unicode="&#x178;" horiz-adv-x="1544" d="M10 1524l537 -914v-610h452v612l533 912h-485l-267 -531l-280 531h-490zM367 1767q0 -84 51 -129q50 -47 137 -47q85 0 135 47q49 46 49 129q0 80 -49 129q-51 48 -135 48q-86 0 -137 -48t-51 -129zM831 1767q0 -83 52 -129q50 -47 137 -47t137 47q49 46 49 129 q0 80 -49 129q-54 48 -137 48q-86 0 -137 -48q-52 -49 -52 -129z" />
<glyph unicode="&#x2c6;" horiz-adv-x="1087" d="M131 1223h363l81 123l87 -123h362l-254 272q-71 74 -195 74q-121 0 -192 -74z" />
<glyph unicode="&#x2dc;" horiz-adv-x="1087" d="M82 1323l174 -106q52 118 121 118q39 0 82 -30l55 -39q77 -56 176 -56q221 0 316 256l-175 111q-53 -121 -120 -121q-39 0 -82 29l-56 39q-75 57 -176 57q-221 0 -315 -258z" />
<glyph unicode="&#x2000;" horiz-adv-x="980" />
<glyph unicode="&#x2001;" horiz-adv-x="1960" />
<glyph unicode="&#x2002;" horiz-adv-x="980" />
<glyph unicode="&#x2003;" horiz-adv-x="1960" />
<glyph unicode="&#x2004;" horiz-adv-x="653" />
<glyph unicode="&#x2005;" horiz-adv-x="490" />
<glyph unicode="&#x2006;" horiz-adv-x="326" />
<glyph unicode="&#x2007;" horiz-adv-x="326" />
<glyph unicode="&#x2008;" horiz-adv-x="245" />
<glyph unicode="&#x2009;" horiz-adv-x="392" />
<glyph unicode="&#x200a;" horiz-adv-x="108" />
<glyph unicode="&#x2010;" horiz-adv-x="897" d="M72 526h753v277h-753v-277z" />
<glyph unicode="&#x2011;" horiz-adv-x="897" d="M72 526h753v277h-753v-277z" />
<glyph unicode="&#x2012;" horiz-adv-x="897" d="M72 526h753v277h-753v-277z" />
<glyph unicode="&#x2013;" d="M72 526h1065v275h-1065v-275z" />
<glyph unicode="&#x2014;" horiz-adv-x="2048" d="M123 526h1802v273h-1802v-273z" />
<glyph unicode="&#x2018;" horiz-adv-x="542" d="M43 1040h371l78 340q18 78 -21 129q-40 52 -135 52q-142 0 -176 -117z" />
<glyph unicode="&#x2019;" horiz-adv-x="542" d="M70 1223q-21 -76 20 -129q40 -52 137 -52q139 0 174 115l119 404h-373z" />
<glyph unicode="&#x201a;" horiz-adv-x="542" d="M70 -6q-21 -76 20 -129q39 -51 137 -51q140 0 174 116l119 404h-373z" />
<glyph unicode="&#x201c;" horiz-adv-x="937" d="M23 1040h339l78 340q21 80 -12 131q-35 50 -129 50q-123 0 -158 -117zM453 1040h340l77 340q21 80 -12 131q-35 50 -129 50q-123 0 -158 -117z" />
<glyph unicode="&#x201d;" horiz-adv-x="937" d="M68 1223q-21 -81 12 -129q34 -52 129 -52q66 0 106 29q37 29 52 86l118 404h-340zM498 1223q-21 -81 12 -129q34 -52 129 -52q123 0 158 115l118 404h-340z" />
<glyph unicode="&#x201e;" horiz-adv-x="937" d="M68 -6q-21 -81 12 -129q34 -51 129 -51q124 0 158 116l118 404h-340zM498 -6q-21 -81 12 -129q34 -51 129 -51q124 0 158 116l118 404h-340z" />
<glyph unicode="&#x2022;" horiz-adv-x="958" d="M135 676q0 -173 92 -268q94 -97 252 -97t252 97q92 95 92 268q0 174 -90 270q-93 96 -254 96q-162 0 -252 -96q-92 -95 -92 -270z" />
<glyph unicode="&#x2026;" horiz-adv-x="1630" d="M70 168q0 -85 55 -137q51 -51 147 -51q97 0 148 51q53 53 53 137t-53 137q-52 49 -148 49q-95 0 -147 -49q-55 -52 -55 -137zM614 168q0 -83 54 -137q51 -51 147 -51q97 0 148 51q53 53 53 137t-53 137q-52 49 -148 49q-95 0 -147 -49q-54 -54 -54 -137zM1157 168 q0 -84 53 -137q51 -51 150 -51q96 0 147 51q54 54 54 137t-54 137q-55 49 -147 49q-98 0 -150 -49q-53 -53 -53 -137z" />
<glyph unicode="&#x202f;" horiz-adv-x="392" />
<glyph unicode="&#x2039;" horiz-adv-x="782" d="M51 580q0 -74 55 -138l259 -268h389l-377 406l377 403h-389l-259 -272q-55 -61 -55 -131z" />
<glyph unicode="&#x203a;" horiz-adv-x="782" d="M29 174h389l258 268q55 64 55 138q0 70 -55 131l-258 272h-389l377 -403z" />
<glyph unicode="&#x205f;" horiz-adv-x="490" />
<glyph unicode="&#x20ac;" d="M47 487h135q15 -237 166 -370q149 -131 381 -131q142 0 336 57l86 25l-41 292l-92 -28q-152 -47 -244 -47q-95 0 -149 51q-57 51 -66 151h350v222h-356v112h356v221h-348q9 97 64 146t149 49q89 0 244 -47l92 -29l41 293l-96 31q-174 53 -326 53q-229 0 -379 -129 q-150 -132 -168 -367h-135v-221h129v-112h-129v-222z" />
<glyph unicode="&#x2122;" horiz-adv-x="1912" d="M70 1327h227v-663h262v663h225v197h-714v-197zM860 664h227v526l115 -445q21 -88 133 -88q107 0 131 88l121 445v-526h232v716q0 70 -50 111t-131 41q-167 0 -204 -137l-93 -342l-86 340q-37 141 -202 141q-89 0 -142 -41q-51 -42 -51 -117v-712z" />
<glyph unicode="&#x25fc;" horiz-adv-x="1126" d="M0 0v1126h1126v-1126h-1126z" />
<glyph unicode="&#xfb01;" horiz-adv-x="1425" d="M31 858h147v-858h361v858h426v-858h364v1126h-790v33q0 74 30 101q29 26 105 26q67 0 186 -35l41 265q-170 51 -303 51q-202 0 -309 -94q-111 -95 -111 -283v-64h-147v-268zM946 1405q0 -84 53 -131q52 -49 150 -49q95 0 147 49q54 48 54 131q0 78 -54 129 q-56 47 -147 47q-97 0 -150 -47t-53 -129z" />
<glyph unicode="&#xfb02;" horiz-adv-x="1435" d="M31 858h147v-858h361v858h307v268h-307v33q0 74 39 103q38 30 129 30q114 0 256 -32v-1260h378v1589l-376 -65q-186 49 -344 49q-210 0 -326 -96q-117 -99 -117 -287v-64h-147v-268z" />
</font>
</defs>
</svg>
