<?xml version="1.0" encoding="UTF-8"?><svg id="uuid-08d0e355-a9b6-42eb-9e70-d09b8a801202" xmlns="http://www.w3.org/2000/svg" viewBox="0 0 180.87 85.39"><g id="uuid-7e970133-a4bb-4263-9d6e-ecbe4892be57"><g id="uuid-e27fff89-b50b-4252-8946-55bafe49b62a"><path d="M0,73.13c0-9.84,3.97-12.16,11.29-12.16,4.42,0,5.74.42,6.93.61l-.97,5.32c-2.26-.32-3.51-.48-6.03-.48-3.81,0-4.61,1.68-4.61,5.71v1.87c0,3.93.77,6.03,4.68,6.03,3.48,0,5.26-.55,5.96-.68l.97,5.22c-1.13.26-2.58.71-7,.71-7.48,0-11.22-2.32-11.22-12.16" style="fill:#525c61;"/><path d="M18.62,73.13c0-10.42,4.61-12.26,11.71-12.26s11.64,1.77,11.64,12.19-4.58,12.32-11.71,12.32-11.64-1.84-11.64-12.26M35.35,74.07v-1.87c0-4.48-1.13-5.97-5.09-5.97s-5.03,1.42-5.03,5.9v1.87c0,4.48,1.16,6.16,5.1,6.16s5.03-1.61,5.03-6.1Z" style="fill:#525c61;"/><polygon points="43.89 61.27 50.24 61.27 59.02 73.52 59.02 61.27 65.08 61.27 65.08 85 59.73 85 49.95 71.17 49.95 85 43.89 85 43.89 61.27" style="fill:#525c61;"/><path d="M67.16,84.49l.97-5.22c.77.2,5.8.81,7.97.81,3,0,3.52-.32,3.52-1.97s-.45-1.71-4.16-2.39c-6.87-1.22-8.38-2.23-8.38-7.74s3.45-7.03,9.13-7.03c2.74,0,7.58.48,8.77.87l-.97,5.26c-1.97-.29-4.96-.74-7.84-.74-2.29,0-2.74.48-2.74,1.77,0,1.61.45,1.71,3.74,2.29,7.35,1.32,8.9,2.1,8.9,7.77,0,5.36-2.93,7.16-10.03,7.16-4.16,0-7.87-.61-8.87-.84" style="fill:#525c61;"/><rect x="87.87" y="61.27" width="6.35" height="23.74" style="fill:#525c61;"/><path d="M96.18,73.13c0-9.84,3.97-12.16,11.29-12.16,4.42,0,6.77.39,7.9.68l-.8,5.39c-2.29-.35-4.65-.61-7.16-.61-3.81,0-4.61,1.68-4.61,5.71v1.87c0,3.93.55,6.22,5.1,6.22.68,0,1.87-.03,2.42-.13v-7.8h5.84v12.09c-1.13.32-4.32.9-8.74.9-7.48,0-11.22-2.32-11.22-12.16" style="fill:#525c61;"/><path d="M160.91,73.13c0-9.84,3.97-12.16,11.29-12.16,4.42,0,6.77.39,7.9.68l-.81,5.39c-2.29-.35-4.64-.61-7.16-.61-3.81,0-4.61,1.68-4.61,5.71v1.87c0,3.93.55,6.22,5.09,6.22.68,0,1.87-.03,2.42-.13v-7.8h5.84v12.09c-1.13.32-4.32.9-8.74.9-7.48,0-11.22-2.32-11.22-12.16" style="fill:#f3c360;"/><polygon points="118.85 61.27 125.17 61.27 125.17 79.71 135.85 79.71 135.85 85 118.85 85 118.85 61.27" style="fill:#f3c360;"/><path d="M136.38,73.13c0-10.42,4.61-12.26,11.71-12.26s11.64,1.77,11.64,12.19-4.58,12.32-11.71,12.32-11.64-1.84-11.64-12.26M153.12,74.07v-1.87c0-4.48-1.13-5.97-5.1-5.97s-5.03,1.42-5.03,5.9v1.87c0,4.48,1.16,6.16,5.1,6.16s5.03-1.61,5.03-6.1Z" style="fill:#f3c360;"/><path d="M86.52,7.14c-4.61-4.61-10.73-7.14-17.25-7.14s-12.64,2.54-17.25,7.14c-4.61,4.61-7.15,10.74-7.15,17.25s2.54,12.65,7.15,17.25c4.76,4.76,11,7.14,17.25,7.14s12.5-2.38,17.25-7.14l14.06-14.05c1.28,5.54,6.24,9.69,12.17,9.69,6.89,0,12.5-5.6,12.5-12.5s-5.61-12.5-12.5-12.5c-3.3,0-6.3,1.29-8.53,3.39l-.05-.05-21.83,21.83c-7.21,7.21-18.93,7.2-26.13,0-3.49-3.49-5.41-8.13-5.41-13.06s1.92-9.57,5.41-13.07c3.49-3.49,8.13-5.41,13.07-5.41s9.58,1.92,13.07,5.41l4.19-4.19ZM112.75,18.22c3.62,0,6.57,2.95,6.57,6.57s-2.95,6.57-6.57,6.57-6.57-2.95-6.57-6.57,2.95-6.57,6.57-6.57Z" style="fill:#f3c360;"/><path d="M95.1,41.66c4.76,4.75,11.01,7.13,17.25,7.13s12.5-2.38,17.25-7.14c9.52-9.51,9.52-24.99,0-34.51-9.51-9.51-24.99-9.51-34.51,0l-14.05,14.05c-1.28-5.54-6.24-9.69-12.17-9.69-6.89,0-12.5,5.61-12.5,12.5s5.6,12.5,12.5,12.5c3.3,0,6.3-1.3,8.54-3.39l.05.05,21.83-21.83c7.2-7.2,18.93-7.2,26.13,0,7.2,7.2,7.2,18.93,0,26.13-7.21,7.2-18.93,7.2-26.13,0l-4.19,4.19ZM68.87,30.58c-3.62,0-6.57-2.95-6.57-6.57s2.95-6.58,6.57-6.58,6.58,2.95,6.58,6.58-2.95,6.57-6.58,6.57Z" style="fill:#525c61;"/></g></g></svg>