<?xml version="1.0" encoding="UTF-8"?>
<svg id="Camada_2" data-name="Camada 2" xmlns="http://www.w3.org/2000/svg" viewBox="0 0 64 25.45">
  <defs>
    <style>
      .cls-1 {
        fill: #fabe69;
      }
    </style>
  </defs>
  <g id="Camada_1-2" data-name="Camada 1">
    <path class="cls-1" d="M0,25.45v-.95c0-2.62,1.32-4.33,3.96-5.13,2.64-.8,4.96-1.2,6.95-1.2s4.3.4,6.95,1.2c2.64.8,3.96,2.51,3.96,5.13v.95H0ZM10.91,14.18c-1.5,0-2.78-.53-3.85-1.6-1.07-1.07-1.6-2.35-1.6-3.85s.53-2.78,1.6-3.85c1.07-1.07,2.35-1.6,3.85-1.6s2.78.53,3.85,1.6c1.07,1.07,1.6,2.35,1.6,3.85s-.53,2.78-1.6,3.85c-1.07,1.07-2.35,1.6-3.85,1.6ZM26.11,18.47c-.53,0-.97-.17-1.31-.51s-.51-.76-.51-1.28c0-.26.17-.7.51-1.34.39-.53.69-1.09.91-1.67s.33-1.19.33-1.82-.11-1.25-.33-1.85-.52-1.15-.91-1.63c-.15-.2-.27-.41-.37-.63-.09-.22-.14-.45-.14-.69,0-.52.17-.95.51-1.29.34-.34.78-.51,1.3-.51.24,0,.48.04.73.11s.44.21.58.4c.82.87,1.43,1.84,1.82,2.89.39,1.05.58,2.13.58,3.24s-.21,2.19-.62,3.26c-.41,1.07-1.01,2.01-1.78,2.84-.19.19-.4.33-.61.4-.21.07-.44.11-.7.11ZM31.37,23.71c-.55,0-.99-.17-1.33-.51-.34-.34-.51-.78-.51-1.3,0-.24.05-.47.14-.69.09-.22.22-.42.37-.62,1.16-1.41,2.02-2.84,2.58-4.3.56-1.46.84-2.94.84-4.44s-.28-2.99-.84-4.47c-.56-1.48-1.42-2.9-2.58-4.25-.15-.21-.27-.41-.37-.62-.09-.21-.14-.43-.14-.68,0-.54.17-.98.52-1.32.35-.34.78-.51,1.31-.51.28,0,.55.07.79.2.24.13.46.31.66.53,1.45,1.75,2.55,3.55,3.27,5.41s1.09,3.76,1.09,5.71-.36,3.85-1.09,5.72c-.73,1.87-1.82,3.67-3.27,5.42-.19.24-.41.42-.64.55-.23.12-.5.18-.79.18ZM42.18,25.45v-.95c0-2.62,1.32-4.33,3.96-5.13,2.64-.8,4.96-1.2,6.95-1.2s4.3.4,6.95,1.2,3.96,2.51,3.96,5.13v.95h-21.82ZM53.09,14.18c-1.5,0-2.78-.53-3.85-1.6-1.07-1.07-1.6-2.35-1.6-3.85s.53-2.78,1.6-3.85c1.07-1.07,2.35-1.6,3.85-1.6s2.78.53,3.85,1.6c1.07,1.07,1.6,2.35,1.6,3.85s-.53,2.78-1.6,3.85c-1.07,1.07-2.35,1.6-3.85,1.6Z"/>
  </g>
</svg>