<svg width="216" height="102" viewBox="0 0 216 102" fill="none" xmlns="http://www.w3.org/2000/svg">
<path d="M141.777 73.1882H149.289V95.2152H161.985V101.534H141.777V73.1882Z" fill="#F3C360"/>
<path d="M162.615 87.3553C162.615 74.9084 168.095 72.7104 176.534 72.7104C184.974 72.7104 190.371 74.8247 190.371 87.2716C190.371 99.7185 184.927 101.988 176.451 101.988C167.976 101.988 162.615 99.7902 162.615 87.3433M182.514 88.4781V86.2444C182.514 80.8929 181.17 79.1131 176.451 79.1131C171.732 79.1131 170.472 80.8093 170.472 86.1607V88.3945C170.472 93.7459 171.851 95.7527 176.534 95.7527C181.218 95.7527 182.514 93.8295 182.514 88.4662V88.4781Z" fill="#F3C360"/>
<path d="M191.774 87.3552C191.774 75.6011 196.493 72.8298 205.194 72.8298C210.448 72.8298 213.242 73.2957 214.585 73.6421L213.622 80.0806C210.9 79.6625 208.106 79.3519 205.111 79.3519C200.582 79.3519 199.631 81.3587 199.631 86.1726V88.4064C199.631 93.1008 200.285 95.8363 205.681 95.8363C206.49 95.8363 207.904 95.8004 208.558 95.681V86.3637H215.5V100.805C214.157 101.188 210.365 101.881 205.111 101.881C196.219 101.881 191.774 99.1093 191.774 87.3552Z" fill="#F3C360"/>
<path d="M0.5 87.3552C0.5 75.6011 5.21914 72.8298 13.9204 72.8298C19.1745 72.8298 20.7435 73.3315 22.1581 73.5585L21.0051 79.9133C18.3186 79.5311 16.8327 79.34 13.8372 79.34C9.30826 79.34 8.3573 81.3468 8.3573 86.1607V88.3944C8.3573 93.0889 9.2726 95.5974 13.9204 95.5974C18.0571 95.5974 20.173 94.9404 21.0051 94.7851L22.1581 101.02C20.8149 101.331 19.0913 101.869 13.8372 101.869C4.94573 101.869 0.5 99.0973 0.5 87.3432" fill="white"/>
<path d="M22.6336 87.3553C22.6336 74.9084 28.1135 72.7104 36.5532 72.7104C44.993 72.7104 50.3897 74.8247 50.3897 87.2716C50.3897 99.7185 44.9455 101.988 36.47 101.988C27.9946 101.988 22.6336 99.7902 22.6336 87.3433M42.5205 88.4781V86.2444C42.5205 80.8929 41.1773 79.1131 36.47 79.1131C31.7628 79.1131 30.4909 80.8093 30.4909 86.1607V88.3945C30.4909 93.7459 31.8698 95.7527 36.5532 95.7527C41.2367 95.7527 42.5324 93.8295 42.5324 88.4662L42.5205 88.4781Z" fill="white"/>
<path d="M52.672 73.1882H60.2202L70.657 87.8211V73.1882H77.8605V101.534H71.501L59.8755 85.014V101.534H52.672V73.1882Z" fill="white"/>
<path d="M80.333 100.925L81.4861 94.6895C82.4014 94.9284 88.3805 95.6571 90.96 95.6571C94.5261 95.6571 95.1442 95.2748 95.1442 93.3039C95.1442 91.3329 94.6093 91.2612 90.1992 90.449C82.0329 88.9916 80.2379 87.7852 80.2379 81.2034C80.2379 74.6216 84.339 72.8059 91.0908 72.8059C94.3478 72.8059 100.101 73.3793 101.516 73.8451L100.363 80.1283C98.0209 79.7819 94.4667 79.2444 91.0432 79.2444C88.3211 79.2444 87.7862 79.8177 87.7862 81.3587C87.7862 83.2818 88.3211 83.4013 92.2319 84.0941C100.969 85.6709 102.811 86.6026 102.811 93.3755C102.811 99.7781 99.3285 101.928 90.8887 101.928C85.9437 101.928 81.5336 101.2 80.3449 100.925" fill="white"/>
<path d="M112.499 73.1882H104.951V101.546H112.499V73.1882Z" fill="white"/>
<path d="M114.829 87.3552C114.829 75.6011 119.548 72.8298 128.25 72.8298C133.504 72.8298 136.297 73.2957 137.64 73.6421L136.689 80.0806C133.967 79.6625 131.162 79.3519 128.178 79.3519C123.649 79.3519 122.698 81.3587 122.698 86.1726V88.4064C122.698 93.1008 123.352 95.8363 128.761 95.8363C129.569 95.8363 130.984 95.8004 131.637 95.681V86.3637H138.579V100.805C137.236 101.188 133.444 101.881 128.19 101.881C119.299 101.881 114.853 99.1093 114.853 87.3552" fill="white"/>
<path d="M103.346 8.52887C97.8664 3.02213 90.5915 0 82.8412 0C75.0909 0 67.816 3.03408 62.3361 8.52887C56.8562 14.0356 53.8369 21.358 53.8369 29.1343C53.8369 36.9106 56.8562 44.245 62.3361 49.7398C67.9944 55.4257 75.4118 58.2687 82.8412 58.2687C90.2706 58.2687 97.6999 55.4257 103.346 49.7398L120.059 32.9568C121.581 39.5744 127.477 44.5317 134.526 44.5317C142.716 44.5317 149.385 37.8424 149.385 29.6002C149.385 21.358 142.716 14.6687 134.526 14.6687C130.603 14.6687 127.037 16.2096 124.386 18.7181L124.327 18.6584L98.3775 44.7347C89.807 53.3472 75.8754 53.3353 67.3168 44.7347C63.1682 40.5659 60.8859 35.0233 60.8859 29.1343C60.8859 23.2453 63.1682 17.7028 67.3168 13.522C71.4654 9.35309 76.9809 7.05961 82.8531 7.05961C88.7253 7.05961 94.2408 9.35309 98.3894 13.522L103.37 8.51692L103.346 8.52887ZM134.526 21.7641C138.829 21.7641 142.336 25.288 142.336 29.6121C142.336 33.9363 138.829 37.4601 134.526 37.4601C130.223 37.4601 126.716 33.9363 126.716 29.6121C126.716 25.288 130.223 21.7641 134.526 21.7641Z" fill="#F3C360"/>
<path d="M113.545 49.7637C119.204 55.4377 126.633 58.2807 134.05 58.2807C141.468 58.2807 148.909 55.4377 154.555 49.7518C165.872 38.3919 165.872 19.9008 154.555 8.52894C143.251 -2.83094 124.85 -2.83094 113.533 8.52894L96.8322 25.3119C95.3107 18.6943 89.4147 13.737 82.3657 13.737C74.1756 13.737 67.507 20.4383 67.507 28.6685C67.507 36.8988 74.1637 43.6 82.3657 43.6C86.2884 43.6 89.8545 42.0472 92.5172 39.5506L92.5767 39.6103L118.526 13.534C127.085 4.93344 141.028 4.93344 149.587 13.534C158.145 22.1345 158.145 36.1462 149.587 44.7468C141.016 53.3473 127.085 53.3473 118.526 44.7468L113.545 49.7518V49.7637ZM82.3657 36.5285C78.0626 36.5285 74.556 33.0046 74.556 28.6805C74.556 24.3563 78.0626 20.8205 82.3657 20.8205C86.6688 20.8205 90.1874 24.3444 90.1874 28.6805C90.1874 33.0166 86.6807 36.5285 82.3657 36.5285Z" fill="white"/>
</svg>
