<svg xmlns="http://www.w3.org/2000/svg" data-name="Camada 2" viewBox="0 0 91.87 48.79"><path fill="#f3c360" d="M41.65 7.14C37.04 2.53 30.92 0 24.4 0S11.76 2.54 7.15 7.14C2.54 11.75 0 17.88 0 24.39s2.54 12.65 7.15 17.25c4.76 4.76 11 7.14 17.25 7.14s12.5-2.38 17.25-7.14l14.06-14.05c1.28 5.54 6.24 9.69 12.17 9.69 6.89 0 12.5-5.6 12.5-12.5s-5.61-12.5-12.5-12.5c-3.3 0-6.3 1.29-8.53 3.39l-.05-.05-21.83 21.83c-7.21 7.21-18.93 7.2-26.13 0-3.49-3.49-5.41-8.13-5.41-13.06s1.92-9.57 5.41-13.07c3.49-3.49 8.13-5.41 13.07-5.41s9.58 1.92 13.07 5.41l4.19-4.19h-.02Zm26.23 11.08c3.62 0 6.57 2.95 6.57 6.57s-2.95 6.57-6.57 6.57-6.57-2.95-6.57-6.57 2.95-6.57 6.57-6.57Z"/><path fill="#525c61" d="M50.23 41.66c4.76 4.75 11.01 7.13 17.25 7.13s12.5-2.38 17.25-7.14c9.52-9.51 9.52-24.99 0-34.51-9.51-9.51-24.99-9.51-34.51 0L36.17 21.19C34.89 15.65 29.93 11.5 24 11.5c-6.89 0-12.5 5.61-12.5 12.5S17.1 36.5 24 36.5c3.3 0 6.3-1.3 8.54-3.39l.05.05 21.83-21.83c7.2-7.2 18.93-7.2 26.13 0 7.2 7.2 7.2 18.93 0 26.13-7.21 7.2-18.93 7.2-26.13 0l-4.19 4.19ZM24 30.58c-3.62 0-6.57-2.95-6.57-6.57s2.95-6.58 6.57-6.58 6.58 2.95 6.58 6.58-2.95 6.57-6.58 6.57Z"/></svg>