<?xml version="1.0" encoding="UTF-8"?>
<svg id="Camada_2" data-name="Camada 2" xmlns="http://www.w3.org/2000/svg" viewBox="0 0 64 57.78">
  <defs>
    <style>
      .cls-1 {
        fill: #fabe69;
      }
    </style>
  </defs>
  <g id="Camada_1-2" data-name="Camada 1">
    <path class="cls-1" d="M42.1,53.33h20.13v4.44h-22.22c-2.45,0-4.44-1.99-4.44-4.44v-22.22h4.44v17.51l7.08-9.91c.42-.58,1.09-.93,1.81-.93.44,0,.87.13,1.23.37l4.92,3.28,5.41-7.21,3.56,2.67-6.67,8.89c-.42.56-1.08.89-1.78.89-.44,0-.87-.13-1.23-.37l-4.88-3.25-7.35,10.29ZM0,46.67h31.11v-4.44H0v4.44ZM0,57.78h31.11v-4.44H0v4.44ZM15.56,15.56v-2.22c0-4.91-3.98-8.88-8.89-8.89h-2.22v2.22c0,4.91,3.98,8.88,8.89,8.89h2.22ZM24.44,8.89c-2.45,0-4.44,1.99-4.44,4.44v2.22h2.22c2.45,0,4.44-1.99,4.44-4.44v-2.22h-2.22ZM31.11,31.11v4.44H0v-4.44h15.56v-11.11h-2.22C5.97,19.99,0,14.03,0,6.67V0h6.67c4.86,0,9.33,2.65,11.67,6.9,1.64-1.57,3.83-2.46,6.1-2.46h6.67v6.67c0,4.91-3.98,8.88-8.89,8.89h-2.22v11.11h11.11Z"/>
  </g>
</svg>