<svg width="118" height="118" viewBox="0 0 118 118" fill="none" xmlns="http://www.w3.org/2000/svg">
<g clip-path="url(#clip0_54_106)">
<path fill-rule="evenodd" clip-rule="evenodd" d="M117.87 58.9267C117.87 91.4752 91.4919 117.853 58.9433 117.853C26.3948 117.853 0 91.4752 0 58.9267C0 26.3781 26.3781 0 58.9267 0C91.4752 0 117.853 26.3781 117.853 58.9267" fill="#131F2C"/>
<path d="M114.011 58.9267C114.011 89.3464 89.3464 114.011 58.9267 114.011C28.507 114.011 3.85858 89.3464 3.85858 58.9267C3.85858 28.5071 28.507 3.85864 58.9267 3.85864C89.3464 3.85864 114.011 28.5237 114.011 58.9434" fill="white"/>
<path d="M96.6311 58.9266C96.6311 79.7497 79.7498 96.631 58.9267 96.631C38.1036 96.631 21.2223 79.7497 21.2223 58.9266C21.2223 38.1035 38.1036 21.2222 58.9267 21.2222C79.7498 21.2222 96.6311 38.1035 96.6311 58.9266Z" fill="#131F2C"/>
<path d="M77.4546 56.9143C77.3215 57.5297 76.9057 58.1784 76.2571 58.4112C75.2093 58.8769 73.7956 58.7438 72.8309 58.2116C72.016 57.6461 71.9162 56.6981 71.8164 55.8C71.7332 54.0204 71.6168 52.1576 72.0991 50.5277C72.4817 49.5298 73.5627 49.2637 74.5274 49.1972C75.5419 49.1972 76.5398 49.3468 77.1719 50.1784C77.571 50.7606 77.5377 51.5422 77.6209 52.2408C77.5876 53.7044 77.7207 55.4507 77.4712 56.9476M83.625 49.5963C83.1593 48.3656 82.178 47.2512 81.0138 46.4695C77.6209 44.3074 72.4318 44.1577 68.9391 46.1036C67.0264 47.0849 65.779 49.0142 65.3799 50.9934C64.6647 54.2532 64.8476 58.1285 67.3591 60.5733C70.2863 63.1347 74.544 63.7168 78.3361 62.6523C78.519 62.6191 79.0845 62.4694 79.4837 62.2698L79.6001 62.2199C80.781 61.7376 81.8953 60.9393 82.7435 59.8582C84.6728 57.0308 84.8059 52.7896 83.6416 49.613L83.625 49.5963Z" fill="white"/>
<path d="M46.4694 58.5109C45.6046 58.461 44.6399 58.5275 43.8083 58.4277V49.4132L43.8915 49.3301H46.4861C46.5193 47.8332 46.536 46.2698 46.4528 44.9393L36.5901 44.906L34.9602 44.9393C34.9269 46.3031 34.9269 47.8997 34.9602 49.2802C35.8583 49.3134 36.6899 49.2802 37.5548 49.3633V58.461L34.9435 58.5109C34.8937 59.9412 34.8937 61.3383 34.9435 62.752H46.4694V58.5109Z" fill="white"/>
<path d="M65.7624 72.0826L64.5316 72.4651C64.3154 72.3653 64.1325 72.2157 63.9495 72.0493L63.9994 71.9662C65.6792 70.9849 67.1927 69.804 68.6231 68.3903C69.3216 68.6731 70.0035 69.0556 70.6355 69.488C69.1719 70.6523 67.4755 71.4173 65.7457 72.066M63.251 72.7978C60.4734 73.3965 57.3966 73.4131 54.619 72.7479C54.5691 72.6148 54.7521 72.5982 54.8352 72.515C57.2635 70.9516 61.0556 70.9516 63.4339 72.6481C63.5171 72.7978 63.3009 72.7479 63.251 72.7978ZM53.5546 72.4651C51.3592 71.8996 49.3135 70.9184 47.4341 69.5878V69.5047C48.0661 69.1221 48.6981 68.7063 49.3634 68.4236C50.8602 69.8872 52.3904 71.0015 54.0702 72.0493C53.9371 72.199 53.7209 72.3653 53.5546 72.4651ZM50.1783 68.0743C51.1929 67.592 52.2739 67.2261 53.3716 66.9434L53.4714 66.9766C54.2199 68.3903 55.1679 69.7209 56.1159 71.0681C55.75 71.2676 55.3009 71.4007 54.935 71.6003C53.2053 70.752 51.5588 69.5712 50.1783 68.1575V68.0743ZM54.3862 66.6772C55.75 66.4278 57.1637 66.2116 58.6273 66.2116L58.6606 70.5525C58.1117 70.6855 57.513 70.6855 56.9808 70.8019C55.9163 69.5379 55.0182 68.1741 54.2698 66.7604L54.4028 66.6606L54.3862 66.6772ZM59.4423 66.2116C60.9391 66.2448 62.4194 66.3945 63.8164 66.7271L63.8497 66.8103C63.1179 68.1907 62.2032 69.5379 61.2052 70.7853C60.7562 70.8352 60.3404 70.6523 59.8913 70.6356L59.4423 70.5857C59.3924 69.0722 59.3591 67.7417 59.4423 66.2116ZM64.5815 66.9932L64.6647 66.9434C65.7956 67.1928 66.8601 67.5587 67.858 68.0411C67.0264 68.9891 65.9453 69.8207 64.9641 70.5026C64.3653 70.8685 63.7666 71.251 63.1345 71.5504L62.0202 71.0681L62.1034 70.8851C63.0514 69.6211 63.883 68.3404 64.6148 66.9766L64.5815 66.9932ZM75.492 64.6814C74.3943 66.2448 73.0139 67.7583 71.5004 68.9392C71.4505 69.0223 71.2842 68.9891 71.2343 68.9225C70.5856 68.5067 69.8704 68.1741 69.2384 67.7749C70.07 66.777 70.885 65.7791 71.517 64.6648H70.702C70.0534 65.6128 69.3715 66.6273 68.5066 67.4589C67.359 66.9933 66.3112 66.5774 65.1304 66.2781L64.9973 66.1783C65.1803 65.6627 65.5129 65.1804 65.6293 64.6648H64.9308L64.2322 66.0452C62.6855 65.7126 60.989 65.5296 59.4256 65.4299C59.3425 65.197 59.4589 64.8644 59.3425 64.6648H58.6606C58.6107 64.9808 58.7437 65.2136 58.5774 65.4631C56.9641 65.5296 55.3841 65.7126 53.8706 66.0286L53.1554 64.6648C52.8893 64.6648 52.6066 64.6149 52.4236 64.6981L53.0723 66.2116L52.9891 66.2781C51.8082 66.6107 50.6607 67.0265 49.5463 67.4922L49.4465 67.4423C48.7147 66.644 47.9996 65.7791 47.4341 64.8976C47.301 64.4652 46.7854 64.7147 46.4861 64.6648C47.1181 65.7958 47.9497 66.7937 48.7812 67.8248C48.0827 68.2406 47.3675 68.6897 46.6357 69.039C45.0723 67.8581 43.6087 66.3113 42.511 64.6981C42.195 64.6482 41.9954 64.6648 41.6794 64.6981C43.5588 67.6253 46.4861 70.2032 49.5463 71.7167C49.5463 71.7167 49.5463 71.7001 49.5796 71.7001C49.5962 71.7001 49.6627 71.75 49.5962 71.7832C51.6586 72.7811 53.854 73.4963 56.1824 73.8123C64.2156 74.8601 71.8663 71.4506 76.3236 64.7147C76.0908 64.6814 75.7415 64.6814 75.492 64.7147V64.6814Z" fill="white"/>
<path d="M47.3343 38.1534C48.9808 36.9393 50.8103 36.0412 52.7563 35.4258C52.8394 35.3426 52.8893 35.2761 52.9891 35.2761V35.326C53.2053 35.3759 53.355 35.1431 53.538 35.2927C53.6876 35.4258 53.8872 35.5256 54.0037 35.6586C52.3904 36.6566 50.7937 37.8374 49.3301 39.2844C48.6316 39.0349 47.9663 38.6524 47.3343 38.2033V38.1534ZM63.2842 34.9767V35.0266C61.0057 36.6732 57.33 36.8229 54.9184 35.3094C54.7853 35.2096 54.5192 35.1597 54.5026 34.9767C57.2801 34.3447 60.54 34.2782 63.2842 34.9767ZM64.332 35.2262C66.5274 35.7917 68.5898 36.773 70.4692 38.1035L70.4193 38.2033L68.6231 39.2012H68.49C67.1096 37.8208 65.4796 36.6067 63.8331 35.6586C63.883 35.4757 64.1491 35.3426 64.332 35.2262ZM67.675 39.617C66.6605 40.0495 65.6127 40.4652 64.4817 40.6981C63.6668 39.3343 62.7853 37.9705 61.7874 36.6566C62.1533 36.457 62.6023 36.3073 62.9849 36.0911C64.6813 36.9393 66.3279 38.1368 67.7249 39.5339L67.675 39.617ZM59.3258 41.4299C59.2759 40.0661 59.2926 38.5526 59.3258 37.1389C59.8414 37.0557 60.4235 36.9892 60.9391 36.906C61.9537 38.1867 62.9516 39.5006 63.6335 40.9143C62.2198 41.2469 60.7894 41.4299 59.3092 41.4299H59.3258ZM58.5275 41.3966C57.7957 41.4964 57.1471 41.38 56.4153 41.3135C55.7167 41.2137 54.8186 41.1305 54.1201 40.8977C54.8851 39.484 55.7666 38.1202 56.8477 36.8728L58.5275 37.1056C58.6107 38.4362 58.5441 39.9829 58.5441 41.3966H58.5275ZM53.3217 40.6981H53.222C52.1575 40.4486 51.1097 40.0993 50.1118 39.6669L50.1617 39.5172C51.6087 38.1534 53.1222 37.0225 54.7853 36.1576C55.1845 36.3073 55.567 36.4403 55.9662 36.6233L55.883 36.8229C54.8851 38.0536 54.1034 39.4008 53.3217 40.7147V40.6981ZM42.4611 42.96C43.0932 42.0785 43.7917 41.2469 44.5734 40.4154C45.2553 39.7667 45.8873 39.1513 46.6191 38.6856C47.301 39.1181 48.0661 39.484 48.7147 39.8998C47.8998 40.8977 47.0682 41.8956 46.4694 42.9767C46.6524 43.0598 46.985 43.0266 47.2511 42.9767C47.8998 42.0286 48.6149 41.0806 49.4465 40.2324C50.5609 40.6482 51.6752 41.0806 52.8228 41.3966L52.9226 41.4964L52.2739 42.9933C52.5567 43.0432 52.7396 43.0266 53.039 42.9933C53.2718 42.5609 53.4548 42.0785 53.7209 41.6295C55.2344 41.9621 56.8311 42.1451 58.461 42.195C58.6772 42.3779 58.5109 42.7604 58.594 42.9933H59.2926C59.3757 42.7438 59.276 42.4611 59.3757 42.2282C60.8892 42.1451 62.4859 41.9954 63.9495 41.6295L64.0826 41.6627L64.7811 42.9933C65.0139 42.9933 65.3299 43.0432 65.5129 42.9434L64.8643 41.4632L64.9141 41.4133C66.1116 41.0973 67.2426 40.6482 68.3902 40.1825C69.2052 41.0307 69.9536 42.0286 70.6355 43.0099C70.9183 43.0099 71.2176 43.0432 71.4172 42.96C71.1012 42.3945 70.702 41.8291 70.2862 41.3467C69.937 40.8644 69.5877 40.432 69.1386 39.9663V39.8332L70.9681 38.7854L71.2343 38.6856C72.8309 39.8998 74.2446 41.3634 75.359 42.9767C75.675 42.9767 75.9411 43.0765 76.1906 42.96C72.6812 37.721 66.91 34.3447 60.6564 33.8624L60.6231 33.9123L60.5732 33.8624C59.8747 33.7792 59.0098 33.7626 58.2448 33.8291C57.962 33.8125 57.6128 33.8291 57.2801 33.8624C51.0099 34.3447 45.222 37.5547 41.6129 43.0266C41.879 42.9933 42.195 43.1097 42.4445 42.9933L42.4611 42.96Z" fill="white"/>
<path d="M58.5442 58.7104C56.0826 59.3757 53.4215 58.8767 51.6419 57.0139C51.4424 56.7645 51.3093 56.4485 51.0931 56.199L47.5671 56.2322C47.5172 58.3112 47.484 60.7062 47.5671 62.7519L51.4922 62.7187L51.5421 61.4879C51.9912 61.6875 52.4403 61.9536 52.8727 62.1865C55.6003 63.3174 59.093 63.5835 61.7874 62.1865C63.7499 61.1054 64.7977 59.0264 64.515 56.7811C64.2323 54.6023 62.1366 52.6231 60.0244 52.0743L53.6877 50.2448L53.222 50.0119C53.0058 49.829 52.8727 49.6128 52.9392 49.3134C53.4382 48.4652 54.5858 48.7313 55.4506 48.7479C57.2801 48.9974 59.1595 49.6294 60.2406 51.2926C61.3882 51.2926 62.7188 51.3092 63.9828 51.2593C64.0327 49.1471 63.9661 47.3009 63.9329 45.1721C62.752 45.1388 61.3217 45.1388 60.1408 45.2053C60.0909 45.5047 60.1907 45.9538 60.0577 46.2531L58.8602 45.6045C55.9829 44.3904 51.9579 44.2739 49.3467 46.1533C47.6503 47.3841 47.1181 49.5961 47.5671 51.5421C47.8998 53.3882 49.6794 54.752 51.3925 55.4007C53.7209 56.2156 56.1492 56.8144 58.5109 57.6127C58.7437 57.7125 59.0597 57.9453 59.0099 58.2281C59.0099 58.4609 58.777 58.594 58.5941 58.6771" fill="white"/>
<path fill-rule="evenodd" clip-rule="evenodd" d="M29.8542 25.1473L30.8687 26.1618C32.0829 27.3926 32.033 28.8229 30.6026 30.22C29.1723 31.6337 27.7419 31.667 26.5278 30.4362L22.5861 26.4446C21.3719 25.2138 21.4218 23.7835 22.8355 22.3864C24.2659 20.9727 25.6962 20.9394 26.9104 22.1702L27.6422 22.9186L26.2783 24.2824L25.4634 23.4675C24.9145 22.9186 24.4322 23.0018 23.9665 23.4675C23.5008 23.9165 23.4177 24.4155 23.9665 24.9644L28.058 29.1057C28.6068 29.6545 29.0891 29.5547 29.5382 29.1057C30.0039 28.6566 30.087 28.1577 29.5382 27.6255L28.4571 26.5277L29.8209 25.1639L29.8542 25.1473Z" fill="#131F2C"/>
<path fill-rule="evenodd" clip-rule="evenodd" d="M33.8126 19.5756L36.1909 18.0954L37.0059 19.4093L34.6275 20.8729L36.2907 23.5673L39.2845 21.7045L40.0994 23.0018L35.3593 25.9456L29.6879 16.7981L34.4113 13.8542L35.2263 15.1682L32.2325 17.0143L33.8126 19.5756Z" fill="#131F2C"/>
<path fill-rule="evenodd" clip-rule="evenodd" d="M42.1285 12.158L43.1929 15.3014L43.9414 15.0519C44.6566 14.8025 45.0058 14.4033 44.7397 13.5883L44.4071 12.5904C44.1576 11.8586 43.7584 11.6424 43.0599 11.8753L42.1285 12.1913V12.158ZM47.2012 20.1912C47.0016 19.9583 46.8852 19.8253 46.6025 18.9937L46.0536 17.397C45.7376 16.449 45.222 16.2328 44.3572 16.5322L43.6919 16.765L45.089 20.923L43.1597 21.5716L39.7169 11.3597L42.6275 10.3784C44.6399 9.69649 45.7543 10.1788 46.2865 11.7588L46.5526 12.5572C46.9019 13.605 46.7355 14.4199 45.9871 15.0353V15.0686C47.0848 15.0686 47.6503 15.7339 48.0162 16.7983L48.5484 18.3783C48.7147 18.8773 48.8644 19.2265 49.1804 19.5425L47.2179 20.2078L47.2012 20.1912Z" fill="#131F2C"/>
<path fill-rule="evenodd" clip-rule="evenodd" d="M50.7105 8.26601L56.9974 7.65063L57.1471 9.18077L55.0182 9.38035L55.9329 18.5778L53.8872 18.7773L52.9891 9.59656L50.8602 9.79614L50.7105 8.26601Z" fill="#131F2C"/>
<path d="M62.2956 7.7959L61.3863 18.5349L63.4247 18.7075L64.334 7.9685L62.2956 7.7959Z" fill="#131F2C"/>
<path fill-rule="evenodd" clip-rule="evenodd" d="M70.8517 14.0372L73.3798 14.7358L72.9806 16.216L70.4359 15.5175L69.2551 19.8085L67.2925 19.2763L70.1366 8.88135L75.3423 10.3117L74.9432 11.7919L71.7 10.9104L70.8517 14.0372Z" fill="#131F2C"/>
<path d="M80.332 12.3683L75.6295 22.0657L77.4702 22.9583L82.1728 13.2609L80.332 12.3683Z" fill="#131F2C"/>
<path fill-rule="evenodd" clip-rule="evenodd" d="M86.2362 21.056L88.4815 22.7192L87.5667 23.9665L85.3214 22.2867L83.442 24.8314L86.2695 26.927L85.3547 28.1578L80.8807 24.848L87.3006 16.1995L91.7746 19.5092L90.8599 20.74L88.0158 18.6443L86.2362 21.056Z" fill="#131F2C"/>
<path fill-rule="evenodd" clip-rule="evenodd" d="M96.1987 26.062L90.3276 31.035L91.0761 31.9165C91.4919 32.4154 91.9576 32.5318 92.5397 32.0329L96.8141 28.4071C97.3962 27.9082 97.3629 27.4259 96.9471 26.9435L96.1987 26.062ZM96.049 23.5007L98.1446 25.9622C99.4585 27.5256 99.392 28.8895 98.0781 30.0038L93.9201 33.5297C92.6062 34.6441 91.2424 34.4944 89.9285 32.931L87.8329 30.4695L96.049 23.5007Z" fill="#131F2C"/>
<path fill-rule="evenodd" clip-rule="evenodd" d="M27.742 94.3026L26.5944 95.2839C25.2139 96.4648 23.717 96.3151 22.3532 94.7184C20.9728 93.1218 21.0393 91.6249 22.4198 90.4274L26.8771 86.5854C28.2575 85.4046 29.7544 85.5543 31.1182 87.1509C32.4987 88.7476 32.4321 90.2445 31.0517 91.4419L30.2201 92.1571L28.8895 90.627L29.8043 89.8287C30.4197 89.2964 30.3698 88.7809 29.9207 88.2486C29.4717 87.733 28.9561 87.6 28.3407 88.1322L23.7004 92.1239C23.085 92.6561 23.1516 93.1717 23.6006 93.6873C24.0497 94.2028 24.5486 94.3359 25.164 93.8037L26.3948 92.7392L27.7253 94.2694L27.742 94.3026Z" fill="#131F2C"/>
<path fill-rule="evenodd" clip-rule="evenodd" d="M32.798 100.523C32.349 101.205 32.5319 101.687 33.114 102.07C33.6795 102.452 34.2117 102.436 34.6608 101.754L38.0537 96.6477C38.5028 95.9658 38.3198 95.4834 37.7377 95.1009C37.1722 94.7184 36.64 94.735 36.1909 95.4169L32.798 100.506V100.523ZM34.3448 94.3358C35.3427 92.8223 36.8895 92.6061 38.6358 93.7704C40.3988 94.9346 40.7813 96.4315 39.7668 97.945L36.5069 102.851C35.509 104.365 33.9623 104.581 32.2159 103.417C30.4529 102.253 30.0704 100.756 31.0849 99.2422L34.3448 94.3358Z" fill="#131F2C"/>
<path fill-rule="evenodd" clip-rule="evenodd" d="M46.9185 106.427L46.9684 106.444L50.511 99.0759L53.3883 99.8743L50.3446 110.785L48.3987 110.253L50.5775 102.419L50.5276 102.402L46.9684 109.853L45.0058 109.305L45.6545 101.172L45.6046 101.155L43.4757 108.889L41.6628 108.373L44.6898 97.4626L47.5671 98.261L46.9185 106.427Z" fill="#131F2C"/>
<path fill-rule="evenodd" clip-rule="evenodd" d="M59.6418 101.621L59.7915 105.463L60.8061 105.429C61.488 105.413 61.8539 105.13 61.8206 104.315L61.7541 102.618C61.7208 101.804 61.3383 101.571 60.6564 101.587L59.6418 101.621ZM63.8996 102.652L63.9495 104.132C64.016 105.945 63.0015 106.976 60.856 107.059L59.8414 107.092L60.0077 111.35L57.8622 111.433L57.4464 100.107L60.6065 99.9906C62.752 99.9075 63.8497 100.855 63.9162 102.668L63.8996 102.652Z" fill="#131F2C"/>
<path fill-rule="evenodd" clip-rule="evenodd" d="M71.2675 106.028L73.2467 105.413L70.5523 100.257H70.5191L71.2675 106.045V106.028ZM77.0221 107.991L74.9598 108.639L73.9951 106.793L71.4837 107.591L71.7498 109.67L69.8704 110.269L68.5399 98.7932L71.5336 97.8452L77.0221 107.991Z" fill="#131F2C"/>
<path fill-rule="evenodd" clip-rule="evenodd" d="M80.099 97.0968L80.0824 97.1135L84.6728 103.916L83.0761 104.997L76.7228 95.6166L78.9514 94.1031L84.5564 98.5105L84.5896 98.4939L80.781 92.8723L82.361 91.7913L88.7143 101.188L86.8848 102.419L80.099 97.0968Z" fill="#131F2C"/>
<path fill-rule="evenodd" clip-rule="evenodd" d="M92.4399 92.3567L84.8724 89.5958L86.3194 87.8661L91.3255 89.9284L91.3422 89.8952L88.415 85.3547L89.7122 83.7747L93.8037 90.7101L96.6976 93.1051L95.3338 94.7517L92.4399 92.3567Z" fill="#131F2C"/>
<path d="M72.8143 83.1925H73.8954V83.3588C73.8954 83.7247 73.9452 84.0074 74.0617 84.1904C74.1615 84.3733 74.3278 84.4731 74.544 84.4731C74.7602 84.4731 74.9265 84.3567 75.0097 84.1405C75.1095 83.9243 75.1594 83.5584 75.1594 83.076C75.1594 82.627 75.1095 82.2943 74.9931 82.0947C74.8766 81.8952 74.7103 81.7954 74.4775 81.7954C74.3111 81.7954 74.1781 81.8453 74.0783 81.9284C73.9785 82.0282 73.912 82.1446 73.8954 82.2943H72.8808L73.0471 79.0179H76.0076V80.0158H73.912L73.8455 81.2798C73.9619 81.1634 74.0949 81.0636 74.228 81.0137C74.361 80.9638 74.5274 80.9305 74.7103 80.9305C75.2425 80.9305 75.6417 81.0968 75.9078 81.4461C76.1739 81.7954 76.307 82.311 76.307 82.9929C76.307 83.8078 76.1573 84.3899 75.8745 84.7725C75.5918 85.1384 75.1427 85.3213 74.5107 85.3213C73.9286 85.3213 73.5128 85.155 73.2301 84.839C72.964 84.523 72.8143 84.024 72.8143 83.3421V83.1758V83.1925ZM70.07 85.2049V80.7975H68.6896V80.049C69.2052 80.0324 69.6043 79.9326 69.8871 79.733C70.1698 79.5334 70.3528 79.2673 70.4027 78.9014H71.1677V85.2049H70.07ZM64.515 82.0615C64.515 81.3131 64.5316 80.7642 64.5815 80.3983C64.6314 80.0324 64.7146 79.7663 64.8144 79.5833C64.964 79.3339 65.147 79.1675 65.3632 79.0511C65.5794 78.9347 65.8788 78.8848 66.2281 78.8848C66.5773 78.8848 66.8601 78.9347 67.0929 79.0511C67.3091 79.1675 67.5087 79.3339 67.6418 79.5833C67.7582 79.7663 67.8414 80.0324 67.8746 80.3983C67.9245 80.7642 67.9411 81.3131 67.9411 82.0615C67.9411 82.8099 67.9245 83.392 67.8746 83.7413C67.8247 84.1072 67.7582 84.3733 67.6418 84.5563C67.4921 84.8224 67.3091 85.0053 67.0763 85.1217C66.8434 85.2382 66.5607 85.3047 66.2114 85.3047C65.8622 85.3047 65.5794 85.2382 65.3466 85.1217C65.1137 85.0053 64.9308 84.8057 64.7811 84.5563C64.6813 84.3733 64.5981 84.1072 64.5483 83.7579C64.4984 83.4087 64.4817 82.8432 64.4817 82.0449L64.515 82.0615ZM66.7936 82.627V80.9305C66.7936 80.4316 66.7603 80.1156 66.6771 79.9659C66.594 79.8162 66.4443 79.7497 66.2447 79.7497C66.0451 79.7497 65.8788 79.8162 65.8123 79.9659C65.7291 80.1156 65.6958 80.4482 65.6958 80.9638V83.259C65.6958 83.7579 65.7291 84.0739 65.8123 84.2236C65.8954 84.3733 66.0451 84.4398 66.2447 84.4398C66.4443 84.4398 66.6106 84.3733 66.6771 84.2236C66.7603 84.0739 66.7936 83.7413 66.7936 83.2091V82.6103V82.627ZM60.3404 85.2049C60.3404 85.2049 60.3404 85.155 60.3404 85.1051C60.3404 85.0552 60.3404 85.022 60.3404 85.0053C60.3404 84.523 60.4402 84.0573 60.6398 83.6249C60.8393 83.1758 61.1387 82.76 61.5379 82.3442C61.6044 82.2777 61.7208 82.1613 61.8705 82.0282C62.1366 81.7787 62.3196 81.5792 62.4027 81.4461C62.4859 81.3297 62.5358 81.1966 62.5857 81.0469C62.619 80.8973 62.6522 80.7476 62.6522 80.5646C62.6522 80.2985 62.6023 80.0989 62.5025 79.9825C62.4027 79.8494 62.2531 79.7829 62.0701 79.7829C61.8872 79.7829 61.7042 79.8661 61.621 80.0158C61.5212 80.1655 61.4714 80.4316 61.4714 80.7642C61.4714 80.8307 61.4714 80.8806 61.4714 80.9139C61.4714 80.9472 61.4714 80.9804 61.4714 81.0137H60.3737C60.3737 81.0137 60.3737 80.9471 60.3737 80.8973C60.3737 80.8474 60.3737 80.8141 60.3737 80.7975C60.3737 80.1488 60.5067 79.6665 60.7894 79.3671C61.0722 79.0678 61.5046 78.9181 62.1034 78.9181C62.6688 78.9181 63.0846 79.0511 63.384 79.3339C63.6834 79.6 63.8331 79.9991 63.8331 80.5147C63.8331 80.7642 63.7998 80.9804 63.7499 81.18C63.7 81.3796 63.6169 81.5792 63.5004 81.7621C63.4173 81.9118 63.2177 82.128 62.9183 82.444C62.7686 82.5937 62.6356 82.7268 62.5524 82.8265C61.9537 83.4918 61.621 83.9575 61.5379 84.2236H63.7499V85.2215H60.357L60.3404 85.2049ZM58.3279 85.2049V84.0739H59.3757V85.2049H58.3279ZM58.3279 81.6956V80.5646H59.3757V81.6956H58.3279ZM55.3009 85.2049V80.7975H53.9205V80.049C54.4361 80.0324 54.8352 79.9326 55.118 79.733C55.4007 79.5334 55.5837 79.2673 55.6336 78.9014H56.3986V85.2049H55.3009ZM49.7459 82.0615C49.7459 81.3131 49.7625 80.7642 49.8124 80.3983C49.8623 80.0324 49.9455 79.7663 50.0453 79.5833C50.195 79.3339 50.3779 79.1675 50.5941 79.0511C50.8103 78.9347 51.1097 78.8848 51.459 78.8848C51.8082 78.8848 52.091 78.9347 52.3238 79.0511C52.54 79.1675 52.7396 79.3339 52.8727 79.5833C52.9891 79.7663 53.0723 80.0324 53.1055 80.3983C53.1554 80.7642 53.1721 81.3131 53.1721 82.0615C53.1721 82.8099 53.1554 83.392 53.1055 83.7413C53.0556 84.1072 52.9891 84.3733 52.8727 84.5563C52.723 84.8224 52.54 85.0053 52.3072 85.1217C52.0744 85.2382 51.7916 85.3047 51.4423 85.3047C51.0931 85.3047 50.8103 85.2382 50.5775 85.1217C50.3446 85.0053 50.1617 84.8057 50.012 84.5563C49.9122 84.3733 49.8291 84.1072 49.7792 83.7579C49.7293 83.4087 49.7126 82.8432 49.7126 82.0449L49.7459 82.0615ZM52.0245 82.627V80.9305C52.0245 80.4316 51.9912 80.1156 51.908 79.9659C51.8249 79.8162 51.6752 79.7497 51.4756 79.7497C51.276 79.7497 51.1097 79.8162 51.0432 79.9659C50.96 80.1156 50.9268 80.4482 50.9268 80.9638V83.259C50.9268 83.7579 50.96 84.0739 51.0432 84.2236C51.1263 84.3733 51.276 84.4398 51.4756 84.4398C51.6752 84.4398 51.8415 84.3733 51.908 84.2236C51.9912 84.0739 52.0245 83.7413 52.0245 83.2091V82.6103V82.627ZM45.5713 82.0615C45.5713 81.3131 45.5879 80.7642 45.6378 80.3983C45.6877 80.0324 45.7709 79.7663 45.8707 79.5833C46.0204 79.3339 46.2033 79.1675 46.4195 79.0511C46.6357 78.9347 46.9351 78.8848 47.2844 78.8848C47.6336 78.8848 47.9164 78.9347 48.1492 79.0511C48.3654 79.1675 48.565 79.3339 48.6981 79.5833C48.8145 79.7663 48.8977 80.0324 48.9309 80.3983C48.9808 80.7642 48.9975 81.3131 48.9975 82.0615C48.9975 82.8099 48.9808 83.392 48.9309 83.7413C48.881 84.1072 48.8145 84.3733 48.6981 84.5563C48.5484 84.8224 48.3654 85.0053 48.1326 85.1217C47.8998 85.2382 47.617 85.3047 47.2677 85.3047C46.9185 85.3047 46.6357 85.2382 46.4029 85.1217C46.17 85.0053 45.9871 84.8057 45.8374 84.5563C45.7376 84.3733 45.6545 84.1072 45.6046 83.7579C45.5547 83.4087 45.538 82.8432 45.538 82.0449L45.5713 82.0615ZM47.8665 82.627V80.9305C47.8665 80.4316 47.8332 80.1156 47.7501 79.9659C47.6669 79.8162 47.5172 79.7497 47.3176 79.7497C47.1181 79.7497 46.9517 79.8162 46.8852 79.9659C46.8021 80.1156 46.7688 80.4482 46.7688 80.9638V83.259C46.7688 83.7579 46.8021 84.0739 46.8852 84.2236C46.9684 84.3733 47.1181 84.4398 47.3176 84.4398C47.5172 84.4398 47.6835 84.3733 47.7501 84.2236C47.8332 84.0739 47.8665 83.7413 47.8665 83.2091V82.6103V82.627ZM43.6919 81.0469C43.6919 80.548 43.642 80.232 43.5588 80.049C43.4757 79.8827 43.326 79.7829 43.1098 79.7829C42.8936 79.7829 42.7439 79.8661 42.6607 80.0158C42.5776 80.1821 42.5443 80.5147 42.5443 81.0303C42.5443 81.5459 42.5776 81.9118 42.6607 82.0615C42.7439 82.2112 42.8936 82.2943 43.1098 82.2943C43.326 82.2943 43.4757 82.2112 43.5588 82.0282C43.642 81.8619 43.6919 81.5293 43.6919 81.0303V81.0469ZM43.7085 82.8099C43.6254 82.9596 43.5089 83.0594 43.3593 83.1259C43.2096 83.1925 43.0266 83.2257 42.8104 83.2257C42.3281 83.2257 41.9788 83.0594 41.746 82.7434C41.5131 82.4274 41.3967 81.9284 41.3967 81.2465C41.3967 80.3983 41.5298 79.7829 41.7792 79.417C42.0453 79.0511 42.4611 78.8682 43.0765 78.8682C43.4424 78.8682 43.7252 78.9181 43.958 79.0345C44.1909 79.1509 44.3738 79.3172 44.5235 79.5667C44.6399 79.7497 44.7231 80.0324 44.773 80.3983C44.8229 80.7642 44.8395 81.3131 44.8395 82.0449C44.8395 82.7767 44.8229 83.3421 44.773 83.708C44.7231 84.0739 44.6565 84.34 44.5401 84.523C44.3904 84.7891 44.2075 84.9721 43.9746 85.0885C43.7418 85.2049 43.459 85.2714 43.1098 85.2714C42.5776 85.2714 42.1784 85.155 41.9123 84.9222C41.6462 84.6893 41.5131 84.3567 41.5131 83.891V83.8577H42.6108V83.9243C42.6108 84.0906 42.6607 84.207 42.7439 84.2902C42.827 84.3733 42.9435 84.4232 43.1098 84.4232C43.326 84.4232 43.4923 84.3234 43.5755 84.1405C43.6586 83.9575 43.7085 83.6082 43.7085 83.0927V82.76V82.8099Z" fill="white"/>
</g>
<defs>
<clipPath id="clip0_54_106">
<rect width="117.87" height="117.87" fill="white"/>
</clipPath>
</defs>
</svg>
