<?xml version="1.0" encoding="UTF-8"?>
<svg id="Camada_2" data-name="Camada 2" xmlns="http://www.w3.org/2000/svg" viewBox="0 0 64 58.11">
  <defs>
    <style>
      .cls-1 {
        fill: #fabe69;
      }
    </style>
  </defs>
  <g id="Camada_1-2" data-name="Camada 1">
    <path class="cls-1" d="M31.64,53.74c.24,0,.52-.06.84-.18.32-.12.57-.28.76-.47l24.51-24.58c.63-.63,1.1-1.35,1.42-2.15.32-.8.47-1.61.47-2.44s-.16-1.65-.47-2.47c-.32-.82-.79-1.55-1.42-2.18l-13.09-13.09c-.63-.63-1.36-1.1-2.18-1.42-.82-.32-1.65-.47-2.47-.47s-1.64.16-2.44.47c-.8.32-1.52.79-2.15,1.42l-1.31,1.31,5.89,5.96c.63.68,1.19,1.47,1.67,2.36.48.9.73,1.88.73,2.95,0,1.84-.72,3.47-2.15,4.87-1.43,1.41-3.07,2.11-4.91,2.11-1.21,0-2.22-.18-3.02-.55-.8-.36-1.54-.88-2.22-1.56l-5.31-5.31-13.16,13.16c-.24.24-.41.5-.51.76s-.15.55-.15.84c0,.63.21,1.15.62,1.56.41.41.93.62,1.56.62.29,0,.57-.07.84-.22.27-.15.5-.32.69-.51l8.51-8.51c.44-.44.95-.65,1.53-.65s1.09.22,1.53.65c.44.44.65.95.65,1.53s-.22,1.09-.65,1.53l-8.44,8.44c-.24.24-.41.51-.51.8s-.15.58-.15.87c0,.58.22,1.09.65,1.53.44.44.95.65,1.53.65.29,0,.57-.06.84-.18s.5-.28.69-.47l8.51-8.51c.44-.44.95-.65,1.53-.65s1.09.22,1.53.65.65.95.65,1.53-.22,1.09-.65,1.53l-8.44,8.44c-.19.19-.35.45-.47.76s-.18.62-.18.91c0,.58.22,1.09.65,1.53s.95.65,1.53.65c.29,0,.56-.05.8-.15s.48-.27.73-.51l8.51-8.51c.44-.44.95-.65,1.53-.65s1.09.22,1.53.65c.44.44.65.95.65,1.53s-.22,1.09-.65,1.53l-8.51,8.51c-.24.24-.41.51-.51.8s-.15.56-.15.8c0,.68.19,1.21.58,1.6s.92.58,1.6.58ZM31.64,58.11c-1.6,0-3.03-.59-4.29-1.78s-2.01-2.65-2.25-4.4c-1.65-.24-3.03-.92-4.15-2.04-1.12-1.12-1.79-2.5-2.04-4.15-1.65-.24-3.02-.93-4.11-2.07s-1.76-2.51-2-4.11c-1.79-.24-3.27-.97-4.44-2.18-1.16-1.21-1.75-2.67-1.75-4.36,0-.82.16-1.65.47-2.47s.79-1.55,1.42-2.18l13.24-13.24c.82-.82,1.84-1.24,3.05-1.24s2.23.41,3.05,1.24l4.95,4.95c.39.39.81.69,1.27.91.46.22.91.33,1.35.33.63,0,1.22-.28,1.78-.84s.84-1.15.84-1.78c0-.29-.08-.62-.25-.98s-.45-.74-.84-1.13l-10.4-10.4c-.63-.63-1.36-1.1-2.18-1.42-.82-.32-1.65-.47-2.47-.47s-1.64.16-2.44.47c-.8.32-1.52.79-2.15,1.42l-11.05,11.05c-.97.97-1.56,2.15-1.78,3.53-.22,1.38-.06,2.7.47,3.96.24.53.24,1.08,0,1.64-.24.56-.63.96-1.16,1.2-.53.24-1.09.24-1.67,0-.58-.24-.99-.63-1.24-1.16C.05,24.22-.19,22.05.15,19.89c.34-2.16,1.36-4.08,3.05-5.78L14.18,3.13c1.07-1.07,2.28-1.85,3.64-2.36,1.36-.51,2.74-.76,4.15-.76s2.78.25,4.11.76c1.33.51,2.53,1.3,3.6,2.36l1.31,1.31,1.31-1.31c1.07-1.07,2.28-1.85,3.64-2.36,1.36-.51,2.74-.76,4.15-.76s2.78.25,4.11.76c1.33.51,2.53,1.3,3.6,2.36l13.02,13.02c1.07,1.07,1.87,2.28,2.4,3.64.53,1.36.8,2.74.8,4.15s-.27,2.78-.8,4.11c-.53,1.33-1.33,2.53-2.4,3.6l-24.51,24.51c-.63.63-1.35,1.12-2.15,1.45s-1.64.51-2.51.51Z"/>
  </g>
</svg>