<?xml version="1.0" encoding="UTF-8"?>
<svg id="Camada_2" data-name="Camada 2" xmlns="http://www.w3.org/2000/svg" viewBox="0 0 64 57.4">
  <defs>
    <style>
      .cls-1 {
        fill: #fabe69;
      }
    </style>
  </defs>
  <g id="Camada_1-2" data-name="Camada 1">
    <path class="cls-1" d="M16.28,45.3c-2.12,1.8-4.34,2.61-6.65,2.43-2.31-.19-4.31-1-6.01-2.43-1.7-1.43-2.83-3.28-3.38-5.53-.56-2.26-.12-4.58,1.31-6.97l6.53-10.91c-1.43-1.11-2.57-2.51-3.42-4.19-.85-1.68-1.27-3.49-1.27-5.44,0-3.37,1.2-6.26,3.6-8.66C9.38,1.2,12.27,0,15.64,0s6.26,1.2,8.66,3.6c2.4,2.4,3.6,5.29,3.6,8.66s-1.2,6.26-3.6,8.66c-2.4,2.4-5.29,3.6-8.66,3.6-.57,0-1.15-.04-1.72-.12-.57-.08-1.11-.2-1.62-.36l-6.69,11.23c-.74,1.22-.98,2.42-.7,3.59.27,1.17.86,2.13,1.75,2.87.89.74,1.94,1.15,3.13,1.23s2.32-.33,3.38-1.23L47.64,12.1c2.12-1.8,4.35-2.63,6.69-2.47,2.34.16,4.35.96,6.05,2.39,1.7,1.43,2.83,3.29,3.38,5.57.56,2.28.12,4.62-1.31,7.01l-6.45,10.91c1.43,1.11,2.57,2.51,3.42,4.19.85,1.68,1.27,3.49,1.27,5.44,0,3.37-1.21,6.26-3.63,8.66-2.42,2.4-5.32,3.6-8.72,3.6s-6.27-1.2-8.63-3.6c-2.36-2.4-3.54-5.29-3.54-8.66s1.18-6.26,3.54-8.66c2.36-2.4,5.24-3.6,8.64-3.6.57,0,1.12.03,1.66.08.54.05,1.07.16,1.6.32l6.69-11.15c.74-1.22.98-2.42.7-3.59-.27-1.17-.86-2.13-1.75-2.87-.89-.74-1.94-1.15-3.13-1.23s-2.32.33-3.38,1.23l-34.47,29.62ZM48.37,52.62c2.08,0,3.86-.73,5.33-2.2,1.48-1.47,2.22-3.23,2.22-5.29s-.74-3.82-2.22-5.28c-1.48-1.46-3.26-2.19-5.33-2.19s-3.83.73-5.26,2.2c-1.43,1.47-2.15,3.23-2.15,5.29s.72,3.82,2.15,5.28c1.43,1.46,3.19,2.19,5.26,2.19ZM15.65,19.74c2.06,0,3.82-.73,5.28-2.2,1.46-1.47,2.19-3.23,2.19-5.29s-.73-3.82-2.2-5.28c-1.47-1.46-3.23-2.19-5.29-2.19s-3.82.73-5.28,2.2c-1.46,1.47-2.19,3.23-2.19,5.29s.73,3.82,2.2,5.28c1.47,1.46,3.23,2.19,5.29,2.19Z"/>
  </g>
</svg>