<?xml version="1.0" encoding="UTF-8"?>
<svg id="Camada_2" data-name="Camada 2" xmlns="http://www.w3.org/2000/svg" viewBox="0 0 64 52.36">
  <defs>
    <style>
      .cls-1 {
        fill: #fabe69;
      }
    </style>
  </defs>
  <g id="Camada_1-2" data-name="Camada 1">
    <path class="cls-1" d="M2.18,52.36c-.62,0-1.14-.21-1.55-.63-.42-.42-.63-.94-.63-1.56s.21-1.14.63-1.55c.42-.41.94-.62,1.55-.62h59.64c.62,0,1.14.21,1.55.63.42.42.63.94.63,1.56s-.21,1.14-.63,1.55c-.42.41-.94.62-1.55.62H2.18ZM7.27,43.64c-1.16,0-2.18-.44-3.05-1.31-.87-.87-1.31-1.89-1.31-3.05V4.36c0-1.16.44-2.18,1.31-3.05s1.89-1.31,3.05-1.31h49.45c1.16,0,2.18.44,3.05,1.31s1.31,1.89,1.31,3.05v34.91c0,1.16-.44,2.18-1.31,3.05-.87.87-1.89,1.31-3.05,1.31H7.27ZM7.27,39.27h49.45V4.36H7.27v34.91ZM7.27,39.27V4.36v34.91ZM30.07,13.64c-2.07-2.07-4.83-3.21-7.76-3.21s-5.69,1.14-7.76,3.21c-2.07,2.07-3.22,4.83-3.22,7.76s1.14,5.69,3.22,7.76c2.14,2.14,4.95,3.21,7.76,3.21s5.62-1.07,7.76-3.21l6.32-6.32c.58,2.49,2.81,4.36,5.48,4.36,3.1,0,5.62-2.52,5.62-5.62s-2.52-5.62-5.62-5.62c-1.49,0-2.83.58-3.84,1.53l-.02-.02-9.82,9.82c-3.24,3.24-8.52,3.24-11.76,0-1.57-1.57-2.43-3.66-2.43-5.88s.86-4.31,2.43-5.88c1.57-1.57,3.66-2.43,5.88-2.43s4.31.86,5.88,2.43l1.88-1.88ZM41.87,18.62c1.63,0,2.96,1.33,2.96,2.96s-1.33,2.96-2.96,2.96-2.96-1.33-2.96-2.96,1.33-2.96,2.96-2.96ZM33.93,29.16c2.14,2.14,4.95,3.21,7.76,3.21s5.62-1.07,7.76-3.21c4.28-4.28,4.28-11.24,0-15.53-4.28-4.28-11.24-4.28-15.52,0l-6.32,6.32c-.58-2.49-2.81-4.36-5.48-4.36-3.1,0-5.62,2.52-5.62,5.62s2.52,5.62,5.62,5.62c1.48,0,2.83-.58,3.84-1.53l.02.02,9.82-9.82c3.24-3.24,8.51-3.24,11.76,0,3.24,3.24,3.24,8.52,0,11.76-3.24,3.24-8.52,3.24-11.76,0l-1.89,1.89ZM22.13,24.18c-1.63,0-2.96-1.33-2.96-2.96s1.33-2.96,2.96-2.96,2.96,1.33,2.96,2.96-1.33,2.96-2.96,2.96Z"/>
  </g>
</svg>