<?xml version="1.0" encoding="UTF-8"?>
<svg id="Camada_2" data-name="Camada 2" xmlns="http://www.w3.org/2000/svg" viewBox="0 0 64 55.27">
  <defs>
    <style>
      .cls-1 {
        fill: #fabe69;
      }
    </style>
  </defs>
  <g id="Camada_1-2" data-name="Camada 1">
    <path class="cls-1" d="M59.64,51.56V4.36H4.36v21.09c0,.62-.21,1.14-.63,1.55-.42.42-.94.63-1.56.63s-1.14-.21-1.55-.63c-.41-.42-.62-.94-.62-1.55V4.36c0-1.2.43-2.23,1.28-3.08.85-.85,1.88-1.28,3.08-1.28h55.27c1.2,0,2.23.43,3.08,1.28.85.85,1.28,1.88,1.28,3.08v42.18c0,1.26-.41,2.36-1.24,3.31-.82.95-1.87,1.52-3.13,1.71ZM23.27,31.93c-3.2,0-5.82-1.02-7.85-3.05-2.04-2.04-3.05-4.65-3.05-7.85s1.02-5.82,3.05-7.85c2.04-2.04,4.65-3.05,7.85-3.05s5.82,1.02,7.85,3.05c2.04,2.04,3.05,4.65,3.05,7.85s-1.02,5.82-3.05,7.85c-2.04,2.04-4.65,3.05-7.85,3.05ZM23.27,27.56c1.89,0,3.45-.62,4.69-1.85,1.24-1.24,1.85-2.8,1.85-4.69s-.62-3.45-1.85-4.69-2.8-1.85-4.69-1.85-3.45.62-4.69,1.85c-1.24,1.24-1.85,2.8-1.85,4.69s.62,3.45,1.85,4.69c1.24,1.24,2.8,1.85,4.69,1.85ZM4.36,55.27c-1.2,0-2.23-.43-3.08-1.28-.85-.85-1.28-1.88-1.28-3.08v-2.47c0-1.84.46-3.42,1.38-4.73.92-1.31,2.11-2.3,3.56-2.98,3.25-1.45,6.36-2.55,9.35-3.27,2.98-.73,5.98-1.09,8.98-1.09s5.99.38,8.95,1.13c2.96.75,6.06,1.83,9.3,3.25,1.52.69,2.73,1.68,3.65,2.98.92,1.3,1.37,2.87,1.37,4.72v2.47c0,1.2-.43,2.23-1.28,3.08-.85.85-1.88,1.28-3.08,1.28H4.36ZM4.36,50.91h37.82v-2.47c0-.78-.23-1.52-.69-2.22-.46-.7-1.03-1.22-1.71-1.56-3.1-1.5-5.94-2.53-8.51-3.09-2.57-.56-5.24-.84-8-.84s-5.45.28-8.07.84-5.45,1.59-8.51,3.09c-.68.34-1.24.86-1.67,1.56s-.65,1.44-.65,2.22v2.47Z"/>
  </g>
</svg>