<svg width="119" height="118" viewBox="0 0 119 118" fill="none" xmlns="http://www.w3.org/2000/svg">
<g clip-path="url(#clip0_54_133)">
<path fill-rule="evenodd" clip-rule="evenodd" d="M118.74 58.9267C118.74 91.4752 92.3619 117.853 59.8133 117.853C27.2648 117.853 0.869995 91.4752 0.869995 58.9267C0.869995 26.3781 27.2481 0 59.7967 0C92.3452 0 118.723 26.3781 118.723 58.9267" fill="#131F2C"/>
<path d="M114.881 58.9267C114.881 89.3464 90.2163 114.011 59.7967 114.011C29.377 114.011 4.72858 89.3464 4.72858 58.9267C4.72858 28.5071 29.377 3.85864 59.7967 3.85864C90.2163 3.85864 114.881 28.5237 114.881 58.9434" fill="white"/>
<path d="M97.5011 58.9266C97.5011 79.7497 80.6197 96.631 59.7967 96.631C38.9736 96.631 22.0922 79.7497 22.0922 58.9266C22.0922 38.1035 38.9736 21.2222 59.7967 21.2222C80.6197 21.2222 97.5011 38.1035 97.5011 58.9266Z" fill="#131F2C"/>
<path d="M78.3246 56.9143C78.1915 57.5297 77.7757 58.1784 77.1271 58.4112C76.0793 58.8769 74.6656 58.7438 73.7009 58.2116C72.886 57.6461 72.7862 56.6981 72.6864 55.8C72.6032 54.0204 72.4868 52.1576 72.9691 50.5277C73.3517 49.5298 74.4327 49.2637 75.3974 49.1972C76.4119 49.1972 77.4098 49.3468 78.0418 50.1784C78.441 50.7606 78.4077 51.5422 78.4909 52.2408C78.4576 53.7044 78.5907 55.4507 78.3412 56.9476M84.495 49.5963C84.0293 48.3656 83.048 47.2512 81.8838 46.4695C78.4909 44.3074 73.3018 44.1577 69.8091 46.1036C67.8964 47.0849 66.649 48.9976 66.2499 50.9934C65.5347 54.2532 65.7176 58.1285 68.229 60.5733C71.1563 63.1347 75.414 63.7168 79.2061 62.6523C79.389 62.6191 79.9545 62.4694 80.3537 62.2698L80.4701 62.2199C81.651 61.7376 82.7653 60.9393 83.6135 59.8582C85.5428 57.0308 85.6759 52.7896 84.5116 49.613L84.495 49.5963Z" fill="white"/>
<path d="M47.3394 58.5109C46.4746 58.461 45.5099 58.5275 44.6783 58.4277V49.4132L44.7615 49.3301H47.3561C47.3893 47.8332 47.406 46.2698 47.3228 44.9393L37.4601 44.906L35.8302 44.9393C35.7969 46.3031 35.7969 47.8997 35.8302 49.2802C36.7283 49.3134 37.5599 49.2802 38.4247 49.3633V58.461L35.8135 58.5109C35.7636 59.9412 35.7636 61.3383 35.8135 62.752H47.3394V58.5109Z" fill="white"/>
<path d="M66.6324 72.0826L65.4016 72.4651C65.1854 72.3653 65.0025 72.2156 64.8195 72.0493L64.8694 71.9662C66.5492 70.9849 68.0627 69.804 69.4931 68.3903C70.1916 68.6731 70.8735 69.0556 71.5055 69.488C70.0419 70.6522 68.3455 71.4173 66.6157 72.066M64.121 72.7978C61.3434 73.3965 58.2665 73.4131 55.489 72.7479C55.4391 72.6148 55.6221 72.5982 55.7052 72.515C58.1335 70.9516 61.9256 70.9516 64.3039 72.6481C64.3871 72.7978 64.1709 72.7479 64.121 72.7978ZM54.4246 72.4651C52.2292 71.8996 50.1835 70.9184 48.3041 69.5878V69.5047C48.9361 69.1221 49.5681 68.7063 50.2334 68.4236C51.7302 69.8872 53.2604 71.0015 54.9402 72.0493C54.8071 72.199 54.5909 72.3653 54.4246 72.4651ZM51.0483 68.0743C52.0629 67.592 53.1439 67.2261 54.2416 66.9433L54.3414 66.9766C55.0899 68.3903 56.0379 69.7209 56.9859 71.068C56.62 71.2676 56.1709 71.4007 55.805 71.6003C54.0753 70.752 52.4288 69.5712 51.0483 68.1575V68.0743ZM55.2562 66.6772C56.62 66.4278 58.0337 66.2115 59.4973 66.2115L59.5306 70.5525C58.9817 70.6855 58.383 70.6855 57.8507 70.8019C56.7863 69.5379 55.8882 68.1741 55.1398 66.7604L55.2728 66.6606L55.2562 66.6772ZM60.3123 66.2115C61.8091 66.2448 63.2894 66.3945 64.6864 66.7271L64.7197 66.8103C63.9879 68.1907 63.0732 69.5379 62.0752 70.7853C61.6262 70.8352 61.2104 70.6523 60.7613 70.6356L60.3123 70.5857C60.2624 69.0722 60.2291 67.7417 60.3123 66.2115ZM65.4515 66.9932L65.5347 66.9433C66.6656 67.1928 67.7301 67.5587 68.728 68.041C67.8964 68.9891 66.8153 69.8207 65.834 70.5026C65.2353 70.8685 64.6365 71.251 64.0045 71.5504L62.8902 71.068L62.9734 70.8851C63.9214 69.6211 64.753 68.3404 65.4848 66.9766L65.4515 66.9932ZM76.362 64.6814C75.2643 66.2448 73.8839 67.7583 72.3704 68.9392C72.3205 69.0223 72.1542 68.9891 72.1043 68.9059C71.4556 68.4901 70.7404 68.1575 70.1084 67.7583C70.94 66.7604 71.755 65.7625 72.387 64.6481H71.572C70.9234 65.5962 70.2415 66.6107 69.3766 67.4423C68.229 66.9766 67.1812 66.5608 66.0004 66.2614L65.8673 66.1616C66.0503 65.6461 66.3829 65.1637 66.4993 64.6481H65.8008L65.1022 66.0286C63.5555 65.696 61.859 65.513 60.2956 65.4132C60.2125 65.1804 60.3289 64.8477 60.2125 64.6481H59.5306C59.4807 64.9642 59.6137 65.197 59.4474 65.4465C57.8341 65.513 56.2541 65.696 54.7406 66.012L54.0254 64.6481C53.7593 64.6481 53.4766 64.5983 53.2936 64.6814L53.9423 66.1949L53.8591 66.2781C52.6782 66.6107 51.5306 67.0265 50.4163 67.4922L50.3165 67.4423C49.5847 66.644 48.8695 65.7791 48.3041 64.8976C48.171 64.4652 47.6554 64.7147 47.356 64.6648C47.9881 65.7957 48.8197 66.7937 49.6512 67.8248C48.9527 68.2406 48.2375 68.6897 47.5057 69.039C45.9423 67.8581 44.4787 66.3113 43.381 64.698C43.065 64.6481 42.8654 64.6648 42.5494 64.698C44.4288 67.6253 47.356 70.2032 50.4163 71.7167C50.4163 71.7167 50.4163 71.7001 50.4496 71.7001C50.4662 71.7001 50.5327 71.75 50.4662 71.7832C52.5286 72.7811 54.724 73.4963 57.0524 73.8123C65.0856 74.8601 72.7363 71.4506 77.1936 64.7147C76.9608 64.6814 76.6115 64.6814 76.362 64.7147V64.6814Z" fill="white"/>
<path d="M48.2043 38.1534C49.8508 36.9393 51.6803 36.0412 53.6263 35.4258C53.7094 35.3426 53.7593 35.2761 53.8591 35.2761V35.326C54.0753 35.3759 54.225 35.1431 54.408 35.2927C54.5576 35.4258 54.7572 35.5256 54.8736 35.6586C53.2604 36.6566 51.6637 37.8374 50.2001 39.2844C49.5016 39.0349 48.8363 38.6524 48.2043 38.2033V38.1534ZM64.1542 34.9767V35.0266C61.8757 36.6732 58.2 36.8229 55.7884 35.3094C55.6553 35.2096 55.3892 35.1597 55.3726 34.9767C58.1501 34.3447 61.41 34.2782 64.1542 34.9767ZM65.202 35.2262C67.3974 35.7917 69.4598 36.773 71.3392 38.1035L71.2893 38.2033L69.493 39.2012H69.36C67.9796 37.8208 66.3496 36.6067 64.7031 35.6586C64.753 35.4757 65.0191 35.3426 65.202 35.2262ZM68.545 39.617C67.5305 40.0495 66.4827 40.4652 65.3517 40.6981C64.5368 39.3343 63.6553 37.9705 62.6574 36.6566C63.0233 36.457 63.4723 36.3073 63.8548 36.0911C65.5513 36.9393 67.1979 38.1368 68.5949 39.5339L68.545 39.617ZM60.1958 41.4299C60.1459 40.0661 60.1626 38.5526 60.1958 37.1389C60.7114 37.0557 61.2935 36.9892 61.8091 36.906C62.8237 38.1867 63.8216 39.5006 64.5035 40.9143C63.0898 41.2469 61.6594 41.4299 60.1792 41.4299H60.1958ZM59.3975 41.3966C58.6657 41.4964 58.0171 41.38 57.2853 41.3135C56.5867 41.2137 55.6886 41.1305 54.9901 40.8977C55.7551 39.484 56.6366 38.1202 57.7177 36.8728L59.3975 37.1056C59.4807 38.4362 59.4141 39.9829 59.4141 41.3966H59.3975ZM54.1917 40.6981H54.0919C53.0275 40.4486 51.9797 40.0993 50.9818 39.6669L51.0317 39.5172C52.4787 38.1534 53.9922 37.0225 55.6553 36.1576C56.0545 36.3073 56.437 36.4403 56.8362 36.6233L56.753 36.8229C55.7551 38.0536 54.9734 39.4008 54.1917 40.7147V40.6981ZM43.3311 42.96C43.9631 42.0785 44.6617 41.2469 45.4434 40.4154C46.1253 39.7667 46.7573 39.1513 47.4891 38.6856C48.171 39.1181 48.9361 39.484 49.5847 39.8998C48.7698 40.8977 47.9382 41.8956 47.3394 42.9767C47.5224 43.0598 47.855 43.0266 48.1211 42.9767C48.7698 42.0286 49.4849 41.0806 50.3165 40.2324C51.4309 40.6482 52.5452 41.0806 53.6928 41.3966L53.7926 41.4964L53.1439 42.9933C53.4267 43.0432 53.6096 43.0266 53.909 42.9933C54.1418 42.5609 54.3248 42.0785 54.5909 41.6295C56.1044 41.9621 57.7011 42.1451 59.331 42.195C59.5472 42.3779 59.3809 42.7604 59.464 42.9933H60.1626C60.2457 42.7438 60.1459 42.4611 60.2457 42.2282C61.7592 42.1451 63.3559 41.9954 64.8195 41.6295L64.9526 41.6627L65.6511 42.9933C65.8839 42.9933 66.1999 43.0432 66.3829 42.9434L65.7343 41.4632L65.7841 41.4133C66.9816 41.0973 68.1126 40.6482 69.2602 40.1825C70.0752 41.0307 70.8236 42.0286 71.5055 43.0099C71.7882 43.0099 72.0876 43.0432 72.2872 42.96C71.9712 42.3945 71.572 41.8291 71.1562 41.3467C70.807 40.8644 70.4577 40.432 70.0086 39.9663V39.8332L71.8381 38.7854L72.1043 38.6856C73.7009 39.8998 75.1146 41.3634 76.229 42.9767C76.545 42.9767 76.8111 43.0765 77.0606 42.96C73.5512 37.721 67.78 34.3447 61.5264 33.8624L61.4931 33.9123L61.4432 33.8624C60.7447 33.7792 59.8798 33.7626 59.1148 33.8291C58.832 33.8125 58.4828 33.8291 58.1501 33.8624C51.8799 34.3447 46.092 37.5547 42.4829 43.0266C42.749 42.9933 43.065 43.1097 43.3145 42.9933L43.3311 42.96Z" fill="white"/>
<path d="M59.4141 58.7104C56.9526 59.3757 54.2915 58.8767 52.5119 57.0139C52.3123 56.7645 52.1793 56.4485 51.9631 56.199L48.4371 56.2322C48.3872 58.3112 48.3539 60.7062 48.4371 62.7519L52.3622 62.7187L52.4121 61.4879C52.8612 61.6875 53.3102 61.9536 53.7427 62.1865C56.4703 63.3174 59.963 63.5835 62.6573 62.1865C64.6199 61.1054 65.6677 59.0264 65.385 56.7811C65.1022 54.6023 63.0066 52.6231 60.8944 52.0743L54.5576 50.2448L54.0919 50.0119C53.8757 49.829 53.7427 49.6128 53.8092 49.3134C54.3081 48.4652 55.4557 48.7313 56.3206 48.7479C58.1501 48.9974 60.0295 49.6294 61.1106 51.2926C62.2582 51.2926 63.5887 51.3092 64.8527 51.2593C64.9026 49.1471 64.8361 47.3009 64.8028 45.1721C63.622 45.1388 62.1916 45.1388 61.0108 45.2053C60.9609 45.5047 61.0607 45.9538 60.9276 46.2531L59.7301 45.6045C56.8528 44.3904 52.8279 44.2739 50.2167 46.1533C48.5203 47.3841 47.988 49.5961 48.4371 51.5421C48.7697 53.3882 50.5493 54.752 52.2624 55.4007C54.5909 56.2156 57.0191 56.8144 59.3809 57.6127C59.6137 57.7125 59.9297 57.9453 59.8798 58.2281C59.8798 58.4609 59.647 58.594 59.464 58.6771" fill="white"/>
<path fill-rule="evenodd" clip-rule="evenodd" d="M30.7242 25.1473L31.7387 26.1618C32.9529 27.3926 32.903 28.8229 31.4726 30.22C30.0423 31.6337 28.6119 31.667 27.3978 30.4362L23.4561 26.4446C22.2419 25.2138 22.2918 23.7835 23.7055 22.3864C25.1359 20.9727 26.5662 20.9394 27.7803 22.1702L28.5121 22.9186L27.1483 24.2824L26.3334 23.4675C25.7845 22.9186 25.3022 23.0018 24.8365 23.4675C24.3708 23.9165 24.2877 24.4155 24.8365 24.9644L28.9279 29.1057C29.4768 29.6545 29.9591 29.5547 30.4082 29.1057C30.8739 28.6566 30.957 28.1577 30.4082 27.6255L29.3271 26.5277L30.6909 25.1639L30.7242 25.1473Z" fill="#131F2C"/>
<path fill-rule="evenodd" clip-rule="evenodd" d="M34.6826 19.5756L37.0609 18.0954L37.8759 19.4093L35.4975 20.8729L37.1607 23.5673L40.1544 21.7045L40.9694 23.0018L36.2293 25.9456L30.5579 16.7981L35.2813 13.8542L36.0963 15.1682L33.1025 17.0143L34.6826 19.5756Z" fill="#131F2C"/>
<path fill-rule="evenodd" clip-rule="evenodd" d="M42.9985 12.158L44.0629 15.3014L44.8113 15.0519C45.5265 14.8025 45.8758 14.4033 45.6097 13.5883L45.277 12.5904C45.0276 11.8586 44.6284 11.6424 43.9299 11.8753L42.9985 12.1913V12.158ZM48.0712 20.1912C47.8716 19.9583 47.7552 19.8253 47.4724 18.9937L46.9236 17.397C46.6076 16.449 46.092 16.2328 45.2271 16.5322L44.5619 16.765L45.9589 20.923L44.0297 21.5716L40.5869 11.3597L43.4974 10.3784C45.5099 9.69649 46.6242 10.1788 47.1564 11.7588L47.4225 12.5572C47.7718 13.605 47.6055 14.4199 46.8571 15.0353V15.0686C47.9548 15.0686 48.5203 15.7339 48.8862 16.7983L49.4184 18.3783C49.5847 18.8773 49.7344 19.2265 50.0504 19.5425L48.0878 20.2078L48.0712 20.1912Z" fill="#131F2C"/>
<path fill-rule="evenodd" clip-rule="evenodd" d="M51.5806 8.26601L57.8674 7.65063L58.0171 9.18077L55.8882 9.38035L56.803 18.5778L54.7573 18.7773L53.8591 9.59656L51.7303 9.79614L51.5806 8.26601Z" fill="#131F2C"/>
<path d="M63.1539 7.79281L62.2465 18.532L64.2849 18.7042L65.1924 7.96506L63.1539 7.79281Z" fill="#131F2C"/>
<path fill-rule="evenodd" clip-rule="evenodd" d="M71.7217 14.0372L74.2497 14.7358L73.8506 16.216L71.3059 15.5175L70.125 19.8085L68.1625 19.2763L71.0065 8.88135L76.2123 10.3117L75.8131 11.7919L72.5699 10.9104L71.7217 14.0372Z" fill="#131F2C"/>
<path d="M81.2187 12.3849L76.5162 22.0823L78.3569 22.9749L83.0594 13.2775L81.2187 12.3849Z" fill="#131F2C"/>
<path fill-rule="evenodd" clip-rule="evenodd" d="M87.1062 21.056L89.3515 22.7192L88.4367 23.9665L86.1914 22.2867L84.312 24.8314L87.1395 26.927L86.2247 28.1578L81.7507 24.848L88.1706 16.1995L92.6446 19.5092L91.7298 20.74L88.8858 18.6443L87.1062 21.056Z" fill="#131F2C"/>
<path fill-rule="evenodd" clip-rule="evenodd" d="M97.0687 26.062L91.1977 31.035L91.9461 31.9165C92.3619 32.4154 92.8276 32.5318 93.4097 32.0329L97.6841 28.4071C98.2662 27.9082 98.2329 27.4259 97.8171 26.9435L97.0687 26.062ZM96.919 23.5007L99.0146 25.9622C100.329 27.5256 100.262 28.8895 98.9481 30.0038L94.7901 33.5297C93.4762 34.6441 92.1124 34.4944 90.7985 32.931L88.7029 30.4695L96.919 23.5007Z" fill="#131F2C"/>
<path fill-rule="evenodd" clip-rule="evenodd" d="M28.6119 94.3026L27.4643 95.2839C26.0839 96.4648 24.587 96.3151 23.2232 94.7184C21.8427 93.1218 21.9093 91.6249 23.2897 90.4274L27.7471 86.5854C29.1275 85.4046 30.6244 85.5543 31.9882 87.1509C33.3686 88.7476 33.3021 90.2445 31.9217 91.4419L31.0901 92.1571L29.7595 90.627L30.6743 89.8287C31.2896 89.2964 31.2397 88.7809 30.7907 88.2486C30.3416 87.733 29.826 87.6 29.2107 88.1322L24.5704 92.1239C23.955 92.6561 24.0215 93.1717 24.4706 93.6873C24.9196 94.2028 25.4186 94.3359 26.034 93.8037L27.2647 92.7392L28.5953 94.2694L28.6119 94.3026Z" fill="#131F2C"/>
<path fill-rule="evenodd" clip-rule="evenodd" d="M33.6681 100.523C33.219 101.205 33.4019 101.687 33.9841 102.07C34.5495 102.452 35.0818 102.436 35.5308 101.754L38.9237 96.6477C39.3728 95.9658 39.1898 95.4834 38.6077 95.1009C38.0422 94.7184 37.51 94.735 37.061 95.4169L33.6681 100.506V100.523ZM35.2148 94.3358C36.2127 92.8223 37.7595 92.6061 39.5058 93.7704C41.2688 94.9346 41.6513 96.4315 40.6368 97.945L37.377 102.851C36.379 104.365 34.8323 104.581 33.0859 103.417C31.323 102.253 30.9404 100.756 31.955 99.2422L35.2148 94.3358Z" fill="#131F2C"/>
<path fill-rule="evenodd" clip-rule="evenodd" d="M47.7885 106.427L47.8384 106.444L51.381 99.0759L54.2583 99.8743L51.2147 110.785L49.2687 110.253L51.4475 102.419L51.3976 102.402L47.8384 109.853L45.8758 109.305L46.5245 101.172L46.4746 101.155L44.3457 108.889L42.5328 108.373L45.5598 97.4626L48.4372 98.261L47.7885 106.427Z" fill="#131F2C"/>
<path fill-rule="evenodd" clip-rule="evenodd" d="M60.5119 101.621L60.6616 105.463L61.6761 105.429C62.358 105.413 62.7239 105.13 62.6906 104.315L62.6241 102.619C62.5909 101.804 62.2083 101.571 61.5264 101.587L60.5119 101.621ZM64.7696 102.652L64.8195 104.132C64.8861 105.945 63.8715 106.976 61.726 107.043L60.7115 107.076L60.8778 111.334L58.7323 111.417L58.3165 100.09L61.4765 99.974C63.622 99.8909 64.7197 100.839 64.7863 102.652H64.7696Z" fill="#131F2C"/>
<path fill-rule="evenodd" clip-rule="evenodd" d="M72.1375 106.028L74.1167 105.413L71.4224 100.257H71.3891L72.1375 106.045V106.028ZM77.8922 107.991L75.8298 108.639L74.8652 106.793L72.3538 107.591L72.6199 109.67L70.7405 110.269L69.4099 98.7932L72.4036 97.8452L77.8922 107.991Z" fill="#131F2C"/>
<path fill-rule="evenodd" clip-rule="evenodd" d="M80.969 97.0968L80.9524 97.1135L85.5428 103.916L83.9461 104.997L77.5928 95.6166L79.8214 94.1031L85.4264 98.5105L85.4596 98.4939L81.6509 92.8723L83.231 91.7913L89.5843 101.188L87.7548 102.419L80.969 97.0968Z" fill="#131F2C"/>
<path fill-rule="evenodd" clip-rule="evenodd" d="M93.3099 92.3567L85.7424 89.5958L87.1893 87.8661L92.1955 89.9284L92.2122 89.8952L89.285 85.3547L90.5822 83.7747L94.6737 90.7101L97.5676 93.1051L96.2038 94.7517L93.3099 92.3567Z" fill="#131F2C"/>
<path d="M78.0751 81.0472C78.0751 80.5482 78.0252 80.2322 77.942 80.0492C77.8589 79.8829 77.7092 79.7831 77.493 79.7831C77.2768 79.7831 77.1271 79.8663 77.0439 80.016C76.9608 80.1823 76.9275 80.5149 76.9275 81.0305C76.9275 81.5461 76.9608 81.912 77.0439 82.0617C77.1271 82.2114 77.2768 82.2945 77.493 82.2945C77.7092 82.2945 77.8589 82.2114 77.942 82.0284C78.0252 81.8621 78.0751 81.5295 78.0751 81.0305M78.0917 82.8101C78.0086 82.9598 77.8921 83.0596 77.7425 83.1261C77.5928 83.1927 77.4098 83.2259 77.1936 83.2259C76.7113 83.2259 76.362 83.0596 76.1292 82.7436C75.8963 82.4276 75.7799 81.9286 75.7799 81.2467C75.7799 80.3985 75.913 79.7831 76.1624 79.4339C76.4285 79.068 76.8443 78.885 77.4597 78.885C77.8256 78.885 78.1084 78.9349 78.3412 79.0513C78.5741 79.1677 78.757 79.3341 78.9067 79.5835C79.0231 79.7665 79.1063 80.0492 79.1562 80.4151C79.2061 80.781 79.2227 81.3299 79.2227 82.0617C79.2227 82.7935 79.2061 83.359 79.1562 83.7249C79.1063 84.0908 79.0397 84.3569 78.9233 84.5398C78.7736 84.806 78.5907 84.9889 78.3578 85.1053C78.125 85.2217 77.8423 85.2883 77.493 85.2883C76.9608 85.2883 76.5616 85.1719 76.2955 84.939C76.0294 84.7062 75.8963 84.3735 75.8963 83.9078V83.8746H76.994V83.9411C76.994 84.1074 77.0439 84.2238 77.1271 84.307C77.2102 84.3902 77.3267 84.4401 77.493 84.4401C77.7092 84.4401 77.8755 84.3403 77.9587 84.1573C78.0418 83.9744 78.0917 83.6251 78.0917 83.1095V82.7769V82.8101ZM73.0356 85.2051V80.7977H71.6552V80.0492C72.1708 80.0326 72.5699 79.9328 72.8527 79.7332C73.1354 79.5336 73.3184 79.2675 73.3683 78.9016H74.1333V85.2051H73.0356ZM67.464 82.0617C67.464 81.3133 67.4806 80.7644 67.5305 80.3985C67.5804 80.0326 67.6636 79.7665 67.7633 79.5835C67.913 79.3341 68.096 79.1677 68.3122 79.0513C68.5284 78.9349 68.8278 78.885 69.177 78.885C69.5263 78.885 69.8091 78.9349 70.0419 79.0513C70.2581 79.1677 70.4577 79.3341 70.5908 79.5835C70.7072 79.7665 70.7903 80.0326 70.8236 80.3985C70.8735 80.7644 70.8901 81.3133 70.8901 82.0617C70.8901 82.8101 70.8735 83.3922 70.8236 83.7415C70.7737 84.1074 70.7072 84.3735 70.5908 84.5565C70.4411 84.8226 70.2581 85.0055 70.0253 85.122C69.7924 85.2384 69.5097 85.3049 69.1604 85.3049C68.8112 85.3049 68.5284 85.2384 68.2956 85.122C68.0627 85.0055 67.8798 84.806 67.7301 84.5565C67.6303 84.3735 67.5471 84.1074 67.4972 83.7581C67.4473 83.4089 67.4307 82.8434 67.4307 82.0451L67.464 82.0617ZM69.7425 82.6272V80.9307C69.7425 80.4318 69.7093 80.1158 69.6261 79.9661C69.543 79.8164 69.3933 79.7499 69.1937 79.7499C68.9941 79.7499 68.8278 79.8164 68.7613 79.9661C68.6781 80.1158 68.6448 80.4484 68.6448 80.964V83.2592C68.6448 83.7581 68.6781 84.0741 68.7613 84.2238C68.8444 84.3735 68.9941 84.4401 69.1937 84.4401C69.3933 84.4401 69.5596 84.3569 69.6261 84.2238C69.7093 84.0741 69.7425 83.7415 69.7425 83.2093V82.6105V82.6272ZM63.306 85.2051C63.306 85.2051 63.306 85.1552 63.306 85.1053C63.306 85.0554 63.306 85.0222 63.306 85.0055C63.306 84.5232 63.4058 84.0575 63.6054 83.6251C63.805 83.176 64.1043 82.7602 64.5035 82.3444C64.57 82.2779 64.6864 82.1615 64.8361 82.0284C65.1022 81.779 65.2852 81.5794 65.3684 81.4463C65.4515 81.3299 65.5014 81.1968 65.5513 81.0472C65.5846 80.8975 65.6178 80.7478 65.6178 80.5648C65.6178 80.2987 65.5679 80.0991 65.4848 79.9827C65.385 79.8497 65.2353 79.7831 65.0523 79.7831C64.8694 79.7831 64.6864 79.8663 64.6033 80.016C64.5035 80.1657 64.4536 80.4318 64.4536 80.7644C64.4536 80.8309 64.4536 80.8808 64.4536 80.9141C64.4536 80.9474 64.4536 80.9806 64.4536 81.0139H63.3559C63.3559 81.0139 63.3559 80.9474 63.3559 80.8975C63.3559 80.8476 63.3559 80.8143 63.3559 80.7977C63.3559 80.149 63.489 79.6667 63.7717 79.3673C64.0544 79.068 64.4869 78.9183 65.0856 78.9183C65.6511 78.9183 66.0669 79.0513 66.3663 79.3341C66.6656 79.6002 66.8153 79.9993 66.8153 80.5149C66.8153 80.7644 66.7821 80.9806 66.7322 81.1802C66.6823 81.3798 66.5991 81.5794 66.4827 81.7623C66.3995 81.912 66.1999 82.1282 65.9006 82.4442C65.7509 82.5939 65.6178 82.727 65.5347 82.8268C64.9359 83.492 64.6033 83.9577 64.5201 84.2238H66.7322V85.2218H63.3393L63.306 85.2051ZM61.2769 85.2051V84.0741H62.3247V85.2051H61.2769ZM61.2769 81.6958V80.5648H62.3247V81.6958H61.2769ZM58.2665 85.2051V80.7977H56.8861V80.0492C57.4017 80.0326 57.8009 79.9328 58.0836 79.7332C58.3663 79.5336 58.5493 79.2675 58.5992 78.9016H59.3642V85.2051H58.2665ZM52.6949 82.0617C52.6949 81.3133 52.7115 80.7644 52.7614 80.3985C52.8113 80.0326 52.8945 79.7665 52.9942 79.5835C53.1439 79.3341 53.3269 79.1677 53.5431 79.0513C53.7593 78.9349 54.0587 78.885 54.408 78.885C54.7572 78.885 55.04 78.9349 55.2728 79.0513C55.489 79.1677 55.6886 79.3341 55.8217 79.5835C55.9381 79.7665 56.0212 80.0326 56.0545 80.3985C56.1044 80.7644 56.121 81.3133 56.121 82.0617C56.121 82.8101 56.1044 83.3922 56.0545 83.7415C56.0046 84.1074 55.9381 84.3735 55.8217 84.5565C55.672 84.8226 55.489 85.0055 55.2562 85.122C55.0233 85.2384 54.7406 85.3049 54.3913 85.3049C54.0421 85.3049 53.7593 85.2384 53.5265 85.122C53.2936 85.0055 53.1107 84.806 52.961 84.5565C52.8612 84.3735 52.778 84.1074 52.7281 83.7581C52.6782 83.4089 52.6616 82.8434 52.6616 82.0451L52.6949 82.0617ZM54.9734 82.6272V80.9307C54.9734 80.4318 54.9402 80.1158 54.857 79.9661C54.7739 79.8164 54.6242 79.7499 54.4246 79.7499C54.225 79.7499 54.0587 79.8164 53.9922 79.9661C53.909 80.1158 53.8757 80.4484 53.8757 80.964V83.2592C53.8757 83.7581 53.909 84.0741 53.9922 84.2238C54.0753 84.3735 54.225 84.4401 54.4246 84.4401C54.6242 84.4401 54.7905 84.3569 54.857 84.2238C54.9402 84.0741 54.9734 83.7415 54.9734 83.2093V82.6105V82.6272ZM49.2853 85.2051C49.3519 84.4234 49.5016 83.6085 49.7677 82.7436C50.0338 81.8787 50.3997 80.9806 50.8654 80.0492H48.5203V79.0181H51.9797V79.9162C51.5473 80.6979 51.2146 81.5461 50.9652 82.4276C50.7157 83.3091 50.5494 84.2405 50.4828 85.2051H49.2853ZM45.1107 85.2051C45.1773 84.4234 45.327 83.6085 45.5931 82.7436C45.8592 81.8787 46.2251 80.9806 46.6908 80.0492H44.3457V79.0181H47.8051V79.9162C47.3727 80.6979 47.04 81.5461 46.7906 82.4276C46.5411 83.3091 46.3748 84.2405 46.3082 85.2051H45.1107ZM40.2043 85.2051C40.2043 85.2051 40.2043 85.1552 40.2043 85.1053C40.2043 85.0554 40.2043 85.0222 40.2043 85.0055C40.2043 84.5232 40.3041 84.0575 40.5037 83.6251C40.7033 83.176 41.0027 82.7602 41.4018 82.3444C41.4684 82.2779 41.5848 82.1615 41.7345 82.0284C42.0006 81.779 42.1835 81.5794 42.2667 81.4463C42.3499 81.3299 42.3998 81.1968 42.4496 81.0472C42.4829 80.8975 42.5162 80.7478 42.5162 80.5648C42.5162 80.2987 42.4663 80.0991 42.3665 79.9827C42.2667 79.8497 42.117 79.7831 41.9341 79.7831C41.7511 79.7831 41.5682 79.8663 41.485 80.016C41.3852 80.1657 41.3353 80.4318 41.3353 80.7644C41.3353 80.8309 41.3353 80.8808 41.3353 80.9141C41.3353 80.9474 41.3353 80.9806 41.3353 81.0139H40.2376C40.2376 81.0139 40.2376 80.9474 40.2376 80.8975C40.2376 80.8476 40.2376 80.8143 40.2376 80.7977C40.2376 80.149 40.3707 79.6667 40.6534 79.3673C40.9361 79.068 41.3686 78.9183 41.9673 78.9183C42.5328 78.9183 42.9486 79.0513 43.248 79.3341C43.5473 79.6002 43.697 79.9993 43.697 80.5149C43.697 80.7644 43.6638 80.9806 43.6139 81.1802C43.564 81.3798 43.4808 81.5794 43.3644 81.7623C43.2812 81.912 43.0817 82.1282 42.7823 82.4442C42.6326 82.5939 42.4995 82.727 42.4164 82.8268C41.8176 83.492 41.485 83.9577 41.4018 84.2238H43.6139V85.2218H40.221L40.2043 85.2051Z" fill="white"/>
</g>
<defs>
<clipPath id="clip0_54_133">
<rect width="117.87" height="117.87" fill="white" transform="translate(0.869995)"/>
</clipPath>
</defs>
</svg>
