<?xml version="1.0" encoding="UTF-8"?>
<svg id="Camada_2" data-name="Camada 2" xmlns="http://www.w3.org/2000/svg" viewBox="0 0 64 31.83">
  <defs>
    <style>
      .cls-1 {
        fill: #fabe69;
      }
    </style>
  </defs>
  <g id="Camada_1-2" data-name="Camada 1">
    <path class="cls-1" d="M32,15.92c2.27,0,4.17-.77,5.7-2.32,1.53-1.55,2.3-3.43,2.3-5.64s-.77-4.15-2.3-5.67c-1.53-1.53-3.43-2.29-5.7-2.29s-4.11.76-5.67,2.29c-1.56,1.53-2.33,3.42-2.33,5.67s.78,4.09,2.33,5.64c1.56,1.55,3.44,2.32,5.67,2.32ZM29.17,5.12c.78-.76,1.73-1.14,2.86-1.14s2.07.38,2.83,1.13c.76.75,1.14,1.69,1.14,2.83s-.38,2.08-1.13,2.85c-.76.77-1.7,1.15-2.84,1.15s-2.1-.39-2.87-1.16c-.77-.77-1.16-1.72-1.16-2.84s.39-2.06,1.17-2.82ZM13.3,12.63c.91.91,1.37,2.01,1.37,3.31s-.46,2.35-1.37,3.25c-.91.91-2.02,1.36-3.33,1.36s-2.36-.45-3.27-1.36c-.91-.91-1.37-2-1.37-3.28s.46-2.38,1.37-3.28c.91-.91,2.01-1.36,3.3-1.36s2.39.45,3.3,1.36ZM11.58,22.58c.5.02.99.07,1.48.14-.36.77-.62,1.54-.8,2.33-.18.79-.27,1.61-.27,2.47v4.31H2c-.57,0-1.04-.19-1.42-.57-.38-.38-.58-.85-.58-1.42v-1.53c0-1.71.92-3.09,2.77-4.16,1.84-1.07,4.26-1.61,7.26-1.61.54,0,1.06.01,1.56.03ZM64,28.32v1.53c0,.56-.19,1.04-.57,1.42-.38.38-.86.57-1.43.57h-10v-4.31c0-.88-.08-1.71-.23-2.48-.16-.78-.41-1.55-.77-2.31.49-.08.98-.13,1.48-.15.5-.02,1-.03,1.52-.03,3,0,5.42.53,7.25,1.58,1.83,1.05,2.75,2.45,2.75,4.19ZM43.6,20.56c-1.42-.88-3.12-1.55-5.1-1.99s-4.14-.66-6.5-.66-4.46.22-6.43.66c-1.98.44-3.68,1.11-5.1,1.99-1.42.88-2.52,1.91-3.3,3.08-.78,1.17-1.17,2.46-1.17,3.88v2.32c0,.56.19,1.04.58,1.42.38.38.86.57,1.42.57h28c.57,0,1.04-.19,1.43-.57.38-.38.57-.85.57-1.42v-2.32c0-1.41-.38-2.71-1.13-3.88-.76-1.17-1.84-2.2-3.27-3.08ZM44,27.86h-9.48l-1.02-2.98h-2.54l-1.02,2.98h-9.94v-.33c0-1.68,1.12-3.04,3.37-4.08,1.82-.84,4.08-1.33,6.74-1.49l.86,1.45h2.54l.85-1.43c2.46.19,4.56.67,6.28,1.47,2.24,1.04,3.37,2.38,3.37,4.01v.4ZM53.97,20.56c-1.27,0-2.36-.45-3.27-1.36-.91-.91-1.37-2-1.37-3.28s.46-2.38,1.37-3.28c.91-.91,2.01-1.36,3.3-1.36s2.39.45,3.3,1.36c.91.91,1.37,2.01,1.37,3.31s-.46,2.35-1.37,3.25c-.91.91-2.02,1.36-3.33,1.36Z"/>
  </g>
</svg>