<?xml version="1.0" encoding="UTF-8"?>
<svg id="Camada_2" data-name="Camada 2" xmlns="http://www.w3.org/2000/svg" viewBox="0 0 64 60.18">
  <defs>
    <style>
      .cls-1 {
        fill: #fabe69;
      }
    </style>
  </defs>
  <g id="Camada_1-2" data-name="Camada 1">
    <path class="cls-1" d="M2.65,60.18c-.76,0-1.39-.26-1.9-.77-.5-.51-.76-1.14-.76-1.9v-4.09c0-.76.26-1.39.77-1.9.51-.51,1.15-.77,1.91-.77s1.39.26,1.9.77c.5.51.76,1.14.76,1.9v4.09c0,.76-.26,1.39-.77,1.9-.51.51-1.15.77-1.91.77ZM17.32,60.18c-.76,0-1.39-.26-1.9-.77-.5-.51-.76-1.14-.76-1.9v-18.31c0-.76.26-1.39.77-1.9.51-.51,1.15-.77,1.91-.77s1.39.26,1.9.77c.5.51.76,1.14.76,1.9v18.31c0,.76-.26,1.39-.77,1.9-.51.51-1.15.77-1.91.77ZM31.98,60.18c-.76,0-1.39-.26-1.9-.77-.5-.51-.76-1.14-.76-1.9v-12.98c0-.76.26-1.39.77-1.9.51-.51,1.15-.77,1.91-.77s1.39.26,1.9.77c.5.51.76,1.14.76,1.9v12.98c0,.76-.26,1.39-.77,1.9-.51.51-1.15.77-1.91.77ZM46.65,60.18c-.76,0-1.39-.26-1.9-.77-.5-.51-.76-1.14-.76-1.9v-21.87c0-.76.26-1.39.77-1.9.51-.51,1.15-.77,1.91-.77s1.39.26,1.9.77c.5.51.76,1.14.76,1.9v21.87c0,.76-.26,1.39-.77,1.9-.51.51-1.15.77-1.91.77ZM61.32,60.18c-.76,0-1.39-.26-1.9-.77-.5-.51-.76-1.14-.76-1.9V24.98c0-.76.26-1.39.77-1.9.51-.51,1.15-.77,1.91-.77s1.39.26,1.9.77c.5.51.76,1.14.76,1.9v32.53c0,.76-.26,1.39-.77,1.9-.51.51-1.15.77-1.91.77ZM39.07,26.49c-.68,0-1.35-.14-2-.42-.65-.28-1.24-.67-1.78-1.18l-10.4-10.4L4.62,34.67c-.54.53-1.18.79-1.91.76-.74-.03-1.37-.31-1.9-.84-.48-.53-.74-1.16-.77-1.87-.03-.71.22-1.33.76-1.87L21.16,10.67c.54-.53,1.13-.91,1.78-1.15.65-.24,1.3-.36,1.95-.36s1.31.12,1.99.36c.67.24,1.25.62,1.75,1.15l10.49,10.49L59.47.8c.53-.53,1.16-.8,1.87-.8s1.33.27,1.86.8c.48.53.74,1.16.77,1.87s-.22,1.33-.76,1.87l-20.36,20.36c-.47.53-1.05.93-1.73,1.2-.68.27-1.36.4-2.04.4Z"/>
  </g>
</svg>