<?xml version="1.0" encoding="UTF-8"?>
<svg id="Camada_2" data-name="Camada 2" xmlns="http://www.w3.org/2000/svg" viewBox="0 0 51.65 64">
  <defs>
    <style>
      .cls-1 {
        fill: #fabe69;
      }
    </style>
  </defs>
  <g id="Camada_1-2" data-name="Camada 1">
    <path class="cls-1" d="M22.52,35.83l-6.38-6.38c-.48-.48-1.08-.73-1.78-.73s-1.29.24-1.78.73-.73,1.07-.73,1.76.24,1.29.73,1.79l7.99,8.07c.48.48,1.05.73,1.69.73s1.21-.24,1.69-.73l15.01-15.01c.48-.49.73-1.07.73-1.74s-.23-1.22-.69-1.65-1.04-.63-1.74-.61-1.26.26-1.69.69l-13.07,13.07ZM25.83,64c-.29,0-.55-.03-.8-.08s-.49-.13-.74-.24c-7.48-2.53-13.4-7.06-17.76-13.6C2.18,43.54,0,36.37,0,28.56v-15.81c0-1.04.29-1.97.88-2.8.58-.83,1.34-1.43,2.27-1.8L24.13.32c.59-.22,1.16-.32,1.69-.32s1.1.11,1.69.32l20.98,7.83c.93.37,1.68.97,2.27,1.8.58.83.88,1.76.88,2.8v15.81c0,7.81-2.18,14.98-6.54,21.52-4.36,6.54-10.28,11.07-17.76,13.6-.25.11-.49.19-.74.24s-.51.08-.8.08ZM25.83,59.24c6.19-2.04,11.23-5.91,15.13-11.58,3.9-5.68,5.85-12.04,5.85-19.09v-15.82l-20.98-7.91L4.84,12.75v15.82c0,7.05,1.95,13.41,5.85,19.09,3.9,5.68,8.94,9.54,15.13,11.58Z"/>
  </g>
</svg>