<?xml version="1.0" encoding="UTF-8"?>
<svg id="Camada_2" data-name="Camada 2" xmlns="http://www.w3.org/2000/svg" viewBox="0 0 54.86 64">
  <defs>
    <style>
      .cls-1 {
        fill: #fabe69;
      }
    </style>
  </defs>
  <g id="Camada_1-2" data-name="Camada 1">
    <path class="cls-1" d="M37.92,18.29l3.22,3.22-18.29,18.29-9.14-9.14,3.22-3.22,5.92,5.92,15.06-15.06ZM50.29,4.57v29.74c0,7.59-4.19,14.57-10.89,18.13l-11.96,6.38-11.97-6.38c-6.7-3.57-10.89-10.54-10.89-18.13V4.57h45.71ZM41.55,56.47c8.19-4.36,13.31-12.88,13.31-22.16V4.57c0-2.52-2.05-4.57-4.57-4.57H4.57C2.05,0,0,2.05,0,4.57v29.74c0,9.28,5.12,17.8,13.31,22.16l14.12,7.53,14.12-7.53Z"/>
  </g>
</svg>