<?xml version="1.0" encoding="UTF-8"?>
<svg id="Camada_2" data-name="Camada 2" xmlns="http://www.w3.org/2000/svg" viewBox="0 0 57.6 64">
  <defs>
    <style>
      .cls-1 {
        fill: #fabe69;
      }
    </style>
  </defs>
  <g id="Camada_1-2" data-name="Camada 1">
    <path class="cls-1" d="M4.8,64c-1.28,0-2.4-.48-3.36-1.44s-1.44-2.08-1.44-3.36V9.6c0-1.28.48-2.4,1.44-3.36.96-.96,2.08-1.44,3.36-1.44h5.2v-2.24c0-.73.25-1.33.74-1.82.49-.49,1.1-.74,1.82-.74s1.37.25,1.88.74c.51.49.76,1.1.76,1.82v2.24h27.2v-2.24c0-.73.25-1.33.74-1.82.49-.49,1.1-.74,1.82-.74s1.38.25,1.88.74c.51.49.76,1.1.76,1.82v2.24h5.2c1.28,0,2.4.48,3.36,1.44.96.96,1.44,2.08,1.44,3.36v49.6c0,1.28-.48,2.4-1.44,3.36s-2.08,1.44-3.36,1.44H4.8ZM4.8,59.2h48V24.8H4.8v34.4ZM4.8,20h48v-10.4H4.8v10.4ZM4.8,20v-10.4,10.4ZM28.8,38.4c-.91,0-1.67-.31-2.28-.92-.61-.61-.92-1.37-.92-2.28s.31-1.67.92-2.28c.61-.61,1.37-.92,2.28-.92s1.67.31,2.28.92c.61.61.92,1.37.92,2.28s-.31,1.67-.92,2.28c-.61.61-1.37.92-2.28.92ZM16,38.4c-.91,0-1.67-.31-2.28-.92-.61-.61-.92-1.37-.92-2.28s.31-1.67.92-2.28c.61-.61,1.37-.92,2.28-.92s1.67.31,2.28.92.92,1.37.92,2.28-.31,1.67-.92,2.28-1.37.92-2.28.92ZM41.6,38.4c-.91,0-1.67-.31-2.28-.92-.61-.61-.92-1.37-.92-2.28s.31-1.67.92-2.28,1.37-.92,2.28-.92,1.67.31,2.28.92.92,1.37.92,2.28-.31,1.67-.92,2.28-1.37.92-2.28.92ZM28.8,51.2c-.91,0-1.67-.31-2.28-.92-.61-.61-.92-1.37-.92-2.28s.31-1.67.92-2.28,1.37-.92,2.28-.92,1.67.31,2.28.92c.61.61.92,1.37.92,2.28s-.31,1.67-.92,2.28c-.61.61-1.37.92-2.28.92ZM16,51.2c-.91,0-1.67-.31-2.28-.92-.61-.61-.92-1.37-.92-2.28s.31-1.67.92-2.28c.61-.61,1.37-.92,2.28-.92s1.67.31,2.28.92c.61.61.92,1.37.92,2.28s-.31,1.67-.92,2.28c-.61.61-1.37.92-2.28.92ZM41.6,51.2c-.91,0-1.67-.31-2.28-.92-.61-.61-.92-1.37-.92-2.28s.31-1.67.92-2.28c.61-.61,1.37-.92,2.28-.92s1.67.31,2.28.92c.61.61.92,1.37.92,2.28s-.31,1.67-.92,2.28c-.61.61-1.37.92-2.28.92Z"/>
  </g>
</svg>