<?xml version="1.0" encoding="UTF-8"?>
<svg id="Camada_2" data-name="Camada 2" xmlns="http://www.w3.org/2000/svg" viewBox="0 0 61.78 64">
  <defs>
    <style>
      .cls-1 {
        fill: #fabe69;
      }
    </style>
  </defs>
  <g id="Camada_1-2" data-name="Camada 1">
    <path class="cls-1" d="M13.41,36.12c-.46-.45-.69-1.02-.69-1.71s.23-1.26.69-1.72c.46-.46,1.03-.69,1.71-.69h20.96c.68,0,1.25.23,1.71.68s.69,1.02.69,1.71-.23,1.26-.69,1.72c-.46.46-1.03.69-1.71.69H15.12c-.68,0-1.25-.23-1.71-.68ZM25.6,45.6h-10.48c-.68,0-1.25.23-1.71.69-.46.46-.69,1.04-.69,1.72s.23,1.25.69,1.71c.46.45,1.03.68,1.71.68h10.48c.68,0,1.25-.23,1.71-.69.46-.46.69-1.04.69-1.72s-.23-1.25-.69-1.71c-.46-.45-1.03-.68-1.71-.68ZM61.06,37.9l-9.86,9.86v11.45c0,1.28-.48,2.4-1.44,3.36-.96.96-2.08,1.44-3.36,1.44H4.8c-1.28,0-2.4-.48-3.36-1.44-.96-.96-1.44-2.08-1.44-3.36V4.8c0-1.28.48-2.4,1.44-3.36.96-.96,2.08-1.44,3.36-1.44h26.88c.66,0,1.3.13,1.9.4s1.12.61,1.54,1.04l14.64,14.64c.43.43.77.94,1.04,1.54s.4,1.23.4,1.9v21.35l6.42-6.42c.49-.48,1.07-.72,1.73-.72s1.23.24,1.71.72c.48.48.72,1.06.72,1.72s-.24,1.24-.72,1.72ZM46.4,52.55l-2.05,2.05c-.48.48-1.04.72-1.68.72s-1.2-.24-1.68-.72l-9.29-9.29c-.48-.48-.71-1.06-.68-1.72.03-.66.28-1.24.76-1.72.48-.48,1.06-.72,1.72-.72s1.24.24,1.72.72l7.45,7.53,3.73-3.73v-25.99h-12.72c-.68,0-1.25-.23-1.71-.69-.46-.46-.69-1.03-.69-1.71V4.8H4.8v54.4h41.6v-6.65Z"/>
  </g>
</svg>