<?xml version="1.0" encoding="UTF-8"?>
<svg id="Camada_2" data-name="Camada 2" xmlns="http://www.w3.org/2000/svg" viewBox="0 0 64 64">
  <defs>
    <style>
      .cls-1 {
        fill: #fabe69;
      }
    </style>
  </defs>
  <g id="Camada_1-2" data-name="Camada 1">
    <path class="cls-1" d="M5.12,62.32c-.48.48-1.06.72-1.72.72s-1.25-.24-1.75-.71c-.46-.47-.69-1.03-.69-1.68,0-.65.24-1.21.72-1.69l8.56-8.56h-5.92c-.68,0-1.25-.23-1.71-.68-.46-.45-.69-1.02-.69-1.71,0-.68.23-1.26.69-1.72.46-.46,1.03-.69,1.71-.69h11.68c.67,0,1.23.23,1.7.7s.7,1.03.7,1.7v11.68c0,.68-.23,1.25-.68,1.71-.45.46-1.02.69-1.71.69s-1.26-.23-1.72-.69c-.46-.46-.69-1.03-.69-1.71v-5.84s-8.48,8.48-8.48,8.48ZM29.56,63.88c-.83-.08-1.64-.17-2.44-.28-.69-.11-1.25-.41-1.68-.91-.43-.5-.64-1.13-.64-1.89,0-.59.24-1.09.72-1.52s1.01-.59,1.6-.48c.8.11,1.61.2,2.43.28.82.08,1.64.12,2.45.12,2.24-1.87,3.89-4.16,4.96-6.88s1.97-5.49,2.72-8.32h-12.48c-.68,0-1.25-.23-1.71-.68-.46-.45-.69-1.02-.69-1.71,0-.68.23-1.26.69-1.72.46-.46,1.03-.69,1.71-.69h13.36c.16-1.17.28-2.35.36-3.52s.12-2.36.12-3.56-.04-2.4-.12-3.6c-.08-1.2-.21-2.41-.39-3.64h-17.17c-.16,1.21-.28,2.43-.36,3.64-.08,1.21-.12,2.43-.12,3.64,0,.75.01,1.52.04,2.32.03.8.09,1.57.2,2.32.05.64-.13,1.2-.56,1.68s-.97.72-1.63.72c-.7,0-1.3-.24-1.79-.72-.49-.48-.77-1.07-.82-1.76-.05-.75-.11-1.51-.16-2.28s-.08-1.53-.08-2.28c0-1.21.05-2.42.16-3.63.11-1.21.21-2.43.32-3.65H5.74c-.31,1.21-.55,2.43-.71,3.64-.16,1.21-.24,2.43-.24,3.64,0,.75.04,1.51.12,2.28s.17,1.53.28,2.28c.11.64-.04,1.21-.44,1.72s-.93.76-1.58.76c-.73,0-1.37-.23-1.9-.68-.53-.45-.85-1.05-.96-1.8s-.19-1.51-.24-2.28C.03,33.67,0,32.91,0,32.16c0-4.45.84-8.64,2.52-12.55,1.68-3.92,3.96-7.32,6.84-10.22,2.88-2.9,6.27-5.19,10.16-6.87S27.57,0,32,0c4.43,0,8.59.84,12.48,2.52,3.89,1.68,7.28,3.97,10.16,6.87,2.88,2.9,5.16,6.3,6.84,10.22,1.68,3.92,2.52,8.1,2.52,12.55,0,4.39-.84,8.51-2.52,12.37-1.68,3.86-3.96,7.23-6.84,10.11-2.88,2.88-6.27,5.16-10.16,6.84-3.89,1.68-8.05,2.52-12.48,2.52-.8,0-1.61-.04-2.44-.12ZM58.96,35.73c.16-1.16.24-2.34.24-3.56s-.08-2.43-.23-3.65c-.16-1.22-.39-2.43-.7-3.65h-12.74c.11,1.21.19,2.43.24,3.64.05,1.21.08,2.43.08,3.64,0,1.17-.03,2.35-.1,3.52s-.17,2.35-.3,3.52h12.82c.31-1.16.55-2.31.71-3.47ZM49.36,53.12c3.09-2.51,5.52-5.55,7.28-9.12h-12.08c-.53,2.56-1.27,5.04-2.2,7.44-.93,2.4-2.09,4.69-3.48,6.88,3.89-.96,7.39-2.69,10.48-5.2ZM49.16,11.16c-3.12-2.43-6.57-4.28-10.36-5.56,1.44,2.24,2.63,4.57,3.56,7,.93,2.43,1.7,4.92,2.31,7.48h11.97c-1.87-3.52-4.36-6.49-7.48-8.92ZM36.88,11.8c-1.23-2.64-2.85-5.03-4.88-7.16-2.03,2.08-3.65,4.45-4.88,7.12-1.23,2.67-2.19,5.44-2.88,8.32h15.44c-.64-2.88-1.57-5.64-2.8-8.28ZM21.56,12.6c.93-2.43,2.12-4.73,3.56-6.92-3.79,1.17-7.23,2.99-10.32,5.44-3.09,2.45-5.57,5.44-7.44,8.96h11.89c.6-2.56,1.37-5.05,2.31-7.48Z"/>
  </g>
</svg>