<?xml version="1.0" encoding="UTF-8"?>
<svg id="Camada_2" data-name="Camada 2" xmlns="http://www.w3.org/2000/svg" viewBox="0 0 64 57.6">
  <defs>
    <style>
      .cls-1 {
        fill: #fabe69;
      }
    </style>
  </defs>
  <g id="Camada_1-2" data-name="Camada 1">
    <path class="cls-1" d="M17.6,33.6v2.4c0,.43.16.8.48,1.12s.69.48,1.12.48.8-.16,1.12-.48.48-.69.48-1.12v-8c0-.43-.16-.8-.48-1.12-.32-.32-.69-.48-1.12-.48s-.8.16-1.12.48-.48.69-.48,1.12v2.4h-3.2c-.43,0-.8.16-1.12.48s-.48.69-.48,1.12.16.8.48,1.12.69.48,1.12.48h3.2ZM27.2,33.6h22.4c.43,0,.8-.16,1.12-.48s.48-.69.48-1.12-.16-.8-.48-1.12-.69-.48-1.12-.48h-22.4c-.43,0-.8.16-1.12.48s-.48.69-.48,1.12.16.8.48,1.12.69.48,1.12.48ZM46.4,20.8h3.2c.43,0,.8-.16,1.12-.48s.48-.69.48-1.12-.16-.8-.48-1.12-.69-.48-1.12-.48h-3.2v-2.4c0-.43-.16-.8-.48-1.12s-.69-.48-1.12-.48-.8.16-1.12.48-.48.69-.48,1.12v8c0,.43.16.8.48,1.12s.69.48,1.12.48.8-.16,1.12-.48.48-.69.48-1.12v-2.4ZM14.4,20.8h22.4c.43,0,.8-.16,1.12-.48s.48-.69.48-1.12-.16-.8-.48-1.12-.69-.48-1.12-.48H14.4c-.43,0-.8.16-1.12.48s-.48.69-.48,1.12.16.8.48,1.12.69.48,1.12.48ZM4.8,51.2c-1.28,0-2.4-.48-3.36-1.44-.96-.96-1.44-2.08-1.44-3.36V4.8c0-1.28.48-2.4,1.44-3.36.96-.96,2.08-1.44,3.36-1.44h54.4c1.28,0,2.4.48,3.36,1.44.96.96,1.44,2.08,1.44,3.36v41.6c0,1.28-.48,2.4-1.44,3.36-.96.96-2.08,1.44-3.36,1.44h-15.2v4c0,.69-.23,1.27-.68,1.72-.45.45-1.03.68-1.72.68h-19.2c-.69,0-1.27-.23-1.72-.68-.45-.45-.68-1.03-.68-1.72v-4H4.8ZM4.8,46.4h54.4V4.8H4.8v41.6ZM4.8,46.4V4.8v41.6Z"/>
  </g>
</svg>