<svg xmlns="http://www.w3.org/2000/svg" data-name="Camada 2" viewBox="0 0 70.87 70.87"><defs><style>.iso27001cls-1{fill-rule:evenodd}.iso27001cls-1,.iso27001cls-2{fill:#f9c25c}.iso27001cls-3{fill:#1e2d3a}</style></defs><g id="Arte"><g id="_6" data-name="6"><path d="M70.87 35.43c0 19.57-15.86 35.43-35.43 35.43S0 55 0 35.43 15.86 0 35.43 0s35.43 15.86 35.43 35.43" class="iso27001cls-1"/><path d="M68.55 35.43c0 18.29-14.83 33.12-33.12 33.12S2.32 53.72 2.32 35.43 17.14 2.32 35.43 2.32s33.12 14.83 33.12 33.12" class="iso27001cls-3"/><path d="M58.1 35.43c0 12.52-10.15 22.67-22.67 22.67S12.76 47.95 12.76 35.43s10.15-22.67 22.67-22.67S58.1 22.91 58.1 35.43" class="iso27001cls-2"/><path d="m17.95 15.12.61.61c.73.74.7 1.6-.16 2.44-.86.85-1.72.87-2.45.13l-2.37-2.39c-.73-.74-.7-1.6.15-2.44.86-.85 1.72-.87 2.45-.13l.44.45-.82.82-.49-.49c-.33-.33-.62-.28-.9 0-.28.27-.33.57 0 .9l2.46 2.49c.33.33.62.27.89 0 .28-.27.33-.57 0-.89l-.65-.66.82-.82ZM20.33 11.77l1.43-.89.49.79-1.43.88 1 1.62 1.8-1.12.49.78-2.85 1.77-3.41-5.5 2.84-1.77.49.79-1.8 1.11.95 1.54zM25.33 7.31l.64 1.89.45-.15c.43-.15.64-.39.48-.88l-.2-.61c-.15-.44-.39-.57-.81-.43l-.56.19Zm3.05 4.83c-.12-.14-.19-.22-.36-.72l-.33-.96c-.19-.57-.5-.7-1.02-.52l-.4.14.84 2.5-1.16.39-2.07-6.14 1.75-.59c1.21-.41 1.88-.12 2.2.83l.16.48c.21.63.11 1.12-.34 1.49v.02c.66 0 1 .4 1.22 1.04l.32.95c.1.3.19.51.38.7l-1.18.4ZM30.49 4.97l3.78-.37.09.92-1.28.12.55 5.53-1.23.12-.54-5.52-1.28.12-.09-.92z" class="iso27001cls-1"/><path d="M34.55 7.36h6.48v1.23h-6.48z" class="iso27001cls-2" transform="rotate(-85.16 37.789 7.969)"/><path d="m42.6 8.44 1.52.42-.24.89-1.53-.42-.71 2.58-1.18-.32 1.71-6.25 3.13.86-.24.89-1.95-.53-.51 1.88z" class="iso27001cls-1"/><path d="M44.2 10.01h6.48v1.23H44.2z" class="iso27001cls-2" transform="rotate(-64.13 47.436 10.623)"/><path d="m51.85 12.66 1.35 1-.55.75-1.35-1.01-1.13 1.53 1.7 1.26-.55.74-2.69-1.99 3.86-5.2 2.69 1.99-.55.74-1.71-1.26-1.07 1.45zM57.84 15.67l-3.53 2.99.45.53c.25.3.53.37.88.07l2.57-2.18c.35-.3.33-.59.08-.88l-.45-.53Zm-.09-1.54 1.26 1.48c.79.94.75 1.76-.04 2.43l-2.5 2.12c-.79.67-1.61.58-2.4-.36l-1.26-1.48 4.94-4.19ZM16.68 56.7l-.69.59c-.83.71-1.73.62-2.55-.34-.83-.96-.79-1.86.04-2.58l2.68-2.31c.83-.71 1.73-.62 2.55.34.83.96.79 1.86-.04 2.58l-.5.43-.8-.92.55-.48c.37-.32.34-.63.07-.95-.27-.31-.58-.39-.95-.07l-2.79 2.4c-.37.32-.33.63-.06.94.27.31.57.39.94.07l.74-.64.8.92ZM19.72 60.44c-.27.41-.16.7.19.93.34.23.66.22.93-.19l2.04-3.07c.27-.41.16-.7-.19-.93-.34-.23-.66-.22-.93.19l-2.04 3.06Zm.93-3.72c.6-.91 1.53-1.04 2.58-.34 1.06.7 1.29 1.6.68 2.51l-1.96 2.95c-.6.91-1.53 1.04-2.58.34-1.06-.7-1.29-1.6-.68-2.51l1.96-2.95ZM28.21 63.99l.03.01 2.13-4.43 1.73.48-1.83 6.57-1.17-.33 1.31-4.71-.03-.01-2.14 4.48-1.18-.33.39-4.89-.03-.01-1.28 4.65-1.09-.31 1.82-6.56 1.73.48-.39 4.91zM35.86 61.1l.09 2.31.61-.02c.41-.02.63-.18.61-.67l-.04-1.02c-.02-.49-.25-.63-.66-.62l-.61.02Zm2.56.62.03.89c.04 1.09-.57 1.71-1.86 1.75l-.61.02.1 2.56-1.29.05-.25-6.81 1.9-.07c1.29-.05 1.95.52 1.99 1.61ZM42.85 63.75l1.19-.37-1.62-3.1h-.02l.45 3.48Zm3.46 1.18-1.24.39-.58-1.11-1.51.48.16 1.25-1.13.36-.8-6.9 1.8-.57 3.3 6.1ZM48.16 58.38l-.01.01 2.76 4.09-.96.65-3.82-5.64 1.34-.91 3.37 2.65.02-.01-2.29-3.38.95-.65 3.82 5.65-1.1.74-4.08-3.2zM55.58 55.53l-4.55-1.66.87-1.04 3.01 1.24.01-.02-1.76-2.73.78-.95 2.46 4.17 1.74 1.44-.82.99-1.74-1.44z" class="iso27001cls-1"/><path d="M46.57 34.22c-.08.37-.33.76-.72.9-.63.28-1.48.2-2.06-.12-.49-.34-.55-.91-.61-1.45-.05-1.07-.12-2.19.17-3.17.23-.6.88-.76 1.46-.8.61 0 1.21.09 1.59.59.24.35.22.82.27 1.24-.02.88.06 1.93-.09 2.83m3.7-4.42c-.28-.74-.87-1.41-1.57-1.88-2.04-1.3-5.16-1.39-7.26-.22-1.15.59-1.9 1.74-2.14 2.94-.43 1.96-.32 4.29 1.19 5.76 1.76 1.54 4.32 1.88 6.6 1.25.11-.02.45-.11.69-.23l.07-.03c.71-.29 1.38-.77 1.89-1.42 1.16-1.7 1.24-4.25.54-6.16ZM27.94 35.18c-.52-.03-1.1.01-1.6-.05v-5.42l.05-.05 1.56-.02c.02-.88.03-1.82-.02-2.63L22 26.99l-.98.02c-.02.82-.02 1.78 0 2.61.54.02 1.04 0 1.56.05v5.47l-1.57.03c-.03.86-.03 1.7 0 2.55h6.93v-2.55ZM39.54 43.34l-.74.23c-.13-.06-.24-.15-.35-.25l.03-.05c1.01-.59 1.92-1.3 2.78-2.15.42.17.83.4 1.21.66-.88.7-1.9 1.16-2.94 1.55m-1.5.44c-1.67.36-3.52.37-5.19-.03-.03-.08.08-.09.13-.14 1.46-.94 3.74-.94 5.17.08.05.09-.08.06-.11.09Zm-5.83-.2a11.18 11.18 0 0 1-3.68-1.73v-.05c.38-.23.76-.48 1.16-.65.9.88 1.82 1.55 2.83 2.18-.08.09-.21.19-.31.25Zm-2.03-2.64c.61-.29 1.26-.51 1.92-.68l.06.02c.45.85 1.02 1.65 1.59 2.46-.22.12-.49.2-.71.32a10.5 10.5 0 0 1-2.86-2.07v-.05Zm2.53-.84c.82-.15 1.67-.28 2.55-.28l.02 2.61c-.33.08-.69.08-1.01.15-.64-.76-1.18-1.58-1.63-2.43l.08-.06Zm3.04-.28c.9.02 1.79.11 2.63.31l.02.05c-.44.83-.99 1.64-1.59 2.39-.27.03-.52-.08-.79-.09l-.27-.03c-.03-.91-.05-1.71 0-2.63Zm3.09.47.05-.03c.68.15 1.32.37 1.92.66-.5.57-1.15 1.07-1.74 1.48-.36.22-.72.45-1.1.63l-.67-.29.05-.11c.57-.76 1.07-1.53 1.51-2.35Zm6.56-1.39c-.66.94-1.49 1.85-2.4 2.56-.03.05-.13.03-.16-.02-.39-.25-.82-.45-1.2-.69.5-.6.99-1.2 1.37-1.87h-.49c-.39.57-.8 1.18-1.32 1.68-.69-.28-1.32-.53-2.03-.71l-.08-.06c.11-.31.31-.6.38-.91h-.42l-.42.83c-.93-.2-1.95-.31-2.89-.37-.05-.14.02-.34-.05-.46h-.41c-.03.19.05.33-.05.48-.97.04-1.92.15-2.83.34l-.43-.82c-.16 0-.33-.03-.44.02l.39.91-.05.04c-.71.2-1.4.45-2.07.73l-.06-.03c-.44-.48-.87-1-1.21-1.53-.08-.26-.39-.11-.57-.14.38.68.88 1.28 1.38 1.9-.42.25-.85.52-1.29.73a11.38 11.38 0 0 1-2.48-2.61c-.19-.03-.31-.02-.5 0 1.13 1.76 2.89 3.31 4.73 4.22 0 0 0-.01.02-.01.01 0 .05.03.01.05 1.24.6 2.56 1.03 3.96 1.22 4.83.63 9.43-1.42 12.11-5.47a2.09 2.09 0 0 0-.5 0ZM28.46 22.94c.99-.73 2.09-1.27 3.26-1.64.05-.05.08-.09.14-.09v.03c.13.03.22-.11.33-.02.09.08.21.14.28.22-.97.6-1.93 1.31-2.81 2.18-.42-.15-.82-.38-1.2-.65v-.03Zm9.59-1.91v.03c-1.37.99-3.58 1.08-5.03.17-.08-.06-.24-.09-.25-.2 1.67-.38 3.63-.42 5.28 0Zm.63.15c1.32.34 2.56.93 3.69 1.73l-.03.06-1.08.6h-.08c-.83-.83-1.81-1.56-2.8-2.13.03-.11.19-.19.3-.26Zm2.01 2.64c-.61.26-1.24.51-1.92.65-.49-.82-1.02-1.64-1.62-2.43.22-.12.49-.21.72-.34 1.02.51 2.01 1.23 2.85 2.07l-.03.05Zm-5.02 1.09c-.03-.82-.02-1.73 0-2.58.31-.05.66-.09.97-.14.61.77 1.21 1.56 1.62 2.41-.85.2-1.71.31-2.6.31Zm-.48-.02c-.44.06-.83-.01-1.27-.05-.42-.06-.96-.11-1.38-.25.46-.85.99-1.67 1.64-2.42l1.01.14c.05.8.01 1.73.01 2.58Zm-3.13-.42H32c-.64-.15-1.27-.36-1.87-.62l.03-.09c.87-.82 1.78-1.5 2.78-2.02.24.09.47.17.71.28l-.05.12c-.6.74-1.07 1.55-1.54 2.34Zm-6.53 1.36c.38-.53.8-1.03 1.27-1.53.41-.39.79-.76 1.23-1.04.41.26.87.48 1.26.73-.49.6-.99 1.2-1.35 1.85.11.05.31.03.47 0 .39-.57.82-1.14 1.32-1.65.67.25 1.34.51 2.03.7l.06.06-.39.9c.17.03.28.02.46 0 .14-.26.25-.55.41-.82.91.2 1.87.31 2.85.34.13.11.03.34.08.48h.42c.05-.15-.01-.32.05-.46.91-.05 1.87-.14 2.75-.36l.08.02.42.8c.14 0 .33.03.44-.03l-.39-.89.03-.03c.72-.19 1.4-.46 2.09-.74.49.51.94 1.11 1.35 1.7.17 0 .35.02.47-.03-.19-.34-.43-.68-.68-.97-.21-.29-.42-.55-.69-.83v-.08l1.1-.63.16-.06c.96.73 1.81 1.61 2.48 2.58.19 0 .35.06.5-.01a12.447 12.447 0 0 0-9.34-5.47l-.02.03-.03-.03a7.23 7.23 0 0 0-1.4-.02c-.17-.01-.38 0-.58.02-3.77.29-7.25 2.22-9.42 5.51.16-.02.35.05.5-.02ZM35.2 35.3c-1.48.4-3.08.1-4.15-1.02-.12-.15-.2-.34-.33-.49l-2.12.02c-.03 1.25-.05 2.69 0 3.92l2.36-.02.03-.74c.27.12.54.28.8.42 1.64.68 3.74.84 5.36 0 1.18-.65 1.81-1.9 1.64-3.25-.17-1.31-1.43-2.5-2.7-2.83l-3.81-1.1-.28-.14c-.13-.11-.21-.24-.17-.42.3-.51.99-.35 1.51-.34 1.1.15 2.23.53 2.88 1.53.69 0 1.49.01 2.25-.02.03-1.27-.01-2.38-.03-3.66-.71-.02-1.57-.02-2.28.02-.03.18.03.45-.05.63l-.72-.39c-1.73-.73-4.15-.8-5.72.33-1.02.74-1.34 2.07-1.07 3.24.2 1.11 1.27 1.93 2.3 2.32 1.4.49 2.86.85 4.28 1.33.14.06.33.2.3.37 0 .14-.14.22-.25.28M40.04 49.34c0-.45.01-.78.04-1 .03-.22.08-.38.14-.49.09-.15.2-.25.33-.32s.31-.1.52-.1.38.03.52.1c.13.07.25.17.33.32.07.11.12.27.14.49.03.22.04.55.04 1s-.01.8-.04 1.01c-.03.22-.07.38-.14.49-.09.16-.2.27-.34.34s-.31.11-.52.11-.38-.04-.52-.11a.855.855 0 0 1-.34-.34c-.06-.11-.11-.27-.14-.48-.03-.21-.04-.55-.04-1.03Zm1.37.34v-1.02c0-.3-.02-.49-.07-.58-.05-.09-.14-.13-.26-.13s-.22.04-.26.13c-.05.09-.07.29-.07.6v1.38c0 .3.02.49.07.58.05.09.14.13.26.13s.22-.05.26-.13c.05-.09.07-.29.07-.61v-.36Zm-3.87 1.55v-.12c0-.29.06-.57.18-.83.12-.27.3-.52.54-.77.04-.04.11-.11.2-.19.16-.16.27-.27.32-.35a.88.88 0 0 0 .11-.24c.02-.09.04-.18.04-.29 0-.16-.03-.28-.08-.35-.06-.08-.15-.12-.26-.12s-.22.05-.27.14c-.06.09-.09.25-.09.45v.15h-.66v-.13c0-.39.08-.68.25-.86.17-.18.43-.27.79-.27.34 0 .59.08.77.25.18.16.27.4.27.71 0 .15-.02.28-.05.4-.03.12-.08.24-.15.35-.05.09-.17.22-.35.41-.09.09-.17.17-.22.23-.36.4-.56.68-.61.84h1.33v.6h-2.04Zm4.95 0v-.12c0-.29.06-.57.18-.83.12-.27.3-.52.54-.77.04-.04.11-.11.2-.19.16-.16.27-.27.32-.35a.88.88 0 0 0 .11-.24c.02-.09.04-.18.04-.29 0-.16-.03-.28-.08-.35-.06-.08-.15-.12-.26-.12s-.22.05-.27.14c-.06.09-.09.25-.09.45v.15h-.66v-.13c0-.39.08-.68.25-.86.17-.18.43-.27.79-.27.34 0 .59.08.77.25.18.16.27.4.27.71 0 .15-.02.28-.05.4-.03.12-.08.24-.15.35-.05.09-.17.22-.35.41-.09.09-.17.17-.22.23-.36.4-.56.68-.61.84h1.33v.6h-2.04Zm2.36 0v-.12c0-.29.06-.57.18-.83.12-.27.3-.52.54-.77.04-.04.11-.11.2-.19.16-.16.27-.27.32-.35a.88.88 0 0 0 .11-.24c.02-.09.04-.18.04-.29 0-.16-.03-.28-.08-.35-.06-.08-.15-.12-.26-.12s-.22.05-.27.14c-.06.09-.09.25-.09.45v.15h-.66v-.13c0-.39.08-.68.25-.86.17-.18.43-.27.79-.27.34 0 .59.08.77.25.18.16.27.4.27.71 0 .15-.02.28-.05.4-.03.12-.08.24-.15.35-.05.09-.17.22-.35.41-.09.09-.17.17-.22.23-.36.4-.56.68-.61.84h1.33v.6h-2.04Zm-8.53 0v-.68h.63v.68h-.63Zm0-2.11v-.68h.63v.68h-.63Zm-1.81 2.11v-2.65h-.83v-.45c.31-.01.55-.07.72-.19.17-.12.28-.28.31-.5h.46v3.79h-.66Zm-3.35-1.89c0-.45.01-.78.04-1 .03-.22.08-.38.14-.49.09-.15.2-.25.33-.32s.31-.1.52-.1.38.03.52.1c.13.07.25.17.33.32.07.11.12.27.14.49.03.22.04.55.04 1s-.01.8-.04 1.01c-.03.22-.07.38-.14.49-.09.16-.2.27-.34.34s-.31.11-.52.11-.38-.04-.52-.11a.855.855 0 0 1-.34-.34c-.06-.11-.11-.27-.14-.48-.03-.21-.04-.55-.04-1.03Zm1.37.34v-1.02c0-.3-.02-.49-.07-.58-.05-.09-.14-.13-.26-.13s-.22.04-.26.13c-.05.09-.07.29-.07.6v1.38c0 .3.02.49.07.58.05.09.14.13.26.13s.22-.05.26-.13c.05-.09.07-.29.07-.61v-.36Zm-3.87-.34c0-.45.01-.78.04-1 .03-.22.08-.38.14-.49.09-.15.2-.25.33-.32s.31-.1.52-.1.38.03.52.1c.13.07.25.17.33.32.07.11.11.27.14.49.03.22.04.55.04 1s-.01.8-.04 1.01c-.03.22-.07.38-.14.49-.09.16-.2.27-.34.34s-.31.11-.52.11-.38-.04-.52-.11a.855.855 0 0 1-.34-.34c-.06-.11-.11-.27-.14-.48-.03-.21-.04-.55-.04-1.03Zm1.37.34v-1.02c0-.3-.02-.49-.07-.58-.05-.09-.14-.13-.26-.13s-.22.04-.26.13c-.05.09-.07.29-.07.6v1.38c0 .3.02.49.07.58.05.09.14.13.26.13s.22-.05.26-.13c.05-.09.07-.29.07-.61v-.36Zm-3.43 1.55c.04-.47.13-.96.29-1.48.16-.52.38-1.06.66-1.62h-1.41v-.62h2.08v.54c-.26.47-.46.98-.61 1.51a8.21 8.21 0 0 0-.29 1.67h-.72Zm-2.95 0v-.12c0-.29.06-.57.18-.83.12-.27.3-.52.54-.77.04-.04.11-.11.2-.19.16-.16.27-.27.32-.35a.88.88 0 0 0 .11-.24c.02-.09.04-.18.04-.29 0-.16-.03-.28-.09-.35-.06-.08-.15-.12-.26-.12s-.22.05-.27.14c-.06.09-.09.25-.09.45v.15h-.66v-.13c0-.39.08-.68.25-.86.17-.18.43-.27.79-.27.34 0 .59.08.77.25.18.16.27.4.27.71 0 .15-.02.28-.05.4-.03.12-.08.24-.15.35-.05.09-.17.22-.35.41-.09.09-.17.17-.22.23-.36.4-.56.68-.61.84h1.33v.6h-2.04Z" class="iso27001cls-3"/></g></g></svg>