<svg width="93" height="49" viewBox="0 0 93 49" fill="none" xmlns="http://www.w3.org/2000/svg">
<path d="M42.1569 7.14C37.5469 2.53 31.4269 0 24.9069 0C18.3869 0 12.2669 2.54 7.65687 7.14C3.04687 11.75 0.506866 17.88 0.506866 24.39C0.506866 30.9 3.04687 37.04 7.65687 41.64C12.4169 46.4 18.6569 48.78 24.9069 48.78C31.1569 48.78 37.4069 46.4 42.1569 41.64L56.2169 27.59C57.4969 33.13 62.4569 37.28 68.3869 37.28C75.2769 37.28 80.8869 31.68 80.8869 24.78C80.8869 17.88 75.2769 12.28 68.3869 12.28C65.0869 12.28 62.0869 13.57 59.8569 15.67L59.8069 15.62L37.9769 37.45C30.7669 44.66 19.0469 44.65 11.8469 37.45C8.35687 33.96 6.43687 29.32 6.43687 24.39C6.43687 19.46 8.35687 14.82 11.8469 11.32C15.3369 7.83 19.9769 5.91 24.9169 5.91C29.8569 5.91 34.4969 7.83 37.9869 11.32L42.1769 7.13L42.1569 7.14ZM68.3869 18.22C72.0069 18.22 74.9569 21.17 74.9569 24.79C74.9569 28.41 72.0069 31.36 68.3869 31.36C64.7669 31.36 61.8169 28.41 61.8169 24.79C61.8169 21.17 64.7669 18.22 68.3869 18.22Z" fill="white" fill-opacity="0.3"/>
<path d="M50.7369 41.6599C55.4969 46.4099 61.7469 48.7899 67.9869 48.7899C74.2269 48.7899 80.4869 46.41 85.2369 41.6499C94.7569 32.1399 94.7569 16.6599 85.2369 7.13995C75.7269 -2.37005 60.2469 -2.37005 50.7269 7.13995L36.6769 21.1899C35.3969 15.6499 30.4369 11.4999 24.5069 11.4999C17.6169 11.4999 12.0069 17.1099 12.0069 23.9999C12.0069 30.8899 17.6069 36.4999 24.5069 36.4999C27.8069 36.4999 30.8069 35.1999 33.0469 33.1099L33.0969 33.1599L54.9269 11.3299C62.1269 4.12995 73.8569 4.12995 81.0569 11.3299C88.2569 18.5299 88.2569 30.2599 81.0569 37.4599C73.8469 44.6599 62.1269 44.6599 54.9269 37.4599L50.7369 41.6499V41.6599ZM24.5069 30.5799C20.8869 30.5799 17.9369 27.6299 17.9369 24.0099C17.9369 20.3899 20.8869 17.4299 24.5069 17.4299C28.1269 17.4299 31.0869 20.3799 31.0869 24.0099C31.0869 27.6399 28.1369 30.5799 24.5069 30.5799Z" fill="white"/>
</svg>
