<svg width="119" height="118" viewBox="0 0 119 118" fill="none" xmlns="http://www.w3.org/2000/svg">
<g clip-path="url(#clip0_54_160)">
<path fill-rule="evenodd" clip-rule="evenodd" d="M118.61 58.9267C118.61 91.4752 92.2318 117.853 59.6833 117.853C27.1348 117.853 0.73999 91.4752 0.73999 58.9267C0.73999 26.3781 27.1181 0 59.6667 0C92.2152 0 118.593 26.3781 118.593 58.9267" fill="#131F2C"/>
<path d="M114.751 58.9267C114.751 89.3464 90.0863 114.011 59.6667 114.011C29.247 114.011 4.59857 89.3464 4.59857 58.9267C4.59857 28.5071 29.247 3.85864 59.6667 3.85864C90.0863 3.85864 114.751 28.5237 114.751 58.9434" fill="white"/>
<path d="M97.3711 58.9266C97.3711 79.7497 80.4897 96.631 59.6666 96.631C38.8436 96.631 21.9622 79.7497 21.9622 58.9266C21.9622 38.1035 38.8436 21.2222 59.6666 21.2222C80.4897 21.2222 97.3711 38.1035 97.3711 58.9266Z" fill="#131F2C"/>
<path d="M78.1946 56.9143C78.0615 57.5297 77.6457 58.1784 76.9971 58.4112C75.9493 58.8769 74.5356 58.7438 73.5709 58.2116C72.756 57.6461 72.6562 56.6981 72.5564 55.8C72.4732 54.0204 72.3568 52.1576 72.8391 50.5277C73.2217 49.5298 74.3027 49.2637 75.2674 49.1972C76.2819 49.1972 77.2798 49.3468 77.9118 50.1784C78.311 50.7606 78.2777 51.5422 78.3609 52.2408C78.3276 53.7044 78.4607 55.4507 78.2112 56.9476M84.365 49.5963C83.8993 48.3656 82.918 47.2512 81.7538 46.4695C78.3609 44.3074 73.1718 44.1577 69.6791 46.1036C67.7664 47.0849 66.519 48.9976 66.1199 50.9934C65.4047 54.2532 65.5876 58.1285 68.099 60.5733C71.0263 63.1347 75.284 63.7001 79.0761 62.6523C79.259 62.6191 79.8245 62.4694 80.2237 62.2698L80.3401 62.2199C81.521 61.7376 82.6353 60.9393 83.4835 59.8582C85.4128 57.0308 85.5459 52.7896 84.3816 49.613L84.365 49.5963Z" fill="white"/>
<path d="M47.2094 58.5109C46.3446 58.461 45.3799 58.5275 44.5483 58.4277V49.4133L44.6315 49.3301L47.2261 49.2968C47.2593 47.8332 47.2759 46.2698 47.1928 44.9227L37.3301 44.8894L35.7002 44.9227C35.6669 46.2865 35.6669 47.8831 35.7002 49.2636C36.5983 49.2968 37.4299 49.2636 38.2947 49.3467V58.4444L35.6835 58.4943C35.6336 59.9246 35.6336 61.3217 35.6835 62.7354H47.2094V58.4943V58.5109Z" fill="white"/>
<path d="M66.5024 72.0824L65.2716 72.4649C65.0554 72.3651 64.8724 72.2154 64.6895 72.0491L64.7394 71.966C66.4192 70.9847 67.9327 69.8038 69.363 68.3901C70.0616 68.6729 70.7435 69.0554 71.3755 69.4878C69.9119 70.652 68.2154 71.4171 66.4857 72.0658M63.991 72.7976C61.2134 73.3963 58.1365 73.4129 55.359 72.7477C55.3091 72.6146 55.4921 72.598 55.5752 72.5148C58.0035 70.9514 61.7956 70.9514 64.1739 72.6479C64.2571 72.7976 64.0409 72.7477 63.991 72.7976ZM54.2946 72.4649C52.0992 71.8994 50.0535 70.9182 48.1741 69.5876V69.5045C48.8061 69.1219 49.4381 68.7061 50.1034 68.4234C51.6002 69.887 53.1304 71.0013 54.8102 72.0491C54.6771 72.1988 54.4609 72.3651 54.2946 72.4649ZM50.9183 68.0741C51.9329 67.5918 53.0139 67.2259 54.1116 66.9431L54.2114 66.9764C54.9599 68.3901 55.9079 69.7207 56.8559 71.0678C56.49 71.2674 56.0409 71.4005 55.675 71.6001C53.9453 70.7518 52.2988 69.571 50.9183 68.1573V68.0741ZM55.1262 66.677C56.49 66.4276 57.9037 66.2113 59.3673 66.2113L59.4006 70.5523C58.8517 70.6853 58.253 70.6853 57.7207 70.8017C56.6563 69.5377 55.7582 68.1739 55.0098 66.7602L55.1428 66.6604L55.1262 66.677ZM60.1823 66.2113C61.6791 66.2446 63.1594 66.3943 64.5564 66.7269L64.5897 66.8101C63.8579 68.1905 62.9431 69.5377 61.9452 70.7851C61.4962 70.835 61.0804 70.652 60.6313 70.6354L60.1823 70.5855C60.1324 69.072 60.0991 67.7415 60.1823 66.2113ZM65.3215 66.993L65.4047 66.9431C66.5356 67.1926 67.6001 67.5585 68.598 68.0408C67.7664 68.9889 66.6853 69.8205 65.704 70.5024C65.1053 70.8683 64.5065 71.2508 63.8745 71.5502L62.7602 71.0678L62.8434 70.8849C63.7914 69.6209 64.623 68.3402 65.3548 66.9764L65.3215 66.993ZM76.232 64.6812C75.1343 66.2446 73.7539 67.7581 72.2404 68.939C72.1905 69.0221 72.0241 68.9889 71.9743 68.9057C71.3256 68.4899 70.6104 68.1573 69.9784 67.7581C70.81 66.7602 71.625 65.7623 72.257 64.6479H71.442C70.7934 65.596 70.1115 66.6105 69.2466 67.4421C68.099 66.9764 67.0512 66.5606 65.8704 66.2612L65.7373 66.1614C65.9203 65.6459 66.2529 65.1635 66.3693 64.6479H65.6708L64.9722 66.0284C63.4255 65.6958 61.729 65.5128 60.1656 65.413C60.0825 65.1802 60.1989 64.8475 60.0825 64.6479H59.4006C59.3507 64.9639 59.4837 65.1968 59.3174 65.4463C57.7041 65.5128 56.1241 65.6958 54.6106 66.0118L53.8954 64.6479C53.6293 64.6479 53.3466 64.598 53.1636 64.6812L53.8123 66.1947L53.7291 66.2612C52.5482 66.5939 51.4006 67.0097 50.2863 67.4754L50.1865 67.4255C49.4547 66.6271 48.7395 65.7623 48.1741 64.8808C48.041 64.4484 47.5254 64.6978 47.226 64.6479C47.8581 65.7789 48.6896 66.7768 49.5212 67.808C48.8227 68.2238 48.1075 68.6729 47.3757 69.0221C45.8123 67.8413 44.3487 66.2945 43.251 64.6812C42.935 64.6313 42.7354 64.6479 42.4194 64.6812C44.2988 67.6084 47.226 70.1864 50.2863 71.6999C50.2863 71.6999 50.2863 71.6832 50.3196 71.6832C50.3362 71.6832 50.4027 71.7331 50.3362 71.7664C52.3986 72.7643 54.594 73.4795 56.9224 73.7955C64.9556 74.8433 72.6063 71.4337 77.0636 64.6978C76.8308 64.6646 76.4815 64.6646 76.232 64.6978V64.6812Z" fill="white"/>
<path d="M48.0743 38.1534C49.7208 36.9393 51.5503 36.0412 53.4963 35.4258C53.5794 35.3426 53.6293 35.2761 53.7291 35.2761V35.326C53.9453 35.3759 54.095 35.1431 54.2779 35.2927C54.4276 35.4258 54.6272 35.5256 54.7436 35.6586C53.1304 36.6566 51.5337 37.8374 50.0701 39.2844C49.3715 39.0349 48.7063 38.6524 48.0743 38.2033V38.1534ZM64.0242 34.9767V35.0266C61.7457 36.6732 58.07 36.8229 55.6584 35.3094C55.5253 35.2096 55.2592 35.1597 55.2426 34.9767C58.0201 34.3447 61.28 34.2782 64.0242 34.9767ZM65.072 35.2262C67.2674 35.7917 69.3298 36.773 71.2092 38.1035L71.1593 38.2033L69.363 39.2012H69.23C67.8495 37.8208 66.2196 36.6067 64.5731 35.6586C64.623 35.4757 64.8891 35.3426 65.072 35.2262ZM68.415 39.617C67.4005 40.0495 66.3527 40.4652 65.2217 40.6981C64.4068 39.3343 63.5253 37.9705 62.5274 36.6566C62.8933 36.457 63.3423 36.3073 63.7248 36.0911C65.4213 36.9393 67.0679 38.1368 68.4649 39.5339L68.415 39.617ZM60.0658 41.4299C60.0159 40.0661 60.0326 38.5526 60.0658 37.1389C60.5814 37.0557 61.1635 36.9892 61.6791 36.906C62.6937 38.1867 63.6916 39.5006 64.3735 40.9143C62.9598 41.2469 61.5294 41.4299 60.0492 41.4299H60.0658ZM59.2675 41.3966C58.5357 41.4964 57.8871 41.38 57.1553 41.3135C56.4567 41.2137 55.5586 41.1305 54.8601 40.8977C55.6251 39.484 56.5066 38.1202 57.5877 36.8728L59.2675 37.1056C59.3507 38.4362 59.2841 39.9829 59.2841 41.3966H59.2675ZM54.0617 40.6981H53.9619C52.8975 40.4486 51.8497 40.0993 50.8518 39.6669L50.9017 39.5172C52.3487 38.1534 53.8622 37.0225 55.5253 36.1576C55.9245 36.3073 56.307 36.4403 56.7062 36.6233L56.623 36.8229C55.6251 38.0536 54.8434 39.4008 54.0617 40.7147V40.6981ZM43.2011 42.96C43.8331 42.0785 44.5317 41.2469 45.3134 40.4154C45.9953 39.7667 46.6273 39.1513 47.3591 38.6856C48.041 39.1181 48.8061 39.484 49.4547 39.8998C48.6397 40.8977 47.8082 41.8956 47.2094 42.9767C47.3924 43.0598 47.725 43.0266 47.9911 42.9767C48.6397 42.0286 49.3549 41.0806 50.1865 40.2324C51.3008 40.6482 52.4152 41.0806 53.5628 41.3966L53.6626 41.4964L53.0139 42.9933C53.2967 43.0432 53.4796 43.0266 53.779 42.9933C54.0118 42.5609 54.1948 42.0785 54.4609 41.6295C55.9744 41.9621 57.5711 42.1451 59.201 42.195C59.4172 42.3779 59.2509 42.7604 59.334 42.9933H60.0326C60.1157 42.7438 60.0159 42.4611 60.1157 42.2282C61.6292 42.1451 63.2259 41.9954 64.6895 41.6295L64.8225 41.6627L65.5211 42.9933C65.7539 42.9933 66.0699 43.0432 66.2529 42.9434L65.6042 41.4632L65.6541 41.4133C66.8516 41.0973 67.9826 40.6482 69.1302 40.1825C69.9452 41.0307 70.6936 42.0286 71.3755 43.0099C71.6582 43.0099 71.9576 43.0432 72.1572 42.96C71.8412 42.3945 71.442 41.8291 71.0262 41.3467C70.677 40.8644 70.3277 40.432 69.8786 39.9663V39.8332L71.7081 38.7854L71.9743 38.6856C73.5709 39.8998 74.9846 41.3634 76.099 42.9767C76.415 42.9767 76.6811 43.0765 76.9305 42.96C73.4212 37.721 67.65 34.3447 61.3964 33.8624L61.3631 33.9123L61.3132 33.8624C60.6147 33.7792 59.7498 33.7626 58.9848 33.8291C58.702 33.8125 58.3528 33.8291 58.0201 33.8624C51.7499 34.3447 45.962 37.5547 42.3529 43.0266C42.619 42.9933 42.935 43.1097 43.1845 42.9933L43.2011 42.96Z" fill="white"/>
<path d="M59.2841 58.7104C56.8226 59.3757 54.1615 58.8767 52.3819 57.0139C52.1823 56.7645 52.0493 56.4485 51.833 56.199L48.3071 56.2322C48.2572 58.3112 48.2239 60.7062 48.3071 62.7519L52.2322 62.7187L52.2821 61.4879C52.7312 61.6875 53.1802 61.9536 53.6127 62.1865C56.3403 63.3174 59.833 63.5835 62.5273 62.1865C64.4899 61.1054 65.5377 59.0264 65.255 56.7811C64.9722 54.6023 62.8766 52.6231 60.7644 52.0743L54.4276 50.2448L53.9619 50.0119C53.7457 49.829 53.6127 49.6128 53.6792 49.3134C54.1781 48.4652 55.3257 48.7313 56.1906 48.7479C58.0201 48.9974 59.8995 49.6294 60.9806 51.2926C62.1282 51.2926 63.4587 51.3092 64.7227 51.2593C64.7726 49.1471 64.7061 47.3009 64.6728 45.1721C63.492 45.1388 62.0616 45.1388 60.8808 45.2053C60.8309 45.5047 60.9307 45.9538 60.7976 46.2531L59.6001 45.6045C56.7228 44.3904 52.6979 44.2739 50.0867 46.1533C48.3903 47.3841 47.858 49.5961 48.3071 51.5421C48.6397 53.3882 50.4193 54.752 52.1324 55.4007C54.4609 56.2156 56.8891 56.8144 59.2509 57.6127C59.4837 57.7125 59.7997 57.9453 59.7498 58.2281C59.7498 58.4609 59.517 58.594 59.334 58.6938" fill="white"/>
<path fill-rule="evenodd" clip-rule="evenodd" d="M30.5942 25.1473L31.6087 26.1618C32.8228 27.3926 32.773 28.8229 31.3426 30.22C29.9123 31.6337 28.4819 31.667 27.2678 30.4362L23.3261 26.4612C22.1119 25.2304 22.1618 23.8001 23.5755 22.403C25.0059 20.9893 26.4362 20.956 27.6503 22.1868L28.3821 22.9352L27.0183 24.299L26.2034 23.4841C25.6545 22.9352 25.1722 23.0184 24.7065 23.4841C24.2408 23.9331 24.1576 24.4321 24.7065 24.981L28.7979 29.1223C29.3468 29.6711 29.8291 29.5713 30.2782 29.1223C30.7439 28.6732 30.827 28.1743 30.2782 27.6421L29.1971 26.5443L30.5609 25.1805L30.5942 25.1473Z" fill="#131F2C"/>
<path fill-rule="evenodd" clip-rule="evenodd" d="M34.5526 19.5756L36.9309 18.0954L37.7459 19.4093L35.3675 20.8729L37.0307 23.5673L40.0244 21.7045L40.8394 23.0018L36.0993 25.9456L30.4279 16.7981L35.1513 13.8542L35.9663 15.1682L32.9725 17.0143L34.5526 19.5756Z" fill="#131F2C"/>
<path fill-rule="evenodd" clip-rule="evenodd" d="M42.8685 12.158L43.9329 15.3014L44.6813 15.0519C45.3965 14.8025 45.7458 14.4033 45.4797 13.5883L45.147 12.5738C44.8976 11.842 44.4984 11.6258 43.7999 11.8586L42.8685 12.1746V12.158ZM47.9412 20.1912C47.7416 19.9583 47.6252 19.8253 47.3424 18.9937L46.7936 17.397C46.4776 16.449 45.962 16.2328 45.0971 16.5322L44.4319 16.765L45.8289 20.923L43.8996 21.5716L40.4568 11.3597L43.3674 10.3784C45.3799 9.69649 46.4942 10.1788 47.0264 11.7588L47.2925 12.5572C47.6418 13.605 47.4755 14.4199 46.7271 15.0353V15.0686C47.8248 15.0686 48.3902 15.7339 48.7561 16.7983L49.2884 18.3783C49.4547 18.8773 49.6044 19.2265 49.9204 19.5425L47.9578 20.2078L47.9412 20.1912Z" fill="#131F2C"/>
<path fill-rule="evenodd" clip-rule="evenodd" d="M51.4506 8.26601L57.7374 7.65063L57.8871 9.18077L55.7582 9.38035L56.673 18.5778L54.6272 18.7773L53.7291 9.59656L51.6002 9.79614L51.4506 8.26601Z" fill="#131F2C"/>
<path d="M63.0356 7.7959L62.1263 18.5349L64.1647 18.7075L65.074 7.9685L63.0356 7.7959Z" fill="#131F2C"/>
<path fill-rule="evenodd" clip-rule="evenodd" d="M71.5917 14.0372L74.1197 14.7358L73.7206 16.216L71.1759 15.5175L69.995 19.8085L68.0325 19.2763L70.8765 8.88135L76.0823 10.3117L75.6831 11.7919L72.4399 10.9104L71.5917 14.0372Z" fill="#131F2C"/>
<path d="M81.072 12.3683L76.3695 22.0657L78.2102 22.9583L82.9127 13.2609L81.072 12.3683Z" fill="#131F2C"/>
<path fill-rule="evenodd" clip-rule="evenodd" d="M86.9762 21.056L89.2215 22.7192L88.3067 23.9665L86.0614 22.2867L84.182 24.8314L87.0094 26.927L86.0947 28.1578L81.6207 24.848L88.0406 16.1995L92.5146 19.5092L91.5998 20.74L88.7558 18.6443L86.9762 21.056Z" fill="#131F2C"/>
<path fill-rule="evenodd" clip-rule="evenodd" d="M96.9387 26.062L91.0677 31.035L91.8161 31.9165C92.2319 32.4154 92.6976 32.5318 93.2797 32.0329L97.5541 28.4071C98.1362 27.9082 98.1029 27.4259 97.6871 26.9435L96.9387 26.062ZM96.789 23.5007L98.8846 25.9622C100.199 27.5256 100.132 28.8895 98.8181 30.0038L94.6601 33.5297C93.3462 34.6441 91.9824 34.4944 90.6685 32.931L88.5729 30.4695L96.789 23.5007Z" fill="#131F2C"/>
<path fill-rule="evenodd" clip-rule="evenodd" d="M28.4819 94.3026L27.3343 95.2839C25.9539 96.4648 24.457 96.3151 23.0932 94.7184C21.7127 93.1218 21.7793 91.6249 23.1597 90.4274L27.6171 86.5854C28.9975 85.4046 30.4944 85.5543 31.8582 87.1509C33.2386 88.7476 33.1721 90.2445 31.7916 91.4419L30.9601 92.1571L29.6295 90.627L30.5443 89.8287C31.1596 89.2964 31.1097 88.7809 30.6607 88.2486C30.2116 87.733 29.696 87.6 29.0807 88.1322L24.4404 92.1239C23.825 92.6561 23.8915 93.1717 24.3406 93.6873C24.7896 94.2028 25.2886 94.3359 25.904 93.8037L27.1347 92.7392L28.4653 94.2694L28.4819 94.3026Z" fill="#131F2C"/>
<path fill-rule="evenodd" clip-rule="evenodd" d="M33.538 100.523C33.089 101.205 33.2719 101.687 33.8541 102.07C34.4195 102.452 34.9518 102.436 35.4008 101.754L38.7937 96.6477C39.2428 95.9658 39.0598 95.4834 38.4777 95.1009C37.9122 94.7184 37.38 94.735 36.9309 95.4169L33.538 100.506V100.523ZM35.0848 94.3358C36.0827 92.8223 37.6295 92.6061 39.3758 93.7704C41.1388 94.9346 41.5213 96.4315 40.5068 97.945L37.247 102.851C36.249 104.365 34.7023 104.581 32.9559 103.417C31.193 102.253 30.8104 100.756 31.825 99.2422L35.0848 94.3358Z" fill="#131F2C"/>
<path fill-rule="evenodd" clip-rule="evenodd" d="M47.6585 106.427L47.7084 106.444L51.251 99.0759L54.1283 99.8743L51.0847 110.801L49.1387 110.253L51.3175 102.419L51.2676 102.402L47.7084 109.853L45.7458 109.305L46.3945 101.172L46.3446 101.155L44.2157 108.889L42.4028 108.373L45.4298 97.4626L48.3071 98.261L47.6585 106.427Z" fill="#131F2C"/>
<path fill-rule="evenodd" clip-rule="evenodd" d="M60.3819 101.621L60.5316 105.463L61.5461 105.429C62.228 105.396 62.5939 105.13 62.5606 104.315L62.4941 102.619C62.4609 101.804 62.0783 101.571 61.3964 101.587L60.3819 101.621ZM64.6396 102.652L64.6895 104.132C64.756 105.945 63.7415 106.976 61.596 107.043L60.5814 107.076L60.7478 111.334L58.6023 111.417L58.1865 100.09L61.3465 99.974C63.492 99.8909 64.5897 100.839 64.6563 102.652H64.6396Z" fill="#131F2C"/>
<path fill-rule="evenodd" clip-rule="evenodd" d="M72.0075 106.028L73.9867 105.413L71.2924 100.257H71.2591L72.0075 106.045V106.028ZM77.7622 107.991L75.6998 108.639L74.7352 106.793L72.2237 107.591L72.4899 109.67L70.6105 110.269L69.2799 98.7932L72.2736 97.8452L77.7622 107.991Z" fill="#131F2C"/>
<path fill-rule="evenodd" clip-rule="evenodd" d="M80.839 97.0968L80.8224 97.1135L85.4128 103.916L83.8161 104.997L77.4628 95.6166L79.6914 94.1031L85.2964 98.5105L85.3296 98.4939L81.5209 92.8723L83.101 91.7913L89.4543 101.188L87.6248 102.419L80.839 97.0968Z" fill="#131F2C"/>
<path fill-rule="evenodd" clip-rule="evenodd" d="M93.1799 92.3567L85.6124 89.5958L87.0593 87.8661L92.0655 89.9284L92.0822 89.8952L89.155 85.3547L90.4522 83.7747L94.5437 90.7101L97.4376 93.1051L96.0738 94.7517L93.1799 92.3567Z" fill="#131F2C"/>
<path d="M75.6499 83.0929H76.7476V83.1594C76.7476 83.6251 76.7975 83.9577 76.8806 84.1407C76.9804 84.3236 77.1468 84.4234 77.3796 84.4234C77.6125 84.4234 77.7788 84.3403 77.8619 84.1739C77.9617 84.0076 77.995 83.7249 77.995 83.2925C77.995 82.86 77.9451 82.5939 77.8287 82.4609C77.7122 82.3278 77.496 82.2613 77.1634 82.2613C77.0969 82.2613 77.0303 82.2613 76.9804 82.2613C76.9305 82.2613 76.8806 82.2613 76.8308 82.2613V81.4463H76.9139C77.2798 81.4463 77.5459 81.3798 77.679 81.2634C77.812 81.1303 77.8952 80.9141 77.8952 80.5648C77.8952 80.2488 77.8453 80.0326 77.7788 79.9162C77.6956 79.7998 77.5459 79.7332 77.3463 79.7332C77.1468 79.7332 77.0137 79.7998 76.9305 79.9328C76.8474 80.0659 76.7975 80.2987 76.7975 80.5981V80.7478H75.7164C75.7164 80.7478 75.7164 80.6979 75.7164 80.6646C75.7164 80.6314 75.7164 80.5815 75.7164 80.5149C75.7164 79.9661 75.8661 79.5669 76.1488 79.3008C76.4316 79.0347 76.8474 78.9016 77.4129 78.9016C77.9285 78.9016 78.3276 79.0347 78.6104 79.3174C78.8931 79.6002 79.0262 79.9993 79.0262 80.5149C79.0262 80.8642 78.9596 81.1469 78.8432 81.3798C78.7268 81.596 78.5438 81.7457 78.311 81.8288C78.6104 81.8954 78.8266 82.0617 78.9596 82.2945C79.1093 82.544 79.1758 82.8767 79.1758 83.3091C79.1758 83.991 79.0262 84.4899 78.7268 84.8226C78.4274 85.1552 77.9784 85.3215 77.363 85.3215C76.7476 85.3215 76.3484 85.1552 76.0823 84.8392C75.7996 84.5232 75.6665 84.0243 75.6665 83.3423C75.6665 83.3091 75.6665 83.2758 75.6665 83.2093C75.6665 83.1594 75.6665 83.1095 75.6665 83.0929M72.9056 85.2051V80.7977H71.5252V80.0492C72.0408 80.0326 72.4399 79.9328 72.7227 79.7332C73.0054 79.5336 73.1884 79.2675 73.2383 78.9016H74.0033V85.2051H72.9056ZM67.334 82.0617C67.334 81.3133 67.3506 80.7644 67.4005 80.3985C67.4504 80.0326 67.5335 79.7665 67.6333 79.5835C67.783 79.3341 67.966 79.1677 68.1822 79.0513C68.3984 78.9349 68.6978 78.885 69.047 78.885C69.3963 78.885 69.6791 78.9349 69.9119 79.0513C70.1281 79.1677 70.3277 79.3341 70.4607 79.5835C70.5772 79.7665 70.6603 80.0326 70.6936 80.3985C70.7435 80.7644 70.7601 81.3133 70.7601 82.0617C70.7601 82.8101 70.7435 83.3922 70.6936 83.7415C70.6437 84.1074 70.5772 84.3735 70.4607 84.5565C70.3111 84.8226 70.1281 85.0055 69.8953 85.122C69.6624 85.2384 69.3797 85.3049 69.0304 85.3049C68.6811 85.3049 68.3984 85.2384 68.1656 85.122C67.9327 85.0055 67.7498 84.806 67.6001 84.5565C67.5003 84.3735 67.4171 84.1074 67.3672 83.7581C67.3173 83.4089 67.3007 82.8434 67.3007 82.0451L67.334 82.0617ZM69.6125 82.6272V80.9307C69.6125 80.4318 69.5793 80.1158 69.4961 79.9661C69.4129 79.8164 69.2633 79.7499 69.0637 79.7499C68.8641 79.7499 68.6978 79.8164 68.6312 79.9661C68.5481 80.1158 68.5148 80.4484 68.5148 80.964V83.2592C68.5148 83.7581 68.5481 84.0741 68.6312 84.2238C68.7144 84.3735 68.8641 84.4401 69.0637 84.4401C69.2633 84.4401 69.4296 84.3569 69.4961 84.2238C69.5793 84.0741 69.6125 83.7415 69.6125 83.2093V82.6105V82.6272ZM63.176 85.2051C63.176 85.2051 63.176 85.1552 63.176 85.1053C63.176 85.0554 63.176 85.0222 63.176 85.0055C63.176 84.5232 63.2758 84.0575 63.4754 83.6251C63.675 83.176 63.9743 82.7602 64.3735 82.3444C64.44 82.2779 64.5564 82.1615 64.7061 82.0284C64.9722 81.7623 65.1552 81.5794 65.2383 81.4463C65.3215 81.3299 65.3714 81.1968 65.4213 81.0472C65.4546 80.8975 65.4878 80.7478 65.4878 80.5648C65.4878 80.2987 65.4379 80.0991 65.3548 79.9827C65.255 79.8497 65.1053 79.7831 64.9223 79.7831C64.7394 79.7831 64.5564 79.8663 64.4733 80.016C64.3735 80.1657 64.3236 80.4318 64.3236 80.7644C64.3236 80.8309 64.3236 80.8808 64.3236 80.9141C64.3236 80.9474 64.3236 80.9806 64.3236 81.0139H63.2259C63.2259 81.0139 63.2259 80.9474 63.2259 80.8975C63.2259 80.8476 63.2259 80.8143 63.2259 80.7977C63.2259 80.149 63.3589 79.6667 63.6417 79.3673C63.9244 79.068 64.3569 78.9183 64.9556 78.9183C65.5211 78.9183 65.9369 79.0513 66.2363 79.3341C66.5356 79.6002 66.6853 79.9993 66.6853 80.5149C66.6853 80.7644 66.6521 80.9806 66.6022 81.1802C66.5523 81.3798 66.4691 81.5794 66.3527 81.7623C66.2695 81.912 66.0699 82.1282 65.7706 82.4442C65.6209 82.5939 65.4878 82.727 65.4047 82.8268C64.8059 83.492 64.4733 83.9577 64.3901 84.2238H66.6022V85.2218H63.2093L63.176 85.2051ZM61.1469 85.2051V84.0741H62.1947V85.2051H61.1469ZM61.1469 81.6958V80.5648H62.1947V81.6958H61.1469ZM58.1365 85.2051V80.7977H56.7561V80.0492C57.2717 80.0326 57.6709 79.9328 57.9536 79.7332C58.2363 79.5336 58.4193 79.2675 58.4692 78.9016H59.2342V85.2051H58.1365ZM52.5649 82.0617C52.5649 81.3133 52.5815 80.7644 52.6314 80.3985C52.6813 80.0326 52.7645 79.7665 52.8642 79.5835C53.0139 79.3341 53.1969 79.1677 53.4131 79.0513C53.6293 78.9349 53.9287 78.885 54.2779 78.885C54.6272 78.885 54.91 78.9349 55.1428 79.0513C55.359 79.1677 55.5586 79.3341 55.6917 79.5835C55.8081 79.7665 55.8912 80.0326 55.9245 80.3985C55.9744 80.7644 55.991 81.3133 55.991 82.0617C55.991 82.8101 55.9744 83.3922 55.9245 83.7415C55.8746 84.1074 55.8081 84.3735 55.6917 84.5565C55.542 84.8226 55.359 85.0055 55.1262 85.122C54.8933 85.2384 54.6106 85.3049 54.2613 85.3049C53.9121 85.3049 53.6293 85.2384 53.3965 85.122C53.1636 85.0055 52.9807 84.806 52.831 84.5565C52.7312 84.3735 52.648 84.1074 52.5981 83.7581C52.5482 83.4089 52.5316 82.8434 52.5316 82.0451L52.5649 82.0617ZM54.8434 82.6272V80.9307C54.8434 80.4318 54.8102 80.1158 54.727 79.9661C54.6439 79.8164 54.4942 79.7499 54.2946 79.7499C54.095 79.7499 53.9287 79.8164 53.8622 79.9661C53.779 80.1158 53.7457 80.4484 53.7457 80.964V83.2592C53.7457 83.7581 53.779 84.0741 53.8622 84.2238C53.9453 84.3735 54.095 84.4401 54.2946 84.4401C54.4942 84.4401 54.6605 84.3569 54.727 84.2238C54.8102 84.0741 54.8434 83.7415 54.8434 83.2093V82.6105V82.6272ZM48.4069 82.0617C48.4069 81.3133 48.4235 80.7644 48.4734 80.3985C48.5233 80.0326 48.6065 79.7665 48.7063 79.5835C48.856 79.3341 49.0389 79.1677 49.2551 79.0513C49.4713 78.9349 49.7707 78.885 50.12 78.885C50.4693 78.885 50.752 78.9349 50.9848 79.0513C51.2011 79.1677 51.4006 79.3341 51.5337 79.5835C51.6501 79.7665 51.7166 80.0326 51.7665 80.3985C51.8164 80.7644 51.8331 81.3133 51.8331 82.0617C51.8331 82.8101 51.8164 83.3922 51.7665 83.7415C51.7166 84.1074 51.6501 84.3735 51.5337 84.5565C51.384 84.8226 51.2011 85.0055 50.9682 85.122C50.7354 85.2384 50.4526 85.3049 50.1034 85.3049C49.7541 85.3049 49.4713 85.2384 49.2385 85.122C49.0057 85.0055 48.8227 84.806 48.673 84.5565C48.5732 84.3735 48.4901 84.1074 48.4402 83.7581C48.3903 83.4089 48.3736 82.8434 48.3736 82.0451L48.4069 82.0617ZM50.6855 82.6272V80.9307C50.6855 80.4318 50.6522 80.1158 50.569 79.9661C50.4859 79.8164 50.3362 79.7499 50.1366 79.7499C49.937 79.7499 49.7707 79.8164 49.7042 79.9661C49.621 80.1158 49.5878 80.4484 49.5878 80.964V83.2592C49.5878 83.7581 49.621 84.0741 49.7042 84.2238C49.7873 84.3735 49.937 84.4401 50.1366 84.4401C50.3362 84.4401 50.5025 84.3569 50.569 84.2238C50.6522 84.0741 50.6855 83.7415 50.6855 83.2093V82.6105V82.6272ZM44.9807 85.2051C45.0473 84.4234 45.197 83.6085 45.4631 82.7436C45.7292 81.8787 46.0951 80.9806 46.5608 80.0492H44.2157V79.0181H47.6751V79.9162C47.2427 80.6979 46.91 81.5461 46.6606 82.4276C46.4111 83.3091 46.2448 84.2405 46.1782 85.2051H44.9807ZM40.0743 85.2051C40.0743 85.2051 40.0743 85.1552 40.0743 85.1053C40.0743 85.0554 40.0743 85.0222 40.0743 85.0055C40.0743 84.5232 40.1741 84.0575 40.3737 83.6251C40.5733 83.176 40.8727 82.7602 41.2718 82.3444C41.3384 82.2779 41.4548 82.1615 41.6045 82.0284C41.8706 81.7623 42.0535 81.5794 42.1367 81.4463C42.2199 81.3299 42.2697 81.1968 42.3196 81.0472C42.3529 80.8975 42.3862 80.7478 42.3862 80.5648C42.3862 80.2987 42.3363 80.0991 42.2365 79.9827C42.1367 79.8497 41.987 79.7831 41.8041 79.7831C41.6211 79.7831 41.4382 79.8663 41.355 80.016C41.2552 80.1657 41.2053 80.4318 41.2053 80.7644C41.2053 80.8309 41.2053 80.8808 41.2053 80.9141C41.2053 80.9474 41.2053 80.9806 41.2053 81.0139H40.1076C40.1076 81.0139 40.1076 80.9474 40.1076 80.8975C40.1076 80.8476 40.1076 80.8143 40.1076 80.7977C40.1076 80.149 40.2407 79.6667 40.5234 79.3673C40.8061 79.068 41.2386 78.9183 41.8373 78.9183C42.4028 78.9183 42.8186 79.0513 43.118 79.3341C43.4173 79.6002 43.567 79.9993 43.567 80.5149C43.567 80.7644 43.5338 80.9806 43.4839 81.1802C43.434 81.3798 43.3508 81.5794 43.2344 81.7623C43.1512 81.912 42.9517 82.1282 42.6523 82.4442C42.5026 82.5939 42.3695 82.727 42.2864 82.8268C41.6876 83.492 41.355 83.9577 41.2718 84.2238H43.4839V85.2218H40.091L40.0743 85.2051Z" fill="white"/>
</g>
<defs>
<clipPath id="clip0_54_160">
<rect width="117.87" height="117.87" fill="white" transform="translate(0.73999)"/>
</clipPath>
</defs>
</svg>
