<?xml version="1.0" encoding="UTF-8"?>
<svg id="Camada_2" data-name="Camada 2" xmlns="http://www.w3.org/2000/svg" viewBox="0 0 238.87 273.69">
  <defs>
    <style>
      .cls-1 {
        fill: none;
        opacity: .05;
        stroke: #666c85;
      }

      .cls-1, .cls-2 {
        stroke-miterlimit: 10;
      }

      .cls-3 {
        fill: #666c85;
        opacity: .1;
      }

      .cls-2 {
        fill: #fff;
        stroke: #fabe69;
        stroke-width: 1.42px;
      }
    </style>
  </defs>
  <g id="Camada_1-2" data-name="Camada 1">
    <g id="hexagono_mestre" data-name="hexagono mestre">
      <path class="cls-3" d="M233.38,199.08v-124.48c0-2.19-1.17-4.22-3.07-5.32L122.51,7.05c-1.9-1.1-4.24-1.1-6.14,0L8.56,69.29c-1.9,1.1-3.07,3.12-3.07,5.32v124.48c0,2.19,1.17,4.22,3.07,5.32l107.8,62.24c1.9,1.1,4.24,1.1,6.14,0l107.8-62.24c1.9-1.1,3.07-3.12,3.07-5.32Z"/>
      <path class="cls-1" d="M238.37,201.81V71.88c0-2.29-1.22-4.41-3.2-5.55L122.64,1.36c-1.98-1.14-4.43-1.14-6.41,0L3.7,66.33c-1.98,1.14-3.2,3.26-3.2,5.55v129.93c0,2.29,1.22,4.41,3.2,5.55l112.53,64.97c1.98,1.14,4.43,1.14,6.41,0l112.53-64.97c1.98-1.14,3.2-3.26,3.2-5.55Z"/>
      <path class="cls-2" d="M224.65,194.32v-114.94c0-2.03-1.08-3.9-2.83-4.91L122.27,16.99c-1.75-1.01-3.92-1.01-5.67,0L17.06,74.46c-1.75,1.01-2.83,2.88-2.83,4.91v114.94c0,2.03,1.08,3.9,2.83,4.91l99.55,57.47c1.75,1.01,3.92,1.01,5.67,0l99.55-57.47c1.75-1.01,2.83-2.88,2.83-4.91Z"/>
    </g>
  </g>
</svg>