<svg width="24" height="25" viewBox="0 0 24 25" fill="none" xmlns="http://www.w3.org/2000/svg">
<g clip-path="url(#clip0_55_454)">
<path d="M1.36824 2.17959L12.4791 13.0062L1.45087 23.9327C1.27045 23.6992 1.13039 23.4375 1.03644 23.1584C0.987853 22.8423 0.987853 22.5207 1.03644 22.2047V3.61077C1.00339 3.11182 1.11907 2.61286 1.36697 2.17959M17.2654 8.28451L13.6385 11.8542L2.65985 1.12611C3.01581 1.00358 3.39719 0.969475 3.76967 1.02758C4.35445 1.18674 4.91254 1.4318 5.42486 1.75138L15.3611 7.2146C16.0069 7.55945 16.6362 7.92198 17.2654 8.28451ZM13.6398 14.1747L17.2489 17.6964L14.6327 19.144L6.65036 23.5525C5.9893 23.915 5.3257 24.2611 4.6799 24.6565C4.40356 24.8274 4.09369 24.9378 3.771 24.9803C3.4483 25.0228 3.12019 24.9964 2.80859 24.9028L13.6398 14.1747ZM22.9963 13.0062C23.0056 13.4479 22.8933 13.8838 22.6715 14.2667C22.4497 14.6496 22.1268 14.965 21.7378 15.1789L18.7554 16.8236L14.831 13.0062L18.7719 9.12325C19.7826 9.68284 20.7767 10.2424 21.7695 10.7692C22.1655 10.9891 22.4907 11.3159 22.7076 11.7118C22.9245 12.1076 23.0254 12.5564 22.9963 13.0062Z" fill="white"/>
</g>
<defs>
<clipPath id="clip0_55_454">
<rect width="24" height="24" fill="white" transform="translate(0 0.870117)"/>
</clipPath>
</defs>
</svg>
