<svg width="24" height="25" viewBox="0 0 24 25" fill="none" xmlns="http://www.w3.org/2000/svg">
<g clip-path="url(#clip0_55_452)">
<path fill-rule="evenodd" clip-rule="evenodd" d="M12 0.688477C18.6276 0.688477 24 6.06088 24 12.6885C24 19.3161 18.6276 24.6885 12 24.6885C5.3724 24.6885 0 19.3161 0 12.6885C0 6.06088 5.3724 0.688477 12 0.688477ZM12.6 13.8885H5.16C4.84174 13.8885 4.53652 14.0149 4.31147 14.2399C4.08643 14.465 3.96 14.7702 3.96 15.0885C3.96 15.4067 4.08643 15.712 4.31147 15.937C4.53652 16.162 4.84174 16.2885 5.16 16.2885H5.7768L5.4324 16.9017C5.35534 17.0392 5.30613 17.1907 5.28759 17.3472C5.26904 17.5038 5.28152 17.6625 5.3243 17.8143C5.36709 17.9661 5.43936 18.1079 5.53697 18.2318C5.63458 18.3556 5.75563 18.459 5.8932 18.5361C6.03077 18.6131 6.18218 18.6623 6.33877 18.6809C6.49536 18.6994 6.65407 18.687 6.80583 18.6442C6.9576 18.6014 7.09946 18.5291 7.2233 18.4315C7.34714 18.3339 7.45054 18.2129 7.5276 18.0753L8.5272 16.2885H12.6C12.9183 16.2885 13.2235 16.162 13.4485 15.937C13.6736 15.712 13.8 15.4067 13.8 15.0885C13.8 14.7702 13.6736 14.465 13.4485 14.2399C13.2235 14.0149 12.9183 13.8885 12.6 13.8885ZM14.8716 10.3029C14.7233 10.0333 14.4772 9.83095 14.184 9.73765C13.8908 9.64435 13.573 9.66722 13.2962 9.80154C13.0194 9.93585 12.8048 10.1714 12.6967 10.4594C12.5885 10.7474 12.5952 11.066 12.7152 11.3493L12.7776 11.4753L16.4736 18.0753C16.6233 18.3421 16.8693 18.5417 17.1612 18.6333C17.4532 18.7248 17.7691 18.7013 18.0443 18.5677C18.3196 18.4341 18.5334 18.2003 18.642 17.9143C18.7506 17.6283 18.7459 17.3115 18.6288 17.0289L18.5664 16.9017L18.2232 16.2897H18.84C19.1477 16.2921 19.4446 16.1762 19.6693 15.966C19.894 15.7557 20.0294 15.4672 20.0474 15.16C20.0654 14.8528 19.9648 14.5504 19.7662 14.3153C19.5676 14.0803 19.2863 13.9304 18.9804 13.8969L18.84 13.8885H16.8792L14.8716 10.3029ZM11.8476 4.90288C11.6993 4.63329 11.4532 4.43095 11.16 4.33765C10.8668 4.24435 10.549 4.26722 10.2722 4.40154C9.99544 4.53586 9.78081 4.77136 9.67268 5.05939C9.56455 5.34743 9.57118 5.66599 9.6912 5.94928L9.7524 6.07528L10.6248 7.63168L8.4564 11.5029C8.30552 11.7702 8.2628 12.0851 8.33703 12.3829C8.41125 12.6808 8.59678 12.9388 8.85545 13.1041C9.11412 13.2693 9.42627 13.3291 9.7277 13.2712C10.0291 13.2133 10.2969 13.0422 10.476 12.7929L10.5516 12.6753L14.2476 6.07528C14.4005 5.8079 14.4447 5.49197 14.3712 5.19287C14.2976 4.89378 14.1118 4.63444 13.8523 4.46852C13.5928 4.30261 13.2794 4.24284 12.9771 4.30158C12.6747 4.36032 12.4065 4.53307 12.228 4.78408L12.1536 4.90168L12 5.17648L11.8476 4.90288Z" fill="white"/>
</g>
<defs>
<clipPath id="clip0_55_452">
<rect width="24" height="24" fill="white" transform="translate(0 0.870117)"/>
</clipPath>
</defs>
</svg>
