<svg width="21" height="25" viewBox="0 0 21 25" fill="none" xmlns="http://www.w3.org/2000/svg">
<path d="M19.5 2.37012H1.49531C0.670312 2.37012 0 3.0498 0 3.88418V21.8561C0 22.6904 0.670312 23.3701 1.49531 23.3701H19.5C20.325 23.3701 21 22.6904 21 21.8561V3.88418C21 3.0498 20.325 2.37012 19.5 2.37012ZM6.34687 20.3701H3.23438V10.3482H6.35156V20.3701H6.34687ZM4.79062 8.97949C3.79219 8.97949 2.98594 8.16855 2.98594 7.1748C2.98594 6.18105 3.79219 5.37012 4.79062 5.37012C5.78437 5.37012 6.59531 6.18105 6.59531 7.1748C6.59531 8.17324 5.78906 8.97949 4.79062 8.97949ZM18.0141 20.3701H14.9016V15.4951C14.9016 14.3326 14.8781 12.8373 13.2844 12.8373C11.6625 12.8373 11.4141 14.1029 11.4141 15.4107V20.3701H8.30156V10.3482H11.2875V11.717H11.3297C11.7469 10.9295 12.7641 10.0998 14.2781 10.0998C17.4281 10.0998 18.0141 12.1764 18.0141 14.8764V20.3701Z" fill="white"/>
</svg>
